<svg width="494" height="146" viewBox="0 0 494 146" fill="none" xmlns="http://www.w3.org/2000/svg">
<path d="M484.972 134.273V143H483.915V135.381H483.864L481.733 136.795V135.722L483.915 134.273H484.972ZM490.209 143.119C489.709 143.119 489.259 143.02 488.858 142.821C488.457 142.622 488.136 142.349 487.895 142.003C487.653 141.656 487.521 141.261 487.499 140.818H488.521C488.561 141.213 488.74 141.54 489.058 141.798C489.379 142.054 489.763 142.182 490.209 142.182C490.567 142.182 490.885 142.098 491.163 141.93C491.445 141.763 491.665 141.533 491.824 141.24C491.986 140.945 492.067 140.611 492.067 140.239C492.067 139.858 491.983 139.518 491.815 139.22C491.651 138.919 491.423 138.682 491.134 138.509C490.844 138.335 490.513 138.247 490.141 138.244C489.874 138.241 489.599 138.283 489.318 138.368C489.037 138.45 488.805 138.557 488.624 138.688L487.635 138.568L488.163 134.273H492.697V135.21H489.05L488.743 137.784H488.794C488.973 137.642 489.197 137.524 489.467 137.43C489.737 137.337 490.018 137.29 490.311 137.29C490.845 137.29 491.321 137.418 491.739 137.673C492.159 137.926 492.489 138.273 492.727 138.713C492.969 139.153 493.089 139.656 493.089 140.222C493.089 140.778 492.964 141.276 492.714 141.713C492.467 142.148 492.126 142.491 491.692 142.744C491.257 142.994 490.763 143.119 490.209 143.119Z" fill="white" fill-opacity="0.74"/>
<rect x="189.5" y="22.5" width="49" height="29" stroke="white" stroke-opacity="0.74"/>
<rect x="444.5" y="22.5" width="49" height="29" stroke="white" stroke-opacity="0.74"/>
<rect x="87.5" y="22.5" width="49" height="29" stroke="white" stroke-opacity="0.74"/>
<rect x="138.5" y="22.5" width="49" height="29" stroke="white" stroke-opacity="0.74"/>
<rect x="393.5" y="22.5" width="49" height="29" stroke="white" stroke-opacity="0.74"/>
<rect x="342.5" y="22.5" width="49" height="29" stroke="white" stroke-opacity="0.74"/>
<rect x="291.5" y="22.5" width="49" height="29" stroke="white" stroke-opacity="0.74"/>
<rect x="240.5" y="22.5" width="49" height="29" stroke="white" stroke-opacity="0.74"/>
<path d="M105.972 32.2727V41H104.915V33.3807H104.864L102.733 34.7955V33.7216L104.915 32.2727H105.972ZM108.482 41V40.233L111.362 37.0795C111.7 36.7102 111.979 36.3892 112.197 36.1165C112.416 35.8409 112.578 35.5824 112.683 35.3409C112.791 35.0966 112.845 34.8409 112.845 34.5739C112.845 34.267 112.771 34.0014 112.624 33.777C112.479 33.5526 112.28 33.3793 112.027 33.2571C111.774 33.1349 111.49 33.0739 111.175 33.0739C110.839 33.0739 110.547 33.1435 110.297 33.2827C110.05 33.419 109.858 33.6108 109.722 33.858C109.588 34.1051 109.521 34.3949 109.521 34.7273H108.516C108.516 34.2159 108.634 33.767 108.869 33.3807C109.105 32.9943 109.426 32.6932 109.832 32.4773C110.241 32.2614 110.7 32.1534 111.209 32.1534C111.72 32.1534 112.173 32.2614 112.568 32.4773C112.963 32.6932 113.273 32.9844 113.497 33.3509C113.722 33.7173 113.834 34.125 113.834 34.5739C113.834 34.8949 113.776 35.2088 113.659 35.5156C113.545 35.8196 113.347 36.1591 113.062 36.5341C112.781 36.9062 112.391 37.3608 111.891 37.8977L109.93 39.9943V40.0625H113.987V41H108.482ZM118.543 41.1193C117.957 41.1193 117.44 41.0156 116.991 40.8082C116.545 40.598 116.197 40.3097 115.947 39.9432C115.697 39.5739 115.574 39.1534 115.577 38.6818C115.574 38.3125 115.646 37.9716 115.794 37.6591C115.942 37.3437 116.143 37.081 116.399 36.8707C116.658 36.6577 116.946 36.5227 117.264 36.4659V36.4148C116.847 36.3068 116.514 36.0724 116.267 35.7116C116.02 35.348 115.898 34.9347 115.901 34.4716C115.898 34.0284 116.01 33.6321 116.237 33.2827C116.464 32.9332 116.777 32.6577 117.175 32.456C117.575 32.2543 118.031 32.1534 118.543 32.1534C119.048 32.1534 119.5 32.2543 119.898 32.456C120.295 32.6577 120.608 32.9332 120.835 33.2827C121.065 33.6321 121.182 34.0284 121.185 34.4716C121.182 34.9347 121.055 35.348 120.805 35.7116C120.558 36.0724 120.23 36.3068 119.821 36.4148V36.4659C120.136 36.5227 120.42 36.6577 120.673 36.8707C120.926 37.081 121.128 37.3437 121.278 37.6591C121.429 37.9716 121.506 38.3125 121.509 38.6818C121.506 39.1534 121.378 39.5739 121.125 39.9432C120.875 40.3097 120.527 40.598 120.081 40.8082C119.638 41.0156 119.125 41.1193 118.543 41.1193ZM118.543 40.1818C118.938 40.1818 119.278 40.1179 119.565 39.9901C119.852 39.8622 120.074 39.6818 120.23 39.4489C120.386 39.2159 120.466 38.9432 120.469 38.6307C120.466 38.3011 120.381 38.0099 120.213 37.7571C120.045 37.5043 119.817 37.3054 119.527 37.1605C119.24 37.0156 118.912 36.9432 118.543 36.9432C118.17 36.9432 117.838 37.0156 117.545 37.1605C117.256 37.3054 117.027 37.5043 116.859 37.7571C116.695 38.0099 116.614 38.3011 116.616 38.6307C116.614 38.9432 116.689 39.2159 116.842 39.4489C116.999 39.6818 117.222 39.8622 117.511 39.9901C117.801 40.1179 118.145 40.1818 118.543 40.1818ZM118.543 36.0398C118.855 36.0398 119.132 35.9773 119.374 35.8523C119.618 35.7273 119.81 35.5526 119.949 35.3281C120.088 35.1037 120.159 34.8409 120.162 34.5398C120.159 34.2443 120.089 33.9872 119.953 33.7685C119.817 33.5469 119.628 33.3764 119.386 33.2571C119.145 33.1349 118.864 33.0739 118.543 33.0739C118.216 33.0739 117.93 33.1349 117.686 33.2571C117.442 33.3764 117.253 33.5469 117.119 33.7685C116.986 33.9872 116.92 34.2443 116.923 34.5398C116.92 34.8409 116.987 35.1037 117.124 35.3281C117.263 35.5526 117.455 35.7273 117.699 35.8523C117.943 35.9773 118.224 36.0398 118.543 36.0398Z" fill="white" fill-opacity="0.74"/>
<path d="M467.972 33.2727V42H466.915V34.3807H466.864L464.733 35.7955V34.7216L466.915 33.2727H467.972Z" fill="white" fill-opacity="0.74"/>
<path d="M412.903 41V40.233L415.784 37.0795C416.122 36.7102 416.401 36.3892 416.619 36.1165C416.838 35.8409 417 35.5824 417.105 35.3409C417.213 35.0966 417.267 34.8409 417.267 34.5739C417.267 34.267 417.193 34.0014 417.045 33.777C416.901 33.5526 416.702 33.3793 416.449 33.2571C416.196 33.1349 415.912 33.0739 415.597 33.0739C415.261 33.0739 414.969 33.1435 414.719 33.2827C414.472 33.419 414.28 33.6108 414.143 33.858C414.01 34.1051 413.943 34.3949 413.943 34.7273H412.938C412.938 34.2159 413.055 33.767 413.291 33.3807C413.527 32.9943 413.848 32.6932 414.254 32.4773C414.663 32.2614 415.122 32.1534 415.631 32.1534C416.142 32.1534 416.595 32.2614 416.99 32.4773C417.385 32.6932 417.695 32.9844 417.919 33.3509C418.143 33.7173 418.256 34.125 418.256 34.5739C418.256 34.8949 418.197 35.2088 418.081 35.5156C417.967 35.8196 417.768 36.1591 417.484 36.5341C417.203 36.9062 416.812 37.3608 416.312 37.8977L414.352 39.9943V40.0625H418.409V41H412.903Z" fill="white" fill-opacity="0.74"/>
<path d="M360.699 39.2102V38.3409L364.534 32.2727H365.165V33.6193H364.739L361.841 38.2045V38.2727H367.006V39.2102H360.699ZM364.807 41V38.946V38.5412V32.2727H365.812V41H364.807Z" fill="white" fill-opacity="0.74"/>
<path d="M314.699 41.1193C314.114 41.1193 313.597 41.0156 313.148 40.8082C312.702 40.598 312.354 40.3097 312.104 39.9432C311.854 39.5739 311.73 39.1534 311.733 38.6818C311.73 38.3125 311.803 37.9716 311.95 37.6591C312.098 37.3437 312.3 37.081 312.555 36.8707C312.814 36.6577 313.102 36.5227 313.42 36.4659V36.4148C313.003 36.3068 312.67 36.0724 312.423 35.7116C312.176 35.348 312.054 34.9347 312.057 34.4716C312.054 34.0284 312.166 33.6321 312.393 33.2827C312.621 32.9332 312.933 32.6577 313.331 32.456C313.732 32.2543 314.188 32.1534 314.699 32.1534C315.205 32.1534 315.656 32.2543 316.054 32.456C316.452 32.6577 316.764 32.9332 316.991 33.2827C317.222 33.6321 317.338 34.0284 317.341 34.4716C317.338 34.9347 317.212 35.348 316.962 35.7116C316.714 36.0724 316.386 36.3068 315.977 36.4148V36.4659C316.293 36.5227 316.577 36.6577 316.83 36.8707C317.082 37.081 317.284 37.3437 317.435 37.6591C317.585 37.9716 317.662 38.3125 317.665 38.6818C317.662 39.1534 317.534 39.5739 317.281 39.9432C317.031 40.3097 316.683 40.598 316.237 40.8082C315.794 41.0156 315.281 41.1193 314.699 41.1193ZM314.699 40.1818C315.094 40.1818 315.435 40.1179 315.722 39.9901C316.009 39.8622 316.23 39.6818 316.386 39.4489C316.543 39.2159 316.622 38.9432 316.625 38.6307C316.622 38.3011 316.537 38.0099 316.369 37.7571C316.202 37.5043 315.973 37.3054 315.683 37.1605C315.396 37.0156 315.068 36.9432 314.699 36.9432C314.327 36.9432 313.994 37.0156 313.702 37.1605C313.412 37.3054 313.183 37.5043 313.016 37.7571C312.851 38.0099 312.77 38.3011 312.773 38.6307C312.77 38.9432 312.845 39.2159 312.999 39.4489C313.155 39.6818 313.378 39.8622 313.668 39.9901C313.957 40.1179 314.301 40.1818 314.699 40.1818ZM314.699 36.0398C315.011 36.0398 315.288 35.9773 315.53 35.8523C315.774 35.7273 315.966 35.5526 316.105 35.3281C316.244 35.1037 316.315 34.8409 316.318 34.5398C316.315 34.2443 316.246 33.9872 316.109 33.7685C315.973 33.5469 315.784 33.3764 315.543 33.2571C315.301 33.1349 315.02 33.0739 314.699 33.0739C314.372 33.0739 314.087 33.1349 313.842 33.2571C313.598 33.3764 313.409 33.5469 313.276 33.7685C313.142 33.9872 313.077 34.2443 313.08 34.5398C313.077 34.8409 313.143 35.1037 313.28 35.3281C313.419 35.5526 313.611 35.7273 313.855 35.8523C314.099 35.9773 314.381 36.0398 314.699 36.0398Z" fill="white" fill-opacity="0.74"/>
<path d="M260.972 32.2727V41H259.915V33.3807H259.864L257.733 34.7955V33.7216L259.915 32.2727H260.972ZM266.379 41.1193C266.021 41.1136 265.663 41.0455 265.305 40.9148C264.947 40.7841 264.621 40.5639 264.325 40.2543C264.03 39.9418 263.793 39.5199 263.614 38.9886C263.435 38.4545 263.345 37.7841 263.345 36.9773C263.345 36.2045 263.418 35.5199 263.562 34.9233C263.707 34.3239 263.918 33.8196 264.193 33.4105C264.469 32.9986 264.801 32.6861 265.19 32.473C265.582 32.2599 266.024 32.1534 266.516 32.1534C267.004 32.1534 267.439 32.2514 267.82 32.4474C268.203 32.6406 268.516 32.9105 268.757 33.2571C268.999 33.6037 269.155 34.0028 269.226 34.4545H268.186C268.089 34.0625 267.902 33.7372 267.624 33.4787C267.345 33.2202 266.976 33.0909 266.516 33.0909C265.839 33.0909 265.307 33.3849 264.918 33.973C264.531 34.5611 264.337 35.3864 264.334 36.4489H264.402C264.561 36.2074 264.75 36.0014 264.969 35.831C265.19 35.6577 265.435 35.5241 265.702 35.4304C265.969 35.3366 266.251 35.2898 266.55 35.2898C267.05 35.2898 267.507 35.4148 267.922 35.6648C268.337 35.9119 268.669 36.2543 268.919 36.6918C269.169 37.1264 269.294 37.625 269.294 38.1875C269.294 38.7273 269.173 39.2216 268.932 39.6705C268.69 40.1165 268.351 40.4716 267.913 40.7358C267.479 40.9972 266.967 41.125 266.379 41.1193ZM266.379 40.1818C266.737 40.1818 267.058 40.0923 267.342 39.9134C267.629 39.7344 267.855 39.4943 268.02 39.1932C268.188 38.892 268.271 38.5568 268.271 38.1875C268.271 37.8267 268.19 37.4986 268.028 37.2031C267.869 36.9048 267.649 36.6676 267.368 36.4915C267.089 36.3153 266.771 36.2273 266.413 36.2273C266.143 36.2273 265.892 36.2812 265.659 36.3892C265.426 36.4943 265.222 36.6392 265.045 36.8239C264.872 37.0085 264.736 37.2202 264.636 37.4588C264.537 37.6946 264.487 37.9432 264.487 38.2045C264.487 38.5511 264.568 38.875 264.73 39.1761C264.895 39.4773 265.119 39.7202 265.403 39.9048C265.69 40.0895 266.016 40.1818 266.379 40.1818Z" fill="white" fill-opacity="0.74"/>
<path d="M209.852 41.1193C209.29 41.1193 208.788 41.0227 208.348 40.8295C207.911 40.6364 207.563 40.3679 207.304 40.0241C207.048 39.6776 206.909 39.2756 206.886 38.8182H207.96C207.983 39.0994 208.08 39.3423 208.25 39.5469C208.42 39.7486 208.643 39.9048 208.919 40.0156C209.195 40.1264 209.5 40.1818 209.835 40.1818C210.21 40.1818 210.543 40.1165 210.832 39.9858C211.122 39.8551 211.349 39.6733 211.514 39.4403C211.679 39.2074 211.761 38.9375 211.761 38.6307C211.761 38.3097 211.682 38.027 211.523 37.7827C211.364 37.5355 211.131 37.3423 210.824 37.2031C210.517 37.0639 210.142 36.9943 209.699 36.9943H209V36.0568H209.699C210.045 36.0568 210.349 35.9943 210.611 35.8693C210.875 35.7443 211.081 35.5682 211.229 35.3409C211.379 35.1136 211.455 34.8466 211.455 34.5398C211.455 34.2443 211.389 33.9872 211.259 33.7685C211.128 33.5497 210.943 33.3793 210.705 33.2571C210.469 33.1349 210.19 33.0739 209.869 33.0739C209.568 33.0739 209.284 33.1293 209.017 33.2401C208.753 33.348 208.537 33.5057 208.369 33.7131C208.202 33.9176 208.111 34.1648 208.097 34.4545H207.074C207.091 33.9972 207.229 33.5966 207.487 33.2528C207.746 32.9062 208.084 32.6364 208.501 32.4432C208.922 32.25 209.384 32.1534 209.886 32.1534C210.426 32.1534 210.889 32.2628 211.276 32.4815C211.662 32.6974 211.959 32.983 212.166 33.3381C212.374 33.6932 212.477 34.0767 212.477 34.4886C212.477 34.9801 212.348 35.3991 212.089 35.7457C211.834 36.0923 211.486 36.3324 211.045 36.4659V36.5341C211.597 36.625 212.027 36.8594 212.337 37.2372C212.646 37.6122 212.801 38.0767 212.801 38.6307C212.801 39.1051 212.672 39.5312 212.413 39.9091C212.158 40.2841 211.808 40.5795 211.365 40.7955C210.922 41.0114 210.418 41.1193 209.852 41.1193ZM214.544 41V40.233L217.425 37.0795C217.763 36.7102 218.041 36.3892 218.26 36.1165C218.479 35.8409 218.641 35.5824 218.746 35.3409C218.854 35.0966 218.908 34.8409 218.908 34.5739C218.908 34.267 218.834 34.0014 218.686 33.777C218.541 33.5526 218.342 33.3793 218.089 33.2571C217.837 33.1349 217.553 33.0739 217.237 33.0739C216.902 33.0739 216.609 33.1435 216.359 33.2827C216.112 33.419 215.92 33.6108 215.784 33.858C215.651 34.1051 215.584 34.3949 215.584 34.7273H214.578C214.578 34.2159 214.696 33.767 214.932 33.3807C215.168 32.9943 215.489 32.6932 215.895 32.4773C216.304 32.2614 216.763 32.1534 217.271 32.1534C217.783 32.1534 218.236 32.2614 218.631 32.4773C219.026 32.6932 219.335 32.9844 219.56 33.3509C219.784 33.7173 219.896 34.125 219.896 34.5739C219.896 34.8949 219.838 35.2088 219.722 35.5156C219.608 35.8196 219.409 36.1591 219.125 36.5341C218.844 36.9062 218.453 37.3608 217.953 37.8977L215.993 39.9943V40.0625H220.05V41H214.544Z" fill="white" fill-opacity="0.74"/>
<path d="M158.801 41.1193C158.443 41.1136 158.085 41.0455 157.727 40.9148C157.369 40.7841 157.043 40.5639 156.747 40.2543C156.452 39.9418 156.214 39.5199 156.036 38.9886C155.857 38.4545 155.767 37.7841 155.767 36.9773C155.767 36.2045 155.839 35.5199 155.984 34.9233C156.129 34.3239 156.339 33.8196 156.615 33.4105C156.891 32.9986 157.223 32.6861 157.612 32.473C158.004 32.2599 158.446 32.1534 158.938 32.1534C159.426 32.1534 159.861 32.2514 160.241 32.4474C160.625 32.6406 160.938 32.9105 161.179 33.2571C161.42 33.6037 161.577 34.0028 161.648 34.4545H160.608C160.511 34.0625 160.324 33.7372 160.045 33.4787C159.767 33.2202 159.398 33.0909 158.938 33.0909C158.261 33.0909 157.729 33.3849 157.339 33.973C156.953 34.5611 156.759 35.3864 156.756 36.4489H156.824C156.983 36.2074 157.172 36.0014 157.391 35.831C157.612 35.6577 157.857 35.5241 158.124 35.4304C158.391 35.3366 158.673 35.2898 158.972 35.2898C159.472 35.2898 159.929 35.4148 160.344 35.6648C160.759 35.9119 161.091 36.2543 161.341 36.6918C161.591 37.1264 161.716 37.625 161.716 38.1875C161.716 38.7273 161.595 39.2216 161.354 39.6705C161.112 40.1165 160.773 40.4716 160.335 40.7358C159.901 40.9972 159.389 41.125 158.801 41.1193ZM158.801 40.1818C159.159 40.1818 159.48 40.0923 159.764 39.9134C160.051 39.7344 160.277 39.4943 160.442 39.1932C160.609 38.892 160.693 38.5568 160.693 38.1875C160.693 37.8267 160.612 37.4986 160.45 37.2031C160.291 36.9048 160.071 36.6676 159.79 36.4915C159.511 36.3153 159.193 36.2273 158.835 36.2273C158.565 36.2273 158.314 36.2812 158.081 36.3892C157.848 36.4943 157.643 36.6392 157.467 36.8239C157.294 37.0085 157.158 37.2202 157.058 37.4588C156.959 37.6946 156.909 37.9432 156.909 38.2045C156.909 38.5511 156.99 38.875 157.152 39.1761C157.317 39.4773 157.541 39.7202 157.825 39.9048C158.112 40.0895 158.438 40.1818 158.801 40.1818ZM163.187 39.2102V38.3409L167.022 32.2727H167.653V33.6193H167.227L164.329 38.2045V38.2727H169.494V39.2102H163.187ZM167.295 41V38.946V38.5412V32.2727H168.301V41H167.295Z" fill="white" fill-opacity="0.74"/>
<rect x="189.5" y="92.5" width="49" height="29" stroke="white" stroke-opacity="0.74"/>
<rect x="444.5" y="92.5" width="49" height="29" stroke="white" stroke-opacity="0.74"/>
<rect x="87.5" y="92.5" width="49" height="29" stroke="white" stroke-opacity="0.74"/>
<rect x="138.5" y="92.5" width="49" height="29" stroke="white" stroke-opacity="0.74"/>
<rect x="393.5" y="92.5" width="49" height="29" stroke="white" stroke-opacity="0.74"/>
<rect x="342.5" y="92.5" width="49" height="29" stroke="white" stroke-opacity="0.74"/>
<rect x="291.5" y="92.5" width="49" height="29" stroke="white" stroke-opacity="0.74"/>
<rect x="240.5" y="92.5" width="49" height="29" stroke="white" stroke-opacity="0.74"/>
<path d="M111.67 106.79V107.727H107.852V106.79H111.67Z" fill="white" fill-opacity="0.74"/>
<path d="M467.972 103.273V112H466.915V104.381H466.864L464.733 105.795V104.722L466.915 103.273H467.972Z" fill="white" fill-opacity="0.74"/>
<path d="M412.903 111V110.233L415.784 107.08C416.122 106.71 416.401 106.389 416.619 106.116C416.838 105.841 417 105.582 417.105 105.341C417.213 105.097 417.267 104.841 417.267 104.574C417.267 104.267 417.193 104.001 417.045 103.777C416.901 103.553 416.702 103.379 416.449 103.257C416.196 103.135 415.912 103.074 415.597 103.074C415.261 103.074 414.969 103.143 414.719 103.283C414.472 103.419 414.28 103.611 414.143 103.858C414.01 104.105 413.943 104.395 413.943 104.727H412.938C412.938 104.216 413.055 103.767 413.291 103.381C413.527 102.994 413.848 102.693 414.254 102.477C414.663 102.261 415.122 102.153 415.631 102.153C416.142 102.153 416.595 102.261 416.99 102.477C417.385 102.693 417.695 102.984 417.919 103.351C418.143 103.717 418.256 104.125 418.256 104.574C418.256 104.895 418.197 105.209 418.081 105.516C417.967 105.82 417.768 106.159 417.484 106.534C417.203 106.906 416.812 107.361 416.312 107.898L414.352 109.994V110.062H418.409V111H412.903Z" fill="white" fill-opacity="0.74"/>
<path d="M360.699 109.21V108.341L364.534 102.273H365.165V103.619H364.739L361.841 108.205V108.273H367.006V109.21H360.699ZM364.807 111V108.946V108.541V102.273H365.812V111H364.807Z" fill="white" fill-opacity="0.74"/>
<path d="M314.699 111.119C314.114 111.119 313.597 111.016 313.148 110.808C312.702 110.598 312.354 110.31 312.104 109.943C311.854 109.574 311.73 109.153 311.733 108.682C311.73 108.312 311.803 107.972 311.95 107.659C312.098 107.344 312.3 107.081 312.555 106.871C312.814 106.658 313.102 106.523 313.42 106.466V106.415C313.003 106.307 312.67 106.072 312.423 105.712C312.176 105.348 312.054 104.935 312.057 104.472C312.054 104.028 312.166 103.632 312.393 103.283C312.621 102.933 312.933 102.658 313.331 102.456C313.732 102.254 314.188 102.153 314.699 102.153C315.205 102.153 315.656 102.254 316.054 102.456C316.452 102.658 316.764 102.933 316.991 103.283C317.222 103.632 317.338 104.028 317.341 104.472C317.338 104.935 317.212 105.348 316.962 105.712C316.714 106.072 316.386 106.307 315.977 106.415V106.466C316.293 106.523 316.577 106.658 316.83 106.871C317.082 107.081 317.284 107.344 317.435 107.659C317.585 107.972 317.662 108.312 317.665 108.682C317.662 109.153 317.534 109.574 317.281 109.943C317.031 110.31 316.683 110.598 316.237 110.808C315.794 111.016 315.281 111.119 314.699 111.119ZM314.699 110.182C315.094 110.182 315.435 110.118 315.722 109.99C316.009 109.862 316.23 109.682 316.386 109.449C316.543 109.216 316.622 108.943 316.625 108.631C316.622 108.301 316.537 108.01 316.369 107.757C316.202 107.504 315.973 107.305 315.683 107.161C315.396 107.016 315.068 106.943 314.699 106.943C314.327 106.943 313.994 107.016 313.702 107.161C313.412 107.305 313.183 107.504 313.016 107.757C312.851 108.01 312.77 108.301 312.773 108.631C312.77 108.943 312.845 109.216 312.999 109.449C313.155 109.682 313.378 109.862 313.668 109.99C313.957 110.118 314.301 110.182 314.699 110.182ZM314.699 106.04C315.011 106.04 315.288 105.977 315.53 105.852C315.774 105.727 315.966 105.553 316.105 105.328C316.244 105.104 316.315 104.841 316.318 104.54C316.315 104.244 316.246 103.987 316.109 103.768C315.973 103.547 315.784 103.376 315.543 103.257C315.301 103.135 315.02 103.074 314.699 103.074C314.372 103.074 314.087 103.135 313.842 103.257C313.598 103.376 313.409 103.547 313.276 103.768C313.142 103.987 313.077 104.244 313.08 104.54C313.077 104.841 313.143 105.104 313.28 105.328C313.419 105.553 313.611 105.727 313.855 105.852C314.099 105.977 314.381 106.04 314.699 106.04Z" fill="white" fill-opacity="0.74"/>
<path d="M264.67 106.79V107.727H260.852V106.79H264.67Z" fill="white" fill-opacity="0.74"/>
<path d="M213.67 106.79V107.727H209.852V106.79H213.67Z" fill="white" fill-opacity="0.74"/>
<path d="M162.67 106.79V107.727H158.852V106.79H162.67Z" fill="white" fill-opacity="0.74"/>
<rect x="189.5" y="57.5" width="49" height="29" stroke="white" stroke-opacity="0.74"/>
<rect x="444.5" y="57.5" width="49" height="29" stroke="white" stroke-opacity="0.74"/>
<rect x="87.5" y="57.5" width="49" height="29" stroke="white" stroke-opacity="0.74"/>
<rect x="138.5" y="57.5" width="49" height="29" stroke="white" stroke-opacity="0.74"/>
<rect x="393.5" y="57.5" width="49" height="29" stroke="white" stroke-opacity="0.74"/>
<rect x="342.5" y="57.5" width="49" height="29" stroke="white" stroke-opacity="0.74"/>
<rect x="291.5" y="57.5" width="49" height="29" stroke="white" stroke-opacity="0.74"/>
<rect x="240.5" y="57.5" width="49" height="29" stroke="white" stroke-opacity="0.74"/>
<path d="M110.75 76.1193C110.108 76.1193 109.561 75.9446 109.109 75.5952C108.658 75.2429 108.313 74.733 108.074 74.0653C107.835 73.3949 107.716 72.5852 107.716 71.6364C107.716 70.6932 107.835 69.8878 108.074 69.2202C108.315 68.5497 108.662 68.0384 109.114 67.6861C109.568 67.331 110.114 67.1534 110.75 67.1534C111.386 67.1534 111.93 67.331 112.382 67.6861C112.837 68.0384 113.183 68.5497 113.422 69.2202C113.663 69.8878 113.784 70.6932 113.784 71.6364C113.784 72.5852 113.665 73.3949 113.426 74.0653C113.188 74.733 112.842 75.2429 112.391 75.5952C111.939 75.9446 111.392 76.1193 110.75 76.1193ZM110.75 75.1818C111.386 75.1818 111.881 74.875 112.233 74.2614C112.585 73.6477 112.761 72.7727 112.761 71.6364C112.761 70.8807 112.68 70.2372 112.518 69.706C112.359 69.1747 112.129 68.7699 111.828 68.4915C111.53 68.2131 111.17 68.0739 110.75 68.0739C110.119 68.0739 109.626 68.3849 109.271 69.0071C108.916 69.6264 108.739 70.5028 108.739 71.6364C108.739 72.392 108.818 73.0341 108.977 73.5625C109.136 74.0909 109.365 74.4929 109.663 74.7685C109.964 75.044 110.327 75.1818 110.75 75.1818Z" fill="white" fill-opacity="0.74"/>
<path d="M467.972 68.2727V77H466.915V69.3807H466.864L464.733 70.7955V69.7216L466.915 68.2727H467.972Z" fill="white" fill-opacity="0.74"/>
<path d="M415.972 67.2727V76H414.915V68.3807H414.864L412.733 69.7955V68.7216L414.915 67.2727H415.972Z" fill="white" fill-opacity="0.74"/>
<path d="M363.972 67.2727V76H362.915V68.3807H362.864L360.733 69.7955V68.7216L362.915 67.2727H363.972Z" fill="white" fill-opacity="0.74"/>
<path d="M314.972 67.2727V76H313.915V68.3807H313.864L311.733 69.7955V68.7216L313.915 67.2727H314.972Z" fill="white" fill-opacity="0.74"/>
<path d="M263.75 76.1193C263.108 76.1193 262.561 75.9446 262.109 75.5952C261.658 75.2429 261.313 74.733 261.074 74.0653C260.835 73.3949 260.716 72.5852 260.716 71.6364C260.716 70.6932 260.835 69.8878 261.074 69.2202C261.315 68.5497 261.662 68.0384 262.114 67.6861C262.568 67.331 263.114 67.1534 263.75 67.1534C264.386 67.1534 264.93 67.331 265.382 67.6861C265.837 68.0384 266.183 68.5497 266.422 69.2202C266.663 69.8878 266.784 70.6932 266.784 71.6364C266.784 72.5852 266.665 73.3949 266.426 74.0653C266.188 74.733 265.842 75.2429 265.391 75.5952C264.939 75.9446 264.392 76.1193 263.75 76.1193ZM263.75 75.1818C264.386 75.1818 264.881 74.875 265.233 74.2614C265.585 73.6477 265.761 72.7727 265.761 71.6364C265.761 70.8807 265.68 70.2372 265.518 69.706C265.359 69.1747 265.129 68.7699 264.828 68.4915C264.53 68.2131 264.17 68.0739 263.75 68.0739C263.119 68.0739 262.626 68.3849 262.271 69.0071C261.916 69.6264 261.739 70.5028 261.739 71.6364C261.739 72.392 261.818 73.0341 261.977 73.5625C262.136 74.0909 262.365 74.4929 262.663 74.7685C262.964 75.044 263.327 75.1818 263.75 75.1818Z" fill="white" fill-opacity="0.74"/>
<path d="M212.75 76.1193C212.108 76.1193 211.561 75.9446 211.109 75.5952C210.658 75.2429 210.313 74.733 210.074 74.0653C209.835 73.3949 209.716 72.5852 209.716 71.6364C209.716 70.6932 209.835 69.8878 210.074 69.2202C210.315 68.5497 210.662 68.0384 211.114 67.6861C211.568 67.331 212.114 67.1534 212.75 67.1534C213.386 67.1534 213.93 67.331 214.382 67.6861C214.837 68.0384 215.183 68.5497 215.422 69.2202C215.663 69.8878 215.784 70.6932 215.784 71.6364C215.784 72.5852 215.665 73.3949 215.426 74.0653C215.188 74.733 214.842 75.2429 214.391 75.5952C213.939 75.9446 213.392 76.1193 212.75 76.1193ZM212.75 75.1818C213.386 75.1818 213.881 74.875 214.233 74.2614C214.585 73.6477 214.761 72.7727 214.761 71.6364C214.761 70.8807 214.68 70.2372 214.518 69.706C214.359 69.1747 214.129 68.7699 213.828 68.4915C213.53 68.2131 213.17 68.0739 212.75 68.0739C212.119 68.0739 211.626 68.3849 211.271 69.0071C210.916 69.6264 210.739 70.5028 210.739 71.6364C210.739 72.392 210.818 73.0341 210.977 73.5625C211.136 74.0909 211.365 74.4929 211.663 74.7685C211.964 75.044 212.327 75.1818 212.75 75.1818Z" fill="white" fill-opacity="0.74"/>
<path d="M161.75 76.1193C161.108 76.1193 160.561 75.9446 160.109 75.5952C159.658 75.2429 159.313 74.733 159.074 74.0653C158.835 73.3949 158.716 72.5852 158.716 71.6364C158.716 70.6932 158.835 69.8878 159.074 69.2202C159.315 68.5497 159.662 68.0384 160.114 67.6861C160.568 67.331 161.114 67.1534 161.75 67.1534C162.386 67.1534 162.93 67.331 163.382 67.6861C163.837 68.0384 164.183 68.5497 164.422 69.2202C164.663 69.8878 164.784 70.6932 164.784 71.6364C164.784 72.5852 164.665 73.3949 164.426 74.0653C164.188 74.733 163.842 75.2429 163.391 75.5952C162.939 75.9446 162.392 76.1193 161.75 76.1193ZM161.75 75.1818C162.386 75.1818 162.881 74.875 163.233 74.2614C163.585 73.6477 163.761 72.7727 163.761 71.6364C163.761 70.8807 163.68 70.2372 163.518 69.706C163.359 69.1747 163.129 68.7699 162.828 68.4915C162.53 68.2131 162.17 68.0739 161.75 68.0739C161.119 68.0739 160.626 68.3849 160.271 69.0071C159.916 69.6264 159.739 70.5028 159.739 71.6364C159.739 72.392 159.818 73.0341 159.977 73.5625C160.136 74.0909 160.365 74.4929 160.663 74.7685C160.964 75.044 161.327 75.1818 161.75 75.1818Z" fill="white" fill-opacity="0.74"/>
<path d="M1.05682 41V32.2727H4.00568C4.69034 32.2727 5.25 32.3963 5.68466 32.6435C6.12216 32.8878 6.44602 33.2188 6.65625 33.6364C6.86648 34.054 6.97159 34.5199 6.97159 35.0341C6.97159 35.5483 6.86648 36.0156 6.65625 36.4361C6.44886 36.8565 6.12784 37.1918 5.69318 37.4418C5.25852 37.6889 4.7017 37.8125 4.02273 37.8125H1.90909V36.875H3.98864C4.45739 36.875 4.83381 36.794 5.1179 36.6321C5.40199 36.4702 5.60795 36.2514 5.7358 35.9759C5.86648 35.6974 5.93182 35.3835 5.93182 35.0341C5.93182 34.6847 5.86648 34.3722 5.7358 34.0966C5.60795 33.821 5.40057 33.6051 5.11364 33.4489C4.8267 33.2898 4.44602 33.2102 3.97159 33.2102H2.11364V41H1.05682ZM9.54332 32.2727V41H8.53764V32.2727H9.54332ZM13.3114 41.1534C12.8967 41.1534 12.5202 41.0753 12.1822 40.919C11.8441 40.7599 11.5756 40.5312 11.3768 40.233C11.1779 39.9318 11.0785 39.5682 11.0785 39.142C11.0785 38.767 11.1523 38.4631 11.3001 38.2301C11.4478 37.9943 11.6452 37.8097 11.8924 37.6761C12.1396 37.5426 12.4123 37.4432 12.7106 37.3778C13.0117 37.3097 13.3143 37.2557 13.6183 37.2159C14.016 37.1648 14.3384 37.1264 14.5856 37.1009C14.8356 37.0724 15.0174 37.0256 15.131 36.9602C15.2475 36.8949 15.3058 36.7812 15.3058 36.6193V36.5852C15.3058 36.1648 15.1907 35.8381 14.9606 35.6051C14.7333 35.3722 14.3881 35.2557 13.9251 35.2557C13.445 35.2557 13.0685 35.3608 12.7958 35.571C12.5231 35.7812 12.3313 36.0057 12.2205 36.2443L11.266 35.9034C11.4364 35.5057 11.6637 35.196 11.9478 34.9744C12.2347 34.75 12.5472 34.5937 12.8853 34.5057C13.2262 34.4148 13.5614 34.3693 13.891 34.3693C14.1012 34.3693 14.3427 34.3949 14.6154 34.446C14.891 34.4943 15.1566 34.5952 15.4123 34.7486C15.6708 34.902 15.8853 35.1335 16.0558 35.4432C16.2262 35.7528 16.3114 36.1676 16.3114 36.6875V41H15.3058V40.1136H15.2546C15.1864 40.2557 15.0728 40.4077 14.9137 40.5696C14.7546 40.7315 14.543 40.8693 14.2788 40.983C14.0146 41.0966 13.6921 41.1534 13.3114 41.1534ZM13.4648 40.25C13.8626 40.25 14.1978 40.1719 14.4705 40.0156C14.7461 39.8594 14.9535 39.6577 15.0927 39.4105C15.2347 39.1634 15.3058 38.9034 15.3058 38.6307V37.7102C15.2631 37.7614 15.1694 37.8082 15.0245 37.8509C14.8825 37.8906 14.7177 37.9261 14.5302 37.9574C14.3455 37.9858 14.1651 38.0114 13.989 38.0341C13.8157 38.054 13.6751 38.071 13.5671 38.0852C13.3058 38.1193 13.0614 38.1747 12.8342 38.2514C12.6097 38.3253 12.4279 38.4375 12.2887 38.5881C12.1523 38.7358 12.0842 38.9375 12.0842 39.1932C12.0842 39.5426 12.2134 39.8068 12.4719 39.9858C12.7333 40.1619 13.0643 40.25 13.4648 40.25ZM20.8061 41.1364C20.1925 41.1364 19.6641 40.9915 19.2209 40.7017C18.7777 40.4119 18.4368 40.0128 18.1982 39.5043C17.9595 38.9957 17.8402 38.4148 17.8402 37.7614C17.8402 37.0966 17.9624 36.5099 18.2067 36.0014C18.4538 35.4901 18.7976 35.0909 19.2379 34.804C19.6811 34.5142 20.1982 34.3693 20.7891 34.3693C21.2493 34.3693 21.6641 34.4545 22.0334 34.625C22.4027 34.7955 22.7053 35.0341 22.9411 35.3409C23.1768 35.6477 23.3232 36.0057 23.38 36.4148H22.3743C22.2976 36.1165 22.1271 35.8523 21.8629 35.6222C21.6016 35.3892 21.2493 35.2727 20.8061 35.2727C20.4141 35.2727 20.0703 35.375 19.7749 35.5795C19.4822 35.7812 19.2536 36.0668 19.0888 36.4361C18.9268 36.8026 18.8459 37.233 18.8459 37.7273C18.8459 38.233 18.9254 38.6733 19.0845 39.0483C19.2464 39.4233 19.4737 39.7145 19.7663 39.9219C20.0618 40.1293 20.4084 40.233 20.8061 40.233C21.0675 40.233 21.3047 40.1875 21.5178 40.0966C21.7308 40.0057 21.9112 39.875 22.0589 39.7045C22.2067 39.5341 22.3118 39.3295 22.3743 39.0909H23.38C23.3232 39.4773 23.1825 39.8253 22.9581 40.1349C22.7365 40.4418 22.4425 40.6861 22.076 40.8679C21.7124 41.0469 21.2891 41.1364 20.8061 41.1364ZM27.5945 41.1364C26.9638 41.1364 26.4197 40.9972 25.9624 40.7188C25.5078 40.4375 25.157 40.0455 24.9098 39.5426C24.6655 39.0369 24.5433 38.4489 24.5433 37.7784C24.5433 37.108 24.6655 36.517 24.9098 36.0057C25.157 35.4915 25.5007 35.0909 25.9411 34.804C26.3842 34.5142 26.9013 34.3693 27.4922 34.3693C27.8331 34.3693 28.1697 34.4261 28.5021 34.5398C28.8345 34.6534 29.1371 34.8381 29.4098 35.0938C29.6825 35.3466 29.8999 35.6818 30.0618 36.0994C30.2237 36.517 30.3047 37.0312 30.3047 37.642V38.0682H25.2592V37.1989H29.282C29.282 36.8295 29.2081 36.5 29.0604 36.2102C28.9155 35.9205 28.7081 35.6918 28.4382 35.5241C28.1712 35.3565 27.8558 35.2727 27.4922 35.2727C27.0916 35.2727 26.745 35.3722 26.4524 35.571C26.1626 35.767 25.9396 36.0227 25.7834 36.3381C25.6271 36.6534 25.549 36.9915 25.549 37.3523V37.9318C25.549 38.4261 25.6342 38.8452 25.8047 39.1889C25.978 39.5298 26.218 39.7898 26.5249 39.9688C26.8317 40.1449 27.1882 40.233 27.5945 40.233C27.8587 40.233 28.0973 40.196 28.3104 40.1222C28.5263 40.0455 28.7124 39.9318 28.8686 39.7812C29.0249 39.6278 29.1456 39.4375 29.2308 39.2102L30.2024 39.483C30.1001 39.8125 29.9283 40.1023 29.6868 40.3523C29.4453 40.5994 29.147 40.7926 28.7919 40.9318C28.4368 41.0682 28.0376 41.1364 27.5945 41.1364ZM35.7038 32.2727L38.2947 39.6193H38.397L40.9879 32.2727H42.0959L38.8913 41H37.8004L34.5959 32.2727H35.7038ZM44.6357 41.1534C44.2209 41.1534 43.8445 41.0753 43.5064 40.919C43.1683 40.7599 42.8999 40.5312 42.701 40.233C42.5021 39.9318 42.4027 39.5682 42.4027 39.142C42.4027 38.767 42.4766 38.4631 42.6243 38.2301C42.772 37.9943 42.9695 37.8097 43.2166 37.6761C43.4638 37.5426 43.7365 37.4432 44.0348 37.3778C44.3359 37.3097 44.6385 37.2557 44.9425 37.2159C45.3402 37.1648 45.6626 37.1264 45.9098 37.1009C46.1598 37.0724 46.3416 37.0256 46.4553 36.9602C46.5717 36.8949 46.63 36.7812 46.63 36.6193V36.5852C46.63 36.1648 46.5149 35.8381 46.2848 35.6051C46.0575 35.3722 45.7124 35.2557 45.2493 35.2557C44.7692 35.2557 44.3928 35.3608 44.12 35.571C43.8473 35.7812 43.6555 36.0057 43.5447 36.2443L42.5902 35.9034C42.7607 35.5057 42.9879 35.196 43.272 34.9744C43.5589 34.75 43.8714 34.5937 44.2095 34.5057C44.5504 34.4148 44.8857 34.3693 45.2152 34.3693C45.4254 34.3693 45.6669 34.3949 45.9396 34.446C46.2152 34.4943 46.4808 34.5952 46.7365 34.7486C46.995 34.902 47.2095 35.1335 47.38 35.4432C47.5504 35.7528 47.6357 36.1676 47.6357 36.6875V41H46.63V40.1136H46.5788C46.5107 40.2557 46.397 40.4077 46.2379 40.5696C46.0788 40.7315 45.8672 40.8693 45.603 40.983C45.3388 41.0966 45.0163 41.1534 44.6357 41.1534ZM44.7891 40.25C45.1868 40.25 45.522 40.1719 45.7947 40.0156C46.0703 39.8594 46.2777 39.6577 46.4169 39.4105C46.5589 39.1634 46.63 38.9034 46.63 38.6307V37.7102C46.5874 37.7614 46.4936 37.8082 46.3487 37.8509C46.2067 37.8906 46.0419 37.9261 45.8544 37.9574C45.6697 37.9858 45.4893 38.0114 45.3132 38.0341C45.1399 38.054 44.9993 38.071 44.8913 38.0852C44.63 38.1193 44.3857 38.1747 44.1584 38.2514C43.9339 38.3253 43.7521 38.4375 43.6129 38.5881C43.4766 38.7358 43.4084 38.9375 43.4084 39.1932C43.4084 39.5426 43.5376 39.8068 43.7962 39.9858C44.0575 40.1619 44.3885 40.25 44.7891 40.25ZM50.4769 32.2727V41H49.4712V32.2727H50.4769ZM56.4439 38.3239V34.4545H57.4496V41H56.4439V39.892H56.3757C56.2223 40.2244 55.9837 40.5071 55.6598 40.7401C55.3359 40.9702 54.9268 41.0852 54.4325 41.0852C54.0234 41.0852 53.6598 40.9957 53.3416 40.8168C53.0234 40.6349 52.7734 40.3622 52.5916 39.9986C52.4098 39.6321 52.3189 39.1705 52.3189 38.6136V34.4545H53.3246V38.5455C53.3246 39.0227 53.4581 39.4034 53.7251 39.6875C53.995 39.9716 54.3388 40.1136 54.7564 40.1136C55.0064 40.1136 55.2607 40.0497 55.5192 39.9219C55.7805 39.794 55.9993 39.598 56.1754 39.3338C56.3544 39.0696 56.4439 38.733 56.4439 38.3239ZM62.0359 41.1364C61.4052 41.1364 60.8612 40.9972 60.4038 40.7188C59.9492 40.4375 59.5984 40.0455 59.3512 39.5426C59.1069 39.0369 58.9847 38.4489 58.9847 37.7784C58.9847 37.108 59.1069 36.517 59.3512 36.0057C59.5984 35.4915 59.9421 35.0909 60.3825 34.804C60.8256 34.5142 61.3427 34.3693 61.9336 34.3693C62.2745 34.3693 62.6112 34.4261 62.9435 34.5398C63.2759 34.6534 63.5785 34.8381 63.8512 35.0938C64.1239 35.3466 64.3413 35.6818 64.5032 36.0994C64.6651 36.517 64.7461 37.0312 64.7461 37.642V38.0682H59.7006V37.1989H63.7234C63.7234 36.8295 63.6495 36.5 63.5018 36.2102C63.3569 35.9205 63.1495 35.6918 62.8796 35.5241C62.6126 35.3565 62.2972 35.2727 61.9336 35.2727C61.533 35.2727 61.1864 35.3722 60.8938 35.571C60.604 35.767 60.381 36.0227 60.2248 36.3381C60.0685 36.6534 59.9904 36.9915 59.9904 37.3523V37.9318C59.9904 38.4261 60.0756 38.8452 60.2461 39.1889C60.4194 39.5298 60.6594 39.7898 60.9663 39.9688C61.2731 40.1449 61.6296 40.233 62.0359 40.233C62.3001 40.233 62.5387 40.196 62.7518 40.1222C62.9677 40.0455 63.1538 39.9318 63.31 39.7812C63.4663 39.6278 63.587 39.4375 63.6722 39.2102L64.6438 39.483C64.5415 39.8125 64.3697 40.1023 64.1282 40.3523C63.8867 40.5994 63.5884 40.7926 63.2333 40.9318C62.8782 41.0682 62.479 41.1364 62.0359 41.1364Z" fill="white" fill-opacity="0.74"/>
<path d="M458.972 134.273V143H457.915V135.381H457.864L455.733 136.795V135.722L457.915 134.273H458.972Z" fill="white" fill-opacity="0.74"/>
<path d="M389.477 142.403V136.778H390.432V142.403H389.477ZM387.142 140.068V139.114H392.767V140.068H387.142Z" fill="white" fill-opacity="0.74"/>
<path d="M466.33 138.79V137.869H471.58V138.79H466.33ZM466.33 141.312V140.392H471.58V141.312H466.33Z" fill="white" fill-opacity="0.74"/>
<path d="M441.477 142.403V136.778H442.432V142.403H441.477ZM439.142 140.068V139.114H444.767V140.068H439.142Z" fill="white" fill-opacity="0.74"/>
<path d="M337.477 142.403V136.778H338.432V142.403H337.477ZM335.142 140.068V139.114H340.767V140.068H335.142Z" fill="white" fill-opacity="0.74"/>
<path d="M410.903 143V142.233L413.784 139.08C414.122 138.71 414.401 138.389 414.619 138.116C414.838 137.841 415 137.582 415.105 137.341C415.213 137.097 415.267 136.841 415.267 136.574C415.267 136.267 415.193 136.001 415.045 135.777C414.901 135.553 414.702 135.379 414.449 135.257C414.196 135.135 413.912 135.074 413.597 135.074C413.261 135.074 412.969 135.143 412.719 135.283C412.472 135.419 412.28 135.611 412.143 135.858C412.01 136.105 411.943 136.395 411.943 136.727H410.938C410.938 136.216 411.055 135.767 411.291 135.381C411.527 134.994 411.848 134.693 412.254 134.477C412.663 134.261 413.122 134.153 413.631 134.153C414.142 134.153 414.595 134.261 414.99 134.477C415.385 134.693 415.695 134.984 415.919 135.351C416.143 135.717 416.256 136.125 416.256 136.574C416.256 136.895 416.197 137.209 416.081 137.516C415.967 137.82 415.768 138.159 415.484 138.534C415.203 138.906 414.812 139.361 414.312 139.898L412.352 141.994V142.062H416.409V143H410.903Z" fill="white" fill-opacity="0.74"/>
<path d="M312.699 143.119C312.114 143.119 311.597 143.016 311.148 142.808C310.702 142.598 310.354 142.31 310.104 141.943C309.854 141.574 309.73 141.153 309.733 140.682C309.73 140.312 309.803 139.972 309.95 139.659C310.098 139.344 310.3 139.081 310.555 138.871C310.814 138.658 311.102 138.523 311.42 138.466V138.415C311.003 138.307 310.67 138.072 310.423 137.712C310.176 137.348 310.054 136.935 310.057 136.472C310.054 136.028 310.166 135.632 310.393 135.283C310.621 134.933 310.933 134.658 311.331 134.456C311.732 134.254 312.188 134.153 312.699 134.153C313.205 134.153 313.656 134.254 314.054 134.456C314.452 134.658 314.764 134.933 314.991 135.283C315.222 135.632 315.338 136.028 315.341 136.472C315.338 136.935 315.212 137.348 314.962 137.712C314.714 138.072 314.386 138.307 313.977 138.415V138.466C314.293 138.523 314.577 138.658 314.83 138.871C315.082 139.081 315.284 139.344 315.435 139.659C315.585 139.972 315.662 140.312 315.665 140.682C315.662 141.153 315.534 141.574 315.281 141.943C315.031 142.31 314.683 142.598 314.237 142.808C313.794 143.016 313.281 143.119 312.699 143.119ZM312.699 142.182C313.094 142.182 313.435 142.118 313.722 141.99C314.009 141.862 314.23 141.682 314.386 141.449C314.543 141.216 314.622 140.943 314.625 140.631C314.622 140.301 314.537 140.01 314.369 139.757C314.202 139.504 313.973 139.305 313.683 139.161C313.396 139.016 313.068 138.943 312.699 138.943C312.327 138.943 311.994 139.016 311.702 139.161C311.412 139.305 311.183 139.504 311.016 139.757C310.851 140.01 310.77 140.301 310.773 140.631C310.77 140.943 310.845 141.216 310.999 141.449C311.155 141.682 311.378 141.862 311.668 141.99C311.957 142.118 312.301 142.182 312.699 142.182ZM312.699 138.04C313.011 138.04 313.288 137.977 313.53 137.852C313.774 137.727 313.966 137.553 314.105 137.328C314.244 137.104 314.315 136.841 314.318 136.54C314.315 136.244 314.246 135.987 314.109 135.768C313.973 135.547 313.784 135.376 313.543 135.257C313.301 135.135 313.02 135.074 312.699 135.074C312.372 135.074 312.087 135.135 311.842 135.257C311.598 135.376 311.409 135.547 311.276 135.768C311.142 135.987 311.077 136.244 311.08 136.54C311.077 136.841 311.143 137.104 311.28 137.328C311.419 137.553 311.611 137.727 311.855 137.852C312.099 137.977 312.381 138.04 312.699 138.04Z" fill="white" fill-opacity="0.74"/>
<path d="M356.699 141.21V140.341L360.534 134.273H361.165V135.619H360.739L357.841 140.205V140.273H363.006V141.21H356.699ZM360.807 143V140.946V140.541V134.273H361.812V143H360.807Z" fill="white" fill-opacity="0.74"/>
<path d="M5.82955 99.4545C5.77841 99.0227 5.57102 98.6875 5.20739 98.4489C4.84375 98.2102 4.39773 98.0909 3.86932 98.0909C3.48295 98.0909 3.14489 98.1534 2.85511 98.2784C2.56818 98.4034 2.34375 98.5753 2.18182 98.794C2.02273 99.0128 1.94318 99.2614 1.94318 99.5398C1.94318 99.7727 1.99858 99.973 2.10938 100.141C2.22301 100.305 2.3679 100.443 2.54403 100.554C2.72017 100.662 2.90483 100.751 3.09801 100.822C3.29119 100.891 3.46875 100.946 3.63068 100.989L4.51705 101.227C4.74432 101.287 4.99716 101.369 5.27557 101.474C5.55682 101.58 5.82528 101.723 6.08097 101.905C6.33949 102.084 6.55256 102.314 6.72017 102.595C6.88778 102.876 6.97159 103.222 6.97159 103.631C6.97159 104.102 6.84801 104.528 6.60085 104.909C6.35653 105.29 5.99858 105.592 5.52699 105.817C5.05824 106.041 4.48864 106.153 3.81818 106.153C3.19318 106.153 2.65199 106.053 2.1946 105.851C1.74006 105.649 1.3821 105.368 1.12074 105.007C0.862216 104.646 0.715909 104.227 0.681818 103.75H1.77273C1.80114 104.08 1.91193 104.352 2.10511 104.568C2.30114 104.781 2.5483 104.94 2.84659 105.045C3.14773 105.148 3.47159 105.199 3.81818 105.199C4.22159 105.199 4.58381 105.134 4.90483 105.003C5.22585 104.869 5.48011 104.685 5.66761 104.449C5.85511 104.21 5.94886 103.932 5.94886 103.614C5.94886 103.324 5.8679 103.088 5.70597 102.906C5.54403 102.724 5.33097 102.577 5.06676 102.463C4.80256 102.349 4.51705 102.25 4.21023 102.165L3.13636 101.858C2.45455 101.662 1.91477 101.382 1.51705 101.018C1.11932 100.655 0.920455 100.179 0.920455 99.5909C0.920455 99.1023 1.05256 98.6761 1.31676 98.3125C1.58381 97.946 1.94176 97.6619 2.39062 97.4602C2.84233 97.2557 3.34659 97.1534 3.90341 97.1534C4.46591 97.1534 4.96591 97.2543 5.40341 97.456C5.84091 97.6548 6.1875 97.9276 6.44318 98.2741C6.7017 98.6207 6.83807 99.0142 6.85227 99.4545H5.82955ZM11.3171 106.136C10.6864 106.136 10.1424 105.997 9.68501 105.719C9.23047 105.438 8.87962 105.045 8.63246 104.543C8.38814 104.037 8.26598 103.449 8.26598 102.778C8.26598 102.108 8.38814 101.517 8.63246 101.006C8.87962 100.491 9.22337 100.091 9.66371 99.804C10.1069 99.5142 10.6239 99.3693 11.2148 99.3693C11.5558 99.3693 11.8924 99.4261 12.2248 99.5398C12.5572 99.6534 12.8597 99.8381 13.1325 100.094C13.4052 100.347 13.6225 100.682 13.7844 101.099C13.9464 101.517 14.0273 102.031 14.0273 102.642V103.068H8.98189V102.199H13.0046C13.0046 101.83 12.9308 101.5 12.783 101.21C12.6381 100.92 12.4308 100.692 12.1609 100.524C11.8938 100.357 11.5785 100.273 11.2148 100.273C10.8143 100.273 10.4677 100.372 10.1751 100.571C9.8853 100.767 9.66229 101.023 9.50604 101.338C9.34979 101.653 9.27166 101.991 9.27166 102.352V102.932C9.27166 103.426 9.35689 103.845 9.52734 104.189C9.70064 104.53 9.9407 104.79 10.2475 104.969C10.5543 105.145 10.9109 105.233 11.3171 105.233C11.5813 105.233 11.82 105.196 12.033 105.122C12.2489 105.045 12.435 104.932 12.5913 104.781C12.7475 104.628 12.8683 104.437 12.9535 104.21L13.9251 104.483C13.8228 104.812 13.6509 105.102 13.4094 105.352C13.168 105.599 12.8697 105.793 12.5146 105.932C12.1594 106.068 11.7603 106.136 11.3171 106.136ZM16.5629 97.2727V106H15.5572V97.2727H16.5629ZM21.1491 106.136C20.5185 106.136 19.9744 105.997 19.517 105.719C19.0625 105.438 18.7116 105.045 18.4645 104.543C18.2202 104.037 18.098 103.449 18.098 102.778C18.098 102.108 18.2202 101.517 18.4645 101.006C18.7116 100.491 19.0554 100.091 19.4957 99.804C19.9389 99.5142 20.456 99.3693 21.0469 99.3693C21.3878 99.3693 21.7244 99.4261 22.0568 99.5398C22.3892 99.6534 22.6918 99.8381 22.9645 100.094C23.2372 100.347 23.4545 100.682 23.6165 101.099C23.7784 101.517 23.8594 102.031 23.8594 102.642V103.068H18.8139V102.199H22.8366C22.8366 101.83 22.7628 101.5 22.6151 101.21C22.4702 100.92 22.2628 100.692 21.9929 100.524C21.7259 100.357 21.4105 100.273 21.0469 100.273C20.6463 100.273 20.2997 100.372 20.0071 100.571C19.7173 100.767 19.4943 101.023 19.3381 101.338C19.1818 101.653 19.1037 101.991 19.1037 102.352V102.932C19.1037 103.426 19.1889 103.845 19.3594 104.189C19.5327 104.53 19.7727 104.79 20.0795 104.969C20.3864 105.145 20.7429 105.233 21.1491 105.233C21.4134 105.233 21.652 105.196 21.8651 105.122C22.081 105.045 22.267 104.932 22.4233 104.781C22.5795 104.628 22.7003 104.437 22.7855 104.21L23.7571 104.483C23.6548 104.812 23.483 105.102 23.2415 105.352C23 105.599 22.7017 105.793 22.3466 105.932C21.9915 106.068 21.5923 106.136 21.1491 106.136ZM28.0483 106.136C27.4347 106.136 26.9063 105.991 26.4631 105.702C26.0199 105.412 25.679 105.013 25.4403 104.504C25.2017 103.996 25.0824 103.415 25.0824 102.761C25.0824 102.097 25.2045 101.51 25.4489 101.001C25.696 100.49 26.0398 100.091 26.4801 99.804C26.9233 99.5142 27.4403 99.3693 28.0312 99.3693C28.4915 99.3693 28.9062 99.4545 29.2756 99.625C29.6449 99.7955 29.9474 100.034 30.1832 100.341C30.419 100.648 30.5653 101.006 30.6222 101.415H29.6165C29.5398 101.116 29.3693 100.852 29.1051 100.622C28.8438 100.389 28.4915 100.273 28.0483 100.273C27.6563 100.273 27.3125 100.375 27.017 100.58C26.7244 100.781 26.4957 101.067 26.331 101.436C26.169 101.803 26.0881 102.233 26.0881 102.727C26.0881 103.233 26.1676 103.673 26.3267 104.048C26.4886 104.423 26.7159 104.714 27.0085 104.922C27.304 105.129 27.6506 105.233 28.0483 105.233C28.3097 105.233 28.5469 105.188 28.7599 105.097C28.973 105.006 29.1534 104.875 29.3011 104.705C29.4489 104.534 29.554 104.33 29.6165 104.091H30.6222C30.5653 104.477 30.4247 104.825 30.2003 105.135C29.9787 105.442 29.6847 105.686 29.3182 105.868C28.9545 106.047 28.5313 106.136 28.0483 106.136ZM34.9389 99.4545V100.307H31.5469V99.4545H34.9389ZM32.5355 97.8864H33.5412V104.125C33.5412 104.409 33.5824 104.622 33.6648 104.764C33.75 104.903 33.858 104.997 33.9886 105.045C34.1222 105.091 34.2628 105.114 34.4105 105.114C34.5213 105.114 34.6122 105.108 34.6832 105.097C34.7543 105.082 34.8111 105.071 34.8537 105.062L35.0582 105.966C34.9901 105.991 34.8949 106.017 34.7727 106.043C34.6506 106.071 34.4957 106.085 34.3082 106.085C34.0241 106.085 33.7457 106.024 33.473 105.902C33.2031 105.78 32.9787 105.594 32.7997 105.344C32.6236 105.094 32.5355 104.778 32.5355 104.398V97.8864ZM39.1257 106.136C38.495 106.136 37.951 105.997 37.4936 105.719C37.0391 105.438 36.6882 105.045 36.4411 104.543C36.1967 104.037 36.0746 103.449 36.0746 102.778C36.0746 102.108 36.1967 101.517 36.4411 101.006C36.6882 100.491 37.032 100.091 37.4723 99.804C37.9155 99.5142 38.4325 99.3693 39.0234 99.3693C39.3643 99.3693 39.701 99.4261 40.0334 99.5398C40.3658 99.6534 40.6683 99.8381 40.9411 100.094C41.2138 100.347 41.4311 100.682 41.593 101.099C41.755 101.517 41.8359 102.031 41.8359 102.642V103.068H36.7905V102.199H40.8132C40.8132 101.83 40.7393 101.5 40.5916 101.21C40.4467 100.92 40.2393 100.692 39.9695 100.524C39.7024 100.357 39.3871 100.273 39.0234 100.273C38.6229 100.273 38.2763 100.372 37.9837 100.571C37.6939 100.767 37.4709 101.023 37.3146 101.338C37.1584 101.653 37.0803 101.991 37.0803 102.352V102.932C37.0803 103.426 37.1655 103.845 37.3359 104.189C37.5092 104.53 37.7493 104.79 38.0561 104.969C38.3629 105.145 38.7195 105.233 39.1257 105.233C39.3899 105.233 39.6286 105.196 39.8416 105.122C40.0575 105.045 40.2436 104.932 40.3999 104.781C40.5561 104.628 40.6768 104.437 40.7621 104.21L41.7337 104.483C41.6314 104.812 41.4595 105.102 41.218 105.352C40.9766 105.599 40.6783 105.793 40.3232 105.932C39.968 106.068 39.5689 106.136 39.1257 106.136ZM45.8374 106.136C45.2919 106.136 44.8104 105.999 44.3928 105.723C43.9751 105.445 43.6484 105.053 43.4126 104.547C43.1768 104.038 43.0589 103.438 43.0589 102.744C43.0589 102.057 43.1768 101.46 43.4126 100.955C43.6484 100.449 43.9766 100.058 44.397 99.7827C44.8175 99.5071 45.3033 99.3693 45.8544 99.3693C46.2805 99.3693 46.6172 99.4403 46.8643 99.5824C47.1143 99.7216 47.3047 99.8807 47.4354 100.06C47.5689 100.236 47.6726 100.381 47.7464 100.494H47.8317V97.2727H48.8374V106H47.8658V104.994H47.7464C47.6726 105.114 47.5675 105.264 47.4311 105.446C47.2947 105.625 47.1001 105.786 46.8473 105.928C46.5945 106.067 46.2578 106.136 45.8374 106.136ZM45.9737 105.233C46.3771 105.233 46.718 105.128 46.9964 104.918C47.2749 104.705 47.4865 104.411 47.6314 104.036C47.7763 103.658 47.8487 103.222 47.8487 102.727C47.8487 102.239 47.7777 101.811 47.6357 101.445C47.4936 101.075 47.2834 100.788 47.005 100.584C46.7266 100.376 46.3828 100.273 45.9737 100.273C45.5476 100.273 45.1925 100.382 44.9084 100.601C44.6271 100.817 44.4155 101.111 44.2734 101.483C44.1342 101.852 44.0646 102.267 44.0646 102.727C44.0646 103.193 44.1357 103.616 44.2777 103.997C44.4226 104.375 44.6357 104.676 44.9169 104.901C45.201 105.122 45.5533 105.233 45.9737 105.233ZM59.5462 99.4545L57.1257 106H56.103L53.6825 99.4545H54.7734L56.5803 104.67H56.6484L58.4553 99.4545H59.5462ZM62.6005 106.153C62.1857 106.153 61.8093 106.075 61.4712 105.919C61.1332 105.76 60.8647 105.531 60.6658 105.233C60.467 104.932 60.3675 104.568 60.3675 104.142C60.3675 103.767 60.4414 103.463 60.5891 103.23C60.7369 102.994 60.9343 102.81 61.1815 102.676C61.4286 102.543 61.7013 102.443 61.9996 102.378C62.3008 102.31 62.6033 102.256 62.9073 102.216C63.305 102.165 63.6275 102.126 63.8746 102.101C64.1246 102.072 64.3065 102.026 64.4201 101.96C64.5366 101.895 64.5948 101.781 64.5948 101.619V101.585C64.5948 101.165 64.4798 100.838 64.2496 100.605C64.0224 100.372 63.6772 100.256 63.2141 100.256C62.734 100.256 62.3576 100.361 62.0849 100.571C61.8121 100.781 61.6204 101.006 61.5096 101.244L60.555 100.903C60.7255 100.506 60.9528 100.196 61.2369 99.9744C61.5238 99.75 61.8363 99.5937 62.1744 99.5057C62.5153 99.4148 62.8505 99.3693 63.18 99.3693C63.3903 99.3693 63.6317 99.3949 63.9045 99.446C64.18 99.4943 64.4457 99.5952 64.7013 99.7486C64.9599 99.902 65.1744 100.134 65.3448 100.443C65.5153 100.753 65.6005 101.168 65.6005 101.688V106H64.5948V105.114H64.5437C64.4755 105.256 64.3619 105.408 64.2028 105.57C64.0437 105.732 63.832 105.869 63.5678 105.983C63.3036 106.097 62.9812 106.153 62.6005 106.153ZM62.7539 105.25C63.1516 105.25 63.4869 105.172 63.7596 105.016C64.0352 104.859 64.2425 104.658 64.3817 104.411C64.5238 104.163 64.5948 103.903 64.5948 103.631V102.71C64.5522 102.761 64.4585 102.808 64.3136 102.851C64.1715 102.891 64.0067 102.926 63.8192 102.957C63.6346 102.986 63.4542 103.011 63.2781 103.034C63.1048 103.054 62.9641 103.071 62.8562 103.085C62.5948 103.119 62.3505 103.175 62.1232 103.251C61.8988 103.325 61.717 103.437 61.5778 103.588C61.4414 103.736 61.3732 103.937 61.3732 104.193C61.3732 104.543 61.5025 104.807 61.761 104.986C62.0224 105.162 62.3533 105.25 62.7539 105.25ZM68.4418 97.2727V106H67.4361V97.2727H68.4418ZM74.4087 103.324V99.4545H75.4144V106H74.4087V104.892H74.3406C74.1871 105.224 73.9485 105.507 73.6246 105.74C73.3008 105.97 72.8917 106.085 72.3974 106.085C71.9883 106.085 71.6246 105.996 71.3065 105.817C70.9883 105.635 70.7383 105.362 70.5565 104.999C70.3746 104.632 70.2837 104.17 70.2837 103.614V99.4545H71.2894V103.545C71.2894 104.023 71.4229 104.403 71.69 104.688C71.9599 104.972 72.3036 105.114 72.7212 105.114C72.9712 105.114 73.2255 105.05 73.484 104.922C73.7454 104.794 73.9641 104.598 74.1403 104.334C74.3192 104.07 74.4087 103.733 74.4087 103.324ZM80.0007 106.136C79.37 106.136 78.826 105.997 78.3686 105.719C77.9141 105.438 77.5632 105.045 77.3161 104.543C77.0717 104.037 76.9496 103.449 76.9496 102.778C76.9496 102.108 77.0717 101.517 77.3161 101.006C77.5632 100.491 77.907 100.091 78.3473 99.804C78.7905 99.5142 79.3075 99.3693 79.8984 99.3693C80.2393 99.3693 80.576 99.4261 80.9084 99.5398C81.2408 99.6534 81.5433 99.8381 81.8161 100.094C82.0888 100.347 82.3061 100.682 82.468 101.099C82.63 101.517 82.7109 102.031 82.7109 102.642V103.068H77.6655V102.199H81.6882C81.6882 101.83 81.6143 101.5 81.4666 101.21C81.3217 100.92 81.1143 100.692 80.8445 100.524C80.5774 100.357 80.2621 100.273 79.8984 100.273C79.4979 100.273 79.1513 100.372 78.8587 100.571C78.5689 100.767 78.3459 101.023 78.1896 101.338C78.0334 101.653 77.9553 101.991 77.9553 102.352V102.932C77.9553 103.426 78.0405 103.845 78.2109 104.189C78.3842 104.53 78.6243 104.79 78.9311 104.969C79.2379 105.145 79.5945 105.233 80.0007 105.233C80.2649 105.233 80.5036 105.196 80.7166 105.122C80.9325 105.045 81.1186 104.932 81.2749 104.781C81.4311 104.628 81.5518 104.437 81.6371 104.21L82.6087 104.483C82.5064 104.812 82.3345 105.102 82.093 105.352C81.8516 105.599 81.5533 105.793 81.1982 105.932C80.843 106.068 80.4439 106.136 80.0007 106.136Z" fill="white" fill-opacity="0.74"/>
<path d="M1.05682 70V61.2727H4.10795C4.71591 61.2727 5.21733 61.3778 5.61222 61.5881C6.0071 61.7955 6.30114 62.0753 6.49432 62.4276C6.6875 62.777 6.78409 63.1648 6.78409 63.5909C6.78409 63.9659 6.71733 64.2756 6.58381 64.5199C6.45313 64.7642 6.27983 64.9574 6.06392 65.0994C5.85085 65.2415 5.61932 65.3466 5.36932 65.4148V65.5C5.63636 65.517 5.90483 65.6108 6.17472 65.7812C6.4446 65.9517 6.67045 66.196 6.85227 66.5142C7.03409 66.8324 7.125 67.2216 7.125 67.6818C7.125 68.1193 7.02557 68.5128 6.8267 68.8622C6.62784 69.2116 6.31392 69.4886 5.88494 69.6932C5.45597 69.8977 4.89773 70 4.21023 70H1.05682ZM2.11364 69.0625H4.21023C4.90057 69.0625 5.39063 68.929 5.6804 68.6619C5.97301 68.392 6.11932 68.0653 6.11932 67.6818C6.11932 67.3864 6.04403 67.1136 5.89347 66.8636C5.7429 66.6108 5.52841 66.4091 5.25 66.2585C4.97159 66.1051 4.64205 66.0284 4.26136 66.0284H2.11364V69.0625ZM2.11364 65.108H4.07386C4.39205 65.108 4.67898 65.0455 4.93466 64.9205C5.19318 64.7955 5.39773 64.6193 5.5483 64.392C5.7017 64.1648 5.77841 63.8977 5.77841 63.5909C5.77841 63.2074 5.64489 62.8821 5.37784 62.6151C5.1108 62.3452 4.6875 62.2102 4.10795 62.2102H2.11364V65.108ZM8.72514 70V63.4545H9.73082V70H8.72514ZM9.23651 62.3636C9.04048 62.3636 8.87145 62.2969 8.7294 62.1634C8.5902 62.0298 8.5206 61.8693 8.5206 61.6818C8.5206 61.4943 8.5902 61.3338 8.7294 61.2003C8.87145 61.0668 9.04048 61 9.23651 61C9.43253 61 9.60014 61.0668 9.73935 61.2003C9.88139 61.3338 9.95241 61.4943 9.95241 61.6818C9.95241 61.8693 9.88139 62.0298 9.73935 62.1634C9.60014 62.2969 9.43253 62.3636 9.23651 62.3636ZM12.5785 66.0625V70H11.5728V63.4545H12.5444V64.4773H12.6296C12.783 64.1449 13.016 63.8778 13.3285 63.6761C13.641 63.4716 14.0444 63.3693 14.5387 63.3693C14.9819 63.3693 15.3697 63.4602 15.7021 63.642C16.0344 63.821 16.293 64.0938 16.4776 64.4602C16.6623 64.8239 16.7546 65.2841 16.7546 65.8409V70H15.7489V65.9091C15.7489 65.3949 15.6154 64.9943 15.3484 64.7074C15.0813 64.4176 14.7148 64.2727 14.2489 64.2727C13.9279 64.2727 13.641 64.3423 13.3881 64.4815C13.1381 64.6207 12.9407 64.8239 12.7958 65.0909C12.6509 65.358 12.5785 65.6818 12.5785 66.0625ZM20.5185 70.1534C20.1037 70.1534 19.7273 70.0753 19.3892 69.919C19.0511 69.7599 18.7827 69.5312 18.5838 69.233C18.3849 68.9318 18.2855 68.5682 18.2855 68.142C18.2855 67.767 18.3594 67.4631 18.5071 67.2301C18.6548 66.9943 18.8523 66.8097 19.0994 66.6761C19.3466 66.5426 19.6193 66.4432 19.9176 66.3778C20.2188 66.3097 20.5213 66.2557 20.8253 66.2159C21.223 66.1648 21.5455 66.1264 21.7926 66.1009C22.0426 66.0724 22.2244 66.0256 22.3381 65.9602C22.4545 65.8949 22.5128 65.7812 22.5128 65.6193V65.5852C22.5128 65.1648 22.3977 64.8381 22.1676 64.6051C21.9403 64.3722 21.5952 64.2557 21.1321 64.2557C20.652 64.2557 20.2756 64.3608 20.0028 64.571C19.7301 64.7812 19.5384 65.0057 19.4276 65.2443L18.473 64.9034C18.6435 64.5057 18.8707 64.196 19.1548 63.9744C19.4418 63.75 19.7543 63.5937 20.0923 63.5057C20.4332 63.4148 20.7685 63.3693 21.098 63.3693C21.3082 63.3693 21.5497 63.3949 21.8224 63.446C22.098 63.4943 22.3636 63.5952 22.6193 63.7486C22.8778 63.902 23.0923 64.1335 23.2628 64.4432C23.4332 64.7528 23.5185 65.1676 23.5185 65.6875V70H22.5128V69.1136H22.4616C22.3935 69.2557 22.2798 69.4077 22.1207 69.5696C21.9616 69.7315 21.75 69.8693 21.4858 69.983C21.2216 70.0966 20.8991 70.1534 20.5185 70.1534ZM20.6719 69.25C21.0696 69.25 21.4048 69.1719 21.6776 69.0156C21.9531 68.8594 22.1605 68.6577 22.2997 68.4105C22.4418 68.1634 22.5128 67.9034 22.5128 67.6307V66.7102C22.4702 66.7614 22.3764 66.8082 22.2315 66.8509C22.0895 66.8906 21.9247 66.9261 21.7372 66.9574C21.5526 66.9858 21.3722 67.0114 21.196 67.0341C21.0227 67.054 20.8821 67.071 20.7741 67.0852C20.5128 67.1193 20.2685 67.1747 20.0412 67.2514C19.8168 67.3253 19.6349 67.4375 19.4957 67.5881C19.3594 67.7358 19.2912 67.9375 19.2912 68.1932C19.2912 68.5426 19.4205 68.8068 19.679 68.9858C19.9403 69.1619 20.2713 69.25 20.6719 69.25ZM25.354 70V63.4545H26.3256V64.4432H26.3938C26.5131 64.1193 26.729 63.8565 27.0415 63.6548C27.354 63.4531 27.7063 63.3523 28.0984 63.3523C28.1722 63.3523 28.2646 63.3537 28.3754 63.3565C28.4862 63.3594 28.57 63.3636 28.6268 63.3693V64.392C28.5927 64.3835 28.5146 64.3707 28.3924 64.3537C28.2731 64.3338 28.1467 64.3239 28.0131 64.3239C27.695 64.3239 27.4109 64.3906 27.1609 64.5241C26.9137 64.6548 26.7177 64.8366 26.5728 65.0696C26.4308 65.2997 26.3597 65.5625 26.3597 65.858V70H25.354ZM30.6658 72.4545C30.4954 72.4545 30.3434 72.4403 30.2099 72.4119C30.0763 72.3864 29.984 72.3608 29.9329 72.3352L30.1886 71.4489C30.4329 71.5114 30.6488 71.5341 30.8363 71.517C31.0238 71.5 31.19 71.4162 31.3349 71.2656C31.4826 71.1179 31.6175 70.8778 31.7397 70.5455L31.9272 70.0341L29.5067 63.4545H30.5977L32.4045 68.6705H32.4727L34.2795 63.4545H35.3704L32.592 70.9545C32.467 71.2926 32.3121 71.5724 32.1275 71.794C31.9428 72.0185 31.7283 72.1847 31.484 72.2926C31.2425 72.4006 30.9698 72.4545 30.6658 72.4545ZM40.2092 70V61.2727H43.2603C43.8683 61.2727 44.3697 61.3778 44.7646 61.5881C45.1594 61.7955 45.4535 62.0753 45.6467 62.4276C45.8398 62.777 45.9364 63.1648 45.9364 63.5909C45.9364 63.9659 45.8697 64.2756 45.7362 64.5199C45.6055 64.7642 45.4322 64.9574 45.2163 65.0994C45.0032 65.2415 44.7717 65.3466 44.5217 65.4148V65.5C44.7887 65.517 45.0572 65.6108 45.3271 65.7812C45.5969 65.9517 45.8228 66.196 46.0046 66.5142C46.1864 66.8324 46.2773 67.2216 46.2773 67.6818C46.2773 68.1193 46.1779 68.5128 45.979 68.8622C45.7802 69.2116 45.4663 69.4886 45.0373 69.6932C44.6083 69.8977 44.0501 70 43.3626 70H40.2092ZM41.266 69.0625H43.3626C44.0529 69.0625 44.543 68.929 44.8327 68.6619C45.1254 68.392 45.2717 68.0653 45.2717 67.6818C45.2717 67.3864 45.1964 67.1136 45.0458 66.8636C44.8952 66.6108 44.6808 66.4091 44.4023 66.2585C44.1239 66.1051 43.7944 66.0284 43.4137 66.0284H41.266V69.0625ZM41.266 65.108H43.2262C43.5444 65.108 43.8313 65.0455 44.087 64.9205C44.3455 64.7955 44.5501 64.6193 44.7006 64.392C44.854 64.1648 44.9308 63.8977 44.9308 63.5909C44.9308 63.2074 44.7972 62.8821 44.5302 62.6151C44.2631 62.3452 43.8398 62.2102 43.2603 62.2102H41.266V65.108ZM47.8775 70V63.4545H48.8832V70H47.8775ZM48.3888 62.3636C48.1928 62.3636 48.0238 62.2969 47.8817 62.1634C47.7425 62.0298 47.6729 61.8693 47.6729 61.6818C47.6729 61.4943 47.7425 61.3338 47.8817 61.2003C48.0238 61.0668 48.1928 61 48.3888 61C48.5849 61 48.7525 61.0668 48.8917 61.2003C49.0337 61.3338 49.1048 61.4943 49.1048 61.6818C49.1048 61.8693 49.0337 62.0298 48.8917 62.1634C48.7525 62.2969 48.5849 62.3636 48.3888 62.3636ZM53.5717 63.4545V64.3068H50.1797V63.4545H53.5717ZM51.1683 61.8864H52.174V68.125C52.174 68.4091 52.2152 68.6222 52.2976 68.7642C52.3828 68.9034 52.4908 68.9972 52.6214 69.0455C52.755 69.0909 52.8956 69.1136 53.0433 69.1136C53.1541 69.1136 53.245 69.108 53.3161 69.0966C53.3871 69.0824 53.4439 69.071 53.4865 69.0625L53.6911 69.9659C53.6229 69.9915 53.5277 70.017 53.4055 70.0426C53.2834 70.071 53.1286 70.0852 52.9411 70.0852C52.657 70.0852 52.3786 70.0241 52.1058 69.902C51.8359 69.7798 51.6115 69.5938 51.4325 69.3438C51.2564 69.0938 51.1683 68.7784 51.1683 68.3977V61.8864Z" fill="white" fill-opacity="0.74"/>
<path d="M213.057 12V3.27273H216.108C216.716 3.27273 217.217 3.37784 217.612 3.58807C218.007 3.79545 218.301 4.07528 218.494 4.42756C218.688 4.77699 218.784 5.16477 218.784 5.59091C218.784 5.96591 218.717 6.27557 218.584 6.51989C218.453 6.7642 218.28 6.95739 218.064 7.09943C217.851 7.24148 217.619 7.34659 217.369 7.41477V7.5C217.636 7.51705 217.905 7.6108 218.175 7.78125C218.445 7.9517 218.67 8.19602 218.852 8.5142C219.034 8.83239 219.125 9.22159 219.125 9.68182C219.125 10.1193 219.026 10.5128 218.827 10.8622C218.628 11.2116 218.314 11.4886 217.885 11.6932C217.456 11.8977 216.898 12 216.21 12H213.057ZM214.114 11.0625H216.21C216.901 11.0625 217.391 10.929 217.68 10.6619C217.973 10.392 218.119 10.0653 218.119 9.68182C218.119 9.38636 218.044 9.11364 217.893 8.86364C217.743 8.6108 217.528 8.40909 217.25 8.25852C216.972 8.10511 216.642 8.02841 216.261 8.02841H214.114V11.0625ZM214.114 7.10795H216.074C216.392 7.10795 216.679 7.04545 216.935 6.92045C217.193 6.79545 217.398 6.61932 217.548 6.39205C217.702 6.16477 217.778 5.89773 217.778 5.59091C217.778 5.20739 217.645 4.8821 217.378 4.61506C217.111 4.34517 216.688 4.21023 216.108 4.21023H214.114V7.10795ZM220.725 12V5.45455H221.731V12H220.725ZM221.237 4.36364C221.04 4.36364 220.871 4.29688 220.729 4.16335C220.59 4.02983 220.521 3.86932 220.521 3.68182C220.521 3.49432 220.59 3.33381 220.729 3.20028C220.871 3.06676 221.04 3 221.237 3C221.433 3 221.6 3.06676 221.739 3.20028C221.881 3.33381 221.952 3.49432 221.952 3.68182C221.952 3.86932 221.881 4.02983 221.739 4.16335C221.6 4.29688 221.433 4.36364 221.237 4.36364ZM224.578 8.0625V12H223.573V5.45455H224.544V6.47727H224.63C224.783 6.14489 225.016 5.87784 225.328 5.67614C225.641 5.47159 226.044 5.36932 226.539 5.36932C226.982 5.36932 227.37 5.46023 227.702 5.64205C228.034 5.82102 228.293 6.09375 228.478 6.46023C228.662 6.82386 228.755 7.28409 228.755 7.84091V12H227.749V7.90909C227.749 7.39489 227.615 6.99432 227.348 6.70739C227.081 6.41761 226.715 6.27273 226.249 6.27273C225.928 6.27273 225.641 6.34233 225.388 6.48153C225.138 6.62074 224.941 6.82386 224.796 7.09091C224.651 7.35795 224.578 7.68182 224.578 8.0625ZM232.518 12.1534C232.104 12.1534 231.727 12.0753 231.389 11.919C231.051 11.7599 230.783 11.5312 230.584 11.233C230.385 10.9318 230.286 10.5682 230.286 10.142C230.286 9.76705 230.359 9.46307 230.507 9.23011C230.655 8.99432 230.852 8.80966 231.099 8.67614C231.347 8.54261 231.619 8.44318 231.918 8.37784C232.219 8.30966 232.521 8.25568 232.825 8.21591C233.223 8.16477 233.545 8.12642 233.793 8.10085C234.043 8.07244 234.224 8.02557 234.338 7.96023C234.455 7.89489 234.513 7.78125 234.513 7.61932V7.58523C234.513 7.16477 234.398 6.83807 234.168 6.60511C233.94 6.37216 233.595 6.25568 233.132 6.25568C232.652 6.25568 232.276 6.3608 232.003 6.57102C231.73 6.78125 231.538 7.00568 231.428 7.24432L230.473 6.90341C230.643 6.50568 230.871 6.19602 231.155 5.97443C231.442 5.75 231.754 5.59375 232.092 5.50568C232.433 5.41477 232.768 5.36932 233.098 5.36932C233.308 5.36932 233.55 5.39489 233.822 5.44602C234.098 5.49432 234.364 5.59517 234.619 5.74858C234.878 5.90199 235.092 6.13352 235.263 6.44318C235.433 6.75284 235.518 7.16761 235.518 7.6875V12H234.513V11.1136H234.462C234.393 11.2557 234.28 11.4077 234.121 11.5696C233.962 11.7315 233.75 11.8693 233.486 11.983C233.222 12.0966 232.899 12.1534 232.518 12.1534ZM232.672 11.25C233.07 11.25 233.405 11.1719 233.678 11.0156C233.953 10.8594 234.161 10.6577 234.3 10.4105C234.442 10.1634 234.513 9.90341 234.513 9.63068V8.71023C234.47 8.76136 234.376 8.80824 234.232 8.85085C234.089 8.89062 233.925 8.92614 233.737 8.95739C233.553 8.9858 233.372 9.01136 233.196 9.03409C233.023 9.05398 232.882 9.07102 232.774 9.08523C232.513 9.11932 232.268 9.17472 232.041 9.25142C231.817 9.32528 231.635 9.4375 231.496 9.58807C231.359 9.7358 231.291 9.9375 231.291 10.1932C231.291 10.5426 231.42 10.8068 231.679 10.9858C231.94 11.1619 232.271 11.25 232.672 11.25ZM237.354 12V5.45455H238.326V6.44318H238.394C238.513 6.11932 238.729 5.85653 239.042 5.65483C239.354 5.45312 239.706 5.35227 240.098 5.35227C240.172 5.35227 240.265 5.35369 240.375 5.35653C240.486 5.35937 240.57 5.36364 240.627 5.36932V6.39205C240.593 6.38352 240.515 6.37074 240.392 6.35369C240.273 6.33381 240.147 6.32386 240.013 6.32386C239.695 6.32386 239.411 6.39062 239.161 6.52415C238.914 6.65483 238.718 6.83665 238.573 7.0696C238.431 7.29972 238.36 7.5625 238.36 7.85795V12H237.354ZM242.666 14.4545C242.495 14.4545 242.343 14.4403 242.21 14.4119C242.076 14.3864 241.984 14.3608 241.933 14.3352L242.189 13.4489C242.433 13.5114 242.649 13.5341 242.836 13.517C243.024 13.5 243.19 13.4162 243.335 13.2656C243.483 13.1179 243.618 12.8778 243.74 12.5455L243.927 12.0341L241.507 5.45455H242.598L244.404 10.6705H244.473L246.279 5.45455H247.37L244.592 12.9545C244.467 13.2926 244.312 13.5724 244.127 13.794C243.943 14.0185 243.728 14.1847 243.484 14.2926C243.243 14.4006 242.97 14.4545 242.666 14.4545ZM254.919 5.45455V6.30682H251.527V5.45455H254.919ZM252.516 3.88636H253.522V10.125C253.522 10.4091 253.563 10.6222 253.645 10.7642C253.73 10.9034 253.838 10.9972 253.969 11.0455C254.103 11.0909 254.243 11.1136 254.391 11.1136C254.502 11.1136 254.593 11.108 254.664 11.0966C254.735 11.0824 254.792 11.071 254.834 11.0625L255.039 11.9659C254.971 11.9915 254.875 12.017 254.753 12.0426C254.631 12.071 254.476 12.0852 254.289 12.0852C254.005 12.0852 253.726 12.0241 253.453 11.902C253.184 11.7798 252.959 11.5938 252.78 11.3438C252.604 11.0938 252.516 10.7784 252.516 10.3977V3.88636ZM259.021 12.1364C258.43 12.1364 257.912 11.9957 257.466 11.7145C257.022 11.4332 256.676 11.0398 256.426 10.5341C256.179 10.0284 256.055 9.4375 256.055 8.76136C256.055 8.07955 256.179 7.48437 256.426 6.97585C256.676 6.46733 257.022 6.07244 257.466 5.79119C257.912 5.50994 258.43 5.36932 259.021 5.36932C259.612 5.36932 260.129 5.50994 260.572 5.79119C261.018 6.07244 261.365 6.46733 261.612 6.97585C261.862 7.48437 261.987 8.07955 261.987 8.76136C261.987 9.4375 261.862 10.0284 261.612 10.5341C261.365 11.0398 261.018 11.4332 260.572 11.7145C260.129 11.9957 259.612 12.1364 259.021 12.1364ZM259.021 11.233C259.47 11.233 259.839 11.1179 260.129 10.8878C260.419 10.6577 260.633 10.3551 260.772 9.98011C260.912 9.60511 260.981 9.19886 260.981 8.76136C260.981 8.32386 260.912 7.91619 260.772 7.53835C260.633 7.16051 260.419 6.85511 260.129 6.62216C259.839 6.3892 259.47 6.27273 259.021 6.27273C258.572 6.27273 258.203 6.3892 257.913 6.62216C257.623 6.85511 257.409 7.16051 257.27 7.53835C257.13 7.91619 257.061 8.32386 257.061 8.76136C257.061 9.19886 257.13 9.60511 257.27 9.98011C257.409 10.3551 257.623 10.6577 257.913 10.8878C258.203 11.1179 258.572 11.233 259.021 11.233ZM269.369 12.1364C268.823 12.1364 268.342 11.9986 267.924 11.723C267.506 11.4446 267.18 11.0526 266.944 10.5469C266.708 10.0384 266.59 9.4375 266.59 8.74432C266.59 8.05682 266.708 7.46023 266.944 6.95455C267.18 6.44886 267.508 6.05824 267.928 5.78267C268.349 5.5071 268.835 5.36932 269.386 5.36932C269.812 5.36932 270.148 5.44034 270.396 5.58239C270.646 5.72159 270.836 5.88068 270.967 6.05966C271.1 6.2358 271.204 6.38068 271.278 6.49432H271.363V3.27273H272.369V12H271.397V10.9943H271.278C271.204 11.1136 271.099 11.2642 270.962 11.446C270.826 11.625 270.631 11.7855 270.379 11.9276C270.126 12.0668 269.789 12.1364 269.369 12.1364ZM269.505 11.233C269.908 11.233 270.249 11.1278 270.528 10.9176C270.806 10.7045 271.018 10.4105 271.163 10.0355C271.308 9.65767 271.38 9.22159 271.38 8.72727C271.38 8.23864 271.309 7.81108 271.167 7.4446C271.025 7.07528 270.815 6.78835 270.536 6.58381C270.258 6.37642 269.914 6.27273 269.505 6.27273C269.079 6.27273 268.724 6.3821 268.44 6.60085C268.158 6.81676 267.947 7.1108 267.805 7.48295C267.665 7.85227 267.596 8.26705 267.596 8.72727C267.596 9.19318 267.667 9.61648 267.809 9.99716C267.954 10.375 268.167 10.6761 268.448 10.9006C268.732 11.1222 269.085 11.233 269.505 11.233ZM277.094 12.1364C276.464 12.1364 275.92 11.9972 275.462 11.7188C275.008 11.4375 274.657 11.0455 274.41 10.5426C274.165 10.0369 274.043 9.44886 274.043 8.77841C274.043 8.10795 274.165 7.51705 274.41 7.00568C274.657 6.49148 275.001 6.09091 275.441 5.80398C275.884 5.5142 276.401 5.36932 276.992 5.36932C277.333 5.36932 277.67 5.42614 278.002 5.53977C278.335 5.65341 278.637 5.83807 278.91 6.09375C279.183 6.34659 279.4 6.68182 279.562 7.09943C279.724 7.51705 279.805 8.03125 279.805 8.64205V9.06818H274.759V8.19886H278.782C278.782 7.82955 278.708 7.5 278.56 7.21023C278.415 6.92045 278.208 6.69176 277.938 6.52415C277.671 6.35653 277.356 6.27273 276.992 6.27273C276.592 6.27273 276.245 6.37216 275.952 6.57102C275.663 6.76705 275.44 7.02273 275.283 7.33807C275.127 7.65341 275.049 7.99148 275.049 8.35227V8.93182C275.049 9.42614 275.134 9.84517 275.305 10.1889C275.478 10.5298 275.718 10.7898 276.025 10.9688C276.332 11.1449 276.688 11.233 277.094 11.233C277.359 11.233 277.597 11.196 277.81 11.1222C278.026 11.0455 278.212 10.9318 278.369 10.7812C278.525 10.6278 278.646 10.4375 278.731 10.2102L279.702 10.483C279.6 10.8125 279.428 11.1023 279.187 11.3523C278.945 11.5994 278.647 11.7926 278.292 11.9318C277.937 12.0682 277.538 12.1364 277.094 12.1364ZM283.994 12.1364C283.38 12.1364 282.852 11.9915 282.408 11.7017C281.965 11.4119 281.624 11.0128 281.386 10.5043C281.147 9.99574 281.028 9.41477 281.028 8.76136C281.028 8.09659 281.15 7.50994 281.394 7.00142C281.641 6.49006 281.985 6.09091 282.425 5.80398C282.869 5.5142 283.386 5.36932 283.977 5.36932C284.437 5.36932 284.852 5.45455 285.221 5.625C285.59 5.79545 285.893 6.03409 286.129 6.34091C286.364 6.64773 286.511 7.00568 286.567 7.41477H285.562C285.485 7.11648 285.315 6.85227 285.05 6.62216C284.789 6.3892 284.437 6.27273 283.994 6.27273C283.602 6.27273 283.258 6.375 282.962 6.57955C282.67 6.78125 282.441 7.06676 282.276 7.43608C282.114 7.80256 282.033 8.23295 282.033 8.72727C282.033 9.23295 282.113 9.6733 282.272 10.0483C282.434 10.4233 282.661 10.7145 282.954 10.9219C283.249 11.1293 283.596 11.233 283.994 11.233C284.255 11.233 284.492 11.1875 284.705 11.0966C284.918 11.0057 285.099 10.875 285.246 10.7045C285.394 10.5341 285.499 10.3295 285.562 10.0909H286.567C286.511 10.4773 286.37 10.8253 286.146 11.1349C285.924 11.4418 285.63 11.6861 285.263 11.8679C284.9 12.0469 284.477 12.1364 283.994 12.1364ZM288.038 12V5.45455H289.043V12H288.038ZM288.549 4.36364C288.353 4.36364 288.184 4.29688 288.042 4.16335C287.903 4.02983 287.833 3.86932 287.833 3.68182C287.833 3.49432 287.903 3.33381 288.042 3.20028C288.184 3.06676 288.353 3 288.549 3C288.745 3 288.913 3.06676 289.052 3.20028C289.194 3.33381 289.265 3.49432 289.265 3.68182C289.265 3.86932 289.194 4.02983 289.052 4.16335C288.913 4.29688 288.745 4.36364 288.549 4.36364ZM290.885 12V5.45455H291.857V6.47727H291.942C292.078 6.12784 292.299 5.85653 292.603 5.66335C292.907 5.46733 293.272 5.36932 293.698 5.36932C294.13 5.36932 294.489 5.46733 294.776 5.66335C295.066 5.85653 295.292 6.12784 295.453 6.47727H295.522C295.689 6.1392 295.941 5.87074 296.276 5.67188C296.611 5.47017 297.013 5.36932 297.482 5.36932C298.067 5.36932 298.546 5.55256 298.918 5.91903C299.29 6.28267 299.476 6.84943 299.476 7.61932V12H298.471V7.61932C298.471 7.13636 298.338 6.79119 298.074 6.58381C297.81 6.37642 297.499 6.27273 297.141 6.27273C296.681 6.27273 296.324 6.41193 296.071 6.69034C295.819 6.96591 295.692 7.31534 295.692 7.73864V12H294.669V7.51705C294.669 7.14489 294.549 6.84517 294.307 6.6179C294.066 6.38778 293.755 6.27273 293.374 6.27273C293.113 6.27273 292.868 6.34233 292.641 6.48153C292.417 6.62074 292.235 6.81392 292.096 7.06108C291.959 7.3054 291.891 7.58807 291.891 7.90909V12H290.885ZM303.241 12.1534C302.826 12.1534 302.45 12.0753 302.112 11.919C301.774 11.7599 301.505 11.5312 301.306 11.233C301.108 10.9318 301.008 10.5682 301.008 10.142C301.008 9.76705 301.082 9.46307 301.23 9.23011C301.377 8.99432 301.575 8.80966 301.822 8.67614C302.069 8.54261 302.342 8.44318 302.64 8.37784C302.941 8.30966 303.244 8.25568 303.548 8.21591C303.946 8.16477 304.268 8.12642 304.515 8.10085C304.765 8.07244 304.947 8.02557 305.061 7.96023C305.177 7.89489 305.235 7.78125 305.235 7.61932V7.58523C305.235 7.16477 305.12 6.83807 304.89 6.60511C304.663 6.37216 304.318 6.25568 303.855 6.25568C303.375 6.25568 302.998 6.3608 302.725 6.57102C302.453 6.78125 302.261 7.00568 302.15 7.24432L301.196 6.90341C301.366 6.50568 301.593 6.19602 301.877 5.97443C302.164 5.75 302.477 5.59375 302.815 5.50568C303.156 5.41477 303.491 5.36932 303.821 5.36932C304.031 5.36932 304.272 5.39489 304.545 5.44602C304.821 5.49432 305.086 5.59517 305.342 5.74858C305.6 5.90199 305.815 6.13352 305.985 6.44318C306.156 6.75284 306.241 7.16761 306.241 7.6875V12H305.235V11.1136H305.184C305.116 11.2557 305.002 11.4077 304.843 11.5696C304.684 11.7315 304.473 11.8693 304.208 11.983C303.944 12.0966 303.622 12.1534 303.241 12.1534ZM303.395 11.25C303.792 11.25 304.127 11.1719 304.4 11.0156C304.676 10.8594 304.883 10.6577 305.022 10.4105C305.164 10.1634 305.235 9.90341 305.235 9.63068V8.71023C305.193 8.76136 305.099 8.80824 304.954 8.85085C304.812 8.89062 304.647 8.92614 304.46 8.95739C304.275 8.9858 304.095 9.01136 303.919 9.03409C303.745 9.05398 303.605 9.07102 303.497 9.08523C303.235 9.11932 302.991 9.17472 302.764 9.25142C302.539 9.32528 302.358 9.4375 302.218 9.58807C302.082 9.7358 302.014 9.9375 302.014 10.1932C302.014 10.5426 302.143 10.8068 302.402 10.9858C302.663 11.1619 302.994 11.25 303.395 11.25ZM309.082 3.27273V12H308.077V3.27273H309.082Z" fill="white" fill-opacity="0.74"/>
</svg>
