<svg width="589" height="50" viewBox="0 0 589 50" fill="none" xmlns="http://www.w3.org/2000/svg">
<path d="M109 1V49H1V1H109Z" fill="white" stroke="#1E1E1E" stroke-width="2"/>
<rect x="480" y="1" width="108" height="48" fill="#F83030" fill-opacity="0.5" stroke="#1E1E1E" stroke-width="2"/>
<rect x="331" y="1" width="148" height="48" fill="white" stroke="#1E1E1E" stroke-width="2"/>
<path d="M381.057 30V21.2727H384.006C384.69 21.2727 385.25 21.3963 385.685 21.6435C386.122 21.8878 386.446 22.2188 386.656 22.6364C386.866 23.054 386.972 23.5199 386.972 24.0341C386.972 24.5483 386.866 25.0156 386.656 25.4361C386.449 25.8565 386.128 26.1918 385.693 26.4418C385.259 26.6889 384.702 26.8125 384.023 26.8125H381.909V25.875H383.989C384.457 25.875 384.834 25.794 385.118 25.6321C385.402 25.4702 385.608 25.2514 385.736 24.9759C385.866 24.6974 385.932 24.3835 385.932 24.0341C385.932 23.6847 385.866 23.3722 385.736 23.0966C385.608 22.821 385.401 22.6051 385.114 22.4489C384.827 22.2898 384.446 22.2102 383.972 22.2102H382.114V30H381.057ZM390.464 30.1534C390.049 30.1534 389.673 30.0753 389.335 29.919C388.996 29.7599 388.728 29.5312 388.529 29.233C388.33 28.9318 388.231 28.5682 388.231 28.142C388.231 27.767 388.305 27.4631 388.452 27.2301C388.6 26.9943 388.798 26.8097 389.045 26.6761C389.292 26.5426 389.565 26.4432 389.863 26.3778C390.164 26.3097 390.467 26.2557 390.771 26.2159C391.168 26.1648 391.491 26.1264 391.738 26.1009C391.988 26.0724 392.17 26.0256 392.283 25.9602C392.4 25.8949 392.458 25.7812 392.458 25.6193V25.5852C392.458 25.1648 392.343 24.8381 392.113 24.6051C391.886 24.3722 391.54 24.2557 391.077 24.2557C390.597 24.2557 390.221 24.3608 389.948 24.571C389.675 24.7812 389.484 25.0057 389.373 25.2443L388.418 24.9034C388.589 24.5057 388.816 24.196 389.1 23.9744C389.387 23.75 389.7 23.5937 390.038 23.5057C390.379 23.4148 390.714 23.3693 391.043 23.3693C391.254 23.3693 391.495 23.3949 391.768 23.446C392.043 23.4943 392.309 23.5952 392.565 23.7486C392.823 23.902 393.038 24.1335 393.208 24.4432C393.379 24.7528 393.464 25.1676 393.464 25.6875V30H392.458V29.1136H392.407C392.339 29.2557 392.225 29.4077 392.066 29.5696C391.907 29.7315 391.695 29.8693 391.431 29.983C391.167 30.0966 390.844 30.1534 390.464 30.1534ZM390.617 29.25C391.015 29.25 391.35 29.1719 391.623 29.0156C391.898 28.8594 392.106 28.6577 392.245 28.4105C392.387 28.1634 392.458 27.9034 392.458 27.6307V26.7102C392.415 26.7614 392.322 26.8082 392.177 26.8509C392.035 26.8906 391.87 26.9261 391.683 26.9574C391.498 26.9858 391.317 27.0114 391.141 27.0341C390.968 27.054 390.827 27.071 390.719 27.0852C390.458 27.1193 390.214 27.1747 389.987 27.2514C389.762 27.3253 389.58 27.4375 389.441 27.5881C389.305 27.7358 389.237 27.9375 389.237 28.1932C389.237 28.5426 389.366 28.8068 389.624 28.9858C389.886 29.1619 390.217 29.25 390.617 29.25ZM395.713 32.4545C395.542 32.4545 395.39 32.4403 395.257 32.4119C395.123 32.3864 395.031 32.3608 394.98 32.3352L395.235 31.4489C395.48 31.5114 395.696 31.5341 395.883 31.517C396.071 31.5 396.237 31.4162 396.382 31.2656C396.529 31.1179 396.664 30.8778 396.787 30.5455L396.974 30.0341L394.554 23.4545H395.645L397.451 28.6705H397.52L399.326 23.4545H400.417L397.639 30.9545C397.514 31.2926 397.359 31.5724 397.174 31.794C396.99 32.0185 396.775 32.1847 396.531 32.2926C396.289 32.4006 396.017 32.4545 395.713 32.4545ZM402.75 21.2727V30H401.745V21.2727H402.75ZM407.251 30.1364C406.661 30.1364 406.142 29.9957 405.696 29.7145C405.253 29.4332 404.906 29.0398 404.656 28.5341C404.409 28.0284 404.286 27.4375 404.286 26.7614C404.286 26.0795 404.409 25.4844 404.656 24.9759C404.906 24.4673 405.253 24.0724 405.696 23.7912C406.142 23.5099 406.661 23.3693 407.251 23.3693C407.842 23.3693 408.359 23.5099 408.803 23.7912C409.249 24.0724 409.595 24.4673 409.842 24.9759C410.092 25.4844 410.217 26.0795 410.217 26.7614C410.217 27.4375 410.092 28.0284 409.842 28.5341C409.595 29.0398 409.249 29.4332 408.803 29.7145C408.359 29.9957 407.842 30.1364 407.251 30.1364ZM407.251 29.233C407.7 29.233 408.07 29.1179 408.359 28.8878C408.649 28.6577 408.864 28.3551 409.003 27.9801C409.142 27.6051 409.212 27.1989 409.212 26.7614C409.212 26.3239 409.142 25.9162 409.003 25.5384C408.864 25.1605 408.649 24.8551 408.359 24.6222C408.07 24.3892 407.7 24.2727 407.251 24.2727C406.803 24.2727 406.433 24.3892 406.143 24.6222C405.854 24.8551 405.639 25.1605 405.5 25.5384C405.361 25.9162 405.291 26.3239 405.291 26.7614C405.291 27.1989 405.361 27.6051 405.5 27.9801C405.639 28.3551 405.854 28.6577 406.143 28.8878C406.433 29.1179 406.803 29.233 407.251 29.233ZM413.679 30.1534C413.264 30.1534 412.887 30.0753 412.549 29.919C412.211 29.7599 411.943 29.5312 411.744 29.233C411.545 28.9318 411.446 28.5682 411.446 28.142C411.446 27.767 411.52 27.4631 411.667 27.2301C411.815 26.9943 412.012 26.8097 412.26 26.6761C412.507 26.5426 412.779 26.4432 413.078 26.3778C413.379 26.3097 413.681 26.2557 413.985 26.2159C414.383 26.1648 414.706 26.1264 414.953 26.1009C415.203 26.0724 415.385 26.0256 415.498 25.9602C415.615 25.8949 415.673 25.7812 415.673 25.6193V25.5852C415.673 25.1648 415.558 24.8381 415.328 24.6051C415.1 24.3722 414.755 24.2557 414.292 24.2557C413.812 24.2557 413.436 24.3608 413.163 24.571C412.89 24.7812 412.699 25.0057 412.588 25.2443L411.633 24.9034C411.804 24.5057 412.031 24.196 412.315 23.9744C412.602 23.75 412.914 23.5937 413.252 23.5057C413.593 23.4148 413.929 23.3693 414.258 23.3693C414.468 23.3693 414.71 23.3949 414.983 23.446C415.258 23.4943 415.524 23.5952 415.779 23.7486C416.038 23.902 416.252 24.1335 416.423 24.4432C416.593 24.7528 416.679 25.1676 416.679 25.6875V30H415.673V29.1136H415.622C415.554 29.2557 415.44 29.4077 415.281 29.5696C415.122 29.7315 414.91 29.8693 414.646 29.983C414.382 30.0966 414.059 30.1534 413.679 30.1534ZM413.832 29.25C414.23 29.25 414.565 29.1719 414.838 29.0156C415.113 28.8594 415.321 28.6577 415.46 28.4105C415.602 28.1634 415.673 27.9034 415.673 27.6307V26.7102C415.63 26.7614 415.537 26.8082 415.392 26.8509C415.25 26.8906 415.085 26.9261 414.897 26.9574C414.713 26.9858 414.532 27.0114 414.356 27.0341C414.183 27.054 414.042 27.071 413.934 27.0852C413.673 27.1193 413.429 27.1747 413.201 27.2514C412.977 27.3253 412.795 27.4375 412.656 27.5881C412.52 27.7358 412.451 27.9375 412.451 28.1932C412.451 28.5426 412.581 28.8068 412.839 28.9858C413.1 29.1619 413.431 29.25 413.832 29.25ZM420.986 30.1364C420.44 30.1364 419.959 29.9986 419.541 29.723C419.124 29.4446 418.797 29.0526 418.561 28.5469C418.325 28.0384 418.207 27.4375 418.207 26.7443C418.207 26.0568 418.325 25.4602 418.561 24.9545C418.797 24.4489 419.125 24.0582 419.545 23.7827C419.966 23.5071 420.452 23.3693 421.003 23.3693C421.429 23.3693 421.766 23.4403 422.013 23.5824C422.263 23.7216 422.453 23.8807 422.584 24.0597C422.717 24.2358 422.821 24.3807 422.895 24.4943H422.98V21.2727H423.986V30H423.014V28.9943H422.895C422.821 29.1136 422.716 29.2642 422.58 29.446C422.443 29.625 422.249 29.7855 421.996 29.9276C421.743 30.0668 421.406 30.1364 420.986 30.1364ZM421.122 29.233C421.526 29.233 421.866 29.1278 422.145 28.9176C422.423 28.7045 422.635 28.4105 422.78 28.0355C422.925 27.6577 422.997 27.2216 422.997 26.7273C422.997 26.2386 422.926 25.8111 422.784 25.4446C422.642 25.0753 422.432 24.7884 422.153 24.5838C421.875 24.3764 421.531 24.2727 421.122 24.2727C420.696 24.2727 420.341 24.3821 420.057 24.6009C419.776 24.8168 419.564 25.1108 419.422 25.483C419.283 25.8523 419.213 26.267 419.213 26.7273C419.213 27.1932 419.284 27.6165 419.426 27.9972C419.571 28.375 419.784 28.6761 420.065 28.9006C420.349 29.1222 420.702 29.233 421.122 29.233Z" fill="#1E1E1E"/>
<path d="M500.057 20V11.2727H505.29V12.2102H501.114V15.1591H504.898V16.0966H501.114V20H500.057ZM506.893 20V13.4545H507.865V14.4432H507.933C508.052 14.1193 508.268 13.8565 508.581 13.6548C508.893 13.4531 509.245 13.3523 509.637 13.3523C509.711 13.3523 509.804 13.3537 509.914 13.3565C510.025 13.3594 510.109 13.3636 510.166 13.3693V14.392C510.132 14.3835 510.054 14.3707 509.931 14.3537C509.812 14.3338 509.686 14.3239 509.552 14.3239C509.234 14.3239 508.95 14.3906 508.7 14.5241C508.453 14.6548 508.257 14.8366 508.112 15.0696C507.97 15.2997 507.899 15.5625 507.899 15.858V20H506.893ZM513.284 20.1534C512.869 20.1534 512.493 20.0753 512.155 19.919C511.817 19.7599 511.548 19.5312 511.349 19.233C511.151 18.9318 511.051 18.5682 511.051 18.142C511.051 17.767 511.125 17.4631 511.273 17.2301C511.42 16.9943 511.618 16.8097 511.865 16.6761C512.112 16.5426 512.385 16.4432 512.683 16.3778C512.984 16.3097 513.287 16.2557 513.591 16.2159C513.989 16.1648 514.311 16.1264 514.558 16.1009C514.808 16.0724 514.99 16.0256 515.104 15.9602C515.22 15.8949 515.278 15.7812 515.278 15.6193V15.5852C515.278 15.1648 515.163 14.8381 514.933 14.6051C514.706 14.3722 514.361 14.2557 513.898 14.2557C513.418 14.2557 513.041 14.3608 512.768 14.571C512.496 14.7812 512.304 15.0057 512.193 15.2443L511.239 14.9034C511.409 14.5057 511.636 14.196 511.92 13.9744C512.207 13.75 512.52 13.5937 512.858 13.5057C513.199 13.4148 513.534 13.3693 513.864 13.3693C514.074 13.3693 514.315 13.3949 514.588 13.446C514.864 13.4943 515.129 13.5952 515.385 13.7486C515.643 13.902 515.858 14.1335 516.028 14.4432C516.199 14.7528 516.284 15.1676 516.284 15.6875V20H515.278V19.1136H515.227C515.159 19.2557 515.045 19.4077 514.886 19.5696C514.727 19.7315 514.516 19.8693 514.251 19.983C513.987 20.0966 513.665 20.1534 513.284 20.1534ZM513.438 19.25C513.835 19.25 514.17 19.1719 514.443 19.0156C514.719 18.8594 514.926 18.6577 515.065 18.4105C515.207 18.1634 515.278 17.9034 515.278 17.6307V16.7102C515.236 16.7614 515.142 16.8082 514.997 16.8509C514.855 16.8906 514.69 16.9261 514.503 16.9574C514.318 16.9858 514.138 17.0114 513.962 17.0341C513.788 17.054 513.648 17.071 513.54 17.0852C513.278 17.1193 513.034 17.1747 512.807 17.2514C512.582 17.3253 512.401 17.4375 512.261 17.5881C512.125 17.7358 512.057 17.9375 512.057 18.1932C512.057 18.5426 512.186 18.8068 512.445 18.9858C512.706 19.1619 513.037 19.25 513.438 19.25ZM518.12 20V13.4545H519.091V14.4773H519.176C519.313 14.1278 519.533 13.8565 519.837 13.6634C520.141 13.4673 520.506 13.3693 520.932 13.3693C521.364 13.3693 521.723 13.4673 522.01 13.6634C522.3 13.8565 522.526 14.1278 522.688 14.4773H522.756C522.924 14.1392 523.175 13.8707 523.51 13.6719C523.846 13.4702 524.248 13.3693 524.716 13.3693C525.301 13.3693 525.78 13.5526 526.152 13.919C526.525 14.2827 526.711 14.8494 526.711 15.6193V20H525.705V15.6193C525.705 15.1364 525.573 14.7912 525.309 14.5838C525.044 14.3764 524.733 14.2727 524.375 14.2727C523.915 14.2727 523.559 14.4119 523.306 14.6903C523.053 14.9659 522.926 15.3153 522.926 15.7386V20H521.904V15.517C521.904 15.1449 521.783 14.8452 521.542 14.6179C521.3 14.3878 520.989 14.2727 520.608 14.2727C520.347 14.2727 520.103 14.3423 519.875 14.4815C519.651 14.6207 519.469 14.8139 519.33 15.0611C519.194 15.3054 519.125 15.5881 519.125 15.9091V20H518.12ZM531.294 20.1364C530.663 20.1364 530.119 19.9972 529.662 19.7188C529.207 19.4375 528.856 19.0455 528.609 18.5426C528.365 18.0369 528.243 17.4489 528.243 16.7784C528.243 16.108 528.365 15.517 528.609 15.0057C528.856 14.4915 529.2 14.0909 529.64 13.804C530.083 13.5142 530.6 13.3693 531.191 13.3693C531.532 13.3693 531.869 13.4261 532.201 13.5398C532.534 13.6534 532.836 13.8381 533.109 14.0938C533.382 14.3466 533.599 14.6818 533.761 15.0994C533.923 15.517 534.004 16.0312 534.004 16.642V17.0682H528.958V16.1989H532.981C532.981 15.8295 532.907 15.5 532.76 15.2102C532.615 14.9205 532.407 14.6918 532.137 14.5241C531.87 14.3565 531.555 14.2727 531.191 14.2727C530.791 14.2727 530.444 14.3722 530.152 14.571C529.862 14.767 529.639 15.0227 529.483 15.3381C529.326 15.6534 529.248 15.9915 529.248 16.3523V16.9318C529.248 17.4261 529.333 17.8452 529.504 18.1889C529.677 18.5298 529.917 18.7898 530.224 18.9688C530.531 19.1449 530.887 19.233 531.294 19.233C531.558 19.233 531.797 19.196 532.01 19.1222C532.225 19.0455 532.412 18.9318 532.568 18.7812C532.724 18.6278 532.845 18.4375 532.93 18.2102L533.902 18.483C533.799 18.8125 533.627 19.1023 533.386 19.3523C533.145 19.5994 532.846 19.7926 532.491 19.9318C532.136 20.0682 531.737 20.1364 531.294 20.1364ZM546.068 14H545.011C544.949 13.696 544.839 13.429 544.683 13.1989C544.529 12.9688 544.342 12.7756 544.12 12.6193C543.902 12.4602 543.659 12.3409 543.392 12.2614C543.125 12.1818 542.846 12.142 542.556 12.142C542.028 12.142 541.549 12.2756 541.12 12.5426C540.694 12.8097 540.355 13.2031 540.102 13.723C539.852 14.2429 539.727 14.8807 539.727 15.6364C539.727 16.392 539.852 17.0298 540.102 17.5497C540.355 18.0696 540.694 18.4631 541.12 18.7301C541.549 18.9972 542.028 19.1307 542.556 19.1307C542.846 19.1307 543.125 19.0909 543.392 19.0114C543.659 18.9318 543.902 18.8139 544.12 18.6577C544.342 18.4986 544.529 18.304 544.683 18.0739C544.839 17.8409 544.949 17.5739 545.011 17.2727H546.068C545.988 17.7187 545.843 18.1179 545.633 18.4702C545.423 18.8224 545.162 19.1222 544.849 19.3693C544.537 19.6136 544.186 19.7997 543.797 19.9276C543.41 20.0554 542.997 20.1193 542.556 20.1193C541.812 20.1193 541.15 19.9375 540.571 19.5739C539.991 19.2102 539.535 18.6932 539.203 18.0227C538.87 17.3523 538.704 16.5568 538.704 15.6364C538.704 14.7159 538.87 13.9205 539.203 13.25C539.535 12.5795 539.991 12.0625 540.571 11.6989C541.15 11.3352 541.812 11.1534 542.556 11.1534C542.997 11.1534 543.41 11.2173 543.797 11.3452C544.186 11.473 544.537 11.6605 544.849 11.9077C545.162 12.152 545.423 12.4503 545.633 12.8026C545.843 13.152 545.988 13.5511 546.068 14ZM548.645 16.0625V20H547.639V11.2727H548.645V14.4773H548.73C548.884 14.1392 549.114 13.8707 549.42 13.6719C549.73 13.4702 550.142 13.3693 550.656 13.3693C551.102 13.3693 551.493 13.4588 551.828 13.6378C552.163 13.8139 552.423 14.0852 552.608 14.4517C552.795 14.8153 552.889 15.2784 552.889 15.8409V20H551.884V15.9091C551.884 15.3892 551.749 14.9872 551.479 14.7031C551.212 14.4162 550.841 14.2727 550.366 14.2727C550.037 14.2727 549.741 14.3423 549.48 14.4815C549.222 14.6207 549.017 14.8239 548.866 15.0909C548.719 15.358 548.645 15.6818 548.645 16.0625ZM557.473 20.1364C556.843 20.1364 556.299 19.9972 555.841 19.7188C555.387 19.4375 555.036 19.0455 554.789 18.5426C554.544 18.0369 554.422 17.4489 554.422 16.7784C554.422 16.108 554.544 15.517 554.789 15.0057C555.036 14.4915 555.38 14.0909 555.82 13.804C556.263 13.5142 556.78 13.3693 557.371 13.3693C557.712 13.3693 558.049 13.4261 558.381 13.5398C558.713 13.6534 559.016 13.8381 559.289 14.0938C559.561 14.3466 559.779 14.6818 559.941 15.0994C560.103 15.517 560.184 16.0312 560.184 16.642V17.0682H555.138V16.1989H559.161C559.161 15.8295 559.087 15.5 558.939 15.2102C558.794 14.9205 558.587 14.6918 558.317 14.5241C558.05 14.3565 557.735 14.2727 557.371 14.2727C556.971 14.2727 556.624 14.3722 556.331 14.571C556.042 14.767 555.819 15.0227 555.662 15.3381C555.506 15.6534 555.428 15.9915 555.428 16.3523V16.9318C555.428 17.4261 555.513 17.8452 555.684 18.1889C555.857 18.5298 556.097 18.7898 556.404 18.9688C556.711 19.1449 557.067 19.233 557.473 19.233C557.738 19.233 557.976 19.196 558.189 19.1222C558.405 19.0455 558.591 18.9318 558.748 18.7812C558.904 18.6278 559.025 18.4375 559.11 18.2102L560.081 18.483C559.979 18.8125 559.807 19.1023 559.566 19.3523C559.324 19.5994 559.026 19.7926 558.671 19.9318C558.316 20.0682 557.917 20.1364 557.473 20.1364ZM564.373 20.1364C563.759 20.1364 563.23 19.9915 562.787 19.7017C562.344 19.4119 562.003 19.0128 561.765 18.5043C561.526 17.9957 561.407 17.4148 561.407 16.7614C561.407 16.0966 561.529 15.5099 561.773 15.0014C562.02 14.4901 562.364 14.0909 562.804 13.804C563.248 13.5142 563.765 13.3693 564.355 13.3693C564.816 13.3693 565.23 13.4545 565.6 13.625C565.969 13.7955 566.272 14.0341 566.507 14.3409C566.743 14.6477 566.89 15.0057 566.946 15.4148H565.941C565.864 15.1165 565.694 14.8523 565.429 14.6222C565.168 14.3892 564.816 14.2727 564.373 14.2727C563.98 14.2727 563.637 14.375 563.341 14.5795C563.049 14.7812 562.82 15.0668 562.655 15.4361C562.493 15.8026 562.412 16.233 562.412 16.7273C562.412 17.233 562.492 17.6733 562.651 18.0483C562.813 18.4233 563.04 18.7145 563.333 18.9219C563.628 19.1293 563.975 19.233 564.373 19.233C564.634 19.233 564.871 19.1875 565.084 19.0966C565.297 19.0057 565.478 18.875 565.625 18.7045C565.773 18.5341 565.878 18.3295 565.941 18.0909H566.946C566.89 18.4773 566.749 18.8253 566.525 19.1349C566.303 19.4418 566.009 19.6861 565.642 19.8679C565.279 20.0469 564.855 20.1364 564.373 20.1364ZM569.354 17.6136L569.337 16.3693H569.542L572.405 13.4545H573.65L570.598 16.5398H570.513L569.354 17.6136ZM568.417 20V11.2727H569.422V20H568.417ZM572.576 20L570.019 16.7614L570.735 16.0625L573.854 20H572.576ZM504.83 28.4545C504.778 28.0227 504.571 27.6875 504.207 27.4489C503.844 27.2102 503.398 27.0909 502.869 27.0909C502.483 27.0909 502.145 27.1534 501.855 27.2784C501.568 27.4034 501.344 27.5753 501.182 27.794C501.023 28.0128 500.943 28.2614 500.943 28.5398C500.943 28.7727 500.999 28.973 501.109 29.1406C501.223 29.3054 501.368 29.4432 501.544 29.554C501.72 29.6619 501.905 29.7514 502.098 29.8224C502.291 29.8906 502.469 29.946 502.631 29.9886L503.517 30.2273C503.744 30.2869 503.997 30.3693 504.276 30.4744C504.557 30.5795 504.825 30.723 505.081 30.9048C505.339 31.0838 505.553 31.3139 505.72 31.5952C505.888 31.8764 505.972 32.2216 505.972 32.6307C505.972 33.1023 505.848 33.5284 505.601 33.9091C505.357 34.2898 504.999 34.5923 504.527 34.8168C504.058 35.0412 503.489 35.1534 502.818 35.1534C502.193 35.1534 501.652 35.0526 501.195 34.8509C500.74 34.6491 500.382 34.3679 500.121 34.0071C499.862 33.6463 499.716 33.2273 499.682 32.75H500.773C500.801 33.0795 500.912 33.3523 501.105 33.5682C501.301 33.7812 501.548 33.9403 501.847 34.0455C502.148 34.1477 502.472 34.1989 502.818 34.1989C503.222 34.1989 503.584 34.1335 503.905 34.0028C504.226 33.8693 504.48 33.6847 504.668 33.4489C504.855 33.2102 504.949 32.9318 504.949 32.6136C504.949 32.3239 504.868 32.0881 504.706 31.9062C504.544 31.7244 504.331 31.5767 504.067 31.4631C503.803 31.3494 503.517 31.25 503.21 31.1648L502.136 30.858C501.455 30.6619 500.915 30.3821 500.517 30.0185C500.119 29.6548 499.92 29.179 499.92 28.5909C499.92 28.1023 500.053 27.6761 500.317 27.3125C500.584 26.946 500.942 26.6619 501.391 26.4602C501.842 26.2557 502.347 26.1534 502.903 26.1534C503.466 26.1534 503.966 26.2543 504.403 26.456C504.841 26.6548 505.188 26.9276 505.443 27.2741C505.702 27.6207 505.838 28.0142 505.852 28.4545H504.83ZM510.317 35.1364C509.686 35.1364 509.142 34.9972 508.685 34.7188C508.23 34.4375 507.88 34.0455 507.632 33.5426C507.388 33.0369 507.266 32.4489 507.266 31.7784C507.266 31.108 507.388 30.517 507.632 30.0057C507.88 29.4915 508.223 29.0909 508.664 28.804C509.107 28.5142 509.624 28.3693 510.215 28.3693C510.556 28.3693 510.892 28.4261 511.225 28.5398C511.557 28.6534 511.86 28.8381 512.132 29.0938C512.405 29.3466 512.623 29.6818 512.784 30.0994C512.946 30.517 513.027 31.0312 513.027 31.642V32.0682H507.982V31.1989H512.005C512.005 30.8295 511.931 30.5 511.783 30.2102C511.638 29.9205 511.431 29.6918 511.161 29.5241C510.894 29.3565 510.578 29.2727 510.215 29.2727C509.814 29.2727 509.468 29.3722 509.175 29.571C508.885 29.767 508.662 30.0227 508.506 30.3381C508.35 30.6534 508.272 30.9915 508.272 31.3523V31.9318C508.272 32.4261 508.357 32.8452 508.527 33.1889C508.701 33.5298 508.941 33.7898 509.248 33.9688C509.554 34.1449 509.911 34.233 510.317 34.233C510.581 34.233 510.82 34.196 511.033 34.1222C511.249 34.0455 511.435 33.9318 511.591 33.7812C511.748 33.6278 511.868 33.4375 511.953 33.2102L512.925 33.483C512.823 33.8125 512.651 34.1023 512.409 34.3523C512.168 34.5994 511.87 34.7926 511.515 34.9318C511.159 35.0682 510.76 35.1364 510.317 35.1364ZM519.023 37.4545V33.9943H518.938C518.864 34.1136 518.759 34.2642 518.623 34.446C518.486 34.625 518.292 34.7855 518.039 34.9276C517.786 35.0668 517.449 35.1364 517.029 35.1364C516.483 35.1364 516.002 34.9986 515.584 34.723C515.167 34.4446 514.84 34.0526 514.604 33.5469C514.368 33.0384 514.25 32.4375 514.25 31.7443C514.25 31.0568 514.368 30.4602 514.604 29.9545C514.84 29.4489 515.168 29.0582 515.588 28.7827C516.009 28.5071 516.495 28.3693 517.046 28.3693C517.472 28.3693 517.809 28.4403 518.056 28.5824C518.306 28.7216 518.496 28.8807 518.627 29.0597C518.76 29.2358 518.864 29.3807 518.938 29.4943H519.057V28.4545H520.029V37.4545H519.023ZM517.165 34.233C517.569 34.233 517.909 34.1278 518.188 33.9176C518.466 33.7045 518.678 33.4105 518.823 33.0355C518.968 32.6577 519.04 32.2216 519.04 31.7273C519.04 31.2386 518.969 30.8111 518.827 30.4446C518.685 30.0753 518.475 29.7884 518.196 29.5838C517.918 29.3764 517.574 29.2727 517.165 29.2727C516.739 29.2727 516.384 29.3821 516.1 29.6009C515.819 29.8168 515.607 30.1108 515.465 30.483C515.326 30.8523 515.256 31.267 515.256 31.7273C515.256 32.1932 515.327 32.6165 515.469 32.9972C515.614 33.375 515.827 33.6761 516.108 33.9006C516.392 34.1222 516.745 34.233 517.165 34.233ZM525.995 32.3239V28.4545H527V35H525.995V33.892H525.926C525.773 34.2244 525.534 34.5071 525.211 34.7401C524.887 34.9702 524.478 35.0852 523.983 35.0852C523.574 35.0852 523.211 34.9957 522.892 34.8168C522.574 34.6349 522.324 34.3622 522.142 33.9986C521.961 33.6321 521.87 33.1705 521.87 32.6136V28.4545H522.875V32.5455C522.875 33.0227 523.009 33.4034 523.276 33.6875C523.546 33.9716 523.89 34.1136 524.307 34.1136C524.557 34.1136 524.811 34.0497 525.07 33.9219C525.331 33.794 525.55 33.598 525.726 33.3338C525.905 33.0696 525.995 32.733 525.995 32.3239ZM531.587 35.1364C530.956 35.1364 530.412 34.9972 529.955 34.7188C529.5 34.4375 529.149 34.0455 528.902 33.5426C528.658 33.0369 528.536 32.4489 528.536 31.7784C528.536 31.108 528.658 30.517 528.902 30.0057C529.149 29.4915 529.493 29.0909 529.933 28.804C530.376 28.5142 530.893 28.3693 531.484 28.3693C531.825 28.3693 532.162 28.4261 532.494 28.5398C532.827 28.6534 533.129 28.8381 533.402 29.0938C533.675 29.3466 533.892 29.6818 534.054 30.0994C534.216 30.517 534.297 31.0312 534.297 31.642V32.0682H529.251V31.1989H533.274C533.274 30.8295 533.2 30.5 533.053 30.2102C532.908 29.9205 532.7 29.6918 532.43 29.5241C532.163 29.3565 531.848 29.2727 531.484 29.2727C531.084 29.2727 530.737 29.3722 530.445 29.571C530.155 29.767 529.932 30.0227 529.776 30.3381C529.619 30.6534 529.541 30.9915 529.541 31.3523V31.9318C529.541 32.4261 529.626 32.8452 529.797 33.1889C529.97 33.5298 530.21 33.7898 530.517 33.9688C530.824 34.1449 531.18 34.233 531.587 34.233C531.851 34.233 532.089 34.196 532.303 34.1222C532.518 34.0455 532.705 33.9318 532.861 33.7812C533.017 33.6278 533.138 33.4375 533.223 33.2102L534.195 33.483C534.092 33.8125 533.92 34.1023 533.679 34.3523C533.438 34.5994 533.139 34.7926 532.784 34.9318C532.429 35.0682 532.03 35.1364 531.587 35.1364ZM536.832 31.0625V35H535.827V28.4545H536.798V29.4773H536.884C537.037 29.1449 537.27 28.8778 537.582 28.6761C537.895 28.4716 538.298 28.3693 538.793 28.3693C539.236 28.3693 539.624 28.4602 539.956 28.642C540.288 28.821 540.547 29.0938 540.732 29.4602C540.916 29.8239 541.009 30.2841 541.009 30.8409V35H540.003V30.9091C540.003 30.3949 539.869 29.9943 539.602 29.7074C539.335 29.4176 538.969 29.2727 538.503 29.2727C538.182 29.2727 537.895 29.3423 537.642 29.4815C537.392 29.6207 537.195 29.8239 537.05 30.0909C536.905 30.358 536.832 30.6818 536.832 31.0625ZM545.505 35.1364C544.892 35.1364 544.363 34.9915 543.92 34.7017C543.477 34.4119 543.136 34.0128 542.897 33.5043C542.659 32.9957 542.539 32.4148 542.539 31.7614C542.539 31.0966 542.662 30.5099 542.906 30.0014C543.153 29.4901 543.497 29.0909 543.937 28.804C544.38 28.5142 544.897 28.3693 545.488 28.3693C545.949 28.3693 546.363 28.4545 546.733 28.625C547.102 28.7955 547.404 29.0341 547.64 29.3409C547.876 29.6477 548.022 30.0057 548.079 30.4148H547.074C546.997 30.1165 546.826 29.8523 546.562 29.6222C546.301 29.3892 545.949 29.2727 545.505 29.2727C545.113 29.2727 544.77 29.375 544.474 29.5795C544.181 29.7812 543.953 30.0668 543.788 30.4361C543.626 30.8026 543.545 31.233 543.545 31.7273C543.545 32.233 543.625 32.6733 543.784 33.0483C543.946 33.4233 544.173 33.7145 544.466 33.9219C544.761 34.1293 545.108 34.233 545.505 34.233C545.767 34.233 546.004 34.1875 546.217 34.0966C546.43 34.0057 546.61 33.875 546.758 33.7045C546.906 33.5341 547.011 33.3295 547.074 33.0909H548.079C548.022 33.4773 547.882 33.8253 547.657 34.1349C547.436 34.4418 547.142 34.6861 546.775 34.8679C546.412 35.0469 545.988 35.1364 545.505 35.1364ZM552.294 35.1364C551.663 35.1364 551.119 34.9972 550.662 34.7188C550.207 34.4375 549.856 34.0455 549.609 33.5426C549.365 33.0369 549.243 32.4489 549.243 31.7784C549.243 31.108 549.365 30.517 549.609 30.0057C549.856 29.4915 550.2 29.0909 550.64 28.804C551.083 28.5142 551.6 28.3693 552.191 28.3693C552.532 28.3693 552.869 28.4261 553.201 28.5398C553.534 28.6534 553.836 28.8381 554.109 29.0938C554.382 29.3466 554.599 29.6818 554.761 30.0994C554.923 30.517 555.004 31.0312 555.004 31.642V32.0682H549.958V31.1989H553.981C553.981 30.8295 553.907 30.5 553.76 30.2102C553.615 29.9205 553.407 29.6918 553.137 29.5241C552.87 29.3565 552.555 29.2727 552.191 29.2727C551.791 29.2727 551.444 29.3722 551.152 29.571C550.862 29.767 550.639 30.0227 550.483 30.3381C550.326 30.6534 550.248 30.9915 550.248 31.3523V31.9318C550.248 32.4261 550.333 32.8452 550.504 33.1889C550.677 33.5298 550.917 33.7898 551.224 33.9688C551.531 34.1449 551.887 34.233 552.294 34.233C552.558 34.233 552.797 34.196 553.01 34.1222C553.225 34.0455 553.412 33.9318 553.568 33.7812C553.724 33.6278 553.845 33.4375 553.93 33.2102L554.902 33.483C554.799 33.8125 554.627 34.1023 554.386 34.3523C554.145 34.5994 553.846 34.7926 553.491 34.9318C553.136 35.0682 552.737 35.1364 552.294 35.1364Z" fill="#1E1E1E"/>
<path d="M29.75 20H27.0568V11.2727H29.8693C30.7159 11.2727 31.4403 11.4474 32.0426 11.7969C32.6449 12.1435 33.1065 12.642 33.4276 13.2926C33.7486 13.9403 33.9091 14.7159 33.9091 15.6193C33.9091 16.5284 33.7472 17.3111 33.4233 17.9673C33.0994 18.6207 32.6278 19.1236 32.0085 19.4759C31.3892 19.8253 30.6364 20 29.75 20ZM28.1136 19.0625H29.6818C30.4034 19.0625 31.0014 18.9233 31.4759 18.6449C31.9503 18.3665 32.304 17.9702 32.5369 17.456C32.7699 16.9418 32.8864 16.3295 32.8864 15.6193C32.8864 14.9148 32.7713 14.3082 32.5412 13.7997C32.3111 13.2884 31.9673 12.8963 31.5099 12.6236C31.0526 12.348 30.483 12.2102 29.8011 12.2102H28.1136V19.0625ZM38.2898 20.1364C37.6591 20.1364 37.1151 19.9972 36.6577 19.7188C36.2031 19.4375 35.8523 19.0455 35.6051 18.5426C35.3608 18.0369 35.2386 17.4489 35.2386 16.7784C35.2386 16.108 35.3608 15.517 35.6051 15.0057C35.8523 14.4915 36.196 14.0909 36.6364 13.804C37.0795 13.5142 37.5966 13.3693 38.1875 13.3693C38.5284 13.3693 38.8651 13.4261 39.1974 13.5398C39.5298 13.6534 39.8324 13.8381 40.1051 14.0938C40.3778 14.3466 40.5952 14.6818 40.7571 15.0994C40.919 15.517 41 16.0312 41 16.642V17.0682H35.9545V16.1989H39.9773C39.9773 15.8295 39.9034 15.5 39.7557 15.2102C39.6108 14.9205 39.4034 14.6918 39.1335 14.5241C38.8665 14.3565 38.5511 14.2727 38.1875 14.2727C37.7869 14.2727 37.4403 14.3722 37.1477 14.571C36.858 14.767 36.6349 15.0227 36.4787 15.3381C36.3224 15.6534 36.2443 15.9915 36.2443 16.3523V16.9318C36.2443 17.4261 36.3295 17.8452 36.5 18.1889C36.6733 18.5298 36.9134 18.7898 37.2202 18.9688C37.527 19.1449 37.8835 19.233 38.2898 19.233C38.554 19.233 38.7926 19.196 39.0057 19.1222C39.2216 19.0455 39.4077 18.9318 39.5639 18.7812C39.7202 18.6278 39.8409 18.4375 39.9261 18.2102L40.8977 18.483C40.7955 18.8125 40.6236 19.1023 40.3821 19.3523C40.1406 19.5994 39.8423 19.7926 39.4872 19.9318C39.1321 20.0682 38.733 20.1364 38.2898 20.1364ZM47.1662 14.9205L46.2628 15.1761C46.206 15.0256 46.1222 14.8793 46.0114 14.7372C45.9034 14.5923 45.7557 14.473 45.5682 14.3793C45.3807 14.2855 45.1406 14.2386 44.848 14.2386C44.4474 14.2386 44.1136 14.331 43.8466 14.5156C43.5824 14.6974 43.4503 14.929 43.4503 15.2102C43.4503 15.4602 43.5412 15.6577 43.723 15.8026C43.9048 15.9474 44.1889 16.0682 44.5753 16.1648L45.5469 16.4034C46.1321 16.5455 46.5682 16.7628 46.8551 17.0554C47.142 17.3452 47.2855 17.7187 47.2855 18.1761C47.2855 18.5511 47.1776 18.8864 46.9616 19.1818C46.7486 19.4773 46.4503 19.7102 46.0668 19.8807C45.6832 20.0511 45.2372 20.1364 44.7287 20.1364C44.0611 20.1364 43.5085 19.9915 43.071 19.7017C42.6335 19.4119 42.3565 18.9886 42.2401 18.4318L43.1946 18.1932C43.2855 18.5455 43.4574 18.8097 43.7102 18.9858C43.9659 19.1619 44.2997 19.25 44.7116 19.25C45.1804 19.25 45.5526 19.1506 45.8281 18.9517C46.1065 18.75 46.2457 18.5085 46.2457 18.2273C46.2457 18 46.1662 17.8097 46.0071 17.6562C45.848 17.5 45.6037 17.3835 45.2741 17.3068L44.1832 17.0511C43.5838 16.9091 43.1435 16.6889 42.8622 16.3906C42.5838 16.0895 42.4446 15.7131 42.4446 15.2614C42.4446 14.892 42.5483 14.5653 42.7557 14.2812C42.9659 13.9972 43.2514 13.7741 43.6122 13.6122C43.9759 13.4503 44.3878 13.3693 44.848 13.3693C45.4957 13.3693 46.0043 13.5114 46.3736 13.7955C46.7457 14.0795 47.0099 14.4545 47.1662 14.9205ZM51.646 13.4545V14.3068H48.2539V13.4545H51.646ZM49.2425 11.8864H50.2482V18.125C50.2482 18.4091 50.2894 18.6222 50.3718 18.7642C50.457 18.9034 50.565 18.9972 50.6957 19.0455C50.8292 19.0909 50.9698 19.1136 51.1175 19.1136C51.2283 19.1136 51.3192 19.108 51.3903 19.0966C51.4613 19.0824 51.5181 19.071 51.5607 19.0625L51.7653 19.9659C51.6971 19.9915 51.6019 20.017 51.4798 20.0426C51.3576 20.071 51.2028 20.0852 51.0153 20.0852C50.7312 20.0852 50.4528 20.0241 50.18 19.902C49.9102 19.7798 49.6857 19.5938 49.5067 19.3438C49.3306 19.0938 49.2425 18.7784 49.2425 18.3977V11.8864ZM56.6701 11.2727H57.9315L60.8974 18.517H60.9996L63.9656 11.2727H65.2269V20H64.2383V13.3693H64.1531L61.4258 20H60.4712L57.744 13.3693H57.6587V20H56.6701V11.2727ZM67.7038 20H66.5959L69.8004 11.2727H70.8913L74.0959 20H72.9879L70.38 12.6534H70.3118L67.7038 20ZM68.1129 16.5909H72.5788V17.5284H68.1129V16.5909ZM82.0678 14H81.011C80.9485 13.696 80.8391 13.429 80.6829 13.1989C80.5295 12.9688 80.342 12.7756 80.1204 12.6193C79.9016 12.4602 79.6587 12.3409 79.3917 12.2614C79.1246 12.1818 78.8462 12.142 78.5565 12.142C78.0281 12.142 77.5494 12.2756 77.1204 12.5426C76.6942 12.8097 76.3548 13.2031 76.1019 13.723C75.8519 14.2429 75.7269 14.8807 75.7269 15.6364C75.7269 16.392 75.8519 17.0298 76.1019 17.5497C76.3548 18.0696 76.6942 18.4631 77.1204 18.7301C77.5494 18.9972 78.0281 19.1307 78.5565 19.1307C78.8462 19.1307 79.1246 19.0909 79.3917 19.0114C79.6587 18.9318 79.9016 18.8139 80.1204 18.6577C80.342 18.4986 80.5295 18.304 80.6829 18.0739C80.8391 17.8409 80.9485 17.5739 81.011 17.2727H82.0678C81.9883 17.7187 81.8434 18.1179 81.6332 18.4702C81.4229 18.8224 81.1616 19.1222 80.8491 19.3693C80.5366 19.6136 80.1857 19.7997 79.7965 19.9276C79.4102 20.0554 78.9968 20.1193 78.5565 20.1193C77.8121 20.1193 77.1502 19.9375 76.5707 19.5739C75.9911 19.2102 75.5352 18.6932 75.2028 18.0227C74.8704 17.3523 74.7042 16.5568 74.7042 15.6364C74.7042 14.7159 74.8704 13.9205 75.2028 13.25C75.5352 12.5795 75.9911 12.0625 76.5707 11.6989C77.1502 11.3352 77.8121 11.1534 78.5565 11.1534C78.9968 11.1534 79.4102 11.2173 79.7965 11.3452C80.1857 11.473 80.5366 11.6605 80.8491 11.9077C81.1616 12.152 81.4229 12.4503 81.6332 12.8026C81.8434 13.152 81.9883 13.5511 82.0678 14ZM27.4148 35H26.3068L29.5114 26.2727H30.6023L33.8068 35H32.6989L30.0909 27.6534H30.0227L27.4148 35ZM27.8239 31.5909H32.2898V32.5284H27.8239V31.5909ZM37.5014 35.1364C36.956 35.1364 36.4744 34.9986 36.0568 34.723C35.6392 34.4446 35.3125 34.0526 35.0767 33.5469C34.8409 33.0384 34.723 32.4375 34.723 31.7443C34.723 31.0568 34.8409 30.4602 35.0767 29.9545C35.3125 29.4489 35.6406 29.0582 36.0611 28.7827C36.4815 28.5071 36.9673 28.3693 37.5185 28.3693C37.9446 28.3693 38.2813 28.4403 38.5284 28.5824C38.7784 28.7216 38.9688 28.8807 39.0994 29.0597C39.233 29.2358 39.3366 29.3807 39.4105 29.4943H39.4957V26.2727H40.5014V35H39.5298V33.9943H39.4105C39.3366 34.1136 39.2315 34.2642 39.0952 34.446C38.9588 34.625 38.7642 34.7855 38.5114 34.9276C38.2585 35.0668 37.9219 35.1364 37.5014 35.1364ZM37.6378 34.233C38.0412 34.233 38.3821 34.1278 38.6605 33.9176C38.9389 33.7045 39.1506 33.4105 39.2955 33.0355C39.4403 32.6577 39.5128 32.2216 39.5128 31.7273C39.5128 31.2386 39.4418 30.8111 39.2997 30.4446C39.1577 30.0753 38.9474 29.7884 38.669 29.5838C38.3906 29.3764 38.0469 29.2727 37.6378 29.2727C37.2116 29.2727 36.8565 29.3821 36.5724 29.6009C36.2912 29.8168 36.0795 30.1108 35.9375 30.483C35.7983 30.8523 35.7287 31.267 35.7287 31.7273C35.7287 32.1932 35.7997 32.6165 35.9418 32.9972C36.0866 33.375 36.2997 33.6761 36.581 33.9006C36.8651 34.1222 37.2173 34.233 37.6378 34.233ZM44.9545 35.1364C44.4091 35.1364 43.9276 34.9986 43.5099 34.723C43.0923 34.4446 42.7656 34.0526 42.5298 33.5469C42.294 33.0384 42.1761 32.4375 42.1761 31.7443C42.1761 31.0568 42.294 30.4602 42.5298 29.9545C42.7656 29.4489 43.0938 29.0582 43.5142 28.7827C43.9347 28.5071 44.4205 28.3693 44.9716 28.3693C45.3977 28.3693 45.7344 28.4403 45.9815 28.5824C46.2315 28.7216 46.4219 28.8807 46.5526 29.0597C46.6861 29.2358 46.7898 29.3807 46.8636 29.4943H46.9489V26.2727H47.9545V35H46.983V33.9943H46.8636C46.7898 34.1136 46.6847 34.2642 46.5483 34.446C46.4119 34.625 46.2173 34.7855 45.9645 34.9276C45.7116 35.0668 45.375 35.1364 44.9545 35.1364ZM45.0909 34.233C45.4943 34.233 45.8352 34.1278 46.1136 33.9176C46.392 33.7045 46.6037 33.4105 46.7486 33.0355C46.8935 32.6577 46.9659 32.2216 46.9659 31.7273C46.9659 31.2386 46.8949 30.8111 46.7528 30.4446C46.6108 30.0753 46.4006 29.7884 46.1222 29.5838C45.8438 29.3764 45.5 29.2727 45.0909 29.2727C44.6648 29.2727 44.3097 29.3821 44.0256 29.6009C43.7443 29.8168 43.5327 30.1108 43.3906 30.483C43.2514 30.8523 43.1818 31.267 43.1818 31.7273C43.1818 32.1932 43.2528 32.6165 43.3949 32.9972C43.5398 33.375 43.7528 33.6761 44.0341 33.9006C44.3182 34.1222 44.6705 34.233 45.0909 34.233ZM49.9361 35V28.4545H50.9077V29.4432H50.9759C51.0952 29.1193 51.3111 28.8565 51.6236 28.6548C51.9361 28.4531 52.2884 28.3523 52.6804 28.3523C52.7543 28.3523 52.8466 28.3537 52.9574 28.3565C53.0682 28.3594 53.152 28.3636 53.2088 28.3693V29.392C53.1747 29.3835 53.0966 29.3707 52.9744 29.3537C52.8551 29.3338 52.7287 29.3239 52.5952 29.3239C52.277 29.3239 51.9929 29.3906 51.7429 29.5241C51.4957 29.6548 51.2997 29.8366 51.1548 30.0696C51.0128 30.2997 50.9418 30.5625 50.9418 30.858V35H49.9361ZM56.946 35.1364C56.3153 35.1364 55.7713 34.9972 55.3139 34.7188C54.8594 34.4375 54.5085 34.0455 54.2614 33.5426C54.017 33.0369 53.8949 32.4489 53.8949 31.7784C53.8949 31.108 54.017 30.517 54.2614 30.0057C54.5085 29.4915 54.8523 29.0909 55.2926 28.804C55.7358 28.5142 56.2528 28.3693 56.8438 28.3693C57.1847 28.3693 57.5213 28.4261 57.8537 28.5398C58.1861 28.6534 58.4886 28.8381 58.7614 29.0938C59.0341 29.3466 59.2514 29.6818 59.4134 30.0994C59.5753 30.517 59.6562 31.0312 59.6562 31.642V32.0682H54.6108V31.1989H58.6335C58.6335 30.8295 58.5597 30.5 58.4119 30.2102C58.267 29.9205 58.0597 29.6918 57.7898 29.5241C57.5227 29.3565 57.2074 29.2727 56.8438 29.2727C56.4432 29.2727 56.0966 29.3722 55.804 29.571C55.5142 29.767 55.2912 30.0227 55.1349 30.3381C54.9787 30.6534 54.9006 30.9915 54.9006 31.3523V31.9318C54.9006 32.4261 54.9858 32.8452 55.1562 33.1889C55.3295 33.5298 55.5696 33.7898 55.8764 33.9688C56.1832 34.1449 56.5398 34.233 56.946 34.233C57.2102 34.233 57.4489 34.196 57.6619 34.1222C57.8778 34.0455 58.0639 33.9318 58.2202 33.7812C58.3764 33.6278 58.4972 33.4375 58.5824 33.2102L59.554 33.483C59.4517 33.8125 59.2798 34.1023 59.0384 34.3523C58.7969 34.5994 58.4986 34.7926 58.1435 34.9318C57.7884 35.0682 57.3892 35.1364 56.946 35.1364ZM65.8224 29.9205L64.919 30.1761C64.8622 30.0256 64.7784 29.8793 64.6676 29.7372C64.5597 29.5923 64.4119 29.473 64.2244 29.3793C64.0369 29.2855 63.7969 29.2386 63.5043 29.2386C63.1037 29.2386 62.7699 29.331 62.5028 29.5156C62.2386 29.6974 62.1065 29.929 62.1065 30.2102C62.1065 30.4602 62.1974 30.6577 62.3793 30.8026C62.5611 30.9474 62.8452 31.0682 63.2315 31.1648L64.2031 31.4034C64.7884 31.5455 65.2244 31.7628 65.5114 32.0554C65.7983 32.3452 65.9418 32.7187 65.9418 33.1761C65.9418 33.5511 65.8338 33.8864 65.6179 34.1818C65.4048 34.4773 65.1065 34.7102 64.723 34.8807C64.3395 35.0511 63.8935 35.1364 63.3849 35.1364C62.7173 35.1364 62.1648 34.9915 61.7273 34.7017C61.2898 34.4119 61.0128 33.9886 60.8963 33.4318L61.8509 33.1932C61.9418 33.5455 62.1136 33.8097 62.3665 33.9858C62.6222 34.1619 62.956 34.25 63.3679 34.25C63.8366 34.25 64.2088 34.1506 64.4844 33.9517C64.7628 33.75 64.902 33.5085 64.902 33.2273C64.902 33 64.8224 32.8097 64.6634 32.6562C64.5043 32.5 64.2599 32.3835 63.9304 32.3068L62.8395 32.0511C62.2401 31.9091 61.7997 31.6889 61.5185 31.3906C61.2401 31.0895 61.1009 30.7131 61.1009 30.2614C61.1009 29.892 61.2045 29.5653 61.4119 29.2812C61.6222 28.9972 61.9077 28.7741 62.2685 28.6122C62.6321 28.4503 63.044 28.3693 63.5043 28.3693C64.152 28.3693 64.6605 28.5114 65.0298 28.7955C65.402 29.0795 65.6662 29.4545 65.8224 29.9205ZM72.092 29.9205L71.1886 30.1761C71.1317 30.0256 71.0479 29.8793 70.9371 29.7372C70.8292 29.5923 70.6815 29.473 70.494 29.3793C70.3065 29.2855 70.0664 29.2386 69.7738 29.2386C69.3732 29.2386 69.0394 29.331 68.7724 29.5156C68.5082 29.6974 68.3761 29.929 68.3761 30.2102C68.3761 30.4602 68.467 30.6577 68.6488 30.8026C68.8306 30.9474 69.1147 31.0682 69.5011 31.1648L70.4727 31.4034C71.0579 31.5455 71.494 31.7628 71.7809 32.0554C72.0678 32.3452 72.2113 32.7187 72.2113 33.1761C72.2113 33.5511 72.1033 33.8864 71.8874 34.1818C71.6744 34.4773 71.3761 34.7102 70.9925 34.8807C70.609 35.0511 70.163 35.1364 69.6545 35.1364C68.9869 35.1364 68.4343 34.9915 67.9968 34.7017C67.5593 34.4119 67.2823 33.9886 67.1658 33.4318L68.1204 33.1932C68.2113 33.5455 68.3832 33.8097 68.636 33.9858C68.8917 34.1619 69.2255 34.25 69.6374 34.25C70.1062 34.25 70.4783 34.1506 70.7539 33.9517C71.0323 33.75 71.1715 33.5085 71.1715 33.2273C71.1715 33 71.092 32.8097 70.9329 32.6562C70.7738 32.5 70.5295 32.3835 70.1999 32.3068L69.109 32.0511C68.5096 31.9091 68.0692 31.6889 67.788 31.3906C67.5096 31.0895 67.3704 30.7131 67.3704 30.2614C67.3704 29.892 67.4741 29.5653 67.6815 29.2812C67.8917 28.9972 68.1772 28.7741 68.538 28.6122C68.9016 28.4503 69.3136 28.3693 69.7738 28.3693C70.4215 28.3693 70.93 28.5114 71.2994 28.7955C71.6715 29.0795 71.9357 29.4545 72.092 29.9205Z" fill="#1E1E1E"/>
<path d="M329 1V49H221V1H329Z" fill="white" stroke="#1E1E1E" stroke-width="2"/>
<path d="M242.057 25V16.2727H247.324V17.2102H243.114V20.1591H247.051V21.0966H243.114V24.0625H247.392V25H242.057ZM251.939 18.4545V19.3068H248.547V18.4545H251.939ZM249.536 16.8864H250.541V23.125C250.541 23.4091 250.582 23.6222 250.665 23.7642C250.75 23.9034 250.858 23.9972 250.989 24.0455C251.122 24.0909 251.263 24.1136 251.411 24.1136C251.521 24.1136 251.612 24.108 251.683 24.0966C251.754 24.0824 251.811 24.071 251.854 24.0625L252.058 24.9659C251.99 24.9915 251.895 25.017 251.773 25.0426C251.651 25.071 251.496 25.0852 251.308 25.0852C251.024 25.0852 250.746 25.0241 250.473 24.902C250.203 24.7798 249.979 24.5938 249.8 24.3438C249.624 24.0938 249.536 23.7784 249.536 23.3977V16.8864ZM254.598 21.0625V25H253.592V16.2727H254.598V19.4773H254.683C254.837 19.1392 255.067 18.8707 255.374 18.6719C255.683 18.4702 256.095 18.3693 256.609 18.3693C257.055 18.3693 257.446 18.4588 257.781 18.6378C258.116 18.8139 258.376 19.0852 258.561 19.4517C258.749 19.8153 258.842 20.2784 258.842 20.8409V25H257.837V20.9091C257.837 20.3892 257.702 19.9872 257.432 19.7031C257.165 19.4162 256.794 19.2727 256.32 19.2727C255.99 19.2727 255.695 19.3423 255.433 19.4815C255.175 19.6207 254.97 19.8239 254.82 20.0909C254.672 20.358 254.598 20.6818 254.598 21.0625ZM263.426 25.1364C262.796 25.1364 262.252 24.9972 261.794 24.7188C261.34 24.4375 260.989 24.0455 260.742 23.5426C260.498 23.0369 260.375 22.4489 260.375 21.7784C260.375 21.108 260.498 20.517 260.742 20.0057C260.989 19.4915 261.333 19.0909 261.773 18.804C262.216 18.5142 262.733 18.3693 263.324 18.3693C263.665 18.3693 264.002 18.4261 264.334 18.5398C264.667 18.6534 264.969 18.8381 265.242 19.0938C265.515 19.3466 265.732 19.6818 265.894 20.0994C266.056 20.517 266.137 21.0312 266.137 21.642V22.0682H261.091V21.1989H265.114C265.114 20.8295 265.04 20.5 264.892 20.2102C264.748 19.9205 264.54 19.6918 264.27 19.5241C264.003 19.3565 263.688 19.2727 263.324 19.2727C262.924 19.2727 262.577 19.3722 262.284 19.571C261.995 19.767 261.772 20.0227 261.615 20.3381C261.459 20.6534 261.381 20.9915 261.381 21.3523V21.9318C261.381 22.4261 261.466 22.8452 261.637 23.1889C261.81 23.5298 262.05 23.7898 262.357 23.9688C262.664 24.1449 263.02 24.233 263.426 24.233C263.691 24.233 263.929 24.196 264.142 24.1222C264.358 24.0455 264.544 23.9318 264.701 23.7812C264.857 23.6278 264.978 23.4375 265.063 23.2102L266.034 23.483C265.932 23.8125 265.76 24.1023 265.519 24.3523C265.277 24.5994 264.979 24.7926 264.624 24.9318C264.269 25.0682 263.87 25.1364 263.426 25.1364ZM267.667 25V18.4545H268.638V19.4432H268.706C268.826 19.1193 269.042 18.8565 269.354 18.6548C269.667 18.4531 270.019 18.3523 270.411 18.3523C270.485 18.3523 270.577 18.3537 270.688 18.3565C270.799 18.3594 270.882 18.3636 270.939 18.3693V19.392C270.905 19.3835 270.827 19.3707 270.705 19.3537C270.586 19.3338 270.459 19.3239 270.326 19.3239C270.007 19.3239 269.723 19.3906 269.473 19.5241C269.226 19.6548 269.03 19.8366 268.885 20.0696C268.743 20.2997 268.672 20.5625 268.672 20.858V25H267.667ZM271.111 17.2102V16.2727H277.656V17.2102H274.912V25H273.855V17.2102H271.111ZM279.049 27.4545C278.878 27.4545 278.726 27.4403 278.593 27.4119C278.459 27.3864 278.367 27.3608 278.316 27.3352L278.571 26.4489C278.816 26.5114 279.032 26.5341 279.219 26.517C279.407 26.5 279.573 26.4162 279.718 26.2656C279.865 26.1179 280 25.8778 280.123 25.5455L280.31 25.0341L277.89 18.4545H278.98L280.787 23.6705H280.855L282.662 18.4545H283.753L280.975 25.9545C280.85 26.2926 280.695 26.5724 280.51 26.794C280.326 27.0185 280.111 27.1847 279.867 27.2926C279.625 27.4006 279.353 27.4545 279.049 27.4545ZM285.081 27.4545V18.4545H286.052V19.4943H286.172C286.245 19.3807 286.348 19.2358 286.478 19.0597C286.612 18.8807 286.802 18.7216 287.049 18.5824C287.299 18.4403 287.637 18.3693 288.064 18.3693C288.615 18.3693 289.1 18.5071 289.521 18.7827C289.941 19.0582 290.27 19.4489 290.505 19.9545C290.741 20.4602 290.859 21.0568 290.859 21.7443C290.859 22.4375 290.741 23.0384 290.505 23.5469C290.27 24.0526 289.943 24.4446 289.525 24.723C289.108 24.9986 288.626 25.1364 288.081 25.1364C287.66 25.1364 287.324 25.0668 287.071 24.9276C286.818 24.7855 286.623 24.625 286.487 24.446C286.35 24.2642 286.245 24.1136 286.172 23.9943H286.086V27.4545H285.081ZM286.069 21.7273C286.069 22.2216 286.142 22.6577 286.287 23.0355C286.431 23.4105 286.643 23.7045 286.922 23.9176C287.2 24.1278 287.541 24.233 287.944 24.233C288.365 24.233 288.716 24.1222 288.997 23.9006C289.281 23.6761 289.494 23.375 289.636 22.9972C289.781 22.6165 289.853 22.1932 289.853 21.7273C289.853 21.267 289.782 20.8523 289.64 20.483C289.501 20.1108 289.289 19.8168 289.005 19.6009C288.724 19.3821 288.37 19.2727 287.944 19.2727C287.535 19.2727 287.191 19.3764 286.913 19.5838C286.635 19.7884 286.424 20.0753 286.282 20.4446C286.14 20.8111 286.069 21.2386 286.069 21.7273ZM295.137 25.1364C294.507 25.1364 293.963 24.9972 293.505 24.7188C293.051 24.4375 292.7 24.0455 292.453 23.5426C292.208 23.0369 292.086 22.4489 292.086 21.7784C292.086 21.108 292.208 20.517 292.453 20.0057C292.7 19.4915 293.044 19.0909 293.484 18.804C293.927 18.5142 294.444 18.3693 295.035 18.3693C295.376 18.3693 295.713 18.4261 296.045 18.5398C296.377 18.6534 296.68 18.8381 296.953 19.0938C297.225 19.3466 297.443 19.6818 297.605 20.0994C297.767 20.517 297.848 21.0312 297.848 21.642V22.0682H292.802V21.1989H296.825C296.825 20.8295 296.751 20.5 296.603 20.2102C296.458 19.9205 296.251 19.6918 295.981 19.5241C295.714 19.3565 295.399 19.2727 295.035 19.2727C294.635 19.2727 294.288 19.3722 293.995 19.571C293.706 19.767 293.483 20.0227 293.326 20.3381C293.17 20.6534 293.092 20.9915 293.092 21.3523V21.9318C293.092 22.4261 293.177 22.8452 293.348 23.1889C293.521 23.5298 293.761 23.7898 294.068 23.9688C294.375 24.1449 294.731 24.233 295.137 24.233C295.402 24.233 295.64 24.196 295.853 24.1222C296.069 24.0455 296.255 23.9318 296.412 23.7812C296.568 23.6278 296.689 23.4375 296.774 23.2102L297.745 23.483C297.643 23.8125 297.471 24.1023 297.23 24.3523C296.988 24.5994 296.69 24.7926 296.335 24.9318C295.98 25.0682 295.581 25.1364 295.137 25.1364Z" fill="#1E1E1E"/>
<path d="M219 1V49H111V1H219Z" fill="white" stroke="#1E1E1E" stroke-width="2"/>
<path d="M141.83 13.4545C141.778 13.0227 141.571 12.6875 141.207 12.4489C140.844 12.2102 140.398 12.0909 139.869 12.0909C139.483 12.0909 139.145 12.1534 138.855 12.2784C138.568 12.4034 138.344 12.5753 138.182 12.794C138.023 13.0128 137.943 13.2614 137.943 13.5398C137.943 13.7727 137.999 13.973 138.109 14.1406C138.223 14.3054 138.368 14.4432 138.544 14.554C138.72 14.6619 138.905 14.7514 139.098 14.8224C139.291 14.8906 139.469 14.946 139.631 14.9886L140.517 15.2273C140.744 15.2869 140.997 15.3693 141.276 15.4744C141.557 15.5795 141.825 15.723 142.081 15.9048C142.339 16.0838 142.553 16.3139 142.72 16.5952C142.888 16.8764 142.972 17.2216 142.972 17.6307C142.972 18.1023 142.848 18.5284 142.601 18.9091C142.357 19.2898 141.999 19.5923 141.527 19.8168C141.058 20.0412 140.489 20.1534 139.818 20.1534C139.193 20.1534 138.652 20.0526 138.195 19.8509C137.74 19.6491 137.382 19.3679 137.121 19.0071C136.862 18.6463 136.716 18.2273 136.682 17.75H137.773C137.801 18.0795 137.912 18.3523 138.105 18.5682C138.301 18.7812 138.548 18.9403 138.847 19.0455C139.148 19.1477 139.472 19.1989 139.818 19.1989C140.222 19.1989 140.584 19.1335 140.905 19.0028C141.226 18.8693 141.48 18.6847 141.668 18.4489C141.855 18.2102 141.949 17.9318 141.949 17.6136C141.949 17.3239 141.868 17.0881 141.706 16.9062C141.544 16.7244 141.331 16.5767 141.067 16.4631C140.803 16.3494 140.517 16.25 140.21 16.1648L139.136 15.858C138.455 15.6619 137.915 15.3821 137.517 15.0185C137.119 14.6548 136.92 14.179 136.92 13.5909C136.92 13.1023 137.053 12.6761 137.317 12.3125C137.584 11.946 137.942 11.6619 138.391 11.4602C138.842 11.2557 139.347 11.1534 139.903 11.1534C140.466 11.1534 140.966 11.2543 141.403 11.456C141.841 11.6548 142.188 11.9276 142.443 12.2741C142.702 12.6207 142.838 13.0142 142.852 13.4545H141.83ZM147.232 20.1364C146.641 20.1364 146.123 19.9957 145.676 19.7145C145.233 19.4332 144.887 19.0398 144.637 18.5341C144.39 18.0284 144.266 17.4375 144.266 16.7614C144.266 16.0795 144.39 15.4844 144.637 14.9759C144.887 14.4673 145.233 14.0724 145.676 13.7912C146.123 13.5099 146.641 13.3693 147.232 13.3693C147.823 13.3693 148.34 13.5099 148.783 13.7912C149.229 14.0724 149.576 14.4673 149.823 14.9759C150.073 15.4844 150.198 16.0795 150.198 16.7614C150.198 17.4375 150.073 18.0284 149.823 18.5341C149.576 19.0398 149.229 19.4332 148.783 19.7145C148.34 19.9957 147.823 20.1364 147.232 20.1364ZM147.232 19.233C147.681 19.233 148.05 19.1179 148.34 18.8878C148.63 18.6577 148.844 18.3551 148.983 17.9801C149.123 17.6051 149.192 17.1989 149.192 16.7614C149.192 16.3239 149.123 15.9162 148.983 15.5384C148.844 15.1605 148.63 14.8551 148.34 14.6222C148.05 14.3892 147.681 14.2727 147.232 14.2727C146.783 14.2727 146.414 14.3892 146.124 14.6222C145.834 14.8551 145.62 15.1605 145.48 15.5384C145.341 15.9162 145.272 16.3239 145.272 16.7614C145.272 17.1989 145.341 17.6051 145.48 17.9801C145.62 18.3551 145.834 18.6577 146.124 18.8878C146.414 19.1179 146.783 19.233 147.232 19.233ZM155.858 17.3239V13.4545H156.864V20H155.858V18.892H155.79C155.636 19.2244 155.398 19.5071 155.074 19.7401C154.75 19.9702 154.341 20.0852 153.847 20.0852C153.438 20.0852 153.074 19.9957 152.756 19.8168C152.438 19.6349 152.188 19.3622 152.006 18.9986C151.824 18.6321 151.733 18.1705 151.733 17.6136V13.4545H152.739V17.5455C152.739 18.0227 152.872 18.4034 153.139 18.6875C153.409 18.9716 153.753 19.1136 154.17 19.1136C154.42 19.1136 154.675 19.0497 154.933 18.9219C155.195 18.794 155.413 18.598 155.589 18.3338C155.768 18.0696 155.858 17.733 155.858 17.3239ZM158.706 20V13.4545H159.677V14.4432H159.745C159.865 14.1193 160.081 13.8565 160.393 13.6548C160.706 13.4531 161.058 13.3523 161.45 13.3523C161.524 13.3523 161.616 13.3537 161.727 13.3565C161.838 13.3594 161.922 13.3636 161.978 13.3693V14.392C161.944 14.3835 161.866 14.3707 161.744 14.3537C161.625 14.3338 161.498 14.3239 161.365 14.3239C161.047 14.3239 160.762 14.3906 160.512 14.5241C160.265 14.6548 160.069 14.8366 159.924 15.0696C159.782 15.2997 159.711 15.5625 159.711 15.858V20H158.706ZM165.63 20.1364C165.017 20.1364 164.488 19.9915 164.045 19.7017C163.602 19.4119 163.261 19.0128 163.022 18.5043C162.784 17.9957 162.664 17.4148 162.664 16.7614C162.664 16.0966 162.787 15.5099 163.031 15.0014C163.278 14.4901 163.622 14.0909 164.062 13.804C164.505 13.5142 165.022 13.3693 165.613 13.3693C166.074 13.3693 166.488 13.4545 166.858 13.625C167.227 13.7955 167.529 14.0341 167.765 14.3409C168.001 14.6477 168.147 15.0057 168.204 15.4148H167.199C167.122 15.1165 166.951 14.8523 166.687 14.6222C166.426 14.3892 166.074 14.2727 165.63 14.2727C165.238 14.2727 164.895 14.375 164.599 14.5795C164.306 14.7812 164.078 15.0668 163.913 15.4361C163.751 15.8026 163.67 16.233 163.67 16.7273C163.67 17.233 163.75 17.6733 163.909 18.0483C164.071 18.4233 164.298 18.7145 164.591 18.9219C164.886 19.1293 165.233 19.233 165.63 19.233C165.892 19.233 166.129 19.1875 166.342 19.0966C166.555 19.0057 166.735 18.875 166.883 18.7045C167.031 18.5341 167.136 18.3295 167.199 18.0909H168.204C168.147 18.4773 168.007 18.8253 167.782 19.1349C167.561 19.4418 167.267 19.6861 166.9 19.8679C166.537 20.0469 166.113 20.1364 165.63 20.1364ZM172.419 20.1364C171.788 20.1364 171.244 19.9972 170.787 19.7188C170.332 19.4375 169.981 19.0455 169.734 18.5426C169.49 18.0369 169.368 17.4489 169.368 16.7784C169.368 16.108 169.49 15.517 169.734 15.0057C169.981 14.4915 170.325 14.0909 170.765 13.804C171.208 13.5142 171.725 13.3693 172.316 13.3693C172.657 13.3693 172.994 13.4261 173.326 13.5398C173.659 13.6534 173.961 13.8381 174.234 14.0938C174.507 14.3466 174.724 14.6818 174.886 15.0994C175.048 15.517 175.129 16.0312 175.129 16.642V17.0682H170.083V16.1989H174.106C174.106 15.8295 174.032 15.5 173.885 15.2102C173.74 14.9205 173.532 14.6918 173.262 14.5241C172.995 14.3565 172.68 14.2727 172.316 14.2727C171.916 14.2727 171.569 14.3722 171.277 14.571C170.987 14.767 170.764 15.0227 170.608 15.3381C170.451 15.6534 170.373 15.9915 170.373 16.3523V16.9318C170.373 17.4261 170.458 17.8452 170.629 18.1889C170.802 18.5298 171.042 18.7898 171.349 18.9688C171.656 19.1449 172.012 19.233 172.419 19.233C172.683 19.233 172.922 19.196 173.135 19.1222C173.35 19.0455 173.537 18.9318 173.693 18.7812C173.849 18.6278 173.97 18.4375 174.055 18.2102L175.027 18.483C174.924 18.8125 174.752 19.1023 174.511 19.3523C174.27 19.5994 173.971 19.7926 173.616 19.9318C173.261 20.0682 172.862 20.1364 172.419 20.1364ZM180.17 11.2727H181.431L184.397 18.517H184.5L187.466 11.2727H188.727V20H187.738V13.3693H187.653L184.926 20H183.971L181.244 13.3693H181.159V20H180.17V11.2727ZM191.204 20H190.096L193.3 11.2727H194.391L197.596 20H196.488L193.88 12.6534H193.812L191.204 20ZM191.613 16.5909H196.079V17.5284H191.613V16.5909ZM205.568 14H204.511C204.449 13.696 204.339 13.429 204.183 13.1989C204.029 12.9688 203.842 12.7756 203.62 12.6193C203.402 12.4602 203.159 12.3409 202.892 12.2614C202.625 12.1818 202.346 12.142 202.056 12.142C201.528 12.142 201.049 12.2756 200.62 12.5426C200.194 12.8097 199.855 13.2031 199.602 13.723C199.352 14.2429 199.227 14.8807 199.227 15.6364C199.227 16.392 199.352 17.0298 199.602 17.5497C199.855 18.0696 200.194 18.4631 200.62 18.7301C201.049 18.9972 201.528 19.1307 202.056 19.1307C202.346 19.1307 202.625 19.0909 202.892 19.0114C203.159 18.9318 203.402 18.8139 203.62 18.6577C203.842 18.4986 204.029 18.304 204.183 18.0739C204.339 17.8409 204.449 17.5739 204.511 17.2727H205.568C205.488 17.7187 205.343 18.1179 205.133 18.4702C204.923 18.8224 204.662 19.1222 204.349 19.3693C204.037 19.6136 203.686 19.7997 203.297 19.9276C202.91 20.0554 202.497 20.1193 202.056 20.1193C201.312 20.1193 200.65 19.9375 200.071 19.5739C199.491 19.2102 199.035 18.6932 198.703 18.0227C198.37 17.3523 198.204 16.5568 198.204 15.6364C198.204 14.7159 198.37 13.9205 198.703 13.25C199.035 12.5795 199.491 12.0625 200.071 11.6989C200.65 11.3352 201.312 11.1534 202.056 11.1534C202.497 11.1534 202.91 11.2173 203.297 11.3452C203.686 11.473 204.037 11.6605 204.349 11.9077C204.662 12.152 204.923 12.4503 205.133 12.8026C205.343 13.152 205.488 13.5511 205.568 14ZM137.415 35H136.307L139.511 26.2727H140.602L143.807 35H142.699L140.091 27.6534H140.023L137.415 35ZM137.824 31.5909H142.29V32.5284H137.824V31.5909ZM147.501 35.1364C146.956 35.1364 146.474 34.9986 146.057 34.723C145.639 34.4446 145.313 34.0526 145.077 33.5469C144.841 33.0384 144.723 32.4375 144.723 31.7443C144.723 31.0568 144.841 30.4602 145.077 29.9545C145.313 29.4489 145.641 29.0582 146.061 28.7827C146.482 28.5071 146.967 28.3693 147.518 28.3693C147.945 28.3693 148.281 28.4403 148.528 28.5824C148.778 28.7216 148.969 28.8807 149.099 29.0597C149.233 29.2358 149.337 29.3807 149.411 29.4943H149.496V26.2727H150.501V35H149.53V33.9943H149.411C149.337 34.1136 149.232 34.2642 149.095 34.446C148.959 34.625 148.764 34.7855 148.511 34.9276C148.259 35.0668 147.922 35.1364 147.501 35.1364ZM147.638 34.233C148.041 34.233 148.382 34.1278 148.661 33.9176C148.939 33.7045 149.151 33.4105 149.295 33.0355C149.44 32.6577 149.513 32.2216 149.513 31.7273C149.513 31.2386 149.442 30.8111 149.3 30.4446C149.158 30.0753 148.947 29.7884 148.669 29.5838C148.391 29.3764 148.047 29.2727 147.638 29.2727C147.212 29.2727 146.857 29.3821 146.572 29.6009C146.291 29.8168 146.08 30.1108 145.938 30.483C145.798 30.8523 145.729 31.267 145.729 31.7273C145.729 32.1932 145.8 32.6165 145.942 32.9972C146.087 33.375 146.3 33.6761 146.581 33.9006C146.865 34.1222 147.217 34.233 147.638 34.233ZM154.955 35.1364C154.409 35.1364 153.928 34.9986 153.51 34.723C153.092 34.4446 152.766 34.0526 152.53 33.5469C152.294 33.0384 152.176 32.4375 152.176 31.7443C152.176 31.0568 152.294 30.4602 152.53 29.9545C152.766 29.4489 153.094 29.0582 153.514 28.7827C153.935 28.5071 154.42 28.3693 154.972 28.3693C155.398 28.3693 155.734 28.4403 155.982 28.5824C156.232 28.7216 156.422 28.8807 156.553 29.0597C156.686 29.2358 156.79 29.3807 156.864 29.4943H156.949V26.2727H157.955V35H156.983V33.9943H156.864C156.79 34.1136 156.685 34.2642 156.548 34.446C156.412 34.625 156.217 34.7855 155.964 34.9276C155.712 35.0668 155.375 35.1364 154.955 35.1364ZM155.091 34.233C155.494 34.233 155.835 34.1278 156.114 33.9176C156.392 33.7045 156.604 33.4105 156.749 33.0355C156.893 32.6577 156.966 32.2216 156.966 31.7273C156.966 31.2386 156.895 30.8111 156.753 30.4446C156.611 30.0753 156.401 29.7884 156.122 29.5838C155.844 29.3764 155.5 29.2727 155.091 29.2727C154.665 29.2727 154.31 29.3821 154.026 29.6009C153.744 29.8168 153.533 30.1108 153.391 30.483C153.251 30.8523 153.182 31.267 153.182 31.7273C153.182 32.1932 153.253 32.6165 153.395 32.9972C153.54 33.375 153.753 33.6761 154.034 33.9006C154.318 34.1222 154.67 34.233 155.091 34.233ZM159.936 35V28.4545H160.908V29.4432H160.976C161.095 29.1193 161.311 28.8565 161.624 28.6548C161.936 28.4531 162.288 28.3523 162.68 28.3523C162.754 28.3523 162.847 28.3537 162.957 28.3565C163.068 28.3594 163.152 28.3636 163.209 28.3693V29.392C163.175 29.3835 163.097 29.3707 162.974 29.3537C162.855 29.3338 162.729 29.3239 162.595 29.3239C162.277 29.3239 161.993 29.3906 161.743 29.5241C161.496 29.6548 161.3 29.8366 161.155 30.0696C161.013 30.2997 160.942 30.5625 160.942 30.858V35H159.936ZM166.946 35.1364C166.315 35.1364 165.771 34.9972 165.314 34.7188C164.859 34.4375 164.509 34.0455 164.261 33.5426C164.017 33.0369 163.895 32.4489 163.895 31.7784C163.895 31.108 164.017 30.517 164.261 30.0057C164.509 29.4915 164.852 29.0909 165.293 28.804C165.736 28.5142 166.253 28.3693 166.844 28.3693C167.185 28.3693 167.521 28.4261 167.854 28.5398C168.186 28.6534 168.489 28.8381 168.761 29.0938C169.034 29.3466 169.251 29.6818 169.413 30.0994C169.575 30.517 169.656 31.0312 169.656 31.642V32.0682H164.611V31.1989H168.634C168.634 30.8295 168.56 30.5 168.412 30.2102C168.267 29.9205 168.06 29.6918 167.79 29.5241C167.523 29.3565 167.207 29.2727 166.844 29.2727C166.443 29.2727 166.097 29.3722 165.804 29.571C165.514 29.767 165.291 30.0227 165.135 30.3381C164.979 30.6534 164.901 30.9915 164.901 31.3523V31.9318C164.901 32.4261 164.986 32.8452 165.156 33.1889C165.33 33.5298 165.57 33.7898 165.876 33.9688C166.183 34.1449 166.54 34.233 166.946 34.233C167.21 34.233 167.449 34.196 167.662 34.1222C167.878 34.0455 168.064 33.9318 168.22 33.7812C168.376 33.6278 168.497 33.4375 168.582 33.2102L169.554 33.483C169.452 33.8125 169.28 34.1023 169.038 34.3523C168.797 34.5994 168.499 34.7926 168.143 34.9318C167.788 35.0682 167.389 35.1364 166.946 35.1364ZM175.822 29.9205L174.919 30.1761C174.862 30.0256 174.778 29.8793 174.668 29.7372C174.56 29.5923 174.412 29.473 174.224 29.3793C174.037 29.2855 173.797 29.2386 173.504 29.2386C173.104 29.2386 172.77 29.331 172.503 29.5156C172.239 29.6974 172.107 29.929 172.107 30.2102C172.107 30.4602 172.197 30.6577 172.379 30.8026C172.561 30.9474 172.845 31.0682 173.232 31.1648L174.203 31.4034C174.788 31.5455 175.224 31.7628 175.511 32.0554C175.798 32.3452 175.942 32.7187 175.942 33.1761C175.942 33.5511 175.834 33.8864 175.618 34.1818C175.405 34.4773 175.107 34.7102 174.723 34.8807C174.339 35.0511 173.893 35.1364 173.385 35.1364C172.717 35.1364 172.165 34.9915 171.727 34.7017C171.29 34.4119 171.013 33.9886 170.896 33.4318L171.851 33.1932C171.942 33.5455 172.114 33.8097 172.366 33.9858C172.622 34.1619 172.956 34.25 173.368 34.25C173.837 34.25 174.209 34.1506 174.484 33.9517C174.763 33.75 174.902 33.5085 174.902 33.2273C174.902 33 174.822 32.8097 174.663 32.6562C174.504 32.5 174.26 32.3835 173.93 32.3068L172.839 32.0511C172.24 31.9091 171.8 31.6889 171.518 31.3906C171.24 31.0895 171.101 30.7131 171.101 30.2614C171.101 29.892 171.205 29.5653 171.412 29.2812C171.622 28.9972 171.908 28.7741 172.268 28.6122C172.632 28.4503 173.044 28.3693 173.504 28.3693C174.152 28.3693 174.661 28.5114 175.03 28.7955C175.402 29.0795 175.666 29.4545 175.822 29.9205ZM182.092 29.9205L181.189 30.1761C181.132 30.0256 181.048 29.8793 180.937 29.7372C180.829 29.5923 180.681 29.473 180.494 29.3793C180.306 29.2855 180.066 29.2386 179.774 29.2386C179.373 29.2386 179.039 29.331 178.772 29.5156C178.508 29.6974 178.376 29.929 178.376 30.2102C178.376 30.4602 178.467 30.6577 178.649 30.8026C178.831 30.9474 179.115 31.0682 179.501 31.1648L180.473 31.4034C181.058 31.5455 181.494 31.7628 181.781 32.0554C182.068 32.3452 182.211 32.7187 182.211 33.1761C182.211 33.5511 182.103 33.8864 181.887 34.1818C181.674 34.4773 181.376 34.7102 180.993 34.8807C180.609 35.0511 180.163 35.1364 179.654 35.1364C178.987 35.1364 178.434 34.9915 177.997 34.7017C177.559 34.4119 177.282 33.9886 177.166 33.4318L178.12 33.1932C178.211 33.5455 178.383 33.8097 178.636 33.9858C178.892 34.1619 179.225 34.25 179.637 34.25C180.106 34.25 180.478 34.1506 180.754 33.9517C181.032 33.75 181.172 33.5085 181.172 33.2273C181.172 33 181.092 32.8097 180.933 32.6562C180.774 32.5 180.529 32.3835 180.2 32.3068L179.109 32.0511C178.51 31.9091 178.069 31.6889 177.788 31.3906C177.51 31.0895 177.37 30.7131 177.37 30.2614C177.37 29.892 177.474 29.5653 177.681 29.2812C177.892 28.9972 178.177 28.7741 178.538 28.6122C178.902 28.4503 179.314 28.3693 179.774 28.3693C180.422 28.3693 180.93 28.5114 181.299 28.7955C181.672 29.0795 181.936 29.4545 182.092 29.9205Z" fill="#1E1E1E"/>
</svg>
