<svg width="416" height="161" viewBox="0 0 416 161" fill="none" xmlns="http://www.w3.org/2000/svg">
<path d="M11.9574 41.9091V55H10.3722V43.571H10.2955L7.09943 45.6932V44.0824L10.3722 41.9091H11.9574ZM20.3246 41.9091V55H18.7393V43.571H18.6626L15.4666 45.6932V44.0824L18.7393 41.9091H20.3246ZM28.3594 55.179C27.3963 55.179 26.576 54.9169 25.8984 54.3928C25.2209 53.8643 24.7031 53.0994 24.3452 52.098C23.9872 51.0923 23.8082 49.8778 23.8082 48.4545C23.8082 47.0398 23.9872 45.8317 24.3452 44.8303C24.7074 43.8246 25.2273 43.0575 25.9048 42.5291C26.5866 41.9964 27.4048 41.7301 28.3594 41.7301C29.3139 41.7301 30.13 41.9964 30.8075 42.5291C31.4893 43.0575 32.0092 43.8246 32.3672 44.8303C32.7294 45.8317 32.9105 47.0398 32.9105 48.4545C32.9105 49.8778 32.7315 51.0923 32.3736 52.098C32.0156 53.0994 31.4979 53.8643 30.8203 54.3928C30.1428 54.9169 29.3224 55.179 28.3594 55.179ZM28.3594 53.7727C29.3139 53.7727 30.0554 53.3125 30.5838 52.392C31.1122 51.4716 31.3764 50.1591 31.3764 48.4545C31.3764 47.321 31.255 46.3558 31.0121 45.5589C30.7734 44.7621 30.4283 44.1548 29.9766 43.7372C29.5291 43.3196 28.9901 43.1108 28.3594 43.1108C27.4134 43.1108 26.674 43.5774 26.1413 44.5107C25.6087 45.4396 25.3423 46.7543 25.3423 48.4545C25.3423 49.5881 25.4616 50.5511 25.7003 51.3438C25.9389 52.1364 26.282 52.7393 26.7294 53.1527C27.1811 53.5661 27.7244 53.7727 28.3594 53.7727ZM39.6094 55.179C38.6463 55.179 37.826 54.9169 37.1484 54.3928C36.4709 53.8643 35.9531 53.0994 35.5952 52.098C35.2372 51.0923 35.0582 49.8778 35.0582 48.4545C35.0582 47.0398 35.2372 45.8317 35.5952 44.8303C35.9574 43.8246 36.4773 43.0575 37.1548 42.5291C37.8366 41.9964 38.6548 41.7301 39.6094 41.7301C40.5639 41.7301 41.38 41.9964 42.0575 42.5291C42.7393 43.0575 43.2592 43.8246 43.6172 44.8303C43.9794 45.8317 44.1605 47.0398 44.1605 48.4545C44.1605 49.8778 43.9815 51.0923 43.6236 52.098C43.2656 53.0994 42.7479 53.8643 42.0703 54.3928C41.3928 54.9169 40.5724 55.179 39.6094 55.179ZM39.6094 53.7727C40.5639 53.7727 41.3054 53.3125 41.8338 52.392C42.3622 51.4716 42.6264 50.1591 42.6264 48.4545C42.6264 47.321 42.505 46.3558 42.2621 45.5589C42.0234 44.7621 41.6783 44.1548 41.2266 43.7372C40.7791 43.3196 40.2401 43.1108 39.6094 43.1108C38.6634 43.1108 37.924 43.5774 37.3913 44.5107C36.8587 45.4396 36.5923 46.7543 36.5923 48.4545C36.5923 49.5881 36.7116 50.5511 36.9503 51.3438C37.1889 52.1364 37.532 52.7393 37.9794 53.1527C38.4311 53.5661 38.9744 53.7727 39.6094 53.7727ZM50.8594 55.179C49.8963 55.179 49.076 54.9169 48.3984 54.3928C47.7209 53.8643 47.2031 53.0994 46.8452 52.098C46.4872 51.0923 46.3082 49.8778 46.3082 48.4545C46.3082 47.0398 46.4872 45.8317 46.8452 44.8303C47.2074 43.8246 47.7273 43.0575 48.4048 42.5291C49.0866 41.9964 49.9048 41.7301 50.8594 41.7301C51.8139 41.7301 52.63 41.9964 53.3075 42.5291C53.9893 43.0575 54.5092 43.8246 54.8672 44.8303C55.2294 45.8317 55.4105 47.0398 55.4105 48.4545C55.4105 49.8778 55.2315 51.0923 54.8736 52.098C54.5156 53.0994 53.9979 53.8643 53.3203 54.3928C52.6428 54.9169 51.8224 55.179 50.8594 55.179ZM50.8594 53.7727C51.8139 53.7727 52.5554 53.3125 53.0838 52.392C53.6122 51.4716 53.8764 50.1591 53.8764 48.4545C53.8764 47.321 53.755 46.3558 53.5121 45.5589C53.2734 44.7621 52.9283 44.1548 52.4766 43.7372C52.0291 43.3196 51.4901 43.1108 50.8594 43.1108C49.9134 43.1108 49.174 43.5774 48.6413 44.5107C48.1087 45.4396 47.8423 46.7543 47.8423 48.4545C47.8423 49.5881 47.9616 50.5511 48.2003 51.3438C48.4389 52.1364 48.782 52.7393 49.2294 53.1527C49.6811 53.5661 50.2244 53.7727 50.8594 53.7727ZM62.1094 55.179C61.1463 55.179 60.326 54.9169 59.6484 54.3928C58.9709 53.8643 58.4531 53.0994 58.0952 52.098C57.7372 51.0923 57.5582 49.8778 57.5582 48.4545C57.5582 47.0398 57.7372 45.8317 58.0952 44.8303C58.4574 43.8246 58.9773 43.0575 59.6548 42.5291C60.3366 41.9964 61.1548 41.7301 62.1094 41.7301C63.0639 41.7301 63.88 41.9964 64.5575 42.5291C65.2393 43.0575 65.7592 43.8246 66.1172 44.8303C66.4794 45.8317 66.6605 47.0398 66.6605 48.4545C66.6605 49.8778 66.4815 51.0923 66.1236 52.098C65.7656 53.0994 65.2479 53.8643 64.5703 54.3928C63.8928 54.9169 63.0724 55.179 62.1094 55.179ZM62.1094 53.7727C63.0639 53.7727 63.8054 53.3125 64.3338 52.392C64.8622 51.4716 65.1264 50.1591 65.1264 48.4545C65.1264 47.321 65.005 46.3558 64.7621 45.5589C64.5234 44.7621 64.1783 44.1548 63.7266 43.7372C63.2791 43.3196 62.7401 43.1108 62.1094 43.1108C61.1634 43.1108 60.424 43.5774 59.8913 44.5107C59.3587 45.4396 59.0923 46.7543 59.0923 48.4545C59.0923 49.5881 59.2116 50.5511 59.4503 51.3438C59.6889 52.1364 60.032 52.7393 60.4794 53.1527C60.9311 53.5661 61.4744 53.7727 62.1094 53.7727ZM73.3594 55.179C72.3963 55.179 71.576 54.9169 70.8984 54.3928C70.2209 53.8643 69.7031 53.0994 69.3452 52.098C68.9872 51.0923 68.8082 49.8778 68.8082 48.4545C68.8082 47.0398 68.9872 45.8317 69.3452 44.8303C69.7074 43.8246 70.2273 43.0575 70.9048 42.5291C71.5866 41.9964 72.4048 41.7301 73.3594 41.7301C74.3139 41.7301 75.13 41.9964 75.8075 42.5291C76.4893 43.0575 77.0092 43.8246 77.3672 44.8303C77.7294 45.8317 77.9105 47.0398 77.9105 48.4545C77.9105 49.8778 77.7315 51.0923 77.3736 52.098C77.0156 53.0994 76.4979 53.8643 75.8203 54.3928C75.1428 54.9169 74.3224 55.179 73.3594 55.179ZM73.3594 53.7727C74.3139 53.7727 75.0554 53.3125 75.5838 52.392C76.1122 51.4716 76.3764 50.1591 76.3764 48.4545C76.3764 47.321 76.255 46.3558 76.0121 45.5589C75.7734 44.7621 75.4283 44.1548 74.9766 43.7372C74.5291 43.3196 73.9901 43.1108 73.3594 43.1108C72.4134 43.1108 71.674 43.5774 71.1413 44.5107C70.6087 45.4396 70.3423 46.7543 70.3423 48.4545C70.3423 49.5881 70.4616 50.5511 70.7003 51.3438C70.9389 52.1364 71.282 52.7393 71.7294 53.1527C72.1811 53.5661 72.7244 53.7727 73.3594 53.7727ZM84.6094 55.179C83.6463 55.179 82.826 54.9169 82.1484 54.3928C81.4709 53.8643 80.9531 53.0994 80.5952 52.098C80.2372 51.0923 80.0582 49.8778 80.0582 48.4545C80.0582 47.0398 80.2372 45.8317 80.5952 44.8303C80.9574 43.8246 81.4773 43.0575 82.1548 42.5291C82.8366 41.9964 83.6548 41.7301 84.6094 41.7301C85.5639 41.7301 86.38 41.9964 87.0575 42.5291C87.7393 43.0575 88.2592 43.8246 88.6172 44.8303C88.9794 45.8317 89.1605 47.0398 89.1605 48.4545C89.1605 49.8778 88.9815 51.0923 88.6236 52.098C88.2656 53.0994 87.7479 53.8643 87.0703 54.3928C86.3928 54.9169 85.5724 55.179 84.6094 55.179ZM84.6094 53.7727C85.5639 53.7727 86.3054 53.3125 86.8338 52.392C87.3622 51.4716 87.6264 50.1591 87.6264 48.4545C87.6264 47.321 87.505 46.3558 87.2621 45.5589C87.0234 44.7621 86.6783 44.1548 86.2266 43.7372C85.7791 43.3196 85.2401 43.1108 84.6094 43.1108C83.6634 43.1108 82.924 43.5774 82.3913 44.5107C81.8587 45.4396 81.5923 46.7543 81.5923 48.4545C81.5923 49.5881 81.7116 50.5511 81.9503 51.3438C82.1889 52.1364 82.532 52.7393 82.9794 53.1527C83.4311 53.5661 83.9744 53.7727 84.6094 53.7727Z" fill="white" fill-opacity="0.74"/>
<path d="M336.625 54.179C335.662 54.179 334.842 53.9169 334.164 53.3928C333.487 52.8643 332.969 52.0994 332.611 51.098C332.253 50.0923 332.074 48.8778 332.074 47.4545C332.074 46.0398 332.253 44.8317 332.611 43.8303C332.973 42.8246 333.493 42.0575 334.17 41.5291C334.852 40.9964 335.67 40.7301 336.625 40.7301C337.58 40.7301 338.396 40.9964 339.073 41.5291C339.755 42.0575 340.275 42.8246 340.633 43.8303C340.995 44.8317 341.176 46.0398 341.176 47.4545C341.176 48.8778 340.997 50.0923 340.639 51.098C340.281 52.0994 339.763 52.8643 339.086 53.3928C338.408 53.9169 337.588 54.179 336.625 54.179ZM336.625 52.7727C337.58 52.7727 338.321 52.3125 338.849 51.392C339.378 50.4716 339.642 49.1591 339.642 47.4545C339.642 46.321 339.521 45.3558 339.278 44.5589C339.039 43.7621 338.694 43.1548 338.242 42.7372C337.795 42.3196 337.256 42.1108 336.625 42.1108C335.679 42.1108 334.94 42.5774 334.407 43.5107C333.874 44.4396 333.608 45.7543 333.608 47.4545C333.608 48.5881 333.727 49.5511 333.966 50.3438C334.205 51.1364 334.548 51.7393 334.995 52.1527C335.447 52.5661 335.99 52.7727 336.625 52.7727ZM347.875 54.179C346.912 54.179 346.092 53.9169 345.414 53.3928C344.737 52.8643 344.219 52.0994 343.861 51.098C343.503 50.0923 343.324 48.8778 343.324 47.4545C343.324 46.0398 343.503 44.8317 343.861 43.8303C344.223 42.8246 344.743 42.0575 345.42 41.5291C346.102 40.9964 346.92 40.7301 347.875 40.7301C348.83 40.7301 349.646 40.9964 350.323 41.5291C351.005 42.0575 351.525 42.8246 351.883 43.8303C352.245 44.8317 352.426 46.0398 352.426 47.4545C352.426 48.8778 352.247 50.0923 351.889 51.098C351.531 52.0994 351.013 52.8643 350.336 53.3928C349.658 53.9169 348.838 54.179 347.875 54.179ZM347.875 52.7727C348.83 52.7727 349.571 52.3125 350.099 51.392C350.628 50.4716 350.892 49.1591 350.892 47.4545C350.892 46.321 350.771 45.3558 350.528 44.5589C350.289 43.7621 349.944 43.1548 349.492 42.7372C349.045 42.3196 348.506 42.1108 347.875 42.1108C346.929 42.1108 346.19 42.5774 345.657 43.5107C345.124 44.4396 344.858 45.7543 344.858 47.4545C344.858 48.5881 344.977 49.5511 345.216 50.3438C345.455 51.1364 345.798 51.7393 346.245 52.1527C346.697 52.5661 347.24 52.7727 347.875 52.7727ZM359.125 54.179C358.162 54.179 357.342 53.9169 356.664 53.3928C355.987 52.8643 355.469 52.0994 355.111 51.098C354.753 50.0923 354.574 48.8778 354.574 47.4545C354.574 46.0398 354.753 44.8317 355.111 43.8303C355.473 42.8246 355.993 42.0575 356.67 41.5291C357.352 40.9964 358.17 40.7301 359.125 40.7301C360.08 40.7301 360.896 40.9964 361.573 41.5291C362.255 42.0575 362.775 42.8246 363.133 43.8303C363.495 44.8317 363.676 46.0398 363.676 47.4545C363.676 48.8778 363.497 50.0923 363.139 51.098C362.781 52.0994 362.263 52.8643 361.586 53.3928C360.908 53.9169 360.088 54.179 359.125 54.179ZM359.125 52.7727C360.08 52.7727 360.821 52.3125 361.349 51.392C361.878 50.4716 362.142 49.1591 362.142 47.4545C362.142 46.321 362.021 45.3558 361.778 44.5589C361.539 43.7621 361.194 43.1548 360.742 42.7372C360.295 42.3196 359.756 42.1108 359.125 42.1108C358.179 42.1108 357.44 42.5774 356.907 43.5107C356.374 44.4396 356.108 45.7543 356.108 47.4545C356.108 48.5881 356.227 49.5511 356.466 50.3438C356.705 51.1364 357.048 51.7393 357.495 52.1527C357.947 52.5661 358.49 52.7727 359.125 52.7727ZM370.707 40.9091V54H369.122V42.571H369.045L365.849 44.6932V43.0824L369.122 40.9091H370.707ZM379.075 40.9091V54H377.489V42.571H377.413L374.217 44.6932V43.0824L377.489 40.9091H379.075ZM387.442 40.9091V54H385.857V42.571H385.78L382.584 44.6932V43.0824L385.857 40.9091H387.442ZM395.809 40.9091V54H394.224V42.571H394.147L390.951 44.6932V43.0824L394.224 40.9091H395.809ZM403.844 54.179C402.881 54.179 402.06 53.9169 401.383 53.3928C400.705 52.8643 400.188 52.0994 399.83 51.098C399.472 50.0923 399.293 48.8778 399.293 47.4545C399.293 46.0398 399.472 44.8317 399.83 43.8303C400.192 42.8246 400.712 42.0575 401.389 41.5291C402.071 40.9964 402.889 40.7301 403.844 40.7301C404.798 40.7301 405.614 40.9964 406.292 41.5291C406.974 42.0575 407.494 42.8246 407.852 43.8303C408.214 44.8317 408.395 46.0398 408.395 47.4545C408.395 48.8778 408.216 50.0923 407.858 51.098C407.5 52.0994 406.982 52.8643 406.305 53.3928C405.627 53.9169 404.807 54.179 403.844 54.179ZM403.844 52.7727C404.798 52.7727 405.54 52.3125 406.068 51.392C406.597 50.4716 406.861 49.1591 406.861 47.4545C406.861 46.321 406.739 45.3558 406.496 44.5589C406.258 43.7621 405.913 43.1548 405.461 42.7372C405.013 42.3196 404.474 42.1108 403.844 42.1108C402.898 42.1108 402.158 42.5774 401.626 43.5107C401.093 44.4396 400.827 45.7543 400.827 47.4545C400.827 48.5881 400.946 49.5511 401.185 50.3438C401.423 51.1364 401.766 51.7393 402.214 52.1527C402.665 52.5661 403.209 52.7727 403.844 52.7727Z" fill="white" fill-opacity="0.74"/>
<path d="M239.625 55.179C238.662 55.179 237.842 54.9169 237.164 54.3928C236.487 53.8643 235.969 53.0994 235.611 52.098C235.253 51.0923 235.074 49.8778 235.074 48.4545C235.074 47.0398 235.253 45.8317 235.611 44.8303C235.973 43.8246 236.493 43.0575 237.17 42.5291C237.852 41.9964 238.67 41.7301 239.625 41.7301C240.58 41.7301 241.396 41.9964 242.073 42.5291C242.755 43.0575 243.275 43.8246 243.633 44.8303C243.995 45.8317 244.176 47.0398 244.176 48.4545C244.176 49.8778 243.997 51.0923 243.639 52.098C243.281 53.0994 242.763 53.8643 242.086 54.3928C241.408 54.9169 240.588 55.179 239.625 55.179ZM239.625 53.7727C240.58 53.7727 241.321 53.3125 241.849 52.392C242.378 51.4716 242.642 50.1591 242.642 48.4545C242.642 47.321 242.521 46.3558 242.278 45.5589C242.039 44.7621 241.694 44.1548 241.242 43.7372C240.795 43.3196 240.256 43.1108 239.625 43.1108C238.679 43.1108 237.94 43.5774 237.407 44.5107C236.874 45.4396 236.608 46.7543 236.608 48.4545C236.608 49.5881 236.727 50.5511 236.966 51.3438C237.205 52.1364 237.548 52.7393 237.995 53.1527C238.447 53.5661 238.99 53.7727 239.625 53.7727ZM251.207 41.9091V55H249.622V43.571H249.545L246.349 45.6932V44.0824L249.622 41.9091H251.207ZM259.575 41.9091V55H257.989V43.571H257.913L254.717 45.6932V44.0824L257.989 41.9091H259.575ZM267.609 55.179C266.646 55.179 265.826 54.9169 265.148 54.3928C264.471 53.8643 263.953 53.0994 263.595 52.098C263.237 51.0923 263.058 49.8778 263.058 48.4545C263.058 47.0398 263.237 45.8317 263.595 44.8303C263.957 43.8246 264.477 43.0575 265.155 42.5291C265.837 41.9964 266.655 41.7301 267.609 41.7301C268.564 41.7301 269.38 41.9964 270.058 42.5291C270.739 43.0575 271.259 43.8246 271.617 44.8303C271.979 45.8317 272.161 47.0398 272.161 48.4545C272.161 49.8778 271.982 51.0923 271.624 52.098C271.266 53.0994 270.748 53.8643 270.07 54.3928C269.393 54.9169 268.572 55.179 267.609 55.179ZM267.609 53.7727C268.564 53.7727 269.305 53.3125 269.834 52.392C270.362 51.4716 270.626 50.1591 270.626 48.4545C270.626 47.321 270.505 46.3558 270.262 45.5589C270.023 44.7621 269.678 44.1548 269.227 43.7372C268.779 43.3196 268.24 43.1108 267.609 43.1108C266.663 43.1108 265.924 43.5774 265.391 44.5107C264.859 45.4396 264.592 46.7543 264.592 48.4545C264.592 49.5881 264.712 50.5511 264.95 51.3438C265.189 52.1364 265.532 52.7393 265.979 53.1527C266.431 53.5661 266.974 53.7727 267.609 53.7727ZM278.859 55.179C277.896 55.179 277.076 54.9169 276.398 54.3928C275.721 53.8643 275.203 53.0994 274.845 52.098C274.487 51.0923 274.308 49.8778 274.308 48.4545C274.308 47.0398 274.487 45.8317 274.845 44.8303C275.207 43.8246 275.727 43.0575 276.405 42.5291C277.087 41.9964 277.905 41.7301 278.859 41.7301C279.814 41.7301 280.63 41.9964 281.308 42.5291C281.989 43.0575 282.509 43.8246 282.867 44.8303C283.229 45.8317 283.411 47.0398 283.411 48.4545C283.411 49.8778 283.232 51.0923 282.874 52.098C282.516 53.0994 281.998 53.8643 281.32 54.3928C280.643 54.9169 279.822 55.179 278.859 55.179ZM278.859 53.7727C279.814 53.7727 280.555 53.3125 281.084 52.392C281.612 51.4716 281.876 50.1591 281.876 48.4545C281.876 47.321 281.755 46.3558 281.512 45.5589C281.273 44.7621 280.928 44.1548 280.477 43.7372C280.029 43.3196 279.49 43.1108 278.859 43.1108C277.913 43.1108 277.174 43.5774 276.641 44.5107C276.109 45.4396 275.842 46.7543 275.842 48.4545C275.842 49.5881 275.962 50.5511 276.2 51.3438C276.439 52.1364 276.782 52.7393 277.229 53.1527C277.681 53.5661 278.224 53.7727 278.859 53.7727ZM290.442 41.9091V55H288.857V43.571H288.78L285.584 45.6932V44.0824L288.857 41.9091H290.442ZM298.477 55.179C297.513 55.179 296.693 54.9169 296.016 54.3928C295.338 53.8643 294.82 53.0994 294.462 52.098C294.104 51.0923 293.925 49.8778 293.925 48.4545C293.925 47.0398 294.104 45.8317 294.462 44.8303C294.825 43.8246 295.344 43.0575 296.022 42.5291C296.704 41.9964 297.522 41.7301 298.477 41.7301C299.431 41.7301 300.247 41.9964 300.925 42.5291C301.607 43.0575 302.126 43.8246 302.484 44.8303C302.847 45.8317 303.028 47.0398 303.028 48.4545C303.028 49.8778 302.849 51.0923 302.491 52.098C302.133 53.0994 301.615 53.8643 300.938 54.3928C300.26 54.9169 299.44 55.179 298.477 55.179ZM298.477 53.7727C299.431 53.7727 300.173 53.3125 300.701 52.392C301.229 51.4716 301.494 50.1591 301.494 48.4545C301.494 47.321 301.372 46.3558 301.129 45.5589C300.891 44.7621 300.545 44.1548 300.094 43.7372C299.646 43.3196 299.107 43.1108 298.477 43.1108C297.531 43.1108 296.791 43.5774 296.259 44.5107C295.726 45.4396 295.46 46.7543 295.46 48.4545C295.46 49.5881 295.579 50.5511 295.817 51.3438C296.056 52.1364 296.399 52.7393 296.847 53.1527C297.298 53.5661 297.842 53.7727 298.477 53.7727ZM309.727 55.179C308.763 55.179 307.943 54.9169 307.266 54.3928C306.588 53.8643 306.07 53.0994 305.712 52.098C305.354 51.0923 305.175 49.8778 305.175 48.4545C305.175 47.0398 305.354 45.8317 305.712 44.8303C306.075 43.8246 306.594 43.0575 307.272 42.5291C307.954 41.9964 308.772 41.7301 309.727 41.7301C310.681 41.7301 311.497 41.9964 312.175 42.5291C312.857 43.0575 313.376 43.8246 313.734 44.8303C314.097 45.8317 314.278 47.0398 314.278 48.4545C314.278 49.8778 314.099 51.0923 313.741 52.098C313.383 53.0994 312.865 53.8643 312.188 54.3928C311.51 54.9169 310.69 55.179 309.727 55.179ZM309.727 53.7727C310.681 53.7727 311.423 53.3125 311.951 52.392C312.479 51.4716 312.744 50.1591 312.744 48.4545C312.744 47.321 312.622 46.3558 312.379 45.5589C312.141 44.7621 311.795 44.1548 311.344 43.7372C310.896 43.3196 310.357 43.1108 309.727 43.1108C308.781 43.1108 308.041 43.5774 307.509 44.5107C306.976 45.4396 306.71 46.7543 306.71 48.4545C306.71 49.5881 306.829 50.5511 307.067 51.3438C307.306 52.1364 307.649 52.7393 308.097 53.1527C308.548 53.5661 309.092 53.7727 309.727 53.7727Z" fill="white" fill-opacity="0.74"/>
<path d="M120.957 41.9091V55H119.372V43.571H119.295L116.099 45.6932V44.0824L119.372 41.9091H120.957ZM128.992 55.179C128.029 55.179 127.209 54.9169 126.531 54.3928C125.854 53.8643 125.336 53.0994 124.978 52.098C124.62 51.0923 124.441 49.8778 124.441 48.4545C124.441 47.0398 124.62 45.8317 124.978 44.8303C125.34 43.8246 125.86 43.0575 126.538 42.5291C127.219 41.9964 128.038 41.7301 128.992 41.7301C129.947 41.7301 130.763 41.9964 131.44 42.5291C132.122 43.0575 132.642 43.8246 133 44.8303C133.362 45.8317 133.543 47.0398 133.543 48.4545C133.543 49.8778 133.364 51.0923 133.006 52.098C132.648 53.0994 132.131 53.8643 131.453 54.3928C130.776 54.9169 129.955 55.179 128.992 55.179ZM128.992 53.7727C129.947 53.7727 130.688 53.3125 131.217 52.392C131.745 51.4716 132.009 50.1591 132.009 48.4545C132.009 47.321 131.888 46.3558 131.645 45.5589C131.406 44.7621 131.061 44.1548 130.609 43.7372C130.162 43.3196 129.623 43.1108 128.992 43.1108C128.046 43.1108 127.307 43.5774 126.774 44.5107C126.241 45.4396 125.975 46.7543 125.975 48.4545C125.975 49.5881 126.094 50.5511 126.333 51.3438C126.572 52.1364 126.915 52.7393 127.362 53.1527C127.814 53.5661 128.357 53.7727 128.992 53.7727ZM140.575 41.9091V55H138.989V43.571H138.913L135.717 45.6932V44.0824L138.989 41.9091H140.575ZM148.609 55.179C147.646 55.179 146.826 54.9169 146.148 54.3928C145.471 53.8643 144.953 53.0994 144.595 52.098C144.237 51.0923 144.058 49.8778 144.058 48.4545C144.058 47.0398 144.237 45.8317 144.595 44.8303C144.957 43.8246 145.477 43.0575 146.155 42.5291C146.837 41.9964 147.655 41.7301 148.609 41.7301C149.564 41.7301 150.38 41.9964 151.058 42.5291C151.739 43.0575 152.259 43.8246 152.617 44.8303C152.979 45.8317 153.161 47.0398 153.161 48.4545C153.161 49.8778 152.982 51.0923 152.624 52.098C152.266 53.0994 151.748 53.8643 151.07 54.3928C150.393 54.9169 149.572 55.179 148.609 55.179ZM148.609 53.7727C149.564 53.7727 150.305 53.3125 150.834 52.392C151.362 51.4716 151.626 50.1591 151.626 48.4545C151.626 47.321 151.505 46.3558 151.262 45.5589C151.023 44.7621 150.678 44.1548 150.227 43.7372C149.779 43.3196 149.24 43.1108 148.609 43.1108C147.663 43.1108 146.924 43.5774 146.391 44.5107C145.859 45.4396 145.592 46.7543 145.592 48.4545C145.592 49.5881 145.712 50.5511 145.95 51.3438C146.189 52.1364 146.532 52.7393 146.979 53.1527C147.431 53.5661 147.974 53.7727 148.609 53.7727ZM160.192 41.9091V55H158.607V43.571H158.53L155.334 45.6932V44.0824L158.607 41.9091H160.192ZM168.227 55.179C167.263 55.179 166.443 54.9169 165.766 54.3928C165.088 53.8643 164.57 53.0994 164.212 52.098C163.854 51.0923 163.675 49.8778 163.675 48.4545C163.675 47.0398 163.854 45.8317 164.212 44.8303C164.575 43.8246 165.094 43.0575 165.772 42.5291C166.454 41.9964 167.272 41.7301 168.227 41.7301C169.181 41.7301 169.997 41.9964 170.675 42.5291C171.357 43.0575 171.876 43.8246 172.234 44.8303C172.597 45.8317 172.778 47.0398 172.778 48.4545C172.778 49.8778 172.599 51.0923 172.241 52.098C171.883 53.0994 171.365 53.8643 170.688 54.3928C170.01 54.9169 169.19 55.179 168.227 55.179ZM168.227 53.7727C169.181 53.7727 169.923 53.3125 170.451 52.392C170.979 51.4716 171.244 50.1591 171.244 48.4545C171.244 47.321 171.122 46.3558 170.879 45.5589C170.641 44.7621 170.295 44.1548 169.844 43.7372C169.396 43.3196 168.857 43.1108 168.227 43.1108C167.281 43.1108 166.541 43.5774 166.009 44.5107C165.476 45.4396 165.21 46.7543 165.21 48.4545C165.21 49.5881 165.329 50.5511 165.567 51.3438C165.806 52.1364 166.149 52.7393 166.597 53.1527C167.048 53.5661 167.592 53.7727 168.227 53.7727ZM179.477 55.179C178.513 55.179 177.693 54.9169 177.016 54.3928C176.338 53.8643 175.82 53.0994 175.462 52.098C175.104 51.0923 174.925 49.8778 174.925 48.4545C174.925 47.0398 175.104 45.8317 175.462 44.8303C175.825 43.8246 176.344 43.0575 177.022 42.5291C177.704 41.9964 178.522 41.7301 179.477 41.7301C180.431 41.7301 181.247 41.9964 181.925 42.5291C182.607 43.0575 183.126 43.8246 183.484 44.8303C183.847 45.8317 184.028 47.0398 184.028 48.4545C184.028 49.8778 183.849 51.0923 183.491 52.098C183.133 53.0994 182.615 53.8643 181.938 54.3928C181.26 54.9169 180.44 55.179 179.477 55.179ZM179.477 53.7727C180.431 53.7727 181.173 53.3125 181.701 52.392C182.229 51.4716 182.494 50.1591 182.494 48.4545C182.494 47.321 182.372 46.3558 182.129 45.5589C181.891 44.7621 181.545 44.1548 181.094 43.7372C180.646 43.3196 180.107 43.1108 179.477 43.1108C178.531 43.1108 177.791 43.5774 177.259 44.5107C176.726 45.4396 176.46 46.7543 176.46 48.4545C176.46 49.5881 176.579 50.5511 176.817 51.3438C177.056 52.1364 177.399 52.7393 177.847 53.1527C178.298 53.5661 178.842 53.7727 179.477 53.7727ZM190.727 55.179C189.763 55.179 188.943 54.9169 188.266 54.3928C187.588 53.8643 187.07 53.0994 186.712 52.098C186.354 51.0923 186.175 49.8778 186.175 48.4545C186.175 47.0398 186.354 45.8317 186.712 44.8303C187.075 43.8246 187.594 43.0575 188.272 42.5291C188.954 41.9964 189.772 41.7301 190.727 41.7301C191.681 41.7301 192.497 41.9964 193.175 42.5291C193.857 43.0575 194.376 43.8246 194.734 44.8303C195.097 45.8317 195.278 47.0398 195.278 48.4545C195.278 49.8778 195.099 51.0923 194.741 52.098C194.383 53.0994 193.865 53.8643 193.188 54.3928C192.51 54.9169 191.69 55.179 190.727 55.179ZM190.727 53.7727C191.681 53.7727 192.423 53.3125 192.951 52.392C193.479 51.4716 193.744 50.1591 193.744 48.4545C193.744 47.321 193.622 46.3558 193.379 45.5589C193.141 44.7621 192.795 44.1548 192.344 43.7372C191.896 43.3196 191.357 43.1108 190.727 43.1108C189.781 43.1108 189.041 43.5774 188.509 44.5107C187.976 45.4396 187.71 46.7543 187.71 48.4545C187.71 49.5881 187.829 50.5511 188.067 51.3438C188.306 52.1364 188.649 52.7393 189.097 53.1527C189.548 53.5661 190.092 53.7727 190.727 53.7727Z" fill="white" fill-opacity="0.74"/>
<path d="M14 59L50 70L79 59" stroke="white" stroke-opacity="0.74"/>
<path d="M337 59L373 70L402 59" stroke="white" stroke-opacity="0.74"/>
<path d="M241 59L277 70L306 59" stroke="white" stroke-opacity="0.74"/>
<path d="M120 59L156 70L185 59" stroke="white" stroke-opacity="0.74"/>
<path d="M23.9148 8.81818V35H20.7443V12.142H20.5909L14.1989 16.3864V13.1648L20.7443 8.81818H23.9148ZM39.7798 8.46023C40.8537 8.46875 41.9276 8.67329 43.0014 9.07386C44.0753 9.47443 45.0554 10.1392 45.9418 11.0682C46.8281 11.9886 47.5398 13.2457 48.0767 14.8395C48.6136 16.4332 48.8821 18.4318 48.8821 20.8352C48.8821 23.1619 48.6605 25.2287 48.2173 27.0355C47.7827 28.8338 47.152 30.3509 46.3253 31.5866C45.5071 32.8224 44.5099 33.7599 43.3338 34.3991C42.1662 35.0384 40.8452 35.358 39.3707 35.358C37.9048 35.358 36.5966 35.0682 35.446 34.4886C34.304 33.9006 33.3665 33.0866 32.6335 32.0469C31.9091 30.9986 31.4446 29.7841 31.2401 28.4034H34.3594C34.6406 29.6051 35.1989 30.598 36.0341 31.3821C36.8778 32.1577 37.9901 32.5455 39.3707 32.5455C41.3906 32.5455 42.9844 31.6634 44.152 29.8991C45.3281 28.1349 45.9162 25.642 45.9162 22.4205H45.7116C45.2344 23.1364 44.6676 23.7543 44.0114 24.2741C43.3551 24.794 42.6264 25.1946 41.8253 25.4759C41.0241 25.7571 40.1719 25.8977 39.2685 25.8977C37.7685 25.8977 36.392 25.527 35.1392 24.7855C33.8949 24.0355 32.8977 23.0085 32.1477 21.7045C31.4062 20.392 31.0355 18.892 31.0355 17.2045C31.0355 15.6023 31.3935 14.1364 32.1094 12.8068C32.8338 11.4687 33.848 10.4034 35.152 9.6108C36.4645 8.81818 38.0071 8.43466 39.7798 8.46023ZM39.7798 11.2727C38.706 11.2727 37.7386 11.5412 36.8778 12.0781C36.0256 12.6065 35.348 13.3224 34.8452 14.2259C34.3509 15.1207 34.1037 16.1136 34.1037 17.2045C34.1037 18.2955 34.3423 19.2884 34.8196 20.1832C35.3054 21.0696 35.9659 21.777 36.8011 22.3054C37.6449 22.8253 38.6037 23.0852 39.6776 23.0852C40.4872 23.0852 41.2415 22.9276 41.9403 22.6122C42.6392 22.2884 43.2486 21.8494 43.7685 21.2955C44.2969 20.733 44.7102 20.098 45.0085 19.3906C45.3068 18.6747 45.456 17.929 45.456 17.1534C45.456 16.1307 45.2088 15.1719 44.7145 14.277C44.2287 13.3821 43.5554 12.6577 42.6946 12.1037C41.8423 11.5497 40.8707 11.2727 39.7798 11.2727ZM53.9094 35V32.6989L62.5515 23.2386C63.5657 22.1307 64.4009 21.1676 65.0572 20.3494C65.7134 19.5227 66.1992 18.7472 66.5146 18.0227C66.8384 17.2898 67.0004 16.5227 67.0004 15.7216C67.0004 14.8011 66.7788 14.0043 66.3356 13.331C65.9009 12.6577 65.3043 12.1378 64.5458 11.7713C63.7873 11.4048 62.935 11.2216 61.989 11.2216C60.9833 11.2216 60.1055 11.4304 59.3555 11.848C58.614 12.2571 58.0387 12.8324 57.6296 13.5739C57.229 14.3153 57.0288 15.1847 57.0288 16.1818H54.0117C54.0117 14.6477 54.3654 13.3011 55.0728 12.142C55.7802 10.983 56.7433 10.0795 57.962 9.43182C59.1893 8.78409 60.5657 8.46023 62.0913 8.46023C63.6254 8.46023 64.9847 8.78409 66.1694 9.43182C67.354 10.0795 68.283 10.9531 68.9563 12.0526C69.6296 13.152 69.9663 14.375 69.9663 15.7216C69.9663 16.6847 69.7915 17.6264 69.4421 18.5469C69.1012 19.4588 68.5046 20.4773 67.6523 21.6023C66.8086 22.7187 65.6367 24.0824 64.1367 25.6932L58.256 31.983V32.1875H70.4265V35H53.9094ZM98.2063 35.2045C97.5756 35.2045 97.0344 34.9787 96.5827 34.527C96.131 34.0753 95.9052 33.5341 95.9052 32.9034C95.9052 32.2727 96.131 31.7315 96.5827 31.2798C97.0344 30.8281 97.5756 30.6023 98.2063 30.6023C98.837 30.6023 99.3782 30.8281 99.8299 31.2798C100.282 31.7315 100.507 32.2727 100.507 32.9034C100.507 33.321 100.401 33.7045 100.188 34.054C99.9833 34.4034 99.7063 34.6847 99.3569 34.8977C99.016 35.1023 98.6325 35.2045 98.2063 35.2045ZM135.325 8.81818V35H132.154V12.142H132.001L125.609 16.3864V13.1648L132.154 8.81818H135.325ZM151.548 35.358C150.474 35.3409 149.4 35.1364 148.326 34.7443C147.252 34.3523 146.272 33.6918 145.386 32.7628C144.5 31.8253 143.788 30.5597 143.251 28.9659C142.714 27.3636 142.446 25.3523 142.446 22.9318C142.446 20.6136 142.663 18.5597 143.098 16.7699C143.532 14.9716 144.163 13.4588 144.99 12.2315C145.816 10.9957 146.814 10.0582 147.981 9.41903C149.157 8.77983 150.483 8.46023 151.957 8.46023C153.423 8.46023 154.727 8.75426 155.869 9.34233C157.02 9.92187 157.957 10.7315 158.681 11.7713C159.406 12.8111 159.875 14.0085 160.088 15.3636H156.968C156.679 14.1875 156.116 13.2116 155.281 12.4361C154.446 11.6605 153.338 11.2727 151.957 11.2727C149.929 11.2727 148.331 12.1548 147.163 13.919C146.004 15.6832 145.42 18.1591 145.412 21.3466H145.616C146.093 20.6222 146.66 20.0043 147.316 19.4929C147.981 18.973 148.714 18.5724 149.515 18.2912C150.316 18.0099 151.164 17.8693 152.059 17.8693C153.559 17.8693 154.931 18.2443 156.176 18.9943C157.42 19.7358 158.417 20.7628 159.167 22.0753C159.917 23.3793 160.292 24.875 160.292 26.5625C160.292 28.1818 159.93 29.6648 159.206 31.0114C158.481 32.3494 157.463 33.4148 156.15 34.2074C154.846 34.9915 153.312 35.375 151.548 35.358ZM151.548 32.5455C152.622 32.5455 153.585 32.277 154.437 31.7401C155.298 31.2031 155.975 30.483 156.47 29.5795C156.973 28.6761 157.224 27.6705 157.224 26.5625C157.224 25.4801 156.981 24.4957 156.495 23.6094C156.018 22.7145 155.358 22.0028 154.514 21.4744C153.679 20.946 152.724 20.6818 151.65 20.6818C150.841 20.6818 150.086 20.8437 149.387 21.1676C148.689 21.483 148.075 21.9176 147.547 22.4716C147.027 23.0256 146.618 23.6605 146.319 24.3764C146.021 25.0838 145.872 25.8295 145.872 26.6136C145.872 27.6534 146.115 28.625 146.6 29.5284C147.095 30.4318 147.768 31.1605 148.62 31.7145C149.481 32.2685 150.457 32.5455 151.548 32.5455ZM173.706 35.358C171.95 35.358 170.399 35.0469 169.053 34.4247C167.714 33.794 166.67 32.929 165.92 31.8295C165.17 30.7216 164.8 29.4602 164.808 28.0455C164.8 26.9375 165.017 25.9148 165.46 24.9773C165.903 24.0312 166.509 23.2429 167.276 22.6122C168.051 21.973 168.916 21.5682 169.871 21.3977V21.2443C168.618 20.9205 167.621 20.2173 166.879 19.1349C166.138 18.044 165.771 16.804 165.78 15.4148C165.771 14.0852 166.108 12.8963 166.79 11.848C167.472 10.7997 168.409 9.97301 169.602 9.3679C170.804 8.76278 172.172 8.46023 173.706 8.46023C175.223 8.46023 176.578 8.76278 177.771 9.3679C178.964 9.97301 179.902 10.7997 180.584 11.848C181.274 12.8963 181.624 14.0852 181.632 15.4148C181.624 16.804 181.244 18.044 180.494 19.1349C179.753 20.2173 178.768 20.9205 177.541 21.2443V21.3977C178.487 21.5682 179.339 21.973 180.098 22.6122C180.857 23.2429 181.462 24.0312 181.913 24.9773C182.365 25.9148 182.595 26.9375 182.604 28.0455C182.595 29.4602 182.212 30.7216 181.453 31.8295C180.703 32.929 179.659 33.794 178.321 34.4247C176.991 35.0469 175.453 35.358 173.706 35.358ZM173.706 32.5455C174.891 32.5455 175.913 32.3537 176.774 31.9702C177.635 31.5866 178.3 31.0455 178.768 30.3466C179.237 29.6477 179.476 28.8295 179.484 27.892C179.476 26.9034 179.22 26.0298 178.717 25.2713C178.214 24.5128 177.528 23.9162 176.659 23.4815C175.798 23.0469 174.814 22.8295 173.706 22.8295C172.589 22.8295 171.592 23.0469 170.714 23.4815C169.845 23.9162 169.159 24.5128 168.656 25.2713C168.162 26.0298 167.919 26.9034 167.928 27.892C167.919 28.8295 168.145 29.6477 168.605 30.3466C169.074 31.0455 169.743 31.5866 170.612 31.9702C171.482 32.3537 172.513 32.5455 173.706 32.5455ZM173.706 20.1193C174.643 20.1193 175.474 19.9318 176.199 19.5568C176.932 19.1818 177.507 18.6577 177.925 17.9844C178.342 17.3111 178.555 16.5227 178.564 15.6193C178.555 14.733 178.347 13.9616 177.938 13.3054C177.528 12.6406 176.962 12.1293 176.237 11.7713C175.513 11.4048 174.669 11.2216 173.706 11.2216C172.726 11.2216 171.869 11.4048 171.136 11.7713C170.403 12.1293 169.837 12.6406 169.436 13.3054C169.036 13.9616 168.839 14.733 168.848 15.6193C168.839 16.5227 169.04 17.3111 169.449 17.9844C169.866 18.6577 170.442 19.1818 171.175 19.5568C171.908 19.9318 172.751 20.1193 173.706 20.1193ZM210.003 35.2045C209.373 35.2045 208.831 34.9787 208.38 34.527C207.928 34.0753 207.702 33.5341 207.702 32.9034C207.702 32.2727 207.928 31.7315 208.38 31.2798C208.831 30.8281 209.373 30.6023 210.003 30.6023C210.634 30.6023 211.175 30.8281 211.627 31.2798C212.078 31.7315 212.304 32.2727 212.304 32.9034C212.304 33.321 212.198 33.7045 211.985 34.054C211.78 34.4034 211.503 34.6847 211.154 34.8977C210.813 35.1023 210.429 35.2045 210.003 35.2045ZM247.122 8.81818V35H243.951V12.142H243.798L237.406 16.3864V13.1648L243.951 8.81818H247.122ZM263.191 35.358C261.265 35.358 259.625 34.8338 258.27 33.7855C256.914 32.7287 255.879 31.1989 255.163 29.196C254.447 27.1847 254.089 24.7557 254.089 21.9091C254.089 19.0795 254.447 16.6634 255.163 14.6605C255.887 12.6491 256.927 11.1151 258.282 10.0582C259.646 8.9929 261.282 8.46023 263.191 8.46023C265.1 8.46023 266.733 8.9929 268.088 10.0582C269.451 11.1151 270.491 12.6491 271.207 14.6605C271.931 16.6634 272.294 19.0795 272.294 21.9091C272.294 24.7557 271.936 27.1847 271.22 29.196C270.504 31.1989 269.468 32.7287 268.113 33.7855C266.758 34.8338 265.118 35.358 263.191 35.358ZM263.191 32.5455C265.1 32.5455 266.583 31.625 267.64 29.7841C268.697 27.9432 269.225 25.3182 269.225 21.9091C269.225 19.642 268.983 17.7116 268.497 16.1179C268.02 14.5241 267.329 13.3097 266.426 12.4744C265.531 11.6392 264.453 11.2216 263.191 11.2216C261.299 11.2216 259.821 12.1548 258.755 14.0213C257.69 15.8793 257.157 18.5085 257.157 21.9091C257.157 24.1761 257.396 26.1023 257.873 27.6875C258.35 29.2727 259.037 30.4787 259.931 31.3054C260.835 32.1321 261.922 32.5455 263.191 32.5455ZM285.691 35.358C283.765 35.358 282.125 34.8338 280.77 33.7855C279.414 32.7287 278.379 31.1989 277.663 29.196C276.947 27.1847 276.589 24.7557 276.589 21.9091C276.589 19.0795 276.947 16.6634 277.663 14.6605C278.387 12.6491 279.427 11.1151 280.782 10.0582C282.146 8.9929 283.782 8.46023 285.691 8.46023C287.6 8.46023 289.233 8.9929 290.588 10.0582C291.951 11.1151 292.991 12.6491 293.707 14.6605C294.431 16.6634 294.794 19.0795 294.794 21.9091C294.794 24.7557 294.436 27.1847 293.72 29.196C293.004 31.1989 291.968 32.7287 290.613 33.7855C289.258 34.8338 287.618 35.358 285.691 35.358ZM285.691 32.5455C287.6 32.5455 289.083 31.625 290.14 29.7841C291.197 27.9432 291.725 25.3182 291.725 21.9091C291.725 19.642 291.483 17.7116 290.997 16.1179C290.52 14.5241 289.829 13.3097 288.926 12.4744C288.031 11.6392 286.953 11.2216 285.691 11.2216C283.799 11.2216 282.321 12.1548 281.255 14.0213C280.19 15.8793 279.657 18.5085 279.657 21.9091C279.657 24.1761 279.896 26.1023 280.373 27.6875C280.85 29.2727 281.537 30.4787 282.431 31.3054C283.335 32.1321 284.422 32.5455 285.691 32.5455ZM322.152 35.2045C321.521 35.2045 320.98 34.9787 320.528 34.527C320.076 34.0753 319.85 33.5341 319.85 32.9034C319.85 32.2727 320.076 31.7315 320.528 31.2798C320.98 30.8281 321.521 30.6023 322.152 30.6023C322.782 30.6023 323.324 30.8281 323.775 31.2798C324.227 31.7315 324.453 32.2727 324.453 32.9034C324.453 33.321 324.346 33.7045 324.133 34.054C323.929 34.4034 323.652 34.6847 323.302 34.8977C322.961 35.1023 322.578 35.2045 322.152 35.2045ZM358.912 35.358C357.225 35.358 355.721 35.0682 354.4 34.4886C353.087 33.9091 352.043 33.1037 351.267 32.0724C350.5 31.0327 350.083 29.8267 350.015 28.4545H353.236C353.304 29.2983 353.594 30.027 354.105 30.6406C354.617 31.2457 355.286 31.7145 356.113 32.0469C356.939 32.3793 357.855 32.5455 358.861 32.5455C359.986 32.5455 360.983 32.3494 361.853 31.9574C362.722 31.5653 363.404 31.0199 363.898 30.321C364.392 29.6222 364.64 28.8125 364.64 27.892C364.64 26.929 364.401 26.081 363.924 25.348C363.446 24.6065 362.748 24.027 361.827 23.6094C360.907 23.1918 359.782 22.983 358.452 22.983H356.355V20.1705H358.452C359.492 20.1705 360.404 19.983 361.188 19.608C361.98 19.233 362.598 18.7045 363.042 18.0227C363.493 17.3409 363.719 16.5398 363.719 15.6193C363.719 14.733 363.523 13.9616 363.131 13.3054C362.739 12.6491 362.185 12.1378 361.469 11.7713C360.762 11.4048 359.926 11.2216 358.963 11.2216C358.06 11.2216 357.208 11.3878 356.407 11.7202C355.614 12.044 354.966 12.517 354.463 13.1392C353.961 13.7528 353.688 14.4943 353.645 15.3636H350.577C350.628 13.9915 351.042 12.7898 351.817 11.7585C352.593 10.7187 353.607 9.90909 354.86 9.32955C356.121 8.75 357.506 8.46023 359.015 8.46023C360.634 8.46023 362.023 8.78835 363.182 9.4446C364.341 10.0923 365.232 10.9489 365.854 12.0142C366.476 13.0795 366.787 14.2301 366.787 15.4659C366.787 16.9403 366.4 18.1974 365.624 19.2372C364.857 20.277 363.813 20.9972 362.492 21.3977V21.6023C364.145 21.875 365.436 22.5781 366.365 23.7116C367.294 24.8366 367.759 26.2301 367.759 27.892C367.759 29.3153 367.371 30.5938 366.596 31.7273C365.828 32.8523 364.78 33.7386 363.451 34.3864C362.121 35.0341 360.608 35.358 358.912 35.358ZM381.527 35.358C379.601 35.358 377.961 34.8338 376.605 33.7855C375.25 32.7287 374.215 31.1989 373.499 29.196C372.783 27.1847 372.425 24.7557 372.425 21.9091C372.425 19.0795 372.783 16.6634 373.499 14.6605C374.223 12.6491 375.263 11.1151 376.618 10.0582C377.982 8.9929 379.618 8.46023 381.527 8.46023C383.436 8.46023 385.069 8.9929 386.424 10.0582C387.787 11.1151 388.827 12.6491 389.543 14.6605C390.267 16.6634 390.63 19.0795 390.63 21.9091C390.63 24.7557 390.272 27.1847 389.556 29.196C388.84 31.1989 387.804 32.7287 386.449 33.7855C385.094 34.8338 383.453 35.358 381.527 35.358ZM381.527 32.5455C383.436 32.5455 384.919 31.625 385.976 29.7841C387.033 27.9432 387.561 25.3182 387.561 21.9091C387.561 19.642 387.319 17.7116 386.833 16.1179C386.355 14.5241 385.665 13.3097 384.762 12.4744C383.867 11.6392 382.789 11.2216 381.527 11.2216C379.635 11.2216 378.157 12.1548 377.091 14.0213C376.026 15.8793 375.493 18.5085 375.493 21.9091C375.493 24.1761 375.732 26.1023 376.209 27.6875C376.686 29.2727 377.373 30.4787 378.267 31.3054C379.171 32.1321 380.257 32.5455 381.527 32.5455Z" fill="white" fill-opacity="0.74"/>
<path d="M24.6307 82.4545C24.6307 83.8352 24.3814 85.0284 23.8828 86.0341C23.3842 87.0398 22.7003 87.8153 21.831 88.3608C20.9616 88.9062 19.9688 89.179 18.8523 89.179C17.7358 89.179 16.7429 88.9062 15.8736 88.3608C15.0043 87.8153 14.3203 87.0398 13.8217 86.0341C13.3232 85.0284 13.0739 83.8352 13.0739 82.4545C13.0739 81.0739 13.3232 79.8807 13.8217 78.875C14.3203 77.8693 15.0043 77.0938 15.8736 76.5483C16.7429 76.0028 17.7358 75.7301 18.8523 75.7301C19.9688 75.7301 20.9616 76.0028 21.831 76.5483C22.7003 77.0938 23.3842 77.8693 23.8828 78.875C24.3814 79.8807 24.6307 81.0739 24.6307 82.4545ZM23.0966 82.4545C23.0966 81.321 22.907 80.3643 22.5277 79.5845C22.1527 78.8047 21.6435 78.2145 21 77.8139C20.3608 77.4134 19.6449 77.2131 18.8523 77.2131C18.0597 77.2131 17.3416 77.4134 16.6982 77.8139C16.0589 78.2145 15.5497 78.8047 15.1705 79.5845C14.7955 80.3643 14.608 81.321 14.608 82.4545C14.608 83.5881 14.7955 84.5447 15.1705 85.3246C15.5497 86.1044 16.0589 86.6946 16.6982 87.0952C17.3416 87.4957 18.0597 87.696 18.8523 87.696C19.6449 87.696 20.3608 87.4957 21 87.0952C21.6435 86.6946 22.1527 86.1044 22.5277 85.3246C22.907 84.5447 23.0966 83.5881 23.0966 82.4545ZM31.0803 89.2045C30.1598 89.2045 29.3672 88.9872 28.7024 88.5526C28.0376 88.1179 27.5263 87.5192 27.1683 86.7564C26.8104 85.9936 26.6314 85.1222 26.6314 84.142C26.6314 83.1449 26.8146 82.2649 27.1811 81.5021C27.5518 80.7351 28.0675 80.1364 28.728 79.706C29.3928 79.2713 30.1683 79.054 31.0547 79.054C31.745 79.054 32.3672 79.1818 32.9212 79.4375C33.4751 79.6932 33.929 80.0511 34.2827 80.5114C34.6364 80.9716 34.8558 81.5085 34.9411 82.1222H33.4325C33.3175 81.6747 33.0618 81.2784 32.6655 80.9332C32.2734 80.5838 31.745 80.4091 31.0803 80.4091C30.4922 80.4091 29.9766 80.5625 29.5334 80.8693C29.0945 81.1719 28.7514 81.6001 28.5043 82.1541C28.2614 82.7038 28.1399 83.3494 28.1399 84.0909C28.1399 84.8494 28.2592 85.5099 28.4979 86.0724C28.7408 86.6349 29.0817 87.0717 29.5206 87.3828C29.9638 87.6939 30.4837 87.8494 31.0803 87.8494C31.4723 87.8494 31.8281 87.7812 32.1477 87.6449C32.4673 87.5085 32.7379 87.3125 32.9595 87.0568C33.1811 86.8011 33.3388 86.4943 33.4325 86.1364H34.9411C34.8558 86.7159 34.6449 87.2379 34.3082 87.7024C33.9759 88.1626 33.5348 88.5291 32.9851 88.8018C32.4396 89.0703 31.8047 89.2045 31.0803 89.2045ZM41.4162 79.1818V80.4602H36.3281V79.1818H41.4162ZM37.8111 76.8295H39.3196V86.1875C39.3196 86.6136 39.3814 86.9332 39.505 87.1463C39.6328 87.3551 39.7947 87.4957 39.9908 87.5682C40.1911 87.6364 40.402 87.6705 40.6236 87.6705C40.7898 87.6705 40.9261 87.6619 41.0327 87.6449C41.1392 87.6236 41.2244 87.6065 41.2884 87.5938L41.5952 88.9489C41.4929 88.9872 41.3501 89.0256 41.1669 89.0639C40.9837 89.1065 40.7514 89.1278 40.4702 89.1278C40.044 89.1278 39.6264 89.0362 39.2173 88.853C38.8125 88.6697 38.4759 88.3906 38.2074 88.0156C37.9432 87.6406 37.8111 87.1676 37.8111 86.5966V76.8295ZM47.6964 89.2045C46.7504 89.2045 45.9343 88.9957 45.2482 88.5781C44.5664 88.1562 44.0401 87.5682 43.6694 86.8139C43.3029 86.0554 43.1197 85.1733 43.1197 84.1676C43.1197 83.1619 43.3029 82.2756 43.6694 81.5085C44.0401 80.7372 44.5558 80.1364 45.2163 79.706C45.881 79.2713 46.6566 79.054 47.543 79.054C48.0543 79.054 48.5593 79.1392 49.0579 79.3097C49.5565 79.4801 50.0103 79.7571 50.4194 80.1406C50.8285 80.5199 51.1545 81.0227 51.3974 81.6491C51.6403 82.2756 51.7617 83.0469 51.7617 83.9631V84.6023H44.1935V83.2983H50.2276C50.2276 82.7443 50.1168 82.25 49.8952 81.8153C49.6779 81.3807 49.3668 81.0376 48.962 80.7862C48.5614 80.5348 48.0884 80.4091 47.543 80.4091C46.9421 80.4091 46.4222 80.5582 45.9833 80.8565C45.5487 81.1506 45.2141 81.5341 44.9798 82.0071C44.7454 82.4801 44.6282 82.9872 44.6282 83.5284V84.3977C44.6282 85.1392 44.756 85.7678 45.0117 86.2834C45.2717 86.7947 45.6317 87.1847 46.092 87.4531C46.5522 87.7173 47.087 87.8494 47.6964 87.8494C48.0927 87.8494 48.4506 87.794 48.7702 87.6832C49.0941 87.5682 49.3732 87.3977 49.6076 87.1719C49.842 86.9418 50.0231 86.6562 50.1509 86.3153L51.6083 86.7244C51.4549 87.2188 51.1971 87.6534 50.8349 88.0284C50.4727 88.3991 50.0252 88.6889 49.4925 88.8977C48.9599 89.1023 48.3612 89.2045 47.6964 89.2045ZM58.3263 79.1818V80.4602H53.2383V79.1818H58.3263ZM54.7212 76.8295H56.2298V86.1875C56.2298 86.6136 56.2915 86.9332 56.4151 87.1463C56.543 87.3551 56.7049 87.4957 56.9009 87.5682C57.1012 87.6364 57.3121 87.6705 57.5337 87.6705C57.6999 87.6705 57.8363 87.6619 57.9428 87.6449C58.0494 87.6236 58.1346 87.6065 58.1985 87.5938L58.5053 88.9489C58.4031 88.9872 58.2603 89.0256 58.0771 89.0639C57.8938 89.1065 57.6616 89.1278 57.3803 89.1278C56.9542 89.1278 56.5366 89.0362 56.1275 88.853C55.7227 88.6697 55.386 88.3906 55.1175 88.0156C54.8533 87.6406 54.7212 87.1676 54.7212 86.5966V76.8295ZM70.2347 75.9091V89H68.6495V77.571H68.5728L65.3768 79.6932V78.0824L68.6495 75.9091H70.2347Z" fill="white" fill-opacity="0.74"/>
<path d="M141.631 82.4545C141.631 83.8352 141.381 85.0284 140.883 86.0341C140.384 87.0398 139.7 87.8153 138.831 88.3608C137.962 88.9062 136.969 89.179 135.852 89.179C134.736 89.179 133.743 88.9062 132.874 88.3608C132.004 87.8153 131.32 87.0398 130.822 86.0341C130.323 85.0284 130.074 83.8352 130.074 82.4545C130.074 81.0739 130.323 79.8807 130.822 78.875C131.32 77.8693 132.004 77.0938 132.874 76.5483C133.743 76.0028 134.736 75.7301 135.852 75.7301C136.969 75.7301 137.962 76.0028 138.831 76.5483C139.7 77.0938 140.384 77.8693 140.883 78.875C141.381 79.8807 141.631 81.0739 141.631 82.4545ZM140.097 82.4545C140.097 81.321 139.907 80.3643 139.528 79.5845C139.153 78.8047 138.643 78.2145 138 77.8139C137.361 77.4134 136.645 77.2131 135.852 77.2131C135.06 77.2131 134.342 77.4134 133.698 77.8139C133.059 78.2145 132.55 78.8047 132.17 79.5845C131.795 80.3643 131.608 81.321 131.608 82.4545C131.608 83.5881 131.795 84.5447 132.17 85.3246C132.55 86.1044 133.059 86.6946 133.698 87.0952C134.342 87.4957 135.06 87.696 135.852 87.696C136.645 87.696 137.361 87.4957 138 87.0952C138.643 86.6946 139.153 86.1044 139.528 85.3246C139.907 84.5447 140.097 83.5881 140.097 82.4545ZM148.08 89.2045C147.16 89.2045 146.367 88.9872 145.702 88.5526C145.038 88.1179 144.526 87.5192 144.168 86.7564C143.81 85.9936 143.631 85.1222 143.631 84.142C143.631 83.1449 143.815 82.2649 144.181 81.5021C144.552 80.7351 145.067 80.1364 145.728 79.706C146.393 79.2713 147.168 79.054 148.055 79.054C148.745 79.054 149.367 79.1818 149.921 79.4375C150.475 79.6932 150.929 80.0511 151.283 80.5114C151.636 80.9716 151.856 81.5085 151.941 82.1222H150.433C150.317 81.6747 150.062 81.2784 149.665 80.9332C149.273 80.5838 148.745 80.4091 148.08 80.4091C147.492 80.4091 146.977 80.5625 146.533 80.8693C146.094 81.1719 145.751 81.6001 145.504 82.1541C145.261 82.7038 145.14 83.3494 145.14 84.0909C145.14 84.8494 145.259 85.5099 145.498 86.0724C145.741 86.6349 146.082 87.0717 146.521 87.3828C146.964 87.6939 147.484 87.8494 148.08 87.8494C148.472 87.8494 148.828 87.7812 149.148 87.6449C149.467 87.5085 149.738 87.3125 149.96 87.0568C150.181 86.8011 150.339 86.4943 150.433 86.1364H151.941C151.856 86.7159 151.645 87.2379 151.308 87.7024C150.976 88.1626 150.535 88.5291 149.985 88.8018C149.44 89.0703 148.805 89.2045 148.08 89.2045ZM158.416 79.1818V80.4602H153.328V79.1818H158.416ZM154.811 76.8295H156.32V86.1875C156.32 86.6136 156.381 86.9332 156.505 87.1463C156.633 87.3551 156.795 87.4957 156.991 87.5682C157.191 87.6364 157.402 87.6705 157.624 87.6705C157.79 87.6705 157.926 87.6619 158.033 87.6449C158.139 87.6236 158.224 87.6065 158.288 87.5938L158.595 88.9489C158.493 88.9872 158.35 89.0256 158.167 89.0639C157.984 89.1065 157.751 89.1278 157.47 89.1278C157.044 89.1278 156.626 89.0362 156.217 88.853C155.813 88.6697 155.476 88.3906 155.207 88.0156C154.943 87.6406 154.811 87.1676 154.811 86.5966V76.8295ZM164.696 89.2045C163.75 89.2045 162.934 88.9957 162.248 88.5781C161.566 88.1562 161.04 87.5682 160.669 86.8139C160.303 86.0554 160.12 85.1733 160.12 84.1676C160.12 83.1619 160.303 82.2756 160.669 81.5085C161.04 80.7372 161.556 80.1364 162.216 79.706C162.881 79.2713 163.657 79.054 164.543 79.054C165.054 79.054 165.559 79.1392 166.058 79.3097C166.556 79.4801 167.01 79.7571 167.419 80.1406C167.828 80.5199 168.154 81.0227 168.397 81.6491C168.64 82.2756 168.762 83.0469 168.762 83.9631V84.6023H161.194V83.2983H167.228C167.228 82.7443 167.117 82.25 166.895 81.8153C166.678 81.3807 166.367 81.0376 165.962 80.7862C165.561 80.5348 165.088 80.4091 164.543 80.4091C163.942 80.4091 163.422 80.5582 162.983 80.8565C162.549 81.1506 162.214 81.5341 161.98 82.0071C161.745 82.4801 161.628 82.9872 161.628 83.5284V84.3977C161.628 85.1392 161.756 85.7678 162.012 86.2834C162.272 86.7947 162.632 87.1847 163.092 87.4531C163.552 87.7173 164.087 87.8494 164.696 87.8494C165.093 87.8494 165.451 87.794 165.77 87.6832C166.094 87.5682 166.373 87.3977 166.608 87.1719C166.842 86.9418 167.023 86.6562 167.151 86.3153L168.608 86.7244C168.455 87.2188 168.197 87.6534 167.835 88.0284C167.473 88.3991 167.025 88.6889 166.493 88.8977C165.96 89.1023 165.361 89.2045 164.696 89.2045ZM175.326 79.1818V80.4602H170.238V79.1818H175.326ZM171.721 76.8295H173.23V86.1875C173.23 86.6136 173.292 86.9332 173.415 87.1463C173.543 87.3551 173.705 87.4957 173.901 87.5682C174.101 87.6364 174.312 87.6705 174.534 87.6705C174.7 87.6705 174.836 87.6619 174.943 87.6449C175.049 87.6236 175.135 87.6065 175.199 87.5938L175.505 88.9489C175.403 88.9872 175.26 89.0256 175.077 89.0639C174.894 89.1065 174.662 89.1278 174.38 89.1278C173.954 89.1278 173.537 89.0362 173.127 88.853C172.723 88.6697 172.386 88.3906 172.118 88.0156C171.853 87.6406 171.721 87.1676 171.721 86.5966V76.8295ZM182.632 89V87.8494L186.953 83.1193C187.461 82.5653 187.878 82.0838 188.206 81.6747C188.534 81.2614 188.777 80.8736 188.935 80.5114C189.097 80.1449 189.178 79.7614 189.178 79.3608C189.178 78.9006 189.067 78.5021 188.846 78.1655C188.628 77.8288 188.33 77.5689 187.951 77.3857C187.571 77.2024 187.145 77.1108 186.672 77.1108C186.169 77.1108 185.73 77.2152 185.355 77.424C184.985 77.6286 184.697 77.9162 184.493 78.2869C184.292 78.6577 184.192 79.0923 184.192 79.5909H182.684C182.684 78.8239 182.86 78.1506 183.214 77.571C183.568 76.9915 184.049 76.5398 184.659 76.2159C185.272 75.892 185.961 75.7301 186.723 75.7301C187.49 75.7301 188.17 75.892 188.762 76.2159C189.355 76.5398 189.819 76.9766 190.156 77.5263C190.493 78.076 190.661 78.6875 190.661 79.3608C190.661 79.8423 190.574 80.3132 190.399 80.7734C190.228 81.2294 189.93 81.7386 189.504 82.3011C189.082 82.8594 188.496 83.5412 187.746 84.3466L184.806 87.4915V87.5938H190.891V89H182.632Z" fill="white" fill-opacity="0.74"/>
<path d="M263.631 82.4545C263.631 83.8352 263.381 85.0284 262.883 86.0341C262.384 87.0398 261.7 87.8153 260.831 88.3608C259.962 88.9062 258.969 89.179 257.852 89.179C256.736 89.179 255.743 88.9062 254.874 88.3608C254.004 87.8153 253.32 87.0398 252.822 86.0341C252.323 85.0284 252.074 83.8352 252.074 82.4545C252.074 81.0739 252.323 79.8807 252.822 78.875C253.32 77.8693 254.004 77.0938 254.874 76.5483C255.743 76.0028 256.736 75.7301 257.852 75.7301C258.969 75.7301 259.962 76.0028 260.831 76.5483C261.7 77.0938 262.384 77.8693 262.883 78.875C263.381 79.8807 263.631 81.0739 263.631 82.4545ZM262.097 82.4545C262.097 81.321 261.907 80.3643 261.528 79.5845C261.153 78.8047 260.643 78.2145 260 77.8139C259.361 77.4134 258.645 77.2131 257.852 77.2131C257.06 77.2131 256.342 77.4134 255.698 77.8139C255.059 78.2145 254.55 78.8047 254.17 79.5845C253.795 80.3643 253.608 81.321 253.608 82.4545C253.608 83.5881 253.795 84.5447 254.17 85.3246C254.55 86.1044 255.059 86.6946 255.698 87.0952C256.342 87.4957 257.06 87.696 257.852 87.696C258.645 87.696 259.361 87.4957 260 87.0952C260.643 86.6946 261.153 86.1044 261.528 85.3246C261.907 84.5447 262.097 83.5881 262.097 82.4545ZM270.08 89.2045C269.16 89.2045 268.367 88.9872 267.702 88.5526C267.038 88.1179 266.526 87.5192 266.168 86.7564C265.81 85.9936 265.631 85.1222 265.631 84.142C265.631 83.1449 265.815 82.2649 266.181 81.5021C266.552 80.7351 267.067 80.1364 267.728 79.706C268.393 79.2713 269.168 79.054 270.055 79.054C270.745 79.054 271.367 79.1818 271.921 79.4375C272.475 79.6932 272.929 80.0511 273.283 80.5114C273.636 80.9716 273.856 81.5085 273.941 82.1222H272.433C272.317 81.6747 272.062 81.2784 271.665 80.9332C271.273 80.5838 270.745 80.4091 270.08 80.4091C269.492 80.4091 268.977 80.5625 268.533 80.8693C268.094 81.1719 267.751 81.6001 267.504 82.1541C267.261 82.7038 267.14 83.3494 267.14 84.0909C267.14 84.8494 267.259 85.5099 267.498 86.0724C267.741 86.6349 268.082 87.0717 268.521 87.3828C268.964 87.6939 269.484 87.8494 270.08 87.8494C270.472 87.8494 270.828 87.7812 271.148 87.6449C271.467 87.5085 271.738 87.3125 271.96 87.0568C272.181 86.8011 272.339 86.4943 272.433 86.1364H273.941C273.856 86.7159 273.645 87.2379 273.308 87.7024C272.976 88.1626 272.535 88.5291 271.985 88.8018C271.44 89.0703 270.805 89.2045 270.08 89.2045ZM280.416 79.1818V80.4602H275.328V79.1818H280.416ZM276.811 76.8295H278.32V86.1875C278.32 86.6136 278.381 86.9332 278.505 87.1463C278.633 87.3551 278.795 87.4957 278.991 87.5682C279.191 87.6364 279.402 87.6705 279.624 87.6705C279.79 87.6705 279.926 87.6619 280.033 87.6449C280.139 87.6236 280.224 87.6065 280.288 87.5938L280.595 88.9489C280.493 88.9872 280.35 89.0256 280.167 89.0639C279.984 89.1065 279.751 89.1278 279.47 89.1278C279.044 89.1278 278.626 89.0362 278.217 88.853C277.813 88.6697 277.476 88.3906 277.207 88.0156C276.943 87.6406 276.811 87.1676 276.811 86.5966V76.8295ZM286.696 89.2045C285.75 89.2045 284.934 88.9957 284.248 88.5781C283.566 88.1562 283.04 87.5682 282.669 86.8139C282.303 86.0554 282.12 85.1733 282.12 84.1676C282.12 83.1619 282.303 82.2756 282.669 81.5085C283.04 80.7372 283.556 80.1364 284.216 79.706C284.881 79.2713 285.657 79.054 286.543 79.054C287.054 79.054 287.559 79.1392 288.058 79.3097C288.556 79.4801 289.01 79.7571 289.419 80.1406C289.828 80.5199 290.154 81.0227 290.397 81.6491C290.64 82.2756 290.762 83.0469 290.762 83.9631V84.6023H283.194V83.2983H289.228C289.228 82.7443 289.117 82.25 288.895 81.8153C288.678 81.3807 288.367 81.0376 287.962 80.7862C287.561 80.5348 287.088 80.4091 286.543 80.4091C285.942 80.4091 285.422 80.5582 284.983 80.8565C284.549 81.1506 284.214 81.5341 283.98 82.0071C283.745 82.4801 283.628 82.9872 283.628 83.5284V84.3977C283.628 85.1392 283.756 85.7678 284.012 86.2834C284.272 86.7947 284.632 87.1847 285.092 87.4531C285.552 87.7173 286.087 87.8494 286.696 87.8494C287.093 87.8494 287.451 87.794 287.77 87.6832C288.094 87.5682 288.373 87.3977 288.608 87.1719C288.842 86.9418 289.023 86.6562 289.151 86.3153L290.608 86.7244C290.455 87.2188 290.197 87.6534 289.835 88.0284C289.473 88.3991 289.025 88.6889 288.493 88.8977C287.96 89.1023 287.361 89.2045 286.696 89.2045ZM297.326 79.1818V80.4602H292.238V79.1818H297.326ZM293.721 76.8295H295.23V86.1875C295.23 86.6136 295.292 86.9332 295.415 87.1463C295.543 87.3551 295.705 87.4957 295.901 87.5682C296.101 87.6364 296.312 87.6705 296.534 87.6705C296.7 87.6705 296.836 87.6619 296.943 87.6449C297.049 87.6236 297.135 87.6065 297.199 87.5938L297.505 88.9489C297.403 88.9872 297.26 89.0256 297.077 89.0639C296.894 89.1065 296.662 89.1278 296.38 89.1278C295.954 89.1278 295.537 89.0362 295.127 88.853C294.723 88.6697 294.386 88.3906 294.118 88.0156C293.853 87.6406 293.721 87.1676 293.721 86.5966V76.8295ZM309.056 89.179C308.212 89.179 307.46 89.0341 306.799 88.7443C306.143 88.4545 305.621 88.0518 305.233 87.5362C304.85 87.0163 304.641 86.4134 304.607 85.7273H306.218C306.252 86.1491 306.397 86.5135 306.652 86.8203C306.908 87.1229 307.243 87.3572 307.656 87.5234C308.069 87.6896 308.527 87.7727 309.03 87.7727C309.593 87.7727 310.091 87.6747 310.526 87.4787C310.961 87.2827 311.301 87.0099 311.549 86.6605C311.796 86.3111 311.919 85.9062 311.919 85.446C311.919 84.9645 311.8 84.5405 311.561 84.174C311.323 83.8033 310.973 83.5135 310.513 83.3047C310.053 83.0959 309.49 82.9915 308.826 82.9915H307.777V81.5852H308.826C309.346 81.5852 309.801 81.4915 310.194 81.304C310.59 81.1165 310.899 80.8523 311.12 80.5114C311.346 80.1705 311.459 79.7699 311.459 79.3097C311.459 78.8665 311.361 78.4808 311.165 78.1527C310.969 77.8246 310.692 77.5689 310.334 77.3857C309.98 77.2024 309.563 77.1108 309.081 77.1108C308.63 77.1108 308.203 77.1939 307.803 77.3601C307.407 77.522 307.083 77.7585 306.831 78.0696C306.58 78.3764 306.444 78.7472 306.422 79.1818H304.888C304.914 78.4957 305.12 77.8949 305.508 77.3793C305.896 76.8594 306.403 76.4545 307.029 76.1648C307.66 75.875 308.353 75.7301 309.107 75.7301C309.917 75.7301 310.611 75.8942 311.191 76.2223C311.77 76.5462 312.216 76.9744 312.527 77.5071C312.838 78.0398 312.993 78.6151 312.993 79.233C312.993 79.9702 312.799 80.5987 312.412 81.1186C312.028 81.6385 311.506 81.9986 310.846 82.1989V82.3011C311.672 82.4375 312.318 82.7891 312.782 83.3558C313.247 83.9183 313.479 84.6151 313.479 85.446C313.479 86.1577 313.285 86.7969 312.897 87.3636C312.514 87.9261 311.99 88.3693 311.325 88.6932C310.66 89.017 309.904 89.179 309.056 89.179Z" fill="white" fill-opacity="0.74"/>
<path d="M357.631 82.4545C357.631 83.8352 357.381 85.0284 356.883 86.0341C356.384 87.0398 355.7 87.8153 354.831 88.3608C353.962 88.9062 352.969 89.179 351.852 89.179C350.736 89.179 349.743 88.9062 348.874 88.3608C348.004 87.8153 347.32 87.0398 346.822 86.0341C346.323 85.0284 346.074 83.8352 346.074 82.4545C346.074 81.0739 346.323 79.8807 346.822 78.875C347.32 77.8693 348.004 77.0938 348.874 76.5483C349.743 76.0028 350.736 75.7301 351.852 75.7301C352.969 75.7301 353.962 76.0028 354.831 76.5483C355.7 77.0938 356.384 77.8693 356.883 78.875C357.381 79.8807 357.631 81.0739 357.631 82.4545ZM356.097 82.4545C356.097 81.321 355.907 80.3643 355.528 79.5845C355.153 78.8047 354.643 78.2145 354 77.8139C353.361 77.4134 352.645 77.2131 351.852 77.2131C351.06 77.2131 350.342 77.4134 349.698 77.8139C349.059 78.2145 348.55 78.8047 348.17 79.5845C347.795 80.3643 347.608 81.321 347.608 82.4545C347.608 83.5881 347.795 84.5447 348.17 85.3246C348.55 86.1044 349.059 86.6946 349.698 87.0952C350.342 87.4957 351.06 87.696 351.852 87.696C352.645 87.696 353.361 87.4957 354 87.0952C354.643 86.6946 355.153 86.1044 355.528 85.3246C355.907 84.5447 356.097 83.5881 356.097 82.4545ZM364.08 89.2045C363.16 89.2045 362.367 88.9872 361.702 88.5526C361.038 88.1179 360.526 87.5192 360.168 86.7564C359.81 85.9936 359.631 85.1222 359.631 84.142C359.631 83.1449 359.815 82.2649 360.181 81.5021C360.552 80.7351 361.067 80.1364 361.728 79.706C362.393 79.2713 363.168 79.054 364.055 79.054C364.745 79.054 365.367 79.1818 365.921 79.4375C366.475 79.6932 366.929 80.0511 367.283 80.5114C367.636 80.9716 367.856 81.5085 367.941 82.1222H366.433C366.317 81.6747 366.062 81.2784 365.665 80.9332C365.273 80.5838 364.745 80.4091 364.08 80.4091C363.492 80.4091 362.977 80.5625 362.533 80.8693C362.094 81.1719 361.751 81.6001 361.504 82.1541C361.261 82.7038 361.14 83.3494 361.14 84.0909C361.14 84.8494 361.259 85.5099 361.498 86.0724C361.741 86.6349 362.082 87.0717 362.521 87.3828C362.964 87.6939 363.484 87.8494 364.08 87.8494C364.472 87.8494 364.828 87.7812 365.148 87.6449C365.467 87.5085 365.738 87.3125 365.96 87.0568C366.181 86.8011 366.339 86.4943 366.433 86.1364H367.941C367.856 86.7159 367.645 87.2379 367.308 87.7024C366.976 88.1626 366.535 88.5291 365.985 88.8018C365.44 89.0703 364.805 89.2045 364.08 89.2045ZM374.416 79.1818V80.4602H369.328V79.1818H374.416ZM370.811 76.8295H372.32V86.1875C372.32 86.6136 372.381 86.9332 372.505 87.1463C372.633 87.3551 372.795 87.4957 372.991 87.5682C373.191 87.6364 373.402 87.6705 373.624 87.6705C373.79 87.6705 373.926 87.6619 374.033 87.6449C374.139 87.6236 374.224 87.6065 374.288 87.5938L374.595 88.9489C374.493 88.9872 374.35 89.0256 374.167 89.0639C373.984 89.1065 373.751 89.1278 373.47 89.1278C373.044 89.1278 372.626 89.0362 372.217 88.853C371.813 88.6697 371.476 88.3906 371.207 88.0156C370.943 87.6406 370.811 87.1676 370.811 86.5966V76.8295ZM380.696 89.2045C379.75 89.2045 378.934 88.9957 378.248 88.5781C377.566 88.1562 377.04 87.5682 376.669 86.8139C376.303 86.0554 376.12 85.1733 376.12 84.1676C376.12 83.1619 376.303 82.2756 376.669 81.5085C377.04 80.7372 377.556 80.1364 378.216 79.706C378.881 79.2713 379.657 79.054 380.543 79.054C381.054 79.054 381.559 79.1392 382.058 79.3097C382.556 79.4801 383.01 79.7571 383.419 80.1406C383.828 80.5199 384.154 81.0227 384.397 81.6491C384.64 82.2756 384.762 83.0469 384.762 83.9631V84.6023H377.194V83.2983H383.228C383.228 82.7443 383.117 82.25 382.895 81.8153C382.678 81.3807 382.367 81.0376 381.962 80.7862C381.561 80.5348 381.088 80.4091 380.543 80.4091C379.942 80.4091 379.422 80.5582 378.983 80.8565C378.549 81.1506 378.214 81.5341 377.98 82.0071C377.745 82.4801 377.628 82.9872 377.628 83.5284V84.3977C377.628 85.1392 377.756 85.7678 378.012 86.2834C378.272 86.7947 378.632 87.1847 379.092 87.4531C379.552 87.7173 380.087 87.8494 380.696 87.8494C381.093 87.8494 381.451 87.794 381.77 87.6832C382.094 87.5682 382.373 87.3977 382.608 87.1719C382.842 86.9418 383.023 86.6562 383.151 86.3153L384.608 86.7244C384.455 87.2188 384.197 87.6534 383.835 88.0284C383.473 88.3991 383.025 88.6889 382.493 88.8977C381.96 89.1023 381.361 89.2045 380.696 89.2045ZM391.326 79.1818V80.4602H386.238V79.1818H391.326ZM387.721 76.8295H389.23V86.1875C389.23 86.6136 389.292 86.9332 389.415 87.1463C389.543 87.3551 389.705 87.4957 389.901 87.5682C390.101 87.6364 390.312 87.6705 390.534 87.6705C390.7 87.6705 390.836 87.6619 390.943 87.6449C391.049 87.6236 391.135 87.6065 391.199 87.5938L391.505 88.9489C391.403 88.9872 391.26 89.0256 391.077 89.0639C390.894 89.1065 390.662 89.1278 390.38 89.1278C389.954 89.1278 389.537 89.0362 389.127 88.853C388.723 88.6697 388.386 88.3906 388.118 88.0156C387.853 87.6406 387.721 87.1676 387.721 86.5966V76.8295ZM398.326 86.3153V85.0114L404.078 75.9091H405.025V77.929H404.385L400.039 84.8068V84.9091H407.786V86.3153H398.326ZM404.488 89V85.919V85.3118V75.9091H405.996V89H404.488Z" fill="white" fill-opacity="0.74"/>
<path d="M193.852 153.119C193.29 153.119 192.788 153.023 192.348 152.83C191.911 152.636 191.563 152.368 191.304 152.024C191.048 151.678 190.909 151.276 190.886 150.818H191.96C191.983 151.099 192.08 151.342 192.25 151.547C192.42 151.749 192.643 151.905 192.919 152.016C193.195 152.126 193.5 152.182 193.835 152.182C194.21 152.182 194.543 152.116 194.832 151.986C195.122 151.855 195.349 151.673 195.514 151.44C195.679 151.207 195.761 150.938 195.761 150.631C195.761 150.31 195.682 150.027 195.523 149.783C195.364 149.536 195.131 149.342 194.824 149.203C194.517 149.064 194.142 148.994 193.699 148.994H193V148.057H193.699C194.045 148.057 194.349 147.994 194.611 147.869C194.875 147.744 195.081 147.568 195.229 147.341C195.379 147.114 195.455 146.847 195.455 146.54C195.455 146.244 195.389 145.987 195.259 145.768C195.128 145.55 194.943 145.379 194.705 145.257C194.469 145.135 194.19 145.074 193.869 145.074C193.568 145.074 193.284 145.129 193.017 145.24C192.753 145.348 192.537 145.506 192.369 145.713C192.202 145.918 192.111 146.165 192.097 146.455H191.074C191.091 145.997 191.229 145.597 191.487 145.253C191.746 144.906 192.084 144.636 192.501 144.443C192.922 144.25 193.384 144.153 193.886 144.153C194.426 144.153 194.889 144.263 195.276 144.482C195.662 144.697 195.959 144.983 196.166 145.338C196.374 145.693 196.477 146.077 196.477 146.489C196.477 146.98 196.348 147.399 196.089 147.746C195.834 148.092 195.486 148.332 195.045 148.466V148.534C195.597 148.625 196.027 148.859 196.337 149.237C196.646 149.612 196.801 150.077 196.801 150.631C196.801 151.105 196.672 151.531 196.413 151.909C196.158 152.284 195.808 152.58 195.365 152.795C194.922 153.011 194.418 153.119 193.852 153.119ZM198.544 153V152.233L201.425 149.08C201.763 148.71 202.041 148.389 202.26 148.116C202.479 147.841 202.641 147.582 202.746 147.341C202.854 147.097 202.908 146.841 202.908 146.574C202.908 146.267 202.834 146.001 202.686 145.777C202.541 145.553 202.342 145.379 202.089 145.257C201.837 145.135 201.553 145.074 201.237 145.074C200.902 145.074 200.609 145.143 200.359 145.283C200.112 145.419 199.92 145.611 199.784 145.858C199.651 146.105 199.584 146.395 199.584 146.727H198.578C198.578 146.216 198.696 145.767 198.932 145.381C199.168 144.994 199.489 144.693 199.895 144.477C200.304 144.261 200.763 144.153 201.271 144.153C201.783 144.153 202.236 144.261 202.631 144.477C203.026 144.693 203.335 144.984 203.56 145.351C203.784 145.717 203.896 146.125 203.896 146.574C203.896 146.895 203.838 147.209 203.722 147.516C203.608 147.82 203.409 148.159 203.125 148.534C202.844 148.906 202.453 149.361 201.953 149.898L199.993 151.994V152.062H204.05V153H198.544ZM209.338 153V144.273H212.389C212.997 144.273 213.499 144.378 213.893 144.588C214.288 144.795 214.582 145.075 214.776 145.428C214.969 145.777 215.065 146.165 215.065 146.591C215.065 146.966 214.999 147.276 214.865 147.52C214.734 147.764 214.561 147.957 214.345 148.099C214.132 148.241 213.901 148.347 213.651 148.415V148.5C213.918 148.517 214.186 148.611 214.456 148.781C214.726 148.952 214.952 149.196 215.134 149.514C215.315 149.832 215.406 150.222 215.406 150.682C215.406 151.119 215.307 151.513 215.108 151.862C214.909 152.212 214.595 152.489 214.166 152.693C213.737 152.898 213.179 153 212.491 153H209.338ZM210.395 152.062H212.491C213.182 152.062 213.672 151.929 213.962 151.662C214.254 151.392 214.401 151.065 214.401 150.682C214.401 150.386 214.325 150.114 214.175 149.864C214.024 149.611 213.81 149.409 213.531 149.259C213.253 149.105 212.923 149.028 212.543 149.028H210.395V152.062ZM210.395 148.108H212.355C212.673 148.108 212.96 148.045 213.216 147.92C213.474 147.795 213.679 147.619 213.83 147.392C213.983 147.165 214.06 146.898 214.06 146.591C214.06 146.207 213.926 145.882 213.659 145.615C213.392 145.345 212.969 145.21 212.389 145.21H210.395V148.108ZM217.006 153V146.455H218.012V153H217.006ZM217.518 145.364C217.322 145.364 217.153 145.297 217.011 145.163C216.871 145.03 216.802 144.869 216.802 144.682C216.802 144.494 216.871 144.334 217.011 144.2C217.153 144.067 217.322 144 217.518 144C217.714 144 217.881 144.067 218.021 144.2C218.163 144.334 218.234 144.494 218.234 144.682C218.234 144.869 218.163 145.03 218.021 145.163C217.881 145.297 217.714 145.364 217.518 145.364ZM222.701 146.455V147.307H219.309V146.455H222.701ZM220.297 144.886H221.303V151.125C221.303 151.409 221.344 151.622 221.426 151.764C221.512 151.903 221.62 151.997 221.75 152.045C221.884 152.091 222.025 152.114 222.172 152.114C222.283 152.114 222.374 152.108 222.445 152.097C222.516 152.082 222.573 152.071 222.615 152.062L222.82 152.966C222.752 152.991 222.657 153.017 222.534 153.043C222.412 153.071 222.257 153.085 222.07 153.085C221.786 153.085 221.507 153.024 221.235 152.902C220.965 152.78 220.74 152.594 220.561 152.344C220.385 152.094 220.297 151.778 220.297 151.398V144.886ZM228.733 147.92L227.829 148.176C227.772 148.026 227.689 147.879 227.578 147.737C227.47 147.592 227.322 147.473 227.135 147.379C226.947 147.286 226.707 147.239 226.414 147.239C226.014 147.239 225.68 147.331 225.413 147.516C225.149 147.697 225.017 147.929 225.017 148.21C225.017 148.46 225.108 148.658 225.289 148.803C225.471 148.947 225.755 149.068 226.142 149.165L227.113 149.403C227.699 149.545 228.135 149.763 228.422 150.055C228.708 150.345 228.852 150.719 228.852 151.176C228.852 151.551 228.744 151.886 228.528 152.182C228.315 152.477 228.017 152.71 227.633 152.881C227.25 153.051 226.804 153.136 226.295 153.136C225.627 153.136 225.075 152.991 224.637 152.702C224.2 152.412 223.923 151.989 223.806 151.432L224.761 151.193C224.852 151.545 225.024 151.81 225.277 151.986C225.532 152.162 225.866 152.25 226.278 152.25C226.747 152.25 227.119 152.151 227.395 151.952C227.673 151.75 227.812 151.509 227.812 151.227C227.812 151 227.733 150.81 227.574 150.656C227.414 150.5 227.17 150.384 226.841 150.307L225.75 150.051C225.15 149.909 224.71 149.689 224.429 149.391C224.15 149.089 224.011 148.713 224.011 148.261C224.011 147.892 224.115 147.565 224.322 147.281C224.532 146.997 224.818 146.774 225.179 146.612C225.542 146.45 225.954 146.369 226.414 146.369C227.062 146.369 227.571 146.511 227.94 146.795C228.312 147.08 228.576 147.455 228.733 147.92Z" fill="white" fill-opacity="0.74"/>
<path d="M59.75 106L207.75 138" stroke="white" stroke-opacity="0.74"/>
<path d="M207.673 137.858L355.827 102.142" stroke="white" stroke-opacity="0.74"/>
</svg>
