<svg width="267" height="22" viewBox="0 0 267 22" fill="none" xmlns="http://www.w3.org/2000/svg">
<path d="M11.9659 4.90909V18H10.4318L3.2983 7.72159H3.17045V18H1.58523V4.90909H3.11932L10.2784 15.2131H10.4062V4.90909H11.9659ZM19.0499 18.2045C18.1039 18.2045 17.2878 17.9957 16.6017 17.5781C15.9199 17.1562 15.3936 16.5682 15.0229 15.8139C14.6564 15.0554 14.4732 14.1733 14.4732 13.1676C14.4732 12.1619 14.6564 11.2756 15.0229 10.5085C15.3936 9.73722 15.9093 9.13636 16.5698 8.70597C17.2346 8.27131 18.0101 8.05398 18.8965 8.05398C19.4078 8.05398 19.9128 8.1392 20.4114 8.30966C20.91 8.48011 21.3638 8.7571 21.7729 9.14062C22.182 9.51989 22.508 10.0227 22.7509 10.6491C22.9938 11.2756 23.1152 12.0469 23.1152 12.9631V13.6023H15.5471V12.2983H21.5811C21.5811 11.7443 21.4703 11.25 21.2488 10.8153C21.0314 10.3807 20.7203 10.0376 20.3155 9.78622C19.915 9.5348 19.4419 9.40909 18.8965 9.40909C18.2956 9.40909 17.7757 9.55824 17.3368 9.85653C16.9022 10.1506 16.5676 10.5341 16.3333 11.0071C16.0989 11.4801 15.9817 11.9872 15.9817 12.5284V13.3977C15.9817 14.1392 16.1096 14.7678 16.3652 15.2834C16.6252 15.7947 16.9853 16.1847 17.4455 16.4531C17.9057 16.7173 18.4405 16.8494 19.0499 16.8494C19.4462 16.8494 19.8042 16.794 20.1238 16.6832C20.4476 16.5682 20.7267 16.3977 20.9611 16.1719C21.1955 15.9418 21.3766 15.6562 21.5044 15.3153L22.9618 15.7244C22.8084 16.2188 22.5506 16.6534 22.1884 17.0284C21.8262 17.3991 21.3787 17.6889 20.8461 17.8977C20.3134 18.1023 19.7147 18.2045 19.0499 18.2045ZM29.6799 8.18182V9.46023H24.5918V8.18182H29.6799ZM26.0748 5.82955H27.5833V15.1875C27.5833 15.6136 27.6451 15.9332 27.7686 16.1463C27.8965 16.3551 28.0584 16.4957 28.2544 16.5682C28.4547 16.6364 28.6657 16.6705 28.8873 16.6705C29.0534 16.6705 29.1898 16.6619 29.2963 16.6449C29.4029 16.6236 29.4881 16.6065 29.552 16.5938L29.8588 17.9489C29.7566 17.9872 29.6138 18.0256 29.4306 18.0639C29.2473 18.1065 29.0151 18.1278 28.7338 18.1278C28.3077 18.1278 27.8901 18.0362 27.481 17.853C27.0762 17.6697 26.7395 17.3906 26.4711 17.0156C26.2069 16.6406 26.0748 16.1676 26.0748 15.5966V5.82955ZM34.1735 18L31.182 8.18182H32.7672L34.8894 15.6989H34.9917L37.0882 8.18182H38.699L40.7701 15.6733H40.8723L42.9945 8.18182H44.5797L41.5882 18H40.1053L37.9576 10.4574H37.8042L35.6564 18H34.1735ZM50.2287 18.2045C49.3423 18.2045 48.5646 17.9936 47.8956 17.5717C47.2308 17.1499 46.7109 16.5597 46.3359 15.8011C45.9652 15.0426 45.7798 14.1562 45.7798 13.142C45.7798 12.1193 45.9652 11.2266 46.3359 10.4638C46.7109 9.70099 47.2308 9.10866 47.8956 8.68679C48.5646 8.26491 49.3423 8.05398 50.2287 8.05398C51.1151 8.05398 51.8906 8.26491 52.5554 8.68679C53.2244 9.10866 53.7443 9.70099 54.1151 10.4638C54.4901 11.2266 54.6776 12.1193 54.6776 13.142C54.6776 14.1562 54.4901 15.0426 54.1151 15.8011C53.7443 16.5597 53.2244 17.1499 52.5554 17.5717C51.8906 17.9936 51.1151 18.2045 50.2287 18.2045ZM50.2287 16.8494C50.902 16.8494 51.456 16.6768 51.8906 16.3317C52.3253 15.9865 52.647 15.5327 52.8558 14.9702C53.0646 14.4077 53.169 13.7983 53.169 13.142C53.169 12.4858 53.0646 11.8743 52.8558 11.3075C52.647 10.7408 52.3253 10.2827 51.8906 9.93324C51.456 9.58381 50.902 9.40909 50.2287 9.40909C49.5554 9.40909 49.0014 9.58381 48.5668 9.93324C48.1321 10.2827 47.8104 10.7408 47.6016 11.3075C47.3928 11.8743 47.2884 12.4858 47.2884 13.142C47.2884 13.7983 47.3928 14.4077 47.6016 14.9702C47.8104 15.5327 48.1321 15.9865 48.5668 16.3317C49.0014 16.6768 49.5554 16.8494 50.2287 16.8494ZM56.9803 18V8.18182H58.4377V9.66477H58.54C58.7189 9.17898 59.0428 8.7848 59.5115 8.48224C59.9803 8.17969 60.5087 8.02841 61.0968 8.02841C61.2076 8.02841 61.3461 8.03054 61.5123 8.0348C61.6784 8.03906 61.8042 8.04545 61.8894 8.05398V9.58807C61.8382 9.57528 61.7211 9.55611 61.5378 9.53054C61.3588 9.50071 61.1692 9.4858 60.9689 9.4858C60.4917 9.4858 60.0655 9.58594 59.6905 9.78622C59.3198 9.98224 59.0257 10.255 58.8084 10.6044C58.5953 10.9496 58.4888 11.3437 58.4888 11.7869V18H56.9803ZM65.0838 14.4205L65.0582 12.554H65.3651L69.6605 8.18182H71.527L66.9503 12.8097H66.8224L65.0838 14.4205ZM63.6776 18V4.90909H65.1861V18H63.6776ZM69.9162 18L66.081 13.142L67.1548 12.0938L71.8338 18H69.9162ZM78.7356 18V4.90909H83.1589C84.1859 4.90909 85.0254 5.09446 85.6774 5.4652C86.3336 5.83168 86.8194 6.32812 87.1348 6.95455C87.4501 7.58097 87.6078 8.27983 87.6078 9.05114C87.6078 9.82244 87.4501 10.5234 87.1348 11.1541C86.8237 11.7848 86.3422 12.2876 85.6902 12.6626C85.0382 13.0334 84.2029 13.2188 83.1845 13.2188H80.014V11.8125H83.1333C83.8365 11.8125 84.4011 11.6911 84.8272 11.4482C85.2534 11.2053 85.5623 10.8771 85.7541 10.4638C85.9501 10.0462 86.0481 9.57528 86.0481 9.05114C86.0481 8.52699 85.9501 8.05824 85.7541 7.64489C85.5623 7.23153 85.2512 6.90767 84.8208 6.6733C84.3904 6.43466 83.8194 6.31534 83.1078 6.31534H80.3208V18H78.7356ZM93.84 18.2045C92.9537 18.2045 92.176 17.9936 91.5069 17.5717C90.8422 17.1499 90.3223 16.5597 89.9473 15.8011C89.5765 15.0426 89.3912 14.1562 89.3912 13.142C89.3912 12.1193 89.5765 11.2266 89.9473 10.4638C90.3223 9.70099 90.8422 9.10866 91.5069 8.68679C92.176 8.26491 92.9537 8.05398 93.84 8.05398C94.7264 8.05398 95.502 8.26491 96.1667 8.68679C96.8358 9.10866 97.3556 9.70099 97.7264 10.4638C98.1014 11.2266 98.2889 12.1193 98.2889 13.142C98.2889 14.1562 98.1014 15.0426 97.7264 15.8011C97.3556 16.5597 96.8358 17.1499 96.1667 17.5717C95.502 17.9936 94.7264 18.2045 93.84 18.2045ZM93.84 16.8494C94.5133 16.8494 95.0673 16.6768 95.502 16.3317C95.9366 15.9865 96.2583 15.5327 96.4672 14.9702C96.676 14.4077 96.7804 13.7983 96.7804 13.142C96.7804 12.4858 96.676 11.8743 96.4672 11.3075C96.2583 10.7408 95.9366 10.2827 95.502 9.93324C95.0673 9.58381 94.5133 9.40909 93.84 9.40909C93.1667 9.40909 92.6127 9.58381 92.1781 9.93324C91.7434 10.2827 91.4217 10.7408 91.2129 11.3075C91.0041 11.8743 90.8997 12.4858 90.8997 13.142C90.8997 13.7983 91.0041 14.4077 91.2129 14.9702C91.4217 15.5327 91.7434 15.9865 92.1781 16.3317C92.6127 16.6768 93.1667 16.8494 93.84 16.8494ZM100.592 18V8.18182H102.049V9.66477H102.151C102.33 9.17898 102.654 8.7848 103.123 8.48224C103.592 8.17969 104.12 8.02841 104.708 8.02841C104.819 8.02841 104.957 8.03054 105.124 8.0348C105.29 8.03906 105.415 8.04545 105.501 8.05398V9.58807C105.45 9.57528 105.332 9.55611 105.149 9.53054C104.97 9.50071 104.781 9.4858 104.58 9.4858C104.103 9.4858 103.677 9.58594 103.302 9.78622C102.931 9.98224 102.637 10.255 102.42 10.6044C102.207 10.9496 102.1 11.3437 102.1 11.7869V18H100.592ZM112.174 8.18182V9.46023H107.086V8.18182H112.174ZM108.569 5.82955H110.077V15.1875C110.077 15.6136 110.139 15.9332 110.263 16.1463C110.391 16.3551 110.553 16.4957 110.749 16.5682C110.949 16.6364 111.16 16.6705 111.381 16.6705C111.548 16.6705 111.684 16.6619 111.79 16.6449C111.897 16.6236 111.982 16.6065 112.046 16.5938L112.353 17.9489C112.251 17.9872 112.108 18.0256 111.925 18.0639C111.741 18.1065 111.509 18.1278 111.228 18.1278C110.802 18.1278 110.384 18.0362 109.975 17.853C109.57 17.6697 109.234 17.3906 108.965 17.0156C108.701 16.6406 108.569 16.1676 108.569 15.5966V5.82955ZM114.443 18V8.18182H115.952V18H114.443ZM115.21 6.54545C114.916 6.54545 114.663 6.44531 114.45 6.24503C114.241 6.04474 114.136 5.80398 114.136 5.52273C114.136 5.24148 114.241 5.00071 114.45 4.80043C114.663 4.60014 114.916 4.5 115.21 4.5C115.504 4.5 115.756 4.60014 115.964 4.80043C116.178 5.00071 116.284 5.24148 116.284 5.52273C116.284 5.80398 116.178 6.04474 115.964 6.24503C115.756 6.44531 115.504 6.54545 115.21 6.54545ZM122.703 18.2045C121.817 18.2045 121.039 17.9936 120.37 17.5717C119.705 17.1499 119.186 16.5597 118.811 15.8011C118.44 15.0426 118.254 14.1562 118.254 13.142C118.254 12.1193 118.44 11.2266 118.811 10.4638C119.186 9.70099 119.705 9.10866 120.37 8.68679C121.039 8.26491 121.817 8.05398 122.703 8.05398C123.59 8.05398 124.365 8.26491 125.03 8.68679C125.699 9.10866 126.219 9.70099 126.59 10.4638C126.965 11.2266 127.152 12.1193 127.152 13.142C127.152 14.1562 126.965 15.0426 126.59 15.8011C126.219 16.5597 125.699 17.1499 125.03 17.5717C124.365 17.9936 123.59 18.2045 122.703 18.2045ZM122.703 16.8494C123.377 16.8494 123.931 16.6768 124.365 16.3317C124.8 15.9865 125.122 15.5327 125.33 14.9702C125.539 14.4077 125.644 13.7983 125.644 13.142C125.644 12.4858 125.539 11.8743 125.33 11.3075C125.122 10.7408 124.8 10.2827 124.365 9.93324C123.931 9.58381 123.377 9.40909 122.703 9.40909C122.03 9.40909 121.476 9.58381 121.041 9.93324C120.607 10.2827 120.285 10.7408 120.076 11.3075C119.867 11.8743 119.763 12.4858 119.763 13.142C119.763 13.7983 119.867 14.4077 120.076 14.9702C120.285 15.5327 120.607 15.9865 121.041 16.3317C121.476 16.6768 122.03 16.8494 122.703 16.8494ZM130.963 12.0938V18H129.455V8.18182H130.912V9.71591H131.04C131.27 9.21733 131.62 8.81676 132.088 8.5142C132.557 8.20739 133.162 8.05398 133.904 8.05398C134.569 8.05398 135.15 8.19034 135.649 8.46307C136.147 8.73153 136.535 9.14062 136.812 9.69034C137.089 10.2358 137.228 10.9261 137.228 11.7614V18H135.719V11.8636C135.719 11.0923 135.519 10.4915 135.118 10.0611C134.718 9.62642 134.168 9.40909 133.469 9.40909C132.988 9.40909 132.557 9.51349 132.178 9.7223C131.803 9.93111 131.507 10.2358 131.289 10.6364C131.072 11.0369 130.963 11.5227 130.963 12.0938Z" fill="#1E1E1E"/>
<path d="M161.585 18V4.90909H163.17V10.7386H170.151V4.90909H171.736V18H170.151V12.1449H163.17V18H161.585ZM178.694 18.2045C177.807 18.2045 177.029 17.9936 176.36 17.5717C175.696 17.1499 175.176 16.5597 174.801 15.8011C174.43 15.0426 174.245 14.1562 174.245 13.142C174.245 12.1193 174.43 11.2266 174.801 10.4638C175.176 9.70099 175.696 9.10866 176.36 8.68679C177.029 8.26491 177.807 8.05398 178.694 8.05398C179.58 8.05398 180.355 8.26491 181.02 8.68679C181.689 9.10866 182.209 9.70099 182.58 10.4638C182.955 11.2266 183.142 12.1193 183.142 13.142C183.142 14.1562 182.955 15.0426 182.58 15.8011C182.209 16.5597 181.689 17.1499 181.02 17.5717C180.355 17.9936 179.58 18.2045 178.694 18.2045ZM178.694 16.8494C179.367 16.8494 179.921 16.6768 180.355 16.3317C180.79 15.9865 181.112 15.5327 181.321 14.9702C181.529 14.4077 181.634 13.7983 181.634 13.142C181.634 12.4858 181.529 11.8743 181.321 11.3075C181.112 10.7408 180.79 10.2827 180.355 9.93324C179.921 9.58381 179.367 9.40909 178.694 9.40909C178.02 9.40909 177.466 9.58381 177.032 9.93324C176.597 10.2827 176.275 10.7408 176.066 11.3075C175.858 11.8743 175.753 12.4858 175.753 13.142C175.753 13.7983 175.858 14.4077 176.066 14.9702C176.275 15.5327 176.597 15.9865 177.032 16.3317C177.466 16.6768 178.02 16.8494 178.694 16.8494ZM192.4 10.3807L191.045 10.7642C190.959 10.5384 190.834 10.3189 190.667 10.1058C190.506 9.88849 190.284 9.70952 190.003 9.56889C189.721 9.42827 189.361 9.35795 188.922 9.35795C188.322 9.35795 187.821 9.49645 187.42 9.77344C187.024 10.0462 186.826 10.3935 186.826 10.8153C186.826 11.1903 186.962 11.4865 187.235 11.7038C187.508 11.9212 187.934 12.1023 188.513 12.2472L189.971 12.6051C190.849 12.8182 191.503 13.1442 191.933 13.5831C192.363 14.0178 192.579 14.5781 192.579 15.2642C192.579 15.8267 192.417 16.3295 192.093 16.7727C191.773 17.2159 191.326 17.5653 190.751 17.821C190.175 18.0767 189.506 18.2045 188.743 18.2045C187.742 18.2045 186.913 17.9872 186.257 17.5526C185.601 17.1179 185.185 16.483 185.01 15.6477L186.442 15.2898C186.579 15.8182 186.836 16.2145 187.216 16.4787C187.599 16.7429 188.1 16.875 188.718 16.875C189.421 16.875 189.979 16.7259 190.393 16.4276C190.81 16.125 191.019 15.7628 191.019 15.3409C191.019 15 190.9 14.7145 190.661 14.4844C190.422 14.25 190.056 14.0753 189.562 13.9602L187.925 13.5767C187.026 13.3636 186.366 13.0334 185.944 12.5859C185.526 12.1342 185.317 11.5696 185.317 10.892C185.317 10.3381 185.473 9.84801 185.784 9.42188C186.099 8.99574 186.528 8.66122 187.069 8.41832C187.614 8.17543 188.232 8.05398 188.922 8.05398C189.894 8.05398 190.657 8.26705 191.211 8.69318C191.769 9.11932 192.165 9.68182 192.4 10.3807ZM199.119 8.18182V9.46023H194.031V8.18182H199.119ZM195.514 5.82955H197.023V15.1875C197.023 15.6136 197.085 15.9332 197.208 16.1463C197.336 16.3551 197.498 16.4957 197.694 16.5682C197.894 16.6364 198.105 16.6705 198.327 16.6705C198.493 16.6705 198.629 16.6619 198.736 16.6449C198.842 16.6236 198.928 16.6065 198.991 16.5938L199.298 17.9489C199.196 17.9872 199.053 18.0256 198.87 18.0639C198.687 18.1065 198.455 18.1278 198.173 18.1278C197.747 18.1278 197.33 18.0362 196.92 17.853C196.516 17.6697 196.179 17.3906 195.911 17.0156C195.646 16.6406 195.514 16.1676 195.514 15.5966V5.82955ZM206.656 18V4.90909H211.079C212.106 4.90909 212.945 5.09446 213.597 5.4652C214.254 5.83168 214.739 6.32812 215.055 6.95455C215.37 7.58097 215.528 8.27983 215.528 9.05114C215.528 9.82244 215.37 10.5234 215.055 11.1541C214.744 11.7848 214.262 12.2876 213.61 12.6626C212.958 13.0334 212.123 13.2188 211.104 13.2188H207.934V11.8125H211.053C211.756 11.8125 212.321 11.6911 212.747 11.4482C213.173 11.2053 213.482 10.8771 213.674 10.4638C213.87 10.0462 213.968 9.57528 213.968 9.05114C213.968 8.52699 213.87 8.05824 213.674 7.64489C213.482 7.23153 213.171 6.90767 212.741 6.6733C212.31 6.43466 211.739 6.31534 211.028 6.31534H208.241V18H206.656ZM221.76 18.2045C220.874 18.2045 220.096 17.9936 219.427 17.5717C218.762 17.1499 218.242 16.5597 217.867 15.8011C217.496 15.0426 217.311 14.1562 217.311 13.142C217.311 12.1193 217.496 11.2266 217.867 10.4638C218.242 9.70099 218.762 9.10866 219.427 8.68679C220.096 8.26491 220.874 8.05398 221.76 8.05398C222.646 8.05398 223.422 8.26491 224.087 8.68679C224.756 9.10866 225.276 9.70099 225.646 10.4638C226.021 11.2266 226.209 12.1193 226.209 13.142C226.209 14.1562 226.021 15.0426 225.646 15.8011C225.276 16.5597 224.756 17.1499 224.087 17.5717C223.422 17.9936 222.646 18.2045 221.76 18.2045ZM221.76 16.8494C222.433 16.8494 222.987 16.6768 223.422 16.3317C223.857 15.9865 224.178 15.5327 224.387 14.9702C224.596 14.4077 224.7 13.7983 224.7 13.142C224.7 12.4858 224.596 11.8743 224.387 11.3075C224.178 10.7408 223.857 10.2827 223.422 9.93324C222.987 9.58381 222.433 9.40909 221.76 9.40909C221.087 9.40909 220.533 9.58381 220.098 9.93324C219.663 10.2827 219.342 10.7408 219.133 11.3075C218.924 11.8743 218.82 12.4858 218.82 13.142C218.82 13.7983 218.924 14.4077 219.133 14.9702C219.342 15.5327 219.663 15.9865 220.098 16.3317C220.533 16.6768 221.087 16.8494 221.76 16.8494ZM228.512 18V8.18182H229.969V9.66477H230.071C230.25 9.17898 230.574 8.7848 231.043 8.48224C231.512 8.17969 232.04 8.02841 232.628 8.02841C232.739 8.02841 232.877 8.03054 233.044 8.0348C233.21 8.03906 233.335 8.04545 233.421 8.05398V9.58807C233.369 9.57528 233.252 9.55611 233.069 9.53054C232.89 9.50071 232.7 9.4858 232.5 9.4858C232.023 9.4858 231.597 9.58594 231.222 9.78622C230.851 9.98224 230.557 10.255 230.34 10.6044C230.127 10.9496 230.02 11.3437 230.02 11.7869V18H228.512ZM240.094 8.18182V9.46023H235.006V8.18182H240.094ZM236.489 5.82955H237.997V15.1875C237.997 15.6136 238.059 15.9332 238.183 16.1463C238.311 16.3551 238.472 16.4957 238.669 16.5682C238.869 16.6364 239.08 16.6705 239.301 16.6705C239.468 16.6705 239.604 16.6619 239.71 16.6449C239.817 16.6236 239.902 16.6065 239.966 16.5938L240.273 17.9489C240.171 17.9872 240.028 18.0256 239.845 18.0639C239.661 18.1065 239.429 18.1278 239.148 18.1278C238.722 18.1278 238.304 18.0362 237.895 17.853C237.49 17.6697 237.154 17.3906 236.885 17.0156C236.621 16.6406 236.489 16.1676 236.489 15.5966V5.82955ZM242.363 18V8.18182H243.872V18H242.363ZM243.13 6.54545C242.836 6.54545 242.583 6.44531 242.369 6.24503C242.161 6.04474 242.056 5.80398 242.056 5.52273C242.056 5.24148 242.161 5.00071 242.369 4.80043C242.583 4.60014 242.836 4.5 243.13 4.5C243.424 4.5 243.676 4.60014 243.884 4.80043C244.097 5.00071 244.204 5.24148 244.204 5.52273C244.204 5.80398 244.097 6.04474 243.884 6.24503C243.676 6.44531 243.424 6.54545 243.13 6.54545ZM250.623 18.2045C249.737 18.2045 248.959 17.9936 248.29 17.5717C247.625 17.1499 247.105 16.5597 246.73 15.8011C246.36 15.0426 246.174 14.1562 246.174 13.142C246.174 12.1193 246.36 11.2266 246.73 10.4638C247.105 9.70099 247.625 9.10866 248.29 8.68679C248.959 8.26491 249.737 8.05398 250.623 8.05398C251.51 8.05398 252.285 8.26491 252.95 8.68679C253.619 9.10866 254.139 9.70099 254.51 10.4638C254.885 11.2266 255.072 12.1193 255.072 13.142C255.072 14.1562 254.885 15.0426 254.51 15.8011C254.139 16.5597 253.619 17.1499 252.95 17.5717C252.285 17.9936 251.51 18.2045 250.623 18.2045ZM250.623 16.8494C251.297 16.8494 251.85 16.6768 252.285 16.3317C252.72 15.9865 253.042 15.5327 253.25 14.9702C253.459 14.4077 253.564 13.7983 253.564 13.142C253.564 12.4858 253.459 11.8743 253.25 11.3075C253.042 10.7408 252.72 10.2827 252.285 9.93324C251.85 9.58381 251.297 9.40909 250.623 9.40909C249.95 9.40909 249.396 9.58381 248.961 9.93324C248.527 10.2827 248.205 10.7408 247.996 11.3075C247.787 11.8743 247.683 12.4858 247.683 13.142C247.683 13.7983 247.787 14.4077 247.996 14.9702C248.205 15.5327 248.527 15.9865 248.961 16.3317C249.396 16.6768 249.95 16.8494 250.623 16.8494ZM258.883 12.0938V18H257.375V8.18182H258.832V9.71591H258.96C259.19 9.21733 259.54 8.81676 260.008 8.5142C260.477 8.20739 261.082 8.05398 261.824 8.05398C262.488 8.05398 263.07 8.19034 263.569 8.46307C264.067 8.73153 264.455 9.14062 264.732 9.69034C265.009 10.2358 265.148 10.9261 265.148 11.7614V18H263.639V11.8636C263.639 11.0923 263.439 10.4915 263.038 10.0611C262.638 9.62642 262.088 9.40909 261.389 9.40909C260.907 9.40909 260.477 9.51349 260.098 9.7223C259.723 9.93111 259.427 10.2358 259.209 10.6364C258.992 11.0369 258.883 11.5227 258.883 12.0938Z" fill="#1E1E1E"/>
<path d="M150 2.5V20.5" stroke="#1E1E1E"/>
</svg>
