<svg width="581" height="50" viewBox="0 0 581 50" fill="none" xmlns="http://www.w3.org/2000/svg">
<rect x="330" y="1" width="250" height="48" fill="white" stroke="#1E1E1E" stroke-width="2"/>
<path d="M427.057 28V19.2727H430.006C430.69 19.2727 431.25 19.3963 431.685 19.6435C432.122 19.8878 432.446 20.2188 432.656 20.6364C432.866 21.054 432.972 21.5199 432.972 22.0341C432.972 22.5483 432.866 23.0156 432.656 23.4361C432.449 23.8565 432.128 24.1918 431.693 24.4418C431.259 24.6889 430.702 24.8125 430.023 24.8125H427.909V23.875H429.989C430.457 23.875 430.834 23.794 431.118 23.6321C431.402 23.4702 431.608 23.2514 431.736 22.9759C431.866 22.6974 431.932 22.3835 431.932 22.0341C431.932 21.6847 431.866 21.3722 431.736 21.0966C431.608 20.821 431.401 20.6051 431.114 20.4489C430.827 20.2898 430.446 20.2102 429.972 20.2102H428.114V28H427.057ZM436.464 28.1534C436.049 28.1534 435.673 28.0753 435.335 27.919C434.996 27.7599 434.728 27.5312 434.529 27.233C434.33 26.9318 434.231 26.5682 434.231 26.142C434.231 25.767 434.305 25.4631 434.452 25.2301C434.6 24.9943 434.798 24.8097 435.045 24.6761C435.292 24.5426 435.565 24.4432 435.863 24.3778C436.164 24.3097 436.467 24.2557 436.771 24.2159C437.168 24.1648 437.491 24.1264 437.738 24.1009C437.988 24.0724 438.17 24.0256 438.283 23.9602C438.4 23.8949 438.458 23.7812 438.458 23.6193V23.5852C438.458 23.1648 438.343 22.8381 438.113 22.6051C437.886 22.3722 437.54 22.2557 437.077 22.2557C436.597 22.2557 436.221 22.3608 435.948 22.571C435.675 22.7812 435.484 23.0057 435.373 23.2443L434.418 22.9034C434.589 22.5057 434.816 22.196 435.1 21.9744C435.387 21.75 435.7 21.5937 436.038 21.5057C436.379 21.4148 436.714 21.3693 437.043 21.3693C437.254 21.3693 437.495 21.3949 437.768 21.446C438.043 21.4943 438.309 21.5952 438.565 21.7486C438.823 21.902 439.038 22.1335 439.208 22.4432C439.379 22.7528 439.464 23.1676 439.464 23.6875V28H438.458V27.1136H438.407C438.339 27.2557 438.225 27.4077 438.066 27.5696C437.907 27.7315 437.695 27.8693 437.431 27.983C437.167 28.0966 436.844 28.1534 436.464 28.1534ZM436.617 27.25C437.015 27.25 437.35 27.1719 437.623 27.0156C437.898 26.8594 438.106 26.6577 438.245 26.4105C438.387 26.1634 438.458 25.9034 438.458 25.6307V24.7102C438.415 24.7614 438.322 24.8082 438.177 24.8509C438.035 24.8906 437.87 24.9261 437.683 24.9574C437.498 24.9858 437.317 25.0114 437.141 25.0341C436.968 25.054 436.827 25.071 436.719 25.0852C436.458 25.1193 436.214 25.1747 435.987 25.2514C435.762 25.3253 435.58 25.4375 435.441 25.5881C435.305 25.7358 435.237 25.9375 435.237 26.1932C435.237 26.5426 435.366 26.8068 435.624 26.9858C435.886 27.1619 436.217 27.25 436.617 27.25ZM441.713 30.4545C441.542 30.4545 441.39 30.4403 441.257 30.4119C441.123 30.3864 441.031 30.3608 440.98 30.3352L441.235 29.4489C441.48 29.5114 441.696 29.5341 441.883 29.517C442.071 29.5 442.237 29.4162 442.382 29.2656C442.529 29.1179 442.664 28.8778 442.787 28.5455L442.974 28.0341L440.554 21.4545H441.645L443.451 26.6705H443.52L445.326 21.4545H446.417L443.639 28.9545C443.514 29.2926 443.359 29.5724 443.174 29.794C442.99 30.0185 442.775 30.1847 442.531 30.2926C442.289 30.4006 442.017 30.4545 441.713 30.4545ZM448.75 19.2727V28H447.745V19.2727H448.75ZM453.251 28.1364C452.661 28.1364 452.142 27.9957 451.696 27.7145C451.253 27.4332 450.906 27.0398 450.656 26.5341C450.409 26.0284 450.286 25.4375 450.286 24.7614C450.286 24.0795 450.409 23.4844 450.656 22.9759C450.906 22.4673 451.253 22.0724 451.696 21.7912C452.142 21.5099 452.661 21.3693 453.251 21.3693C453.842 21.3693 454.359 21.5099 454.803 21.7912C455.249 22.0724 455.595 22.4673 455.842 22.9759C456.092 23.4844 456.217 24.0795 456.217 24.7614C456.217 25.4375 456.092 26.0284 455.842 26.5341C455.595 27.0398 455.249 27.4332 454.803 27.7145C454.359 27.9957 453.842 28.1364 453.251 28.1364ZM453.251 27.233C453.7 27.233 454.07 27.1179 454.359 26.8878C454.649 26.6577 454.864 26.3551 455.003 25.9801C455.142 25.6051 455.212 25.1989 455.212 24.7614C455.212 24.3239 455.142 23.9162 455.003 23.5384C454.864 23.1605 454.649 22.8551 454.359 22.6222C454.07 22.3892 453.7 22.2727 453.251 22.2727C452.803 22.2727 452.433 22.3892 452.143 22.6222C451.854 22.8551 451.639 23.1605 451.5 23.5384C451.361 23.9162 451.291 24.3239 451.291 24.7614C451.291 25.1989 451.361 25.6051 451.5 25.9801C451.639 26.3551 451.854 26.6577 452.143 26.8878C452.433 27.1179 452.803 27.233 453.251 27.233ZM459.679 28.1534C459.264 28.1534 458.887 28.0753 458.549 27.919C458.211 27.7599 457.943 27.5312 457.744 27.233C457.545 26.9318 457.446 26.5682 457.446 26.142C457.446 25.767 457.52 25.4631 457.667 25.2301C457.815 24.9943 458.012 24.8097 458.26 24.6761C458.507 24.5426 458.779 24.4432 459.078 24.3778C459.379 24.3097 459.681 24.2557 459.985 24.2159C460.383 24.1648 460.706 24.1264 460.953 24.1009C461.203 24.0724 461.385 24.0256 461.498 23.9602C461.615 23.8949 461.673 23.7812 461.673 23.6193V23.5852C461.673 23.1648 461.558 22.8381 461.328 22.6051C461.1 22.3722 460.755 22.2557 460.292 22.2557C459.812 22.2557 459.436 22.3608 459.163 22.571C458.89 22.7812 458.699 23.0057 458.588 23.2443L457.633 22.9034C457.804 22.5057 458.031 22.196 458.315 21.9744C458.602 21.75 458.914 21.5937 459.252 21.5057C459.593 21.4148 459.929 21.3693 460.258 21.3693C460.468 21.3693 460.71 21.3949 460.983 21.446C461.258 21.4943 461.524 21.5952 461.779 21.7486C462.038 21.902 462.252 22.1335 462.423 22.4432C462.593 22.7528 462.679 23.1676 462.679 23.6875V28H461.673V27.1136H461.622C461.554 27.2557 461.44 27.4077 461.281 27.5696C461.122 27.7315 460.91 27.8693 460.646 27.983C460.382 28.0966 460.059 28.1534 459.679 28.1534ZM459.832 27.25C460.23 27.25 460.565 27.1719 460.838 27.0156C461.113 26.8594 461.321 26.6577 461.46 26.4105C461.602 26.1634 461.673 25.9034 461.673 25.6307V24.7102C461.63 24.7614 461.537 24.8082 461.392 24.8509C461.25 24.8906 461.085 24.9261 460.897 24.9574C460.713 24.9858 460.532 25.0114 460.356 25.0341C460.183 25.054 460.042 25.071 459.934 25.0852C459.673 25.1193 459.429 25.1747 459.201 25.2514C458.977 25.3253 458.795 25.4375 458.656 25.5881C458.52 25.7358 458.451 25.9375 458.451 26.1932C458.451 26.5426 458.581 26.8068 458.839 26.9858C459.1 27.1619 459.431 27.25 459.832 27.25ZM466.986 28.1364C466.44 28.1364 465.959 27.9986 465.541 27.723C465.124 27.4446 464.797 27.0526 464.561 26.5469C464.325 26.0384 464.207 25.4375 464.207 24.7443C464.207 24.0568 464.325 23.4602 464.561 22.9545C464.797 22.4489 465.125 22.0582 465.545 21.7827C465.966 21.5071 466.452 21.3693 467.003 21.3693C467.429 21.3693 467.766 21.4403 468.013 21.5824C468.263 21.7216 468.453 21.8807 468.584 22.0597C468.717 22.2358 468.821 22.3807 468.895 22.4943H468.98V19.2727H469.986V28H469.014V26.9943H468.895C468.821 27.1136 468.716 27.2642 468.58 27.446C468.443 27.625 468.249 27.7855 467.996 27.9276C467.743 28.0668 467.406 28.1364 466.986 28.1364ZM467.122 27.233C467.526 27.233 467.866 27.1278 468.145 26.9176C468.423 26.7045 468.635 26.4105 468.78 26.0355C468.925 25.6577 468.997 25.2216 468.997 24.7273C468.997 24.2386 468.926 23.8111 468.784 23.4446C468.642 23.0753 468.432 22.7884 468.153 22.5838C467.875 22.3764 467.531 22.2727 467.122 22.2727C466.696 22.2727 466.341 22.3821 466.057 22.6009C465.776 22.8168 465.564 23.1108 465.422 23.483C465.283 23.8523 465.213 24.267 465.213 24.7273C465.213 25.1932 465.284 25.6165 465.426 25.9972C465.571 26.375 465.784 26.6761 466.065 26.9006C466.349 27.1222 466.702 27.233 467.122 27.233Z" fill="#1E1E1E"/>
<path d="M329 1V49H221V1H329Z" fill="white" stroke="#1E1E1E" stroke-width="2"/>
<path d="M252.415 19.2727L255.006 26.6193H255.108L257.699 19.2727H258.807L255.602 28H254.511L251.307 19.2727H252.415ZM262.165 28.1364C261.534 28.1364 260.99 27.9972 260.533 27.7188C260.078 27.4375 259.727 27.0455 259.48 26.5426C259.236 26.0369 259.114 25.4489 259.114 24.7784C259.114 24.108 259.236 23.517 259.48 23.0057C259.727 22.4915 260.071 22.0909 260.511 21.804C260.955 21.5142 261.472 21.3693 262.062 21.3693C262.403 21.3693 262.74 21.4261 263.072 21.5398C263.405 21.6534 263.707 21.8381 263.98 22.0938C264.253 22.3466 264.47 22.6818 264.632 23.0994C264.794 23.517 264.875 24.0312 264.875 24.642V25.0682H259.83V24.1989H263.852C263.852 23.8295 263.778 23.5 263.631 23.2102C263.486 22.9205 263.278 22.6918 263.009 22.5241C262.741 22.3565 262.426 22.2727 262.062 22.2727C261.662 22.2727 261.315 22.3722 261.023 22.571C260.733 22.767 260.51 23.0227 260.354 23.3381C260.197 23.6534 260.119 23.9915 260.119 24.3523V24.9318C260.119 25.4261 260.205 25.8452 260.375 26.1889C260.548 26.5298 260.788 26.7898 261.095 26.9688C261.402 27.1449 261.759 27.233 262.165 27.233C262.429 27.233 262.668 27.196 262.881 27.1222C263.097 27.0455 263.283 26.9318 263.439 26.7812C263.595 26.6278 263.716 26.4375 263.801 26.2102L264.773 26.483C264.67 26.8125 264.499 27.1023 264.257 27.3523C264.016 27.5994 263.717 27.7926 263.362 27.9318C263.007 28.0682 262.608 28.1364 262.165 28.1364ZM266.405 28V21.4545H267.376V22.4432H267.445C267.564 22.1193 267.78 21.8565 268.092 21.6548C268.405 21.4531 268.757 21.3523 269.149 21.3523C269.223 21.3523 269.315 21.3537 269.426 21.3565C269.537 21.3594 269.621 21.3636 269.678 21.3693V22.392C269.643 22.3835 269.565 22.3707 269.443 22.3537C269.324 22.3338 269.197 22.3239 269.064 22.3239C268.746 22.3239 268.462 22.3906 268.212 22.5241C267.964 22.6548 267.768 22.8366 267.624 23.0696C267.482 23.2997 267.411 23.5625 267.411 23.858V28H266.405ZM275.506 22.9205L274.603 23.1761C274.546 23.0256 274.462 22.8793 274.351 22.7372C274.243 22.5923 274.096 22.473 273.908 22.3793C273.721 22.2855 273.48 22.2386 273.188 22.2386C272.787 22.2386 272.453 22.331 272.186 22.5156C271.922 22.6974 271.79 22.929 271.79 23.2102C271.79 23.4602 271.881 23.6577 272.063 23.8026C272.245 23.9474 272.529 24.0682 272.915 24.1648L273.887 24.4034C274.472 24.5455 274.908 24.7628 275.195 25.0554C275.482 25.3452 275.625 25.7187 275.625 26.1761C275.625 26.5511 275.517 26.8864 275.301 27.1818C275.088 27.4773 274.79 27.7102 274.407 27.8807C274.023 28.0511 273.577 28.1364 273.069 28.1364C272.401 28.1364 271.848 27.9915 271.411 27.7017C270.973 27.4119 270.696 26.9886 270.58 26.4318L271.534 26.1932C271.625 26.5455 271.797 26.8097 272.05 26.9858C272.306 27.1619 272.64 27.25 273.051 27.25C273.52 27.25 273.892 27.1506 274.168 26.9517C274.446 26.75 274.586 26.5085 274.586 26.2273C274.586 26 274.506 25.8097 274.347 25.6562C274.188 25.5 273.944 25.3835 273.614 25.3068L272.523 25.0511C271.924 24.9091 271.483 24.6889 271.202 24.3906C270.924 24.0895 270.784 23.7131 270.784 23.2614C270.784 22.892 270.888 22.5653 271.096 22.2812C271.306 21.9972 271.591 21.7741 271.952 21.6122C272.316 21.4503 272.728 21.3693 273.188 21.3693C273.836 21.3693 274.344 21.5114 274.713 21.7955C275.086 22.0795 275.35 22.4545 275.506 22.9205ZM277.139 28V21.4545H278.145V28H277.139ZM277.651 20.3636C277.455 20.3636 277.286 20.2969 277.143 20.1634C277.004 20.0298 276.935 19.8693 276.935 19.6818C276.935 19.4943 277.004 19.3338 277.143 19.2003C277.286 19.0668 277.455 19 277.651 19C277.847 19 278.014 19.0668 278.153 19.2003C278.295 19.3338 278.366 19.4943 278.366 19.6818C278.366 19.8693 278.295 20.0298 278.153 20.1634C278.014 20.2969 277.847 20.3636 277.651 20.3636ZM282.646 28.1364C282.055 28.1364 281.537 27.9957 281.091 27.7145C280.647 27.4332 280.301 27.0398 280.051 26.5341C279.804 26.0284 279.68 25.4375 279.68 24.7614C279.68 24.0795 279.804 23.4844 280.051 22.9759C280.301 22.4673 280.647 22.0724 281.091 21.7912C281.537 21.5099 282.055 21.3693 282.646 21.3693C283.237 21.3693 283.754 21.5099 284.197 21.7912C284.643 22.0724 284.99 22.4673 285.237 22.9759C285.487 23.4844 285.612 24.0795 285.612 24.7614C285.612 25.4375 285.487 26.0284 285.237 26.5341C284.99 27.0398 284.643 27.4332 284.197 27.7145C283.754 27.9957 283.237 28.1364 282.646 28.1364ZM282.646 27.233C283.095 27.233 283.464 27.1179 283.754 26.8878C284.044 26.6577 284.258 26.3551 284.397 25.9801C284.537 25.6051 284.606 25.1989 284.606 24.7614C284.606 24.3239 284.537 23.9162 284.397 23.5384C284.258 23.1605 284.044 22.8551 283.754 22.6222C283.464 22.3892 283.095 22.2727 282.646 22.2727C282.197 22.2727 281.828 22.3892 281.538 22.6222C281.248 22.8551 281.034 23.1605 280.895 23.5384C280.755 23.9162 280.686 24.3239 280.686 24.7614C280.686 25.1989 280.755 25.6051 280.895 25.9801C281.034 26.3551 281.248 26.6577 281.538 26.8878C281.828 27.1179 282.197 27.233 282.646 27.233ZM288.153 24.0625V28H287.147V21.4545H288.119V22.4773H288.204C288.357 22.1449 288.59 21.8778 288.903 21.6761C289.215 21.4716 289.619 21.3693 290.113 21.3693C290.556 21.3693 290.944 21.4602 291.276 21.642C291.609 21.821 291.867 22.0938 292.052 22.4602C292.237 22.8239 292.329 23.2841 292.329 23.8409V28H291.323V23.9091C291.323 23.3949 291.19 22.9943 290.923 22.7074C290.656 22.4176 290.289 22.2727 289.823 22.2727C289.502 22.2727 289.215 22.3423 288.962 22.4815C288.712 22.6207 288.515 22.8239 288.37 23.0909C288.225 23.358 288.153 23.6818 288.153 24.0625Z" fill="#1E1E1E"/>
<path d="M109 1V49H1V1H109Z" fill="white" stroke="#1E1E1E" stroke-width="2"/>
<path d="M31.8295 13.4545C31.7784 13.0227 31.571 12.6875 31.2074 12.4489C30.8438 12.2102 30.3977 12.0909 29.8693 12.0909C29.483 12.0909 29.1449 12.1534 28.8551 12.2784C28.5682 12.4034 28.3438 12.5753 28.1818 12.794C28.0227 13.0128 27.9432 13.2614 27.9432 13.5398C27.9432 13.7727 27.9986 13.973 28.1094 14.1406C28.223 14.3054 28.3679 14.4432 28.544 14.554C28.7202 14.6619 28.9048 14.7514 29.098 14.8224C29.2912 14.8906 29.4688 14.946 29.6307 14.9886L30.517 15.2273C30.7443 15.2869 30.9972 15.3693 31.2756 15.4744C31.5568 15.5795 31.8253 15.723 32.081 15.9048C32.3395 16.0838 32.5526 16.3139 32.7202 16.5952C32.8878 16.8764 32.9716 17.2216 32.9716 17.6307C32.9716 18.1023 32.848 18.5284 32.6009 18.9091C32.3565 19.2898 31.9986 19.5923 31.527 19.8168C31.0582 20.0412 30.4886 20.1534 29.8182 20.1534C29.1932 20.1534 28.652 20.0526 28.1946 19.8509C27.7401 19.6491 27.3821 19.3679 27.1207 19.0071C26.8622 18.6463 26.7159 18.2273 26.6818 17.75H27.7727C27.8011 18.0795 27.9119 18.3523 28.1051 18.5682C28.3011 18.7812 28.5483 18.9403 28.8466 19.0455C29.1477 19.1477 29.4716 19.1989 29.8182 19.1989C30.2216 19.1989 30.5838 19.1335 30.9048 19.0028C31.2259 18.8693 31.4801 18.6847 31.6676 18.4489C31.8551 18.2102 31.9489 17.9318 31.9489 17.6136C31.9489 17.3239 31.8679 17.0881 31.706 16.9062C31.544 16.7244 31.331 16.5767 31.0668 16.4631C30.8026 16.3494 30.517 16.25 30.2102 16.1648L29.1364 15.858C28.4545 15.6619 27.9148 15.3821 27.517 15.0185C27.1193 14.6548 26.9205 14.179 26.9205 13.5909C26.9205 13.1023 27.0526 12.6761 27.3168 12.3125C27.5838 11.946 27.9418 11.6619 28.3906 11.4602C28.8423 11.2557 29.3466 11.1534 29.9034 11.1534C30.4659 11.1534 30.9659 11.2543 31.4034 11.456C31.8409 11.6548 32.1875 11.9276 32.4432 12.2741C32.7017 12.6207 32.8381 13.0142 32.8523 13.4545H31.8295ZM37.2319 20.1364C36.641 20.1364 36.1225 19.9957 35.6765 19.7145C35.2333 19.4332 34.8867 19.0398 34.6367 18.5341C34.3896 18.0284 34.266 17.4375 34.266 16.7614C34.266 16.0795 34.3896 15.4844 34.6367 14.9759C34.8867 14.4673 35.2333 14.0724 35.6765 13.7912C36.1225 13.5099 36.641 13.3693 37.2319 13.3693C37.8228 13.3693 38.3398 13.5099 38.783 13.7912C39.229 14.0724 39.5756 14.4673 39.8228 14.9759C40.0728 15.4844 40.1978 16.0795 40.1978 16.7614C40.1978 17.4375 40.0728 18.0284 39.8228 18.5341C39.5756 19.0398 39.229 19.4332 38.783 19.7145C38.3398 19.9957 37.8228 20.1364 37.2319 20.1364ZM37.2319 19.233C37.6808 19.233 38.0501 19.1179 38.3398 18.8878C38.6296 18.6577 38.8441 18.3551 38.9833 17.9801C39.1225 17.6051 39.1921 17.1989 39.1921 16.7614C39.1921 16.3239 39.1225 15.9162 38.9833 15.5384C38.8441 15.1605 38.6296 14.8551 38.3398 14.6222C38.0501 14.3892 37.6808 14.2727 37.2319 14.2727C36.783 14.2727 36.4137 14.3892 36.1239 14.6222C35.8342 14.8551 35.6197 15.1605 35.4805 15.5384C35.3413 15.9162 35.2717 16.3239 35.2717 16.7614C35.2717 17.1989 35.3413 17.6051 35.4805 17.9801C35.6197 18.3551 35.8342 18.6577 36.1239 18.8878C36.4137 19.1179 36.783 19.233 37.2319 19.233ZM45.858 17.3239V13.4545H46.8636V20H45.858V18.892H45.7898C45.6364 19.2244 45.3977 19.5071 45.0739 19.7401C44.75 19.9702 44.3409 20.0852 43.8466 20.0852C43.4375 20.0852 43.0739 19.9957 42.7557 19.8168C42.4375 19.6349 42.1875 19.3622 42.0057 18.9986C41.8239 18.6321 41.733 18.1705 41.733 17.6136V13.4545H42.7386V17.5455C42.7386 18.0227 42.8722 18.4034 43.1392 18.6875C43.4091 18.9716 43.7528 19.1136 44.1705 19.1136C44.4205 19.1136 44.6747 19.0497 44.9332 18.9219C45.1946 18.794 45.4134 18.598 45.5895 18.3338C45.7685 18.0696 45.858 17.733 45.858 17.3239ZM48.7056 20V13.4545H49.6772V14.4432H49.7454C49.8647 14.1193 50.0806 13.8565 50.3931 13.6548C50.7056 13.4531 51.0579 13.3523 51.4499 13.3523C51.5238 13.3523 51.6161 13.3537 51.7269 13.3565C51.8377 13.3594 51.9215 13.3636 51.9783 13.3693V14.392C51.9442 14.3835 51.8661 14.3707 51.744 14.3537C51.6246 14.3338 51.4982 14.3239 51.3647 14.3239C51.0465 14.3239 50.7624 14.3906 50.5124 14.5241C50.2653 14.6548 50.0692 14.8366 49.9244 15.0696C49.7823 15.2997 49.7113 15.5625 49.7113 15.858V20H48.7056ZM55.6303 20.1364C55.0167 20.1364 54.4883 19.9915 54.0451 19.7017C53.6019 19.4119 53.261 19.0128 53.0224 18.5043C52.7837 17.9957 52.6644 17.4148 52.6644 16.7614C52.6644 16.0966 52.7866 15.5099 53.0309 15.0014C53.2781 14.4901 53.6218 14.0909 54.0621 13.804C54.5053 13.5142 55.0224 13.3693 55.6133 13.3693C56.0735 13.3693 56.4883 13.4545 56.8576 13.625C57.2269 13.7955 57.5295 14.0341 57.7653 14.3409C58.0011 14.6477 58.1474 15.0057 58.2042 15.4148H57.1985C57.1218 15.1165 56.9513 14.8523 56.6871 14.6222C56.4258 14.3892 56.0735 14.2727 55.6303 14.2727C55.2383 14.2727 54.8945 14.375 54.5991 14.5795C54.3065 14.7812 54.0778 15.0668 53.913 15.4361C53.7511 15.8026 53.6701 16.233 53.6701 16.7273C53.6701 17.233 53.7496 17.6733 53.9087 18.0483C54.0707 18.4233 54.2979 18.7145 54.5906 18.9219C54.886 19.1293 55.2326 19.233 55.6303 19.233C55.8917 19.233 56.1289 19.1875 56.342 19.0966C56.555 19.0057 56.7354 18.875 56.8832 18.7045C57.0309 18.5341 57.136 18.3295 57.1985 18.0909H58.2042C58.1474 18.4773 58.0067 18.8253 57.7823 19.1349C57.5607 19.4418 57.2667 19.6861 56.9002 19.8679C56.5366 20.0469 56.1133 20.1364 55.6303 20.1364ZM62.4187 20.1364C61.788 20.1364 61.244 19.9972 60.7866 19.7188C60.332 19.4375 59.9812 19.0455 59.734 18.5426C59.4897 18.0369 59.3675 17.4489 59.3675 16.7784C59.3675 16.108 59.4897 15.517 59.734 15.0057C59.9812 14.4915 60.3249 14.0909 60.7653 13.804C61.2085 13.5142 61.7255 13.3693 62.3164 13.3693C62.6573 13.3693 62.994 13.4261 63.3263 13.5398C63.6587 13.6534 63.9613 13.8381 64.234 14.0938C64.5067 14.3466 64.7241 14.6818 64.886 15.0994C65.0479 15.517 65.1289 16.0312 65.1289 16.642V17.0682H60.0835V16.1989H64.1062C64.1062 15.8295 64.0323 15.5 63.8846 15.2102C63.7397 14.9205 63.5323 14.6918 63.2624 14.5241C62.9954 14.3565 62.68 14.2727 62.3164 14.2727C61.9158 14.2727 61.5692 14.3722 61.2766 14.571C60.9869 14.767 60.7638 15.0227 60.6076 15.3381C60.4513 15.6534 60.3732 15.9915 60.3732 16.3523V16.9318C60.3732 17.4261 60.4585 17.8452 60.6289 18.1889C60.8022 18.5298 61.0423 18.7898 61.3491 18.9688C61.6559 19.1449 62.0124 19.233 62.4187 19.233C62.6829 19.233 62.9215 19.196 63.1346 19.1222C63.3505 19.0455 63.5366 18.9318 63.6928 18.7812C63.8491 18.6278 63.9698 18.4375 64.055 18.2102L65.0266 18.483C64.9244 18.8125 64.7525 19.1023 64.511 19.3523C64.2695 19.5994 63.9712 19.7926 63.6161 19.9318C63.261 20.0682 62.8619 20.1364 62.4187 20.1364ZM71.2269 11.2727V20H70.1701V11.2727H71.2269ZM73.3459 20V11.2727H76.2947C76.9794 11.2727 77.5391 11.3963 77.9737 11.6435C78.4112 11.8878 78.7351 12.2188 78.9453 12.6364C79.1555 13.054 79.2607 13.5199 79.2607 14.0341C79.2607 14.5483 79.1555 15.0156 78.9453 15.4361C78.7379 15.8565 78.4169 16.1918 77.9822 16.4418C77.5476 16.6889 76.9908 16.8125 76.3118 16.8125H74.1982V15.875H76.2777C76.7464 15.875 77.1229 15.794 77.407 15.6321C77.6911 15.4702 77.897 15.2514 78.0249 14.9759C78.1555 14.6974 78.2209 14.3835 78.2209 14.0341C78.2209 13.6847 78.1555 13.3722 78.0249 13.0966C77.897 12.821 77.6896 12.6051 77.4027 12.4489C77.1158 12.2898 76.7351 12.2102 76.2607 12.2102H74.4027V20H73.3459ZM27.4148 35H26.3068L29.5114 26.2727H30.6023L33.8068 35H32.6989L30.0909 27.6534H30.0227L27.4148 35ZM27.8239 31.5909H32.2898V32.5284H27.8239V31.5909ZM37.5014 35.1364C36.956 35.1364 36.4744 34.9986 36.0568 34.723C35.6392 34.4446 35.3125 34.0526 35.0767 33.5469C34.8409 33.0384 34.723 32.4375 34.723 31.7443C34.723 31.0568 34.8409 30.4602 35.0767 29.9545C35.3125 29.4489 35.6406 29.0582 36.0611 28.7827C36.4815 28.5071 36.9673 28.3693 37.5185 28.3693C37.9446 28.3693 38.2813 28.4403 38.5284 28.5824C38.7784 28.7216 38.9688 28.8807 39.0994 29.0597C39.233 29.2358 39.3366 29.3807 39.4105 29.4943H39.4957V26.2727H40.5014V35H39.5298V33.9943H39.4105C39.3366 34.1136 39.2315 34.2642 39.0952 34.446C38.9588 34.625 38.7642 34.7855 38.5114 34.9276C38.2585 35.0668 37.9219 35.1364 37.5014 35.1364ZM37.6378 34.233C38.0412 34.233 38.3821 34.1278 38.6605 33.9176C38.9389 33.7045 39.1506 33.4105 39.2955 33.0355C39.4403 32.6577 39.5128 32.2216 39.5128 31.7273C39.5128 31.2386 39.4418 30.8111 39.2997 30.4446C39.1577 30.0753 38.9474 29.7884 38.669 29.5838C38.3906 29.3764 38.0469 29.2727 37.6378 29.2727C37.2116 29.2727 36.8565 29.3821 36.5724 29.6009C36.2912 29.8168 36.0795 30.1108 35.9375 30.483C35.7983 30.8523 35.7287 31.267 35.7287 31.7273C35.7287 32.1932 35.7997 32.6165 35.9418 32.9972C36.0866 33.375 36.2997 33.6761 36.581 33.9006C36.8651 34.1222 37.2173 34.233 37.6378 34.233ZM44.9545 35.1364C44.4091 35.1364 43.9276 34.9986 43.5099 34.723C43.0923 34.4446 42.7656 34.0526 42.5298 33.5469C42.294 33.0384 42.1761 32.4375 42.1761 31.7443C42.1761 31.0568 42.294 30.4602 42.5298 29.9545C42.7656 29.4489 43.0938 29.0582 43.5142 28.7827C43.9347 28.5071 44.4205 28.3693 44.9716 28.3693C45.3977 28.3693 45.7344 28.4403 45.9815 28.5824C46.2315 28.7216 46.4219 28.8807 46.5526 29.0597C46.6861 29.2358 46.7898 29.3807 46.8636 29.4943H46.9489V26.2727H47.9545V35H46.983V33.9943H46.8636C46.7898 34.1136 46.6847 34.2642 46.5483 34.446C46.4119 34.625 46.2173 34.7855 45.9645 34.9276C45.7116 35.0668 45.375 35.1364 44.9545 35.1364ZM45.0909 34.233C45.4943 34.233 45.8352 34.1278 46.1136 33.9176C46.392 33.7045 46.6037 33.4105 46.7486 33.0355C46.8935 32.6577 46.9659 32.2216 46.9659 31.7273C46.9659 31.2386 46.8949 30.8111 46.7528 30.4446C46.6108 30.0753 46.4006 29.7884 46.1222 29.5838C45.8438 29.3764 45.5 29.2727 45.0909 29.2727C44.6648 29.2727 44.3097 29.3821 44.0256 29.6009C43.7443 29.8168 43.5327 30.1108 43.3906 30.483C43.2514 30.8523 43.1818 31.267 43.1818 31.7273C43.1818 32.1932 43.2528 32.6165 43.3949 32.9972C43.5398 33.375 43.7528 33.6761 44.0341 33.9006C44.3182 34.1222 44.6705 34.233 45.0909 34.233ZM49.9361 35V28.4545H50.9077V29.4432H50.9759C51.0952 29.1193 51.3111 28.8565 51.6236 28.6548C51.9361 28.4531 52.2884 28.3523 52.6804 28.3523C52.7543 28.3523 52.8466 28.3537 52.9574 28.3565C53.0682 28.3594 53.152 28.3636 53.2088 28.3693V29.392C53.1747 29.3835 53.0966 29.3707 52.9744 29.3537C52.8551 29.3338 52.7287 29.3239 52.5952 29.3239C52.277 29.3239 51.9929 29.3906 51.7429 29.5241C51.4957 29.6548 51.2997 29.8366 51.1548 30.0696C51.0128 30.2997 50.9418 30.5625 50.9418 30.858V35H49.9361ZM56.946 35.1364C56.3153 35.1364 55.7713 34.9972 55.3139 34.7188C54.8594 34.4375 54.5085 34.0455 54.2614 33.5426C54.017 33.0369 53.8949 32.4489 53.8949 31.7784C53.8949 31.108 54.017 30.517 54.2614 30.0057C54.5085 29.4915 54.8523 29.0909 55.2926 28.804C55.7358 28.5142 56.2528 28.3693 56.8438 28.3693C57.1847 28.3693 57.5213 28.4261 57.8537 28.5398C58.1861 28.6534 58.4886 28.8381 58.7614 29.0938C59.0341 29.3466 59.2514 29.6818 59.4134 30.0994C59.5753 30.517 59.6562 31.0312 59.6562 31.642V32.0682H54.6108V31.1989H58.6335C58.6335 30.8295 58.5597 30.5 58.4119 30.2102C58.267 29.9205 58.0597 29.6918 57.7898 29.5241C57.5227 29.3565 57.2074 29.2727 56.8438 29.2727C56.4432 29.2727 56.0966 29.3722 55.804 29.571C55.5142 29.767 55.2912 30.0227 55.1349 30.3381C54.9787 30.6534 54.9006 30.9915 54.9006 31.3523V31.9318C54.9006 32.4261 54.9858 32.8452 55.1562 33.1889C55.3295 33.5298 55.5696 33.7898 55.8764 33.9688C56.1832 34.1449 56.5398 34.233 56.946 34.233C57.2102 34.233 57.4489 34.196 57.6619 34.1222C57.8778 34.0455 58.0639 33.9318 58.2202 33.7812C58.3764 33.6278 58.4972 33.4375 58.5824 33.2102L59.554 33.483C59.4517 33.8125 59.2798 34.1023 59.0384 34.3523C58.7969 34.5994 58.4986 34.7926 58.1435 34.9318C57.7884 35.0682 57.3892 35.1364 56.946 35.1364ZM65.8224 29.9205L64.919 30.1761C64.8622 30.0256 64.7784 29.8793 64.6676 29.7372C64.5597 29.5923 64.4119 29.473 64.2244 29.3793C64.0369 29.2855 63.7969 29.2386 63.5043 29.2386C63.1037 29.2386 62.7699 29.331 62.5028 29.5156C62.2386 29.6974 62.1065 29.929 62.1065 30.2102C62.1065 30.4602 62.1974 30.6577 62.3793 30.8026C62.5611 30.9474 62.8452 31.0682 63.2315 31.1648L64.2031 31.4034C64.7884 31.5455 65.2244 31.7628 65.5114 32.0554C65.7983 32.3452 65.9418 32.7187 65.9418 33.1761C65.9418 33.5511 65.8338 33.8864 65.6179 34.1818C65.4048 34.4773 65.1065 34.7102 64.723 34.8807C64.3395 35.0511 63.8935 35.1364 63.3849 35.1364C62.7173 35.1364 62.1648 34.9915 61.7273 34.7017C61.2898 34.4119 61.0128 33.9886 60.8963 33.4318L61.8509 33.1932C61.9418 33.5455 62.1136 33.8097 62.3665 33.9858C62.6222 34.1619 62.956 34.25 63.3679 34.25C63.8366 34.25 64.2088 34.1506 64.4844 33.9517C64.7628 33.75 64.902 33.5085 64.902 33.2273C64.902 33 64.8224 32.8097 64.6634 32.6562C64.5043 32.5 64.2599 32.3835 63.9304 32.3068L62.8395 32.0511C62.2401 31.9091 61.7997 31.6889 61.5185 31.3906C61.2401 31.0895 61.1009 30.7131 61.1009 30.2614C61.1009 29.892 61.2045 29.5653 61.4119 29.2812C61.6222 28.9972 61.9077 28.7741 62.2685 28.6122C62.6321 28.4503 63.044 28.3693 63.5043 28.3693C64.152 28.3693 64.6605 28.5114 65.0298 28.7955C65.402 29.0795 65.6662 29.4545 65.8224 29.9205ZM72.092 29.9205L71.1886 30.1761C71.1317 30.0256 71.0479 29.8793 70.9371 29.7372C70.8292 29.5923 70.6815 29.473 70.494 29.3793C70.3065 29.2855 70.0664 29.2386 69.7738 29.2386C69.3732 29.2386 69.0394 29.331 68.7724 29.5156C68.5082 29.6974 68.3761 29.929 68.3761 30.2102C68.3761 30.4602 68.467 30.6577 68.6488 30.8026C68.8306 30.9474 69.1147 31.0682 69.5011 31.1648L70.4727 31.4034C71.0579 31.5455 71.494 31.7628 71.7809 32.0554C72.0678 32.3452 72.2113 32.7187 72.2113 33.1761C72.2113 33.5511 72.1033 33.8864 71.8874 34.1818C71.6744 34.4773 71.3761 34.7102 70.9925 34.8807C70.609 35.0511 70.163 35.1364 69.6545 35.1364C68.9869 35.1364 68.4343 34.9915 67.9968 34.7017C67.5593 34.4119 67.2823 33.9886 67.1658 33.4318L68.1204 33.1932C68.2113 33.5455 68.3832 33.8097 68.636 33.9858C68.8917 34.1619 69.2255 34.25 69.6374 34.25C70.1062 34.25 70.4783 34.1506 70.7539 33.9517C71.0323 33.75 71.1715 33.5085 71.1715 33.2273C71.1715 33 71.092 32.8097 70.9329 32.6562C70.7738 32.5 70.5295 32.3835 70.1999 32.3068L69.109 32.0511C68.5096 31.9091 68.0692 31.6889 67.788 31.3906C67.5096 31.0895 67.3704 30.7131 67.3704 30.2614C67.3704 29.892 67.4741 29.5653 67.6815 29.2812C67.8917 28.9972 68.1772 28.7741 68.538 28.6122C68.9016 28.4503 69.3136 28.3693 69.7738 28.3693C70.4215 28.3693 70.93 28.5114 71.2994 28.7955C71.6715 29.0795 71.9357 29.4545 72.092 29.9205Z" fill="#1E1E1E"/>
<path d="M219 1V49H111V1H219Z" fill="white" stroke="#1E1E1E" stroke-width="2"/>
<path d="M130.75 21H128.057V12.2727H130.869C131.716 12.2727 132.44 12.4474 133.043 12.7969C133.645 13.1435 134.107 13.642 134.428 14.2926C134.749 14.9403 134.909 15.7159 134.909 16.6193C134.909 17.5284 134.747 18.3111 134.423 18.9673C134.099 19.6207 133.628 20.1236 133.009 20.4759C132.389 20.8253 131.636 21 130.75 21ZM129.114 20.0625H130.682C131.403 20.0625 132.001 19.9233 132.476 19.6449C132.95 19.3665 133.304 18.9702 133.537 18.456C133.77 17.9418 133.886 17.3295 133.886 16.6193C133.886 15.9148 133.771 15.3082 133.541 14.7997C133.311 14.2884 132.967 13.8963 132.51 13.6236C132.053 13.348 131.483 13.2102 130.801 13.2102H129.114V20.0625ZM139.29 21.1364C138.659 21.1364 138.115 20.9972 137.658 20.7188C137.203 20.4375 136.852 20.0455 136.605 19.5426C136.361 19.0369 136.239 18.4489 136.239 17.7784C136.239 17.108 136.361 16.517 136.605 16.0057C136.852 15.4915 137.196 15.0909 137.636 14.804C138.08 14.5142 138.597 14.3693 139.188 14.3693C139.528 14.3693 139.865 14.4261 140.197 14.5398C140.53 14.6534 140.832 14.8381 141.105 15.0938C141.378 15.3466 141.595 15.6818 141.757 16.0994C141.919 16.517 142 17.0312 142 17.642V18.0682H136.955V17.1989H140.977C140.977 16.8295 140.903 16.5 140.756 16.2102C140.611 15.9205 140.403 15.6918 140.134 15.5241C139.866 15.3565 139.551 15.2727 139.188 15.2727C138.787 15.2727 138.44 15.3722 138.148 15.571C137.858 15.767 137.635 16.0227 137.479 16.3381C137.322 16.6534 137.244 16.9915 137.244 17.3523V17.9318C137.244 18.4261 137.33 18.8452 137.5 19.1889C137.673 19.5298 137.913 19.7898 138.22 19.9688C138.527 20.1449 138.884 20.233 139.29 20.233C139.554 20.233 139.793 20.196 140.006 20.1222C140.222 20.0455 140.408 19.9318 140.564 19.7812C140.72 19.6278 140.841 19.4375 140.926 19.2102L141.898 19.483C141.795 19.8125 141.624 20.1023 141.382 20.3523C141.141 20.5994 140.842 20.7926 140.487 20.9318C140.132 21.0682 139.733 21.1364 139.29 21.1364ZM148.166 15.9205L147.263 16.1761C147.206 16.0256 147.122 15.8793 147.011 15.7372C146.903 15.5923 146.756 15.473 146.568 15.3793C146.381 15.2855 146.141 15.2386 145.848 15.2386C145.447 15.2386 145.114 15.331 144.847 15.5156C144.582 15.6974 144.45 15.929 144.45 16.2102C144.45 16.4602 144.541 16.6577 144.723 16.8026C144.905 16.9474 145.189 17.0682 145.575 17.1648L146.547 17.4034C147.132 17.5455 147.568 17.7628 147.855 18.0554C148.142 18.3452 148.286 18.7187 148.286 19.1761C148.286 19.5511 148.178 19.8864 147.962 20.1818C147.749 20.4773 147.45 20.7102 147.067 20.8807C146.683 21.0511 146.237 21.1364 145.729 21.1364C145.061 21.1364 144.509 20.9915 144.071 20.7017C143.634 20.4119 143.357 19.9886 143.24 19.4318L144.195 19.1932C144.286 19.5455 144.457 19.8097 144.71 19.9858C144.966 20.1619 145.3 20.25 145.712 20.25C146.18 20.25 146.553 20.1506 146.828 19.9517C147.107 19.75 147.246 19.5085 147.246 19.2273C147.246 19 147.166 18.8097 147.007 18.6562C146.848 18.5 146.604 18.3835 146.274 18.3068L145.183 18.0511C144.584 17.9091 144.143 17.6889 143.862 17.3906C143.584 17.0895 143.445 16.7131 143.445 16.2614C143.445 15.892 143.548 15.5653 143.756 15.2812C143.966 14.9972 144.251 14.7741 144.612 14.6122C144.976 14.4503 145.388 14.3693 145.848 14.3693C146.496 14.3693 147.004 14.5114 147.374 14.7955C147.746 15.0795 148.01 15.4545 148.166 15.9205ZM152.646 14.4545V15.3068H149.254V14.4545H152.646ZM150.243 12.8864H151.248V19.125C151.248 19.4091 151.289 19.6222 151.372 19.7642C151.457 19.9034 151.565 19.9972 151.696 20.0455C151.829 20.0909 151.97 20.1136 152.118 20.1136C152.228 20.1136 152.319 20.108 152.39 20.0966C152.461 20.0824 152.518 20.071 152.561 20.0625L152.765 20.9659C152.697 20.9915 152.602 21.017 152.48 21.0426C152.358 21.071 152.203 21.0852 152.015 21.0852C151.731 21.0852 151.453 21.0241 151.18 20.902C150.91 20.7798 150.686 20.5938 150.507 20.3438C150.331 20.0938 150.243 19.7784 150.243 19.3977V12.8864ZM154.159 21V14.4545H155.164V21H154.159ZM154.67 13.3636C154.474 13.3636 154.305 13.2969 154.163 13.1634C154.024 13.0298 153.954 12.8693 153.954 12.6818C153.954 12.4943 154.024 12.3338 154.163 12.2003C154.305 12.0668 154.474 12 154.67 12C154.866 12 155.034 12.0668 155.173 12.2003C155.315 12.3338 155.386 12.4943 155.386 12.6818C155.386 12.8693 155.315 13.0298 155.173 13.1634C155.034 13.2969 154.866 13.3636 154.67 13.3636ZM158.012 17.0625V21H157.006V14.4545H157.978V15.4773H158.063C158.217 15.1449 158.45 14.8778 158.762 14.6761C159.075 14.4716 159.478 14.3693 159.972 14.3693C160.415 14.3693 160.803 14.4602 161.136 14.642C161.468 14.821 161.727 15.0938 161.911 15.4602C162.096 15.8239 162.188 16.2841 162.188 16.8409V21H161.183V16.9091C161.183 16.3949 161.049 15.9943 160.782 15.7074C160.515 15.4176 160.148 15.2727 159.683 15.2727C159.362 15.2727 159.075 15.3423 158.822 15.4815C158.572 15.6207 158.374 15.8239 158.229 16.0909C158.085 16.358 158.012 16.6818 158.012 17.0625ZM165.952 21.1534C165.537 21.1534 165.161 21.0753 164.823 20.919C164.485 20.7599 164.216 20.5312 164.017 20.233C163.819 19.9318 163.719 19.5682 163.719 19.142C163.719 18.767 163.793 18.4631 163.941 18.2301C164.088 17.9943 164.286 17.8097 164.533 17.6761C164.78 17.5426 165.053 17.4432 165.351 17.3778C165.652 17.3097 165.955 17.2557 166.259 17.2159C166.657 17.1648 166.979 17.1264 167.226 17.1009C167.476 17.0724 167.658 17.0256 167.772 16.9602C167.888 16.8949 167.946 16.7812 167.946 16.6193V16.5852C167.946 16.1648 167.831 15.8381 167.601 15.6051C167.374 15.3722 167.029 15.2557 166.566 15.2557C166.086 15.2557 165.709 15.3608 165.436 15.571C165.164 15.7812 164.972 16.0057 164.861 16.2443L163.907 15.9034C164.077 15.5057 164.304 15.196 164.588 14.9744C164.875 14.75 165.188 14.5937 165.526 14.5057C165.867 14.4148 166.202 14.3693 166.532 14.3693C166.742 14.3693 166.983 14.3949 167.256 14.446C167.532 14.4943 167.797 14.5952 168.053 14.7486C168.311 14.902 168.526 15.1335 168.696 15.4432C168.867 15.7528 168.952 16.1676 168.952 16.6875V21H167.946V20.1136H167.895C167.827 20.2557 167.713 20.4077 167.554 20.5696C167.395 20.7315 167.184 20.8693 166.919 20.983C166.655 21.0966 166.333 21.1534 165.952 21.1534ZM166.105 20.25C166.503 20.25 166.838 20.1719 167.111 20.0156C167.387 19.8594 167.594 19.6577 167.733 19.4105C167.875 19.1634 167.946 18.9034 167.946 18.6307V17.7102C167.904 17.7614 167.81 17.8082 167.665 17.8509C167.523 17.8906 167.358 17.9261 167.171 17.9574C166.986 17.9858 166.806 18.0114 166.63 18.0341C166.456 18.054 166.316 18.071 166.208 18.0852C165.946 18.1193 165.702 18.1747 165.475 18.2514C165.25 18.3253 165.069 18.4375 164.929 18.5881C164.793 18.7358 164.725 18.9375 164.725 19.1932C164.725 19.5426 164.854 19.8068 165.113 19.9858C165.374 20.1619 165.705 20.25 166.105 20.25ZM173.634 14.4545V15.3068H170.242V14.4545H173.634ZM171.231 12.8864H172.237V19.125C172.237 19.4091 172.278 19.6222 172.36 19.7642C172.445 19.9034 172.553 19.9972 172.684 20.0455C172.817 20.0909 172.958 20.1136 173.106 20.1136C173.217 20.1136 173.308 20.108 173.379 20.0966C173.45 20.0824 173.506 20.071 173.549 20.0625L173.754 20.9659C173.685 20.9915 173.59 21.017 173.468 21.0426C173.346 21.071 173.191 21.0852 173.004 21.0852C172.719 21.0852 172.441 21.0241 172.168 20.902C171.898 20.7798 171.674 20.5938 171.495 20.3438C171.319 20.0938 171.231 19.7784 171.231 19.3977V12.8864ZM175.147 21V14.4545H176.153V21H175.147ZM175.658 13.3636C175.462 13.3636 175.293 13.2969 175.151 13.1634C175.012 13.0298 174.942 12.8693 174.942 12.6818C174.942 12.4943 175.012 12.3338 175.151 12.2003C175.293 12.0668 175.462 12 175.658 12C175.854 12 176.022 12.0668 176.161 12.2003C176.303 12.3338 176.374 12.4943 176.374 12.6818C176.374 12.8693 176.303 13.0298 176.161 13.1634C176.022 13.2969 175.854 13.3636 175.658 13.3636ZM180.654 21.1364C180.063 21.1364 179.544 20.9957 179.098 20.7145C178.655 20.4332 178.309 20.0398 178.059 19.5341C177.811 19.0284 177.688 18.4375 177.688 17.7614C177.688 17.0795 177.811 16.4844 178.059 15.9759C178.309 15.4673 178.655 15.0724 179.098 14.7912C179.544 14.5099 180.063 14.3693 180.654 14.3693C181.245 14.3693 181.762 14.5099 182.205 14.7912C182.651 15.0724 182.998 15.4673 183.245 15.9759C183.495 16.4844 183.62 17.0795 183.62 17.7614C183.62 18.4375 183.495 19.0284 183.245 19.5341C182.998 20.0398 182.651 20.4332 182.205 20.7145C181.762 20.9957 181.245 21.1364 180.654 21.1364ZM180.654 20.233C181.103 20.233 181.472 20.1179 181.762 19.8878C182.051 19.6577 182.266 19.3551 182.405 18.9801C182.544 18.6051 182.614 18.1989 182.614 17.7614C182.614 17.3239 182.544 16.9162 182.405 16.5384C182.266 16.1605 182.051 15.8551 181.762 15.6222C181.472 15.3892 181.103 15.2727 180.654 15.2727C180.205 15.2727 179.836 15.3892 179.546 15.6222C179.256 15.8551 179.042 16.1605 178.902 16.5384C178.763 16.9162 178.694 17.3239 178.694 17.7614C178.694 18.1989 178.763 18.6051 178.902 18.9801C179.042 19.3551 179.256 19.6577 179.546 19.8878C179.836 20.1179 180.205 20.233 180.654 20.233ZM186.161 17.0625V21H185.155V14.4545H186.126V15.4773H186.212C186.365 15.1449 186.598 14.8778 186.911 14.6761C187.223 14.4716 187.626 14.3693 188.121 14.3693C188.564 14.3693 188.952 14.4602 189.284 14.642C189.616 14.821 189.875 15.0938 190.06 15.4602C190.244 15.8239 190.337 16.2841 190.337 16.8409V21H189.331V16.9091C189.331 16.3949 189.197 15.9943 188.93 15.7074C188.663 15.4176 188.297 15.2727 187.831 15.2727C187.51 15.2727 187.223 15.3423 186.97 15.4815C186.72 15.6207 186.523 15.8239 186.378 16.0909C186.233 16.358 186.161 16.6818 186.161 17.0625ZM196.743 12.2727V21H195.686V12.2727H196.743ZM198.862 21V12.2727H201.81C202.495 12.2727 203.055 12.3963 203.489 12.6435C203.927 12.8878 204.251 13.2188 204.461 13.6364C204.671 14.054 204.776 14.5199 204.776 15.0341C204.776 15.5483 204.671 16.0156 204.461 16.4361C204.254 16.8565 203.933 17.1918 203.498 17.4418C203.063 17.6889 202.506 17.8125 201.827 17.8125H199.714V16.875H201.793C202.262 16.875 202.638 16.794 202.923 16.6321C203.207 16.4702 203.413 16.2514 203.54 15.9759C203.671 15.6974 203.737 15.3835 203.737 15.0341C203.737 14.6847 203.671 14.3722 203.54 14.0966C203.413 13.821 203.205 13.6051 202.918 13.4489C202.631 13.2898 202.251 13.2102 201.776 13.2102H199.918V21H198.862ZM128.415 36H127.307L130.511 27.2727H131.602L134.807 36H133.699L131.091 28.6534H131.023L128.415 36ZM128.824 32.5909H133.29V33.5284H128.824V32.5909ZM138.501 36.1364C137.956 36.1364 137.474 35.9986 137.057 35.723C136.639 35.4446 136.313 35.0526 136.077 34.5469C135.841 34.0384 135.723 33.4375 135.723 32.7443C135.723 32.0568 135.841 31.4602 136.077 30.9545C136.313 30.4489 136.641 30.0582 137.061 29.7827C137.482 29.5071 137.967 29.3693 138.518 29.3693C138.945 29.3693 139.281 29.4403 139.528 29.5824C139.778 29.7216 139.969 29.8807 140.099 30.0597C140.233 30.2358 140.337 30.3807 140.411 30.4943H140.496V27.2727H141.501V36H140.53V34.9943H140.411C140.337 35.1136 140.232 35.2642 140.095 35.446C139.959 35.625 139.764 35.7855 139.511 35.9276C139.259 36.0668 138.922 36.1364 138.501 36.1364ZM138.638 35.233C139.041 35.233 139.382 35.1278 139.661 34.9176C139.939 34.7045 140.151 34.4105 140.295 34.0355C140.44 33.6577 140.513 33.2216 140.513 32.7273C140.513 32.2386 140.442 31.8111 140.3 31.4446C140.158 31.0753 139.947 30.7884 139.669 30.5838C139.391 30.3764 139.047 30.2727 138.638 30.2727C138.212 30.2727 137.857 30.3821 137.572 30.6009C137.291 30.8168 137.08 31.1108 136.938 31.483C136.798 31.8523 136.729 32.267 136.729 32.7273C136.729 33.1932 136.8 33.6165 136.942 33.9972C137.087 34.375 137.3 34.6761 137.581 34.9006C137.865 35.1222 138.217 35.233 138.638 35.233ZM145.955 36.1364C145.409 36.1364 144.928 35.9986 144.51 35.723C144.092 35.4446 143.766 35.0526 143.53 34.5469C143.294 34.0384 143.176 33.4375 143.176 32.7443C143.176 32.0568 143.294 31.4602 143.53 30.9545C143.766 30.4489 144.094 30.0582 144.514 29.7827C144.935 29.5071 145.42 29.3693 145.972 29.3693C146.398 29.3693 146.734 29.4403 146.982 29.5824C147.232 29.7216 147.422 29.8807 147.553 30.0597C147.686 30.2358 147.79 30.3807 147.864 30.4943H147.949V27.2727H148.955V36H147.983V34.9943H147.864C147.79 35.1136 147.685 35.2642 147.548 35.446C147.412 35.625 147.217 35.7855 146.964 35.9276C146.712 36.0668 146.375 36.1364 145.955 36.1364ZM146.091 35.233C146.494 35.233 146.835 35.1278 147.114 34.9176C147.392 34.7045 147.604 34.4105 147.749 34.0355C147.893 33.6577 147.966 33.2216 147.966 32.7273C147.966 32.2386 147.895 31.8111 147.753 31.4446C147.611 31.0753 147.401 30.7884 147.122 30.5838C146.844 30.3764 146.5 30.2727 146.091 30.2727C145.665 30.2727 145.31 30.3821 145.026 30.6009C144.744 30.8168 144.533 31.1108 144.391 31.483C144.251 31.8523 144.182 32.267 144.182 32.7273C144.182 33.1932 144.253 33.6165 144.395 33.9972C144.54 34.375 144.753 34.6761 145.034 34.9006C145.318 35.1222 145.67 35.233 146.091 35.233ZM150.936 36V29.4545H151.908V30.4432H151.976C152.095 30.1193 152.311 29.8565 152.624 29.6548C152.936 29.4531 153.288 29.3523 153.68 29.3523C153.754 29.3523 153.847 29.3537 153.957 29.3565C154.068 29.3594 154.152 29.3636 154.209 29.3693V30.392C154.175 30.3835 154.097 30.3707 153.974 30.3537C153.855 30.3338 153.729 30.3239 153.595 30.3239C153.277 30.3239 152.993 30.3906 152.743 30.5241C152.496 30.6548 152.3 30.8366 152.155 31.0696C152.013 31.2997 151.942 31.5625 151.942 31.858V36H150.936ZM157.946 36.1364C157.315 36.1364 156.771 35.9972 156.314 35.7188C155.859 35.4375 155.509 35.0455 155.261 34.5426C155.017 34.0369 154.895 33.4489 154.895 32.7784C154.895 32.108 155.017 31.517 155.261 31.0057C155.509 30.4915 155.852 30.0909 156.293 29.804C156.736 29.5142 157.253 29.3693 157.844 29.3693C158.185 29.3693 158.521 29.4261 158.854 29.5398C159.186 29.6534 159.489 29.8381 159.761 30.0938C160.034 30.3466 160.251 30.6818 160.413 31.0994C160.575 31.517 160.656 32.0312 160.656 32.642V33.0682H155.611V32.1989H159.634C159.634 31.8295 159.56 31.5 159.412 31.2102C159.267 30.9205 159.06 30.6918 158.79 30.5241C158.523 30.3565 158.207 30.2727 157.844 30.2727C157.443 30.2727 157.097 30.3722 156.804 30.571C156.514 30.767 156.291 31.0227 156.135 31.3381C155.979 31.6534 155.901 31.9915 155.901 32.3523V32.9318C155.901 33.4261 155.986 33.8452 156.156 34.1889C156.33 34.5298 156.57 34.7898 156.876 34.9688C157.183 35.1449 157.54 35.233 157.946 35.233C158.21 35.233 158.449 35.196 158.662 35.1222C158.878 35.0455 159.064 34.9318 159.22 34.7812C159.376 34.6278 159.497 34.4375 159.582 34.2102L160.554 34.483C160.452 34.8125 160.28 35.1023 160.038 35.3523C159.797 35.5994 159.499 35.7926 159.143 35.9318C158.788 36.0682 158.389 36.1364 157.946 36.1364ZM166.822 30.9205L165.919 31.1761C165.862 31.0256 165.778 30.8793 165.668 30.7372C165.56 30.5923 165.412 30.473 165.224 30.3793C165.037 30.2855 164.797 30.2386 164.504 30.2386C164.104 30.2386 163.77 30.331 163.503 30.5156C163.239 30.6974 163.107 30.929 163.107 31.2102C163.107 31.4602 163.197 31.6577 163.379 31.8026C163.561 31.9474 163.845 32.0682 164.232 32.1648L165.203 32.4034C165.788 32.5455 166.224 32.7628 166.511 33.0554C166.798 33.3452 166.942 33.7187 166.942 34.1761C166.942 34.5511 166.834 34.8864 166.618 35.1818C166.405 35.4773 166.107 35.7102 165.723 35.8807C165.339 36.0511 164.893 36.1364 164.385 36.1364C163.717 36.1364 163.165 35.9915 162.727 35.7017C162.29 35.4119 162.013 34.9886 161.896 34.4318L162.851 34.1932C162.942 34.5455 163.114 34.8097 163.366 34.9858C163.622 35.1619 163.956 35.25 164.368 35.25C164.837 35.25 165.209 35.1506 165.484 34.9517C165.763 34.75 165.902 34.5085 165.902 34.2273C165.902 34 165.822 33.8097 165.663 33.6562C165.504 33.5 165.26 33.3835 164.93 33.3068L163.839 33.0511C163.24 32.9091 162.8 32.6889 162.518 32.3906C162.24 32.0895 162.101 31.7131 162.101 31.2614C162.101 30.892 162.205 30.5653 162.412 30.2812C162.622 29.9972 162.908 29.7741 163.268 29.6122C163.632 29.4503 164.044 29.3693 164.504 29.3693C165.152 29.3693 165.661 29.5114 166.03 29.7955C166.402 30.0795 166.666 30.4545 166.822 30.9205ZM173.092 30.9205L172.189 31.1761C172.132 31.0256 172.048 30.8793 171.937 30.7372C171.829 30.5923 171.681 30.473 171.494 30.3793C171.306 30.2855 171.066 30.2386 170.774 30.2386C170.373 30.2386 170.039 30.331 169.772 30.5156C169.508 30.6974 169.376 30.929 169.376 31.2102C169.376 31.4602 169.467 31.6577 169.649 31.8026C169.831 31.9474 170.115 32.0682 170.501 32.1648L171.473 32.4034C172.058 32.5455 172.494 32.7628 172.781 33.0554C173.068 33.3452 173.211 33.7187 173.211 34.1761C173.211 34.5511 173.103 34.8864 172.887 35.1818C172.674 35.4773 172.376 35.7102 171.993 35.8807C171.609 36.0511 171.163 36.1364 170.654 36.1364C169.987 36.1364 169.434 35.9915 168.997 35.7017C168.559 35.4119 168.282 34.9886 168.166 34.4318L169.12 34.1932C169.211 34.5455 169.383 34.8097 169.636 34.9858C169.892 35.1619 170.225 35.25 170.637 35.25C171.106 35.25 171.478 35.1506 171.754 34.9517C172.032 34.75 172.172 34.5085 172.172 34.2273C172.172 34 172.092 33.8097 171.933 33.6562C171.774 33.5 171.529 33.3835 171.2 33.3068L170.109 33.0511C169.51 32.9091 169.069 32.6889 168.788 32.3906C168.51 32.0895 168.37 31.7131 168.37 31.2614C168.37 30.892 168.474 30.5653 168.681 30.2812C168.892 29.9972 169.177 29.7741 169.538 29.6122C169.902 29.4503 170.314 29.3693 170.774 29.3693C171.422 29.3693 171.93 29.5114 172.299 29.7955C172.672 30.0795 172.936 30.4545 173.092 30.9205Z" fill="#1E1E1E"/>
</svg>
