<svg width="326" height="116" viewBox="0 0 326 116" fill="none" xmlns="http://www.w3.org/2000/svg">
<path d="M86.1136 3.27273V12H85.0568V3.27273H86.1136ZM88.2326 12V3.27273H91.1815C91.8661 3.27273 92.4258 3.39631 92.8604 3.64347C93.2979 3.88778 93.6218 4.21875 93.832 4.63636C94.0423 5.05398 94.1474 5.51989 94.1474 6.03409C94.1474 6.5483 94.0423 7.01562 93.832 7.43608C93.6246 7.85653 93.3036 8.19176 92.869 8.44176C92.4343 8.68892 91.8775 8.8125 91.1985 8.8125H89.0849V7.875H91.1644C91.6332 7.875 92.0096 7.79403 92.2937 7.6321C92.5778 7.47017 92.7837 7.25142 92.9116 6.97585C93.0423 6.69744 93.1076 6.38352 93.1076 6.03409C93.1076 5.68466 93.0423 5.37216 92.9116 5.09659C92.7837 4.82102 92.5763 4.60511 92.2894 4.44886C92.0025 4.28977 91.6218 4.21023 91.1474 4.21023H89.2894V12H88.2326ZM101.066 5.45455L98.6452 12H97.6225L95.2021 5.45455H96.293L98.0998 10.6705H98.168L99.9748 5.45455H101.066ZM102.172 10.2102V9.34091L106.007 3.27273H106.637V4.61932H106.211L103.314 9.20455V9.27273H108.478V10.2102H102.172ZM106.279 12V9.94602V9.54119V3.27273H107.285V12H106.279ZM113.962 12H112.854L116.058 3.27273H117.149L120.354 12H119.246L116.638 4.65341H116.57L113.962 12ZM114.371 8.59091H118.837V9.52841H114.371V8.59091ZM124.048 12.1364C123.503 12.1364 123.021 11.9986 122.604 11.723C122.186 11.4446 121.859 11.0526 121.624 10.5469C121.388 10.0384 121.27 9.4375 121.27 8.74432C121.27 8.05682 121.388 7.46023 121.624 6.95455C121.859 6.44886 122.188 6.05824 122.608 5.78267C123.028 5.5071 123.514 5.36932 124.065 5.36932C124.491 5.36932 124.828 5.44034 125.075 5.58239C125.325 5.72159 125.516 5.88068 125.646 6.05966C125.78 6.2358 125.884 6.38068 125.957 6.49432H126.043V3.27273H127.048V12H126.077V10.9943H125.957C125.884 11.1136 125.778 11.2642 125.642 11.446C125.506 11.625 125.311 11.7855 125.058 11.9276C124.805 12.0668 124.469 12.1364 124.048 12.1364ZM124.185 11.233C124.588 11.233 124.929 11.1278 125.207 10.9176C125.486 10.7045 125.697 10.4105 125.842 10.0355C125.987 9.65767 126.06 9.22159 126.06 8.72727C126.06 8.23864 125.989 7.81108 125.847 7.4446C125.705 7.07528 125.494 6.78835 125.216 6.58381C124.938 6.37642 124.594 6.27273 124.185 6.27273C123.759 6.27273 123.403 6.3821 123.119 6.60085C122.838 6.81676 122.626 7.1108 122.484 7.48295C122.345 7.85227 122.276 8.26705 122.276 8.72727C122.276 9.19318 122.347 9.61648 122.489 9.99716C122.634 10.375 122.847 10.6761 123.128 10.9006C123.412 11.1222 123.764 11.233 124.185 11.233ZM131.501 12.1364C130.956 12.1364 130.474 11.9986 130.057 11.723C129.639 11.4446 129.313 11.0526 129.077 10.5469C128.841 10.0384 128.723 9.4375 128.723 8.74432C128.723 8.05682 128.841 7.46023 129.077 6.95455C129.313 6.44886 129.641 6.05824 130.061 5.78267C130.482 5.5071 130.967 5.36932 131.518 5.36932C131.945 5.36932 132.281 5.44034 132.528 5.58239C132.778 5.72159 132.969 5.88068 133.099 6.05966C133.233 6.2358 133.337 6.38068 133.411 6.49432H133.496V3.27273H134.501V12H133.53V10.9943H133.411C133.337 11.1136 133.232 11.2642 133.095 11.446C132.959 11.625 132.764 11.7855 132.511 11.9276C132.259 12.0668 131.922 12.1364 131.501 12.1364ZM131.638 11.233C132.041 11.233 132.382 11.1278 132.661 10.9176C132.939 10.7045 133.151 10.4105 133.295 10.0355C133.44 9.65767 133.513 9.22159 133.513 8.72727C133.513 8.23864 133.442 7.81108 133.3 7.4446C133.158 7.07528 132.947 6.78835 132.669 6.58381C132.391 6.37642 132.047 6.27273 131.638 6.27273C131.212 6.27273 130.857 6.3821 130.572 6.60085C130.291 6.81676 130.08 7.1108 129.938 7.48295C129.798 7.85227 129.729 8.26705 129.729 8.72727C129.729 9.19318 129.8 9.61648 129.942 9.99716C130.087 10.375 130.3 10.6761 130.581 10.9006C130.865 11.1222 131.217 11.233 131.638 11.233ZM136.483 12V5.45455H137.455V6.44318H137.523C137.642 6.11932 137.858 5.85653 138.17 5.65483C138.483 5.45312 138.835 5.35227 139.227 5.35227C139.301 5.35227 139.393 5.35369 139.504 5.35653C139.615 5.35937 139.699 5.36364 139.756 5.36932V6.39205C139.722 6.38352 139.643 6.37074 139.521 6.35369C139.402 6.33381 139.276 6.32386 139.142 6.32386C138.824 6.32386 138.54 6.39062 138.29 6.52415C138.043 6.65483 137.847 6.83665 137.702 7.0696C137.56 7.29972 137.489 7.5625 137.489 7.85795V12H136.483ZM143.493 12.1364C142.862 12.1364 142.318 11.9972 141.861 11.7188C141.406 11.4375 141.055 11.0455 140.808 10.5426C140.564 10.0369 140.442 9.44886 140.442 8.77841C140.442 8.10795 140.564 7.51705 140.808 7.00568C141.055 6.49148 141.399 6.09091 141.839 5.80398C142.283 5.5142 142.8 5.36932 143.391 5.36932C143.732 5.36932 144.068 5.42614 144.401 5.53977C144.733 5.65341 145.036 5.83807 145.308 6.09375C145.581 6.34659 145.798 6.68182 145.96 7.09943C146.122 7.51705 146.203 8.03125 146.203 8.64205V9.06818H141.158V8.19886H145.18C145.18 7.82955 145.107 7.5 144.959 7.21023C144.814 6.92045 144.607 6.69176 144.337 6.52415C144.07 6.35653 143.754 6.27273 143.391 6.27273C142.99 6.27273 142.643 6.37216 142.351 6.57102C142.061 6.76705 141.838 7.02273 141.682 7.33807C141.526 7.65341 141.447 7.99148 141.447 8.35227V8.93182C141.447 9.42614 141.533 9.84517 141.703 10.1889C141.876 10.5298 142.116 10.7898 142.423 10.9688C142.73 11.1449 143.087 11.233 143.493 11.233C143.757 11.233 143.996 11.196 144.209 11.1222C144.425 11.0455 144.611 10.9318 144.767 10.7812C144.923 10.6278 145.044 10.4375 145.129 10.2102L146.101 10.483C145.999 10.8125 145.827 11.1023 145.585 11.3523C145.344 11.5994 145.045 11.7926 144.69 11.9318C144.335 12.0682 143.936 12.1364 143.493 12.1364ZM152.369 6.92045L151.466 7.17614C151.409 7.02557 151.325 6.87926 151.214 6.73722C151.107 6.59233 150.959 6.47301 150.771 6.37926C150.584 6.28551 150.344 6.23864 150.051 6.23864C149.651 6.23864 149.317 6.33097 149.05 6.51562C148.786 6.69744 148.653 6.92898 148.653 7.21023C148.653 7.46023 148.744 7.65767 148.926 7.80256C149.108 7.94744 149.392 8.06818 149.778 8.16477L150.75 8.40341C151.335 8.54545 151.771 8.76278 152.058 9.0554C152.345 9.34517 152.489 9.71875 152.489 10.1761C152.489 10.5511 152.381 10.8864 152.165 11.1818C151.952 11.4773 151.653 11.7102 151.27 11.8807C150.886 12.0511 150.44 12.1364 149.932 12.1364C149.264 12.1364 148.712 11.9915 148.274 11.7017C147.837 11.4119 147.56 10.9886 147.443 10.4318L148.398 10.1932C148.489 10.5455 148.661 10.8097 148.913 10.9858C149.169 11.1619 149.503 11.25 149.915 11.25C150.384 11.25 150.756 11.1506 151.031 10.9517C151.31 10.75 151.449 10.5085 151.449 10.2273C151.449 10 151.369 9.80966 151.21 9.65625C151.051 9.5 150.807 9.38352 150.477 9.30682L149.386 9.05114C148.787 8.90909 148.347 8.68892 148.065 8.39062C147.787 8.08949 147.648 7.71307 147.648 7.26136C147.648 6.89205 147.751 6.56534 147.959 6.28125C148.169 5.99716 148.455 5.77415 148.815 5.61222C149.179 5.45028 149.591 5.36932 150.051 5.36932C150.699 5.36932 151.207 5.51136 151.577 5.79545C151.949 6.07955 152.213 6.45455 152.369 6.92045ZM158.639 6.92045L157.735 7.17614C157.679 7.02557 157.595 6.87926 157.484 6.73722C157.376 6.59233 157.228 6.47301 157.041 6.37926C156.853 6.28551 156.613 6.23864 156.321 6.23864C155.92 6.23864 155.586 6.33097 155.319 6.51562C155.055 6.69744 154.923 6.92898 154.923 7.21023C154.923 7.46023 155.014 7.65767 155.196 7.80256C155.377 7.94744 155.662 8.06818 156.048 8.16477L157.02 8.40341C157.605 8.54545 158.041 8.76278 158.328 9.0554C158.615 9.34517 158.758 9.71875 158.758 10.1761C158.758 10.5511 158.65 10.8864 158.434 11.1818C158.221 11.4773 157.923 11.7102 157.539 11.8807C157.156 12.0511 156.71 12.1364 156.201 12.1364C155.534 12.1364 154.981 11.9915 154.544 11.7017C154.106 11.4119 153.829 10.9886 153.713 10.4318L154.667 10.1932C154.758 10.5455 154.93 10.8097 155.183 10.9858C155.439 11.1619 155.772 11.25 156.184 11.25C156.653 11.25 157.025 11.1506 157.301 10.9517C157.579 10.75 157.718 10.5085 157.718 10.2273C157.718 10 157.639 9.80966 157.48 9.65625C157.321 9.5 157.076 9.38352 156.747 9.30682L155.656 9.05114C155.056 8.90909 154.616 8.68892 154.335 8.39062C154.056 8.08949 153.917 7.71307 153.917 7.26136C153.917 6.89205 154.021 6.56534 154.228 6.28125C154.439 5.99716 154.724 5.77415 155.085 5.61222C155.449 5.45028 155.86 5.36932 156.321 5.36932C156.968 5.36932 157.477 5.51136 157.846 5.79545C158.218 6.07955 158.483 6.45455 158.639 6.92045ZM163.783 12V3.27273H166.732C167.414 3.27273 167.974 3.3892 168.411 3.62216C168.849 3.85227 169.173 4.16903 169.383 4.57244C169.593 4.97585 169.698 5.43466 169.698 5.94886C169.698 6.46307 169.593 6.91903 169.383 7.31676C169.173 7.71449 168.85 8.02699 168.415 8.25426C167.981 8.47869 167.425 8.59091 166.749 8.59091H164.363V7.63636H166.715C167.181 7.63636 167.556 7.56818 167.84 7.43182C168.127 7.29545 168.335 7.10227 168.462 6.85227C168.593 6.59943 168.658 6.2983 168.658 5.94886C168.658 5.59943 168.593 5.29403 168.462 5.03267C168.332 4.77131 168.123 4.5696 167.836 4.42756C167.549 4.28267 167.17 4.21023 166.698 4.21023H164.84V12H163.783ZM167.891 8.07955L170.039 12H168.812L166.698 8.07955H167.891ZM173.997 12.1364C173.366 12.1364 172.822 11.9972 172.365 11.7188C171.91 11.4375 171.559 11.0455 171.312 10.5426C171.068 10.0369 170.946 9.44886 170.946 8.77841C170.946 8.10795 171.068 7.51705 171.312 7.00568C171.559 6.49148 171.903 6.09091 172.343 5.80398C172.787 5.5142 173.304 5.36932 173.895 5.36932C174.235 5.36932 174.572 5.42614 174.904 5.53977C175.237 5.65341 175.539 5.83807 175.812 6.09375C176.085 6.34659 176.302 6.68182 176.464 7.09943C176.626 7.51705 176.707 8.03125 176.707 8.64205V9.06818H171.662V8.19886H175.684C175.684 7.82955 175.61 7.5 175.463 7.21023C175.318 6.92045 175.11 6.69176 174.841 6.52415C174.574 6.35653 174.258 6.27273 173.895 6.27273C173.494 6.27273 173.147 6.37216 172.855 6.57102C172.565 6.76705 172.342 7.02273 172.186 7.33807C172.029 7.65341 171.951 7.99148 171.951 8.35227V8.93182C171.951 9.42614 172.037 9.84517 172.207 10.1889C172.38 10.5298 172.62 10.7898 172.927 10.9688C173.234 11.1449 173.591 11.233 173.997 11.233C174.261 11.233 174.5 11.196 174.713 11.1222C174.929 11.0455 175.115 10.9318 175.271 10.7812C175.427 10.6278 175.548 10.4375 175.633 10.2102L176.605 10.483C176.502 10.8125 176.331 11.1023 176.089 11.3523C175.848 11.5994 175.549 11.7926 175.194 11.9318C174.839 12.0682 174.44 12.1364 173.997 12.1364ZM178.237 14.4545V5.45455H179.208V6.49432H179.328C179.402 6.38068 179.504 6.2358 179.635 6.05966C179.768 5.88068 179.958 5.72159 180.206 5.58239C180.456 5.44034 180.794 5.36932 181.22 5.36932C181.771 5.36932 182.257 5.5071 182.677 5.78267C183.098 6.05824 183.426 6.44886 183.662 6.95455C183.897 7.46023 184.015 8.05682 184.015 8.74432C184.015 9.4375 183.897 10.0384 183.662 10.5469C183.426 11.0526 183.099 11.4446 182.681 11.723C182.264 11.9986 181.782 12.1364 181.237 12.1364C180.816 12.1364 180.48 12.0668 180.227 11.9276C179.974 11.7855 179.779 11.625 179.643 11.446C179.507 11.2642 179.402 11.1136 179.328 10.9943H179.243V14.4545H178.237ZM179.225 8.72727C179.225 9.22159 179.298 9.65767 179.443 10.0355C179.588 10.4105 179.799 10.7045 180.078 10.9176C180.356 11.1278 180.697 11.233 181.1 11.233C181.521 11.233 181.872 11.1222 182.153 10.9006C182.437 10.6761 182.65 10.375 182.792 9.99716C182.937 9.61648 183.01 9.19318 183.01 8.72727C183.01 8.26705 182.939 7.85227 182.797 7.48295C182.657 7.1108 182.446 6.81676 182.162 6.60085C181.88 6.3821 181.527 6.27273 181.1 6.27273C180.691 6.27273 180.348 6.37642 180.069 6.58381C179.791 6.78835 179.581 7.07528 179.439 7.4446C179.297 7.81108 179.225 8.23864 179.225 8.72727ZM185.549 12V5.45455H186.521V6.44318H186.589C186.708 6.11932 186.924 5.85653 187.237 5.65483C187.549 5.45312 187.902 5.35227 188.294 5.35227C188.368 5.35227 188.46 5.35369 188.571 5.35653C188.681 5.35937 188.765 5.36364 188.822 5.36932V6.39205C188.788 6.38352 188.71 6.37074 188.588 6.35369C188.468 6.33381 188.342 6.32386 188.208 6.32386C187.89 6.32386 187.606 6.39062 187.356 6.52415C187.109 6.65483 186.913 6.83665 186.768 7.0696C186.626 7.29972 186.555 7.5625 186.555 7.85795V12H185.549ZM192.559 12.1364C191.929 12.1364 191.385 11.9972 190.927 11.7188C190.473 11.4375 190.122 11.0455 189.875 10.5426C189.63 10.0369 189.508 9.44886 189.508 8.77841C189.508 8.10795 189.63 7.51705 189.875 7.00568C190.122 6.49148 190.466 6.09091 190.906 5.80398C191.349 5.5142 191.866 5.36932 192.457 5.36932C192.798 5.36932 193.135 5.42614 193.467 5.53977C193.799 5.65341 194.102 5.83807 194.375 6.09375C194.647 6.34659 194.865 6.68182 195.027 7.09943C195.189 7.51705 195.27 8.03125 195.27 8.64205V9.06818H190.224V8.19886H194.247C194.247 7.82955 194.173 7.5 194.025 7.21023C193.88 6.92045 193.673 6.69176 193.403 6.52415C193.136 6.35653 192.821 6.27273 192.457 6.27273C192.056 6.27273 191.71 6.37216 191.417 6.57102C191.127 6.76705 190.904 7.02273 190.748 7.33807C190.592 7.65341 190.514 7.99148 190.514 8.35227V8.93182C190.514 9.42614 190.599 9.84517 190.77 10.1889C190.943 10.5298 191.183 10.7898 191.49 10.9688C191.797 11.1449 192.153 11.233 192.559 11.233C192.824 11.233 193.062 11.196 193.275 11.1222C193.491 11.0455 193.677 10.9318 193.833 10.7812C193.99 10.6278 194.11 10.4375 194.196 10.2102L195.167 10.483C195.065 10.8125 194.893 11.1023 194.652 11.3523C194.41 11.5994 194.112 11.7926 193.757 11.9318C193.402 12.0682 193.002 12.1364 192.559 12.1364ZM201.436 6.92045L200.532 7.17614C200.475 7.02557 200.392 6.87926 200.281 6.73722C200.173 6.59233 200.025 6.47301 199.838 6.37926C199.65 6.28551 199.41 6.23864 199.118 6.23864C198.717 6.23864 198.383 6.33097 198.116 6.51562C197.852 6.69744 197.72 6.92898 197.72 7.21023C197.72 7.46023 197.811 7.65767 197.993 7.80256C198.174 7.94744 198.458 8.06818 198.845 8.16477L199.816 8.40341C200.402 8.54545 200.838 8.76278 201.125 9.0554C201.412 9.34517 201.555 9.71875 201.555 10.1761C201.555 10.5511 201.447 10.8864 201.231 11.1818C201.018 11.4773 200.72 11.7102 200.336 11.8807C199.953 12.0511 199.507 12.1364 198.998 12.1364C198.331 12.1364 197.778 11.9915 197.341 11.7017C196.903 11.4119 196.626 10.9886 196.51 10.4318L197.464 10.1932C197.555 10.5455 197.727 10.8097 197.98 10.9858C198.235 11.1619 198.569 11.25 198.981 11.25C199.45 11.25 199.822 11.1506 200.098 10.9517C200.376 10.75 200.515 10.5085 200.515 10.2273C200.515 10 200.436 9.80966 200.277 9.65625C200.118 9.5 199.873 9.38352 199.544 9.30682L198.453 9.05114C197.853 8.90909 197.413 8.68892 197.132 8.39062C196.853 8.08949 196.714 7.71307 196.714 7.26136C196.714 6.89205 196.818 6.56534 197.025 6.28125C197.235 5.99716 197.521 5.77415 197.882 5.61222C198.245 5.45028 198.657 5.36932 199.118 5.36932C199.765 5.36932 200.274 5.51136 200.643 5.79545C201.015 6.07955 201.279 6.45455 201.436 6.92045ZM205.813 12.1364C205.183 12.1364 204.638 11.9972 204.181 11.7188C203.727 11.4375 203.376 11.0455 203.129 10.5426C202.884 10.0369 202.762 9.44886 202.762 8.77841C202.762 8.10795 202.884 7.51705 203.129 7.00568C203.376 6.49148 203.719 6.09091 204.16 5.80398C204.603 5.5142 205.12 5.36932 205.711 5.36932C206.052 5.36932 206.388 5.42614 206.721 5.53977C207.053 5.65341 207.356 5.83807 207.629 6.09375C207.901 6.34659 208.119 6.68182 208.281 7.09943C208.442 7.51705 208.523 8.03125 208.523 8.64205V9.06818H203.478V8.19886H207.501C207.501 7.82955 207.427 7.5 207.279 7.21023C207.134 6.92045 206.927 6.69176 206.657 6.52415C206.39 6.35653 206.075 6.27273 205.711 6.27273C205.31 6.27273 204.964 6.37216 204.671 6.57102C204.381 6.76705 204.158 7.02273 204.002 7.33807C203.846 7.65341 203.768 7.99148 203.768 8.35227V8.93182C203.768 9.42614 203.853 9.84517 204.023 10.1889C204.197 10.5298 204.437 10.7898 204.744 10.9688C205.05 11.1449 205.407 11.233 205.813 11.233C206.077 11.233 206.316 11.196 206.529 11.1222C206.745 11.0455 206.931 10.9318 207.087 10.7812C207.244 10.6278 207.364 10.4375 207.45 10.2102L208.421 10.483C208.319 10.8125 208.147 11.1023 207.906 11.3523C207.664 11.5994 207.366 11.7926 207.011 11.9318C206.656 12.0682 206.256 12.1364 205.813 12.1364ZM211.059 8.0625V12H210.053V5.45455H211.025V6.47727H211.11C211.263 6.14489 211.496 5.87784 211.809 5.67614C212.121 5.47159 212.525 5.36932 213.019 5.36932C213.462 5.36932 213.85 5.46023 214.183 5.64205C214.515 5.82102 214.773 6.09375 214.958 6.46023C215.143 6.82386 215.235 7.28409 215.235 7.84091V12H214.229V7.90909C214.229 7.39489 214.096 6.99432 213.829 6.70739C213.562 6.41761 213.195 6.27273 212.729 6.27273C212.408 6.27273 212.121 6.34233 211.869 6.48153C211.619 6.62074 211.421 6.82386 211.276 7.09091C211.131 7.35795 211.059 7.68182 211.059 8.0625ZM219.919 5.45455V6.30682H216.527V5.45455H219.919ZM217.516 3.88636H218.522V10.125C218.522 10.4091 218.563 10.6222 218.645 10.7642C218.73 10.9034 218.838 10.9972 218.969 11.0455C219.103 11.0909 219.243 11.1136 219.391 11.1136C219.502 11.1136 219.593 11.108 219.664 11.0966C219.735 11.0824 219.792 11.071 219.834 11.0625L220.039 11.9659C219.971 11.9915 219.875 12.017 219.753 12.0426C219.631 12.071 219.476 12.0852 219.289 12.0852C219.005 12.0852 218.726 12.0241 218.453 11.902C218.184 11.7798 217.959 11.5938 217.78 11.3438C217.604 11.0938 217.516 10.7784 217.516 10.3977V3.88636ZM223.358 12.1534C222.944 12.1534 222.567 12.0753 222.229 11.919C221.891 11.7599 221.623 11.5312 221.424 11.233C221.225 10.9318 221.125 10.5682 221.125 10.142C221.125 9.76705 221.199 9.46307 221.347 9.23011C221.495 8.99432 221.692 8.80966 221.939 8.67614C222.186 8.54261 222.459 8.44318 222.757 8.37784C223.059 8.30966 223.361 8.25568 223.665 8.21591C224.063 8.16477 224.385 8.12642 224.632 8.10085C224.882 8.07244 225.064 8.02557 225.178 7.96023C225.294 7.89489 225.353 7.78125 225.353 7.61932V7.58523C225.353 7.16477 225.238 6.83807 225.007 6.60511C224.78 6.37216 224.435 6.25568 223.972 6.25568C223.492 6.25568 223.115 6.3608 222.843 6.57102C222.57 6.78125 222.378 7.00568 222.267 7.24432L221.313 6.90341C221.483 6.50568 221.711 6.19602 221.995 5.97443C222.282 5.75 222.594 5.59375 222.932 5.50568C223.273 5.41477 223.608 5.36932 223.938 5.36932C224.148 5.36932 224.39 5.39489 224.662 5.44602C224.938 5.49432 225.203 5.59517 225.459 5.74858C225.718 5.90199 225.932 6.13352 226.103 6.44318C226.273 6.75284 226.358 7.16761 226.358 7.6875V12H225.353V11.1136H225.301C225.233 11.2557 225.12 11.4077 224.961 11.5696C224.801 11.7315 224.59 11.8693 224.326 11.983C224.061 12.0966 223.739 12.1534 223.358 12.1534ZM223.512 11.25C223.909 11.25 224.245 11.1719 224.517 11.0156C224.793 10.8594 225 10.6577 225.14 10.4105C225.282 10.1634 225.353 9.90341 225.353 9.63068V8.71023C225.31 8.76136 225.216 8.80824 225.071 8.85085C224.929 8.89062 224.765 8.92614 224.577 8.95739C224.392 8.9858 224.212 9.01136 224.036 9.03409C223.863 9.05398 223.722 9.07102 223.614 9.08523C223.353 9.11932 223.108 9.17472 222.881 9.25142C222.657 9.32528 222.475 9.4375 222.336 9.58807C222.199 9.7358 222.131 9.9375 222.131 10.1932C222.131 10.5426 222.26 10.8068 222.519 10.9858C222.78 11.1619 223.111 11.25 223.512 11.25ZM231.04 5.45455V6.30682H227.648V5.45455H231.04ZM228.637 3.88636H229.643V10.125C229.643 10.4091 229.684 10.6222 229.766 10.7642C229.852 10.9034 229.96 10.9972 230.09 11.0455C230.224 11.0909 230.364 11.1136 230.512 11.1136C230.623 11.1136 230.714 11.108 230.785 11.0966C230.856 11.0824 230.913 11.071 230.955 11.0625L231.16 11.9659C231.092 11.9915 230.996 12.017 230.874 12.0426C230.752 12.071 230.597 12.0852 230.41 12.0852C230.126 12.0852 229.847 12.0241 229.575 11.902C229.305 11.7798 229.08 11.5938 228.901 11.3438C228.725 11.0938 228.637 10.7784 228.637 10.3977V3.88636ZM232.553 12V5.45455H233.559V12H232.553ZM233.065 4.36364C232.869 4.36364 232.7 4.29688 232.558 4.16335C232.418 4.02983 232.349 3.86932 232.349 3.68182C232.349 3.49432 232.418 3.33381 232.558 3.20028C232.7 3.06676 232.869 3 233.065 3C233.261 3 233.428 3.06676 233.567 3.20028C233.71 3.33381 233.781 3.49432 233.781 3.68182C233.781 3.86932 233.71 4.02983 233.567 4.16335C233.428 4.29688 233.261 4.36364 233.065 4.36364ZM238.06 12.1364C237.469 12.1364 236.951 11.9957 236.505 11.7145C236.061 11.4332 235.715 11.0398 235.465 10.5341C235.218 10.0284 235.094 9.4375 235.094 8.76136C235.094 8.07955 235.218 7.48437 235.465 6.97585C235.715 6.46733 236.061 6.07244 236.505 5.79119C236.951 5.50994 237.469 5.36932 238.06 5.36932C238.651 5.36932 239.168 5.50994 239.611 5.79119C240.057 6.07244 240.404 6.46733 240.651 6.97585C240.901 7.48437 241.026 8.07955 241.026 8.76136C241.026 9.4375 240.901 10.0284 240.651 10.5341C240.404 11.0398 240.057 11.4332 239.611 11.7145C239.168 11.9957 238.651 12.1364 238.06 12.1364ZM238.06 11.233C238.509 11.233 238.878 11.1179 239.168 10.8878C239.458 10.6577 239.672 10.3551 239.811 9.98011C239.951 9.60511 240.02 9.19886 240.02 8.76136C240.02 8.32386 239.951 7.91619 239.811 7.53835C239.672 7.16051 239.458 6.85511 239.168 6.62216C238.878 6.3892 238.509 6.27273 238.06 6.27273C237.611 6.27273 237.242 6.3892 236.952 6.62216C236.662 6.85511 236.448 7.16051 236.309 7.53835C236.169 7.91619 236.1 8.32386 236.1 8.76136C236.1 9.19886 236.169 9.60511 236.309 9.98011C236.448 10.3551 236.662 10.6577 236.952 10.8878C237.242 11.1179 237.611 11.233 238.06 11.233ZM243.567 8.0625V12H242.561V5.45455H243.533V6.47727H243.618C243.771 6.14489 244.004 5.87784 244.317 5.67614C244.629 5.47159 245.033 5.36932 245.527 5.36932C245.97 5.36932 246.358 5.46023 246.69 5.64205C247.023 5.82102 247.281 6.09375 247.466 6.46023C247.651 6.82386 247.743 7.28409 247.743 7.84091V12H246.737V7.90909C246.737 7.39489 246.604 6.99432 246.337 6.70739C246.07 6.41761 245.703 6.27273 245.237 6.27273C244.916 6.27273 244.629 6.34233 244.376 6.48153C244.126 6.62074 243.929 6.82386 243.784 7.09091C243.639 7.35795 243.567 7.68182 243.567 8.0625Z" fill="#1E1E1E"/>
<rect x="12.5" y="23.5" width="49" height="29" stroke="#1E1E1E"/>
<path d="M29.9716 34.2727V43H28.9148V35.3807H28.8636L26.733 36.7955V35.7216L28.9148 34.2727H29.9716ZM35.2599 34.1534C35.6179 34.1562 35.9759 34.2244 36.3338 34.358C36.6918 34.4915 37.0185 34.7131 37.3139 35.0227C37.6094 35.3295 37.8466 35.7486 38.0256 36.2798C38.2045 36.8111 38.294 37.4773 38.294 38.2784C38.294 39.054 38.2202 39.7429 38.0724 40.3452C37.9276 40.9446 37.7173 41.4503 37.4418 41.8622C37.169 42.2741 36.8366 42.5866 36.4446 42.7997C36.0554 43.0128 35.6151 43.1193 35.1236 43.1193C34.6349 43.1193 34.1989 43.0227 33.8153 42.8295C33.4347 42.6335 33.1222 42.3622 32.8778 42.0156C32.6364 41.6662 32.4815 41.2614 32.4134 40.8011H33.4531C33.5469 41.2017 33.733 41.5327 34.0114 41.794C34.2926 42.0526 34.6634 42.1818 35.1236 42.1818C35.7969 42.1818 36.3281 41.8878 36.7173 41.2997C37.1094 40.7116 37.3054 39.8807 37.3054 38.8068H37.2372C37.0781 39.0455 36.8892 39.2514 36.6705 39.4247C36.4517 39.598 36.2088 39.7315 35.9418 39.8253C35.6747 39.919 35.3906 39.9659 35.0895 39.9659C34.5895 39.9659 34.1307 39.8423 33.7131 39.5952C33.2983 39.3452 32.9659 39.0028 32.7159 38.5682C32.4688 38.1307 32.3452 37.6307 32.3452 37.0682C32.3452 36.5341 32.4645 36.0455 32.7031 35.6023C32.9446 35.1562 33.2827 34.8011 33.7173 34.5369C34.1548 34.2727 34.669 34.1449 35.2599 34.1534ZM35.2599 35.0909C34.902 35.0909 34.5795 35.1804 34.2926 35.3594C34.0085 35.5355 33.7827 35.7741 33.6151 36.0753C33.4503 36.3736 33.3679 36.7045 33.3679 37.0682C33.3679 37.4318 33.4474 37.7628 33.6065 38.0611C33.7685 38.3565 33.9886 38.5923 34.267 38.7685C34.5483 38.9418 34.8679 39.0284 35.2259 39.0284C35.4957 39.0284 35.7472 38.9759 35.9801 38.8707C36.2131 38.7628 36.4162 38.6165 36.5895 38.4318C36.7656 38.2443 36.9034 38.0327 37.0028 37.7969C37.1023 37.5582 37.152 37.3097 37.152 37.0511C37.152 36.7102 37.0696 36.3906 36.9048 36.0923C36.7429 35.794 36.5185 35.5526 36.2315 35.3679C35.9474 35.1832 35.6236 35.0909 35.2599 35.0909ZM39.9698 43V42.233L42.8505 39.0795C43.1886 38.7102 43.467 38.3892 43.6857 38.1165C43.9045 37.8409 44.0664 37.5824 44.1715 37.3409C44.2795 37.0966 44.3335 36.8409 44.3335 36.5739C44.3335 36.267 44.2596 36.0014 44.1119 35.777C43.967 35.5526 43.7681 35.3793 43.5153 35.2571C43.2624 35.1349 42.9783 35.0739 42.663 35.0739C42.3278 35.0739 42.0352 35.1435 41.7852 35.2827C41.538 35.419 41.3462 35.6108 41.2099 35.858C41.0763 36.1051 41.0096 36.3949 41.0096 36.7273H40.0039C40.0039 36.2159 40.1218 35.767 40.3576 35.3807C40.5934 34.9943 40.9144 34.6932 41.3207 34.4773C41.7298 34.2614 42.1886 34.1534 42.6971 34.1534C43.2085 34.1534 43.6616 34.2614 44.0565 34.4773C44.4513 34.6932 44.761 34.9844 44.9854 35.3509C45.2099 35.7173 45.3221 36.125 45.3221 36.5739C45.3221 36.8949 45.2638 37.2088 45.1474 37.5156C45.0337 37.8196 44.8349 38.1591 44.5508 38.5341C44.2695 38.9062 43.8789 39.3608 43.3789 39.8977L41.4187 41.9943V42.0625H45.4755V43H39.9698Z" fill="#1E1E1E"/>
<rect x="0.5" y="70.5" width="79" height="29" stroke="#1E1E1E"/>
<path d="M17.9716 81.2727V90H16.9148V82.3807H16.8636L14.733 83.7955V82.7216L16.9148 81.2727H17.9716ZM23.5497 81.2727V90H22.4929V82.3807H22.4418L20.3111 83.7955V82.7216L22.4929 81.2727H23.5497ZM28.9062 90.1193C28.2642 90.1193 27.7173 89.9446 27.2656 89.5952C26.8139 89.2429 26.4688 88.733 26.2301 88.0653C25.9915 87.3949 25.8722 86.5852 25.8722 85.6364C25.8722 84.6932 25.9915 83.8878 26.2301 83.2202C26.4716 82.5497 26.8182 82.0384 27.2699 81.6861C27.7244 81.331 28.2699 81.1534 28.9062 81.1534C29.5426 81.1534 30.0866 81.331 30.5384 81.6861C30.9929 82.0384 31.3395 82.5497 31.5781 83.2202C31.8196 83.8878 31.9403 84.6932 31.9403 85.6364C31.9403 86.5852 31.821 87.3949 31.5824 88.0653C31.3438 88.733 30.9986 89.2429 30.5469 89.5952C30.0952 89.9446 29.5483 90.1193 28.9062 90.1193ZM28.9062 89.1818C29.5426 89.1818 30.0369 88.875 30.3892 88.2614C30.7415 87.6477 30.9176 86.7727 30.9176 85.6364C30.9176 84.8807 30.8366 84.2372 30.6747 83.706C30.5156 83.1747 30.2855 82.7699 29.9844 82.4915C29.6861 82.2131 29.3267 82.0739 28.9062 82.0739C28.2756 82.0739 27.7827 82.3849 27.4276 83.0071C27.0724 83.6264 26.8949 84.5028 26.8949 85.6364C26.8949 86.392 26.9744 87.0341 27.1335 87.5625C27.2926 88.0909 27.5213 88.4929 27.8196 88.7685C28.1207 89.044 28.483 89.1818 28.9062 89.1818ZM36.4062 90.1193C35.7642 90.1193 35.2173 89.9446 34.7656 89.5952C34.3139 89.2429 33.9688 88.733 33.7301 88.0653C33.4915 87.3949 33.3722 86.5852 33.3722 85.6364C33.3722 84.6932 33.4915 83.8878 33.7301 83.2202C33.9716 82.5497 34.3182 82.0384 34.7699 81.6861C35.2244 81.331 35.7699 81.1534 36.4062 81.1534C37.0426 81.1534 37.5866 81.331 38.0384 81.6861C38.4929 82.0384 38.8395 82.5497 39.0781 83.2202C39.3196 83.8878 39.4403 84.6932 39.4403 85.6364C39.4403 86.5852 39.321 87.3949 39.0824 88.0653C38.8438 88.733 38.4986 89.2429 38.0469 89.5952C37.5952 89.9446 37.0483 90.1193 36.4062 90.1193ZM36.4062 89.1818C37.0426 89.1818 37.5369 88.875 37.8892 88.2614C38.2415 87.6477 38.4176 86.7727 38.4176 85.6364C38.4176 84.8807 38.3366 84.2372 38.1747 83.706C38.0156 83.1747 37.7855 82.7699 37.4844 82.4915C37.1861 82.2131 36.8267 82.0739 36.4062 82.0739C35.7756 82.0739 35.2827 82.3849 34.9276 83.0071C34.5724 83.6264 34.3949 84.5028 34.3949 85.6364C34.3949 86.392 34.4744 87.0341 34.6335 87.5625C34.7926 88.0909 35.0213 88.4929 35.3196 88.7685C35.6207 89.044 35.983 89.1818 36.4062 89.1818ZM43.9062 90.1193C43.2642 90.1193 42.7173 89.9446 42.2656 89.5952C41.8139 89.2429 41.4688 88.733 41.2301 88.0653C40.9915 87.3949 40.8722 86.5852 40.8722 85.6364C40.8722 84.6932 40.9915 83.8878 41.2301 83.2202C41.4716 82.5497 41.8182 82.0384 42.2699 81.6861C42.7244 81.331 43.2699 81.1534 43.9062 81.1534C44.5426 81.1534 45.0866 81.331 45.5384 81.6861C45.9929 82.0384 46.3395 82.5497 46.5781 83.2202C46.8196 83.8878 46.9403 84.6932 46.9403 85.6364C46.9403 86.5852 46.821 87.3949 46.5824 88.0653C46.3438 88.733 45.9986 89.2429 45.5469 89.5952C45.0952 89.9446 44.5483 90.1193 43.9062 90.1193ZM43.9062 89.1818C44.5426 89.1818 45.0369 88.875 45.3892 88.2614C45.7415 87.6477 45.9176 86.7727 45.9176 85.6364C45.9176 84.8807 45.8366 84.2372 45.6747 83.706C45.5156 83.1747 45.2855 82.7699 44.9844 82.4915C44.6861 82.2131 44.3267 82.0739 43.9062 82.0739C43.2756 82.0739 42.7827 82.3849 42.4276 83.0071C42.0724 83.6264 41.8949 84.5028 41.8949 85.6364C41.8949 86.392 41.9744 87.0341 42.1335 87.5625C42.2926 88.0909 42.5213 88.4929 42.8196 88.7685C43.1207 89.044 43.483 89.1818 43.9062 89.1818ZM51.4062 90.1193C50.7642 90.1193 50.2173 89.9446 49.7656 89.5952C49.3139 89.2429 48.9688 88.733 48.7301 88.0653C48.4915 87.3949 48.3722 86.5852 48.3722 85.6364C48.3722 84.6932 48.4915 83.8878 48.7301 83.2202C48.9716 82.5497 49.3182 82.0384 49.7699 81.6861C50.2244 81.331 50.7699 81.1534 51.4062 81.1534C52.0426 81.1534 52.5866 81.331 53.0384 81.6861C53.4929 82.0384 53.8395 82.5497 54.0781 83.2202C54.3196 83.8878 54.4403 84.6932 54.4403 85.6364C54.4403 86.5852 54.321 87.3949 54.0824 88.0653C53.8438 88.733 53.4986 89.2429 53.0469 89.5952C52.5952 89.9446 52.0483 90.1193 51.4062 90.1193ZM51.4062 89.1818C52.0426 89.1818 52.5369 88.875 52.8892 88.2614C53.2415 87.6477 53.4176 86.7727 53.4176 85.6364C53.4176 84.8807 53.3366 84.2372 53.1747 83.706C53.0156 83.1747 52.7855 82.7699 52.4844 82.4915C52.1861 82.2131 51.8267 82.0739 51.4062 82.0739C50.7756 82.0739 50.2827 82.3849 49.9276 83.0071C49.5724 83.6264 49.3949 84.5028 49.3949 85.6364C49.3949 86.392 49.4744 87.0341 49.6335 87.5625C49.7926 88.0909 50.0213 88.4929 50.3196 88.7685C50.6207 89.044 50.983 89.1818 51.4062 89.1818ZM58.9062 90.1193C58.2642 90.1193 57.7173 89.9446 57.2656 89.5952C56.8139 89.2429 56.4688 88.733 56.2301 88.0653C55.9915 87.3949 55.8722 86.5852 55.8722 85.6364C55.8722 84.6932 55.9915 83.8878 56.2301 83.2202C56.4716 82.5497 56.8182 82.0384 57.2699 81.6861C57.7244 81.331 58.2699 81.1534 58.9062 81.1534C59.5426 81.1534 60.0866 81.331 60.5384 81.6861C60.9929 82.0384 61.3395 82.5497 61.5781 83.2202C61.8196 83.8878 61.9403 84.6932 61.9403 85.6364C61.9403 86.5852 61.821 87.3949 61.5824 88.0653C61.3438 88.733 60.9986 89.2429 60.5469 89.5952C60.0952 89.9446 59.5483 90.1193 58.9062 90.1193ZM58.9062 89.1818C59.5426 89.1818 60.0369 88.875 60.3892 88.2614C60.7415 87.6477 60.9176 86.7727 60.9176 85.6364C60.9176 84.8807 60.8366 84.2372 60.6747 83.706C60.5156 83.1747 60.2855 82.7699 59.9844 82.4915C59.6861 82.2131 59.3267 82.0739 58.9062 82.0739C58.2756 82.0739 57.7827 82.3849 57.4276 83.0071C57.0724 83.6264 56.8949 84.5028 56.8949 85.6364C56.8949 86.392 56.9744 87.0341 57.1335 87.5625C57.2926 88.0909 57.5213 88.4929 57.8196 88.7685C58.1207 89.044 58.483 89.1818 58.9062 89.1818ZM66.4062 90.1193C65.7642 90.1193 65.2173 89.9446 64.7656 89.5952C64.3139 89.2429 63.9688 88.733 63.7301 88.0653C63.4915 87.3949 63.3722 86.5852 63.3722 85.6364C63.3722 84.6932 63.4915 83.8878 63.7301 83.2202C63.9716 82.5497 64.3182 82.0384 64.7699 81.6861C65.2244 81.331 65.7699 81.1534 66.4062 81.1534C67.0426 81.1534 67.5866 81.331 68.0384 81.6861C68.4929 82.0384 68.8395 82.5497 69.0781 83.2202C69.3196 83.8878 69.4403 84.6932 69.4403 85.6364C69.4403 86.5852 69.321 87.3949 69.0824 88.0653C68.8438 88.733 68.4986 89.2429 68.0469 89.5952C67.5952 89.9446 67.0483 90.1193 66.4062 90.1193ZM66.4062 89.1818C67.0426 89.1818 67.5369 88.875 67.8892 88.2614C68.2415 87.6477 68.4176 86.7727 68.4176 85.6364C68.4176 84.8807 68.3366 84.2372 68.1747 83.706C68.0156 83.1747 67.7855 82.7699 67.4844 82.4915C67.1861 82.2131 66.8267 82.0739 66.4062 82.0739C65.7756 82.0739 65.2827 82.3849 64.9276 83.0071C64.5724 83.6264 64.3949 84.5028 64.3949 85.6364C64.3949 86.392 64.4744 87.0341 64.6335 87.5625C64.7926 88.0909 65.0213 88.4929 65.3196 88.7685C65.6207 89.044 65.983 89.1818 66.4062 89.1818Z" fill="#1E1E1E"/>
<rect x="258.5" y="23.5" width="49" height="29" stroke="#1E1E1E"/>
<path d="M275.852 43.1193C275.29 43.1193 274.788 43.0227 274.348 42.8295C273.911 42.6364 273.563 42.3679 273.304 42.0241C273.048 41.6776 272.909 41.2756 272.886 40.8182H273.96C273.983 41.0994 274.08 41.3423 274.25 41.5469C274.42 41.7486 274.643 41.9048 274.919 42.0156C275.195 42.1264 275.5 42.1818 275.835 42.1818C276.21 42.1818 276.543 42.1165 276.832 41.9858C277.122 41.8551 277.349 41.6733 277.514 41.4403C277.679 41.2074 277.761 40.9375 277.761 40.6307C277.761 40.3097 277.682 40.027 277.523 39.7827C277.364 39.5355 277.131 39.3423 276.824 39.2031C276.517 39.0639 276.142 38.9943 275.699 38.9943H275V38.0568H275.699C276.045 38.0568 276.349 37.9943 276.611 37.8693C276.875 37.7443 277.081 37.5682 277.229 37.3409C277.379 37.1136 277.455 36.8466 277.455 36.5398C277.455 36.2443 277.389 35.9872 277.259 35.7685C277.128 35.5497 276.943 35.3793 276.705 35.2571C276.469 35.1349 276.19 35.0739 275.869 35.0739C275.568 35.0739 275.284 35.1293 275.017 35.2401C274.753 35.348 274.537 35.5057 274.369 35.7131C274.202 35.9176 274.111 36.1648 274.097 36.4545H273.074C273.091 35.9972 273.229 35.5966 273.487 35.2528C273.746 34.9062 274.084 34.6364 274.501 34.4432C274.922 34.25 275.384 34.1534 275.886 34.1534C276.426 34.1534 276.889 34.2628 277.276 34.4815C277.662 34.6974 277.959 34.983 278.166 35.3381C278.374 35.6932 278.477 36.0767 278.477 36.4886C278.477 36.9801 278.348 37.3991 278.089 37.7457C277.834 38.0923 277.486 38.3324 277.045 38.4659V38.5341C277.597 38.625 278.027 38.8594 278.337 39.2372C278.646 39.6122 278.801 40.0767 278.801 40.6307C278.801 41.1051 278.672 41.5312 278.413 41.9091C278.158 42.2841 277.808 42.5795 277.365 42.7955C276.922 43.0114 276.418 43.1193 275.852 43.1193ZM283.391 43.1193C282.749 43.1193 282.202 42.9446 281.75 42.5952C281.298 42.2429 280.953 41.733 280.714 41.0653C280.476 40.3949 280.357 39.5852 280.357 38.6364C280.357 37.6932 280.476 36.8878 280.714 36.2202C280.956 35.5497 281.303 35.0384 281.754 34.6861C282.209 34.331 282.754 34.1534 283.391 34.1534C284.027 34.1534 284.571 34.331 285.023 34.6861C285.477 35.0384 285.824 35.5497 286.062 36.2202C286.304 36.8878 286.425 37.6932 286.425 38.6364C286.425 39.5852 286.305 40.3949 286.067 41.0653C285.828 41.733 285.483 42.2429 285.031 42.5952C284.58 42.9446 284.033 43.1193 283.391 43.1193ZM283.391 42.1818C284.027 42.1818 284.521 41.875 284.874 41.2614C285.226 40.6477 285.402 39.7727 285.402 38.6364C285.402 37.8807 285.321 37.2372 285.159 36.706C285 36.1747 284.77 35.7699 284.469 35.4915C284.17 35.2131 283.811 35.0739 283.391 35.0739C282.76 35.0739 282.267 35.3849 281.912 36.0071C281.557 36.6264 281.379 37.5028 281.379 38.6364C281.379 39.392 281.459 40.0341 281.618 40.5625C281.777 41.0909 282.006 41.4929 282.304 41.7685C282.605 42.044 282.967 42.1818 283.391 42.1818Z" fill="#1E1E1E"/>
<rect x="246.5" y="70.5" width="79" height="29" stroke="#1E1E1E"/>
<path d="M263.75 90.1193C263.108 90.1193 262.561 89.9446 262.109 89.5952C261.658 89.2429 261.313 88.733 261.074 88.0653C260.835 87.3949 260.716 86.5852 260.716 85.6364C260.716 84.6932 260.835 83.8878 261.074 83.2202C261.315 82.5497 261.662 82.0384 262.114 81.6861C262.568 81.331 263.114 81.1534 263.75 81.1534C264.386 81.1534 264.93 81.331 265.382 81.6861C265.837 82.0384 266.183 82.5497 266.422 83.2202C266.663 83.8878 266.784 84.6932 266.784 85.6364C266.784 86.5852 266.665 87.3949 266.426 88.0653C266.188 88.733 265.842 89.2429 265.391 89.5952C264.939 89.9446 264.392 90.1193 263.75 90.1193ZM263.75 89.1818C264.386 89.1818 264.881 88.875 265.233 88.2614C265.585 87.6477 265.761 86.7727 265.761 85.6364C265.761 84.8807 265.68 84.2372 265.518 83.706C265.359 83.1747 265.129 82.7699 264.828 82.4915C264.53 82.2131 264.17 82.0739 263.75 82.0739C263.119 82.0739 262.626 82.3849 262.271 83.0071C261.916 83.6264 261.739 84.5028 261.739 85.6364C261.739 86.392 261.818 87.0341 261.977 87.5625C262.136 88.0909 262.365 88.4929 262.663 88.7685C262.964 89.044 263.327 89.1818 263.75 89.1818ZM271.25 90.1193C270.608 90.1193 270.061 89.9446 269.609 89.5952C269.158 89.2429 268.813 88.733 268.574 88.0653C268.335 87.3949 268.216 86.5852 268.216 85.6364C268.216 84.6932 268.335 83.8878 268.574 83.2202C268.815 82.5497 269.162 82.0384 269.614 81.6861C270.068 81.331 270.614 81.1534 271.25 81.1534C271.886 81.1534 272.43 81.331 272.882 81.6861C273.337 82.0384 273.683 82.5497 273.922 83.2202C274.163 83.8878 274.284 84.6932 274.284 85.6364C274.284 86.5852 274.165 87.3949 273.926 88.0653C273.688 88.733 273.342 89.2429 272.891 89.5952C272.439 89.9446 271.892 90.1193 271.25 90.1193ZM271.25 89.1818C271.886 89.1818 272.381 88.875 272.733 88.2614C273.085 87.6477 273.261 86.7727 273.261 85.6364C273.261 84.8807 273.18 84.2372 273.018 83.706C272.859 83.1747 272.629 82.7699 272.328 82.4915C272.03 82.2131 271.67 82.0739 271.25 82.0739C270.619 82.0739 270.126 82.3849 269.771 83.0071C269.416 83.6264 269.239 84.5028 269.239 85.6364C269.239 86.392 269.318 87.0341 269.477 87.5625C269.636 88.0909 269.865 88.4929 270.163 88.7685C270.464 89.044 270.827 89.1818 271.25 89.1818ZM278.75 90.1193C278.108 90.1193 277.561 89.9446 277.109 89.5952C276.658 89.2429 276.313 88.733 276.074 88.0653C275.835 87.3949 275.716 86.5852 275.716 85.6364C275.716 84.6932 275.835 83.8878 276.074 83.2202C276.315 82.5497 276.662 82.0384 277.114 81.6861C277.568 81.331 278.114 81.1534 278.75 81.1534C279.386 81.1534 279.93 81.331 280.382 81.6861C280.837 82.0384 281.183 82.5497 281.422 83.2202C281.663 83.8878 281.784 84.6932 281.784 85.6364C281.784 86.5852 281.665 87.3949 281.426 88.0653C281.188 88.733 280.842 89.2429 280.391 89.5952C279.939 89.9446 279.392 90.1193 278.75 90.1193ZM278.75 89.1818C279.386 89.1818 279.881 88.875 280.233 88.2614C280.585 87.6477 280.761 86.7727 280.761 85.6364C280.761 84.8807 280.68 84.2372 280.518 83.706C280.359 83.1747 280.129 82.7699 279.828 82.4915C279.53 82.2131 279.17 82.0739 278.75 82.0739C278.119 82.0739 277.626 82.3849 277.271 83.0071C276.916 83.6264 276.739 84.5028 276.739 85.6364C276.739 86.392 276.818 87.0341 276.977 87.5625C277.136 88.0909 277.365 88.4929 277.663 88.7685C277.964 89.044 278.327 89.1818 278.75 89.1818ZM286.472 81.2727V90H285.415V82.3807H285.364L283.233 83.7955V82.7216L285.415 81.2727H286.472ZM292.05 81.2727V90H290.993V82.3807H290.942L288.811 83.7955V82.7216L290.993 81.2727H292.05ZM297.628 81.2727V90H296.571V82.3807H296.52L294.389 83.7955V82.7216L296.571 81.2727H297.628ZM303.206 81.2727V90H302.149V82.3807H302.098L299.967 83.7955V82.7216L302.149 81.2727H303.206ZM308.562 90.1193C307.92 90.1193 307.374 89.9446 306.922 89.5952C306.47 89.2429 306.125 88.733 305.886 88.0653C305.648 87.3949 305.528 86.5852 305.528 85.6364C305.528 84.6932 305.648 83.8878 305.886 83.2202C306.128 82.5497 306.474 82.0384 306.926 81.6861C307.381 81.331 307.926 81.1534 308.562 81.1534C309.199 81.1534 309.743 81.331 310.195 81.6861C310.649 82.0384 310.996 82.5497 311.234 83.2202C311.476 83.8878 311.597 84.6932 311.597 85.6364C311.597 86.5852 311.477 87.3949 311.239 88.0653C311 88.733 310.655 89.2429 310.203 89.5952C309.751 89.9446 309.205 90.1193 308.562 90.1193ZM308.562 89.1818C309.199 89.1818 309.693 88.875 310.045 88.2614C310.398 87.6477 310.574 86.7727 310.574 85.6364C310.574 84.8807 310.493 84.2372 310.331 83.706C310.172 83.1747 309.942 82.7699 309.641 82.4915C309.342 82.2131 308.983 82.0739 308.562 82.0739C307.932 82.0739 307.439 82.3849 307.084 83.0071C306.729 83.6264 306.551 84.5028 306.551 85.6364C306.551 86.392 306.631 87.0341 306.79 87.5625C306.949 88.0909 307.178 88.4929 307.476 88.7685C307.777 89.044 308.139 89.1818 308.562 89.1818Z" fill="#1E1E1E"/>
<rect x="176.5" y="23.5" width="49" height="29" stroke="#1E1E1E"/>
<path d="M193.972 34.2727V43H192.915V35.3807H192.864L190.733 36.7955V35.7216L192.915 34.2727H193.972ZM199.328 43.1193C198.686 43.1193 198.139 42.9446 197.688 42.5952C197.236 42.2429 196.891 41.733 196.652 41.0653C196.413 40.3949 196.294 39.5852 196.294 38.6364C196.294 37.6932 196.413 36.8878 196.652 36.2202C196.893 35.5497 197.24 35.0384 197.692 34.6861C198.146 34.331 198.692 34.1534 199.328 34.1534C199.964 34.1534 200.509 34.331 200.96 34.6861C201.415 35.0384 201.761 35.5497 202 36.2202C202.241 36.8878 202.362 37.6932 202.362 38.6364C202.362 39.5852 202.243 40.3949 202.004 41.0653C201.766 41.733 201.42 42.2429 200.969 42.5952C200.517 42.9446 199.97 43.1193 199.328 43.1193ZM199.328 42.1818C199.964 42.1818 200.459 41.875 200.811 41.2614C201.163 40.6477 201.339 39.7727 201.339 38.6364C201.339 37.8807 201.259 37.2372 201.097 36.706C200.938 36.1747 200.707 35.7699 200.406 35.4915C200.108 35.2131 199.749 35.0739 199.328 35.0739C198.697 35.0739 198.205 35.3849 197.849 36.0071C197.494 36.6264 197.317 37.5028 197.317 38.6364C197.317 39.392 197.396 40.0341 197.555 40.5625C197.714 41.0909 197.943 41.4929 198.241 41.7685C198.543 42.044 198.905 42.1818 199.328 42.1818ZM206.828 43.1193C206.186 43.1193 205.639 42.9446 205.188 42.5952C204.736 42.2429 204.391 41.733 204.152 41.0653C203.913 40.3949 203.794 39.5852 203.794 38.6364C203.794 37.6932 203.913 36.8878 204.152 36.2202C204.393 35.5497 204.74 35.0384 205.192 34.6861C205.646 34.331 206.192 34.1534 206.828 34.1534C207.464 34.1534 208.009 34.331 208.46 34.6861C208.915 35.0384 209.261 35.5497 209.5 36.2202C209.741 36.8878 209.862 37.6932 209.862 38.6364C209.862 39.5852 209.743 40.3949 209.504 41.0653C209.266 41.733 208.92 42.2429 208.469 42.5952C208.017 42.9446 207.47 43.1193 206.828 43.1193ZM206.828 42.1818C207.464 42.1818 207.959 41.875 208.311 41.2614C208.663 40.6477 208.839 39.7727 208.839 38.6364C208.839 37.8807 208.759 37.2372 208.597 36.706C208.438 36.1747 208.207 35.7699 207.906 35.4915C207.608 35.2131 207.249 35.0739 206.828 35.0739C206.197 35.0739 205.705 35.3849 205.349 36.0071C204.994 36.6264 204.817 37.5028 204.817 38.6364C204.817 39.392 204.896 40.0341 205.055 40.5625C205.214 41.0909 205.443 41.4929 205.741 41.7685C206.043 42.044 206.405 42.1818 206.828 42.1818Z" fill="#1E1E1E"/>
<rect x="164.5" y="70.5" width="79" height="29" stroke="#1E1E1E"/>
<path d="M181.75 90.1193C181.108 90.1193 180.561 89.9446 180.109 89.5952C179.658 89.2429 179.313 88.733 179.074 88.0653C178.835 87.3949 178.716 86.5852 178.716 85.6364C178.716 84.6932 178.835 83.8878 179.074 83.2202C179.315 82.5497 179.662 82.0384 180.114 81.6861C180.568 81.331 181.114 81.1534 181.75 81.1534C182.386 81.1534 182.93 81.331 183.382 81.6861C183.837 82.0384 184.183 82.5497 184.422 83.2202C184.663 83.8878 184.784 84.6932 184.784 85.6364C184.784 86.5852 184.665 87.3949 184.426 88.0653C184.188 88.733 183.842 89.2429 183.391 89.5952C182.939 89.9446 182.392 90.1193 181.75 90.1193ZM181.75 89.1818C182.386 89.1818 182.881 88.875 183.233 88.2614C183.585 87.6477 183.761 86.7727 183.761 85.6364C183.761 84.8807 183.68 84.2372 183.518 83.706C183.359 83.1747 183.129 82.7699 182.828 82.4915C182.53 82.2131 182.17 82.0739 181.75 82.0739C181.119 82.0739 180.626 82.3849 180.271 83.0071C179.916 83.6264 179.739 84.5028 179.739 85.6364C179.739 86.392 179.818 87.0341 179.977 87.5625C180.136 88.0909 180.365 88.4929 180.663 88.7685C180.964 89.044 181.327 89.1818 181.75 89.1818ZM189.472 81.2727V90H188.415V82.3807H188.364L186.233 83.7955V82.7216L188.415 81.2727H189.472ZM195.05 81.2727V90H193.993V82.3807H193.942L191.811 83.7955V82.7216L193.993 81.2727H195.05ZM200.406 90.1193C199.764 90.1193 199.217 89.9446 198.766 89.5952C198.314 89.2429 197.969 88.733 197.73 88.0653C197.491 87.3949 197.372 86.5852 197.372 85.6364C197.372 84.6932 197.491 83.8878 197.73 83.2202C197.972 82.5497 198.318 82.0384 198.77 81.6861C199.224 81.331 199.77 81.1534 200.406 81.1534C201.043 81.1534 201.587 81.331 202.038 81.6861C202.493 82.0384 202.839 82.5497 203.078 83.2202C203.32 83.8878 203.44 84.6932 203.44 85.6364C203.44 86.5852 203.321 87.3949 203.082 88.0653C202.844 88.733 202.499 89.2429 202.047 89.5952C201.595 89.9446 201.048 90.1193 200.406 90.1193ZM200.406 89.1818C201.043 89.1818 201.537 88.875 201.889 88.2614C202.241 87.6477 202.418 86.7727 202.418 85.6364C202.418 84.8807 202.337 84.2372 202.175 83.706C202.016 83.1747 201.786 82.7699 201.484 82.4915C201.186 82.2131 200.827 82.0739 200.406 82.0739C199.776 82.0739 199.283 82.3849 198.928 83.0071C198.572 83.6264 198.395 84.5028 198.395 85.6364C198.395 86.392 198.474 87.0341 198.634 87.5625C198.793 88.0909 199.021 88.4929 199.32 88.7685C199.621 89.044 199.983 89.1818 200.406 89.1818ZM207.906 90.1193C207.264 90.1193 206.717 89.9446 206.266 89.5952C205.814 89.2429 205.469 88.733 205.23 88.0653C204.991 87.3949 204.872 86.5852 204.872 85.6364C204.872 84.6932 204.991 83.8878 205.23 83.2202C205.472 82.5497 205.818 82.0384 206.27 81.6861C206.724 81.331 207.27 81.1534 207.906 81.1534C208.543 81.1534 209.087 81.331 209.538 81.6861C209.993 82.0384 210.339 82.5497 210.578 83.2202C210.82 83.8878 210.94 84.6932 210.94 85.6364C210.94 86.5852 210.821 87.3949 210.582 88.0653C210.344 88.733 209.999 89.2429 209.547 89.5952C209.095 89.9446 208.548 90.1193 207.906 90.1193ZM207.906 89.1818C208.543 89.1818 209.037 88.875 209.389 88.2614C209.741 87.6477 209.918 86.7727 209.918 85.6364C209.918 84.8807 209.837 84.2372 209.675 83.706C209.516 83.1747 209.286 82.7699 208.984 82.4915C208.686 82.2131 208.327 82.0739 207.906 82.0739C207.276 82.0739 206.783 82.3849 206.428 83.0071C206.072 83.6264 205.895 84.5028 205.895 85.6364C205.895 86.392 205.974 87.0341 206.134 87.5625C206.293 88.0909 206.521 88.4929 206.82 88.7685C207.121 89.044 207.483 89.1818 207.906 89.1818ZM215.628 81.2727V90H214.571V82.3807H214.52L212.389 83.7955V82.7216L214.571 81.2727H215.628ZM220.984 90.1193C220.342 90.1193 219.795 89.9446 219.344 89.5952C218.892 89.2429 218.547 88.733 218.308 88.0653C218.07 87.3949 217.95 86.5852 217.95 85.6364C217.95 84.6932 218.07 83.8878 218.308 83.2202C218.55 82.5497 218.896 82.0384 219.348 81.6861C219.803 81.331 220.348 81.1534 220.984 81.1534C221.621 81.1534 222.165 81.331 222.616 81.6861C223.071 82.0384 223.418 82.5497 223.656 83.2202C223.898 83.8878 224.018 84.6932 224.018 85.6364C224.018 86.5852 223.899 87.3949 223.661 88.0653C223.422 88.733 223.077 89.2429 222.625 89.5952C222.173 89.9446 221.626 90.1193 220.984 90.1193ZM220.984 89.1818C221.621 89.1818 222.115 88.875 222.467 88.2614C222.82 87.6477 222.996 86.7727 222.996 85.6364C222.996 84.8807 222.915 84.2372 222.753 83.706C222.594 83.1747 222.364 82.7699 222.062 82.4915C221.764 82.2131 221.405 82.0739 220.984 82.0739C220.354 82.0739 219.861 82.3849 219.506 83.0071C219.151 83.6264 218.973 84.5028 218.973 85.6364C218.973 86.392 219.053 87.0341 219.212 87.5625C219.371 88.0909 219.599 88.4929 219.898 88.7685C220.199 89.044 220.561 89.1818 220.984 89.1818ZM228.484 90.1193C227.842 90.1193 227.295 89.9446 226.844 89.5952C226.392 89.2429 226.047 88.733 225.808 88.0653C225.57 87.3949 225.45 86.5852 225.45 85.6364C225.45 84.6932 225.57 83.8878 225.808 83.2202C226.05 82.5497 226.396 82.0384 226.848 81.6861C227.303 81.331 227.848 81.1534 228.484 81.1534C229.121 81.1534 229.665 81.331 230.116 81.6861C230.571 82.0384 230.918 82.5497 231.156 83.2202C231.398 83.8878 231.518 84.6932 231.518 85.6364C231.518 86.5852 231.399 87.3949 231.161 88.0653C230.922 88.733 230.577 89.2429 230.125 89.5952C229.673 89.9446 229.126 90.1193 228.484 90.1193ZM228.484 89.1818C229.121 89.1818 229.615 88.875 229.967 88.2614C230.32 87.6477 230.496 86.7727 230.496 85.6364C230.496 84.8807 230.415 84.2372 230.253 83.706C230.094 83.1747 229.864 82.7699 229.562 82.4915C229.264 82.2131 228.905 82.0739 228.484 82.0739C227.854 82.0739 227.361 82.3849 227.006 83.0071C226.651 83.6264 226.473 84.5028 226.473 85.6364C226.473 86.392 226.553 87.0341 226.712 87.5625C226.871 88.0909 227.099 88.4929 227.398 88.7685C227.699 89.044 228.061 89.1818 228.484 89.1818Z" fill="#1E1E1E"/>
<rect x="94.5" y="23.5" width="49" height="29" stroke="#1E1E1E"/>
<path d="M111.972 34.2727V43H110.915V35.3807H110.864L108.733 36.7955V35.7216L110.915 34.2727H111.972ZM117.379 43.1193C117.021 43.1136 116.663 43.0455 116.305 42.9148C115.947 42.7841 115.621 42.5639 115.325 42.2543C115.03 41.9418 114.793 41.5199 114.614 40.9886C114.435 40.4545 114.345 39.7841 114.345 38.9773C114.345 38.2045 114.418 37.5199 114.562 36.9233C114.707 36.3239 114.918 35.8196 115.193 35.4105C115.469 34.9986 115.801 34.6861 116.19 34.473C116.582 34.2599 117.024 34.1534 117.516 34.1534C118.004 34.1534 118.439 34.2514 118.82 34.4474C119.203 34.6406 119.516 34.9105 119.757 35.2571C119.999 35.6037 120.155 36.0028 120.226 36.4545H119.186C119.089 36.0625 118.902 35.7372 118.624 35.4787C118.345 35.2202 117.976 35.0909 117.516 35.0909C116.839 35.0909 116.307 35.3849 115.918 35.973C115.531 36.5611 115.337 37.3864 115.334 38.4489H115.402C115.561 38.2074 115.75 38.0014 115.969 37.831C116.19 37.6577 116.435 37.5241 116.702 37.4304C116.969 37.3366 117.251 37.2898 117.55 37.2898C118.05 37.2898 118.507 37.4148 118.922 37.6648C119.337 37.9119 119.669 38.2543 119.919 38.6918C120.169 39.1264 120.294 39.625 120.294 40.1875C120.294 40.7273 120.173 41.2216 119.932 41.6705C119.69 42.1165 119.351 42.4716 118.913 42.7358C118.479 42.9972 117.967 43.125 117.379 43.1193ZM117.379 42.1818C117.737 42.1818 118.058 42.0923 118.342 41.9134C118.629 41.7344 118.855 41.4943 119.02 41.1932C119.188 40.892 119.271 40.5568 119.271 40.1875C119.271 39.8267 119.19 39.4986 119.028 39.2031C118.869 38.9048 118.649 38.6676 118.368 38.4915C118.089 38.3153 117.771 38.2273 117.413 38.2273C117.143 38.2273 116.892 38.2812 116.659 38.3892C116.426 38.4943 116.222 38.6392 116.045 38.8239C115.872 39.0085 115.736 39.2202 115.636 39.4588C115.537 39.6946 115.487 39.9432 115.487 40.2045C115.487 40.5511 115.568 40.875 115.73 41.1761C115.895 41.4773 116.119 41.7202 116.403 41.9048C116.69 42.0895 117.016 42.1818 117.379 42.1818ZM124.765 43.1193C124.18 43.1193 123.663 43.0156 123.214 42.8082C122.768 42.598 122.42 42.3097 122.17 41.9432C121.92 41.5739 121.797 41.1534 121.799 40.6818C121.797 40.3125 121.869 39.9716 122.017 39.6591C122.164 39.3437 122.366 39.081 122.622 38.8707C122.88 38.6577 123.169 38.5227 123.487 38.4659V38.4148C123.069 38.3068 122.737 38.0724 122.49 37.7116C122.243 37.348 122.12 36.9347 122.123 36.4716C122.12 36.0284 122.233 35.6321 122.46 35.2827C122.687 34.9332 123 34.6577 123.397 34.456C123.798 34.2543 124.254 34.1534 124.765 34.1534C125.271 34.1534 125.723 34.2543 126.12 34.456C126.518 34.6577 126.831 34.9332 127.058 35.2827C127.288 35.6321 127.404 36.0284 127.407 36.4716C127.404 36.9347 127.278 37.348 127.028 37.7116C126.781 38.0724 126.453 38.3068 126.044 38.4148V38.4659C126.359 38.5227 126.643 38.6577 126.896 38.8707C127.149 39.081 127.35 39.3437 127.501 39.6591C127.652 39.9716 127.728 40.3125 127.731 40.6818C127.728 41.1534 127.6 41.5739 127.348 41.9432C127.098 42.3097 126.75 42.598 126.304 42.8082C125.86 43.0156 125.348 43.1193 124.765 43.1193ZM124.765 42.1818C125.16 42.1818 125.501 42.1179 125.788 41.9901C126.075 41.8622 126.297 41.6818 126.453 41.4489C126.609 41.2159 126.689 40.9432 126.691 40.6307C126.689 40.3011 126.603 40.0099 126.436 39.7571C126.268 39.5043 126.039 39.3054 125.75 39.1605C125.463 39.0156 125.135 38.9432 124.765 38.9432C124.393 38.9432 124.061 39.0156 123.768 39.1605C123.478 39.3054 123.25 39.5043 123.082 39.7571C122.917 40.0099 122.836 40.3011 122.839 40.6307C122.836 40.9432 122.912 41.2159 123.065 41.4489C123.221 41.6818 123.444 41.8622 123.734 41.9901C124.024 42.1179 124.368 42.1818 124.765 42.1818ZM124.765 38.0398C125.078 38.0398 125.355 37.9773 125.596 37.8523C125.841 37.7273 126.032 37.5526 126.172 37.3281C126.311 37.1037 126.382 36.8409 126.385 36.5398C126.382 36.2443 126.312 35.9872 126.176 35.7685C126.039 35.5469 125.85 35.3764 125.609 35.2571C125.368 35.1349 125.086 35.0739 124.765 35.0739C124.439 35.0739 124.153 35.1349 123.909 35.2571C123.664 35.3764 123.475 35.5469 123.342 35.7685C123.208 35.9872 123.143 36.2443 123.146 36.5398C123.143 36.8409 123.21 37.1037 123.346 37.3281C123.485 37.5526 123.677 37.7273 123.922 37.8523C124.166 37.9773 124.447 38.0398 124.765 38.0398Z" fill="#1E1E1E"/>
<rect x="82.5" y="70.5" width="79" height="29" stroke="#1E1E1E"/>
<path d="M99.9716 81.2727V90H98.9148V82.3807H98.8636L96.733 83.7955V82.7216L98.9148 81.2727H99.9716ZM105.328 90.1193C104.686 90.1193 104.139 89.9446 103.688 89.5952C103.236 89.2429 102.891 88.733 102.652 88.0653C102.413 87.3949 102.294 86.5852 102.294 85.6364C102.294 84.6932 102.413 83.8878 102.652 83.2202C102.893 82.5497 103.24 82.0384 103.692 81.6861C104.146 81.331 104.692 81.1534 105.328 81.1534C105.964 81.1534 106.509 81.331 106.96 81.6861C107.415 82.0384 107.761 82.5497 108 83.2202C108.241 83.8878 108.362 84.6932 108.362 85.6364C108.362 86.5852 108.243 87.3949 108.004 88.0653C107.766 88.733 107.42 89.2429 106.969 89.5952C106.517 89.9446 105.97 90.1193 105.328 90.1193ZM105.328 89.1818C105.964 89.1818 106.459 88.875 106.811 88.2614C107.163 87.6477 107.339 86.7727 107.339 85.6364C107.339 84.8807 107.259 84.2372 107.097 83.706C106.938 83.1747 106.707 82.7699 106.406 82.4915C106.108 82.2131 105.749 82.0739 105.328 82.0739C104.697 82.0739 104.205 82.3849 103.849 83.0071C103.494 83.6264 103.317 84.5028 103.317 85.6364C103.317 86.392 103.396 87.0341 103.555 87.5625C103.714 88.0909 103.943 88.4929 104.241 88.7685C104.543 89.044 104.905 89.1818 105.328 89.1818ZM113.05 81.2727V90H111.993V82.3807H111.942L109.811 83.7955V82.7216L111.993 81.2727H113.05ZM118.406 90.1193C117.764 90.1193 117.217 89.9446 116.766 89.5952C116.314 89.2429 115.969 88.733 115.73 88.0653C115.491 87.3949 115.372 86.5852 115.372 85.6364C115.372 84.6932 115.491 83.8878 115.73 83.2202C115.972 82.5497 116.318 82.0384 116.77 81.6861C117.224 81.331 117.77 81.1534 118.406 81.1534C119.043 81.1534 119.587 81.331 120.038 81.6861C120.493 82.0384 120.839 82.5497 121.078 83.2202C121.32 83.8878 121.44 84.6932 121.44 85.6364C121.44 86.5852 121.321 87.3949 121.082 88.0653C120.844 88.733 120.499 89.2429 120.047 89.5952C119.595 89.9446 119.048 90.1193 118.406 90.1193ZM118.406 89.1818C119.043 89.1818 119.537 88.875 119.889 88.2614C120.241 87.6477 120.418 86.7727 120.418 85.6364C120.418 84.8807 120.337 84.2372 120.175 83.706C120.016 83.1747 119.786 82.7699 119.484 82.4915C119.186 82.2131 118.827 82.0739 118.406 82.0739C117.776 82.0739 117.283 82.3849 116.928 83.0071C116.572 83.6264 116.395 84.5028 116.395 85.6364C116.395 86.392 116.474 87.0341 116.634 87.5625C116.793 88.0909 117.021 88.4929 117.32 88.7685C117.621 89.044 117.983 89.1818 118.406 89.1818ZM126.128 81.2727V90H125.071V82.3807H125.02L122.889 83.7955V82.7216L125.071 81.2727H126.128ZM131.484 90.1193C130.842 90.1193 130.295 89.9446 129.844 89.5952C129.392 89.2429 129.047 88.733 128.808 88.0653C128.57 87.3949 128.45 86.5852 128.45 85.6364C128.45 84.6932 128.57 83.8878 128.808 83.2202C129.05 82.5497 129.396 82.0384 129.848 81.6861C130.303 81.331 130.848 81.1534 131.484 81.1534C132.121 81.1534 132.665 81.331 133.116 81.6861C133.571 82.0384 133.918 82.5497 134.156 83.2202C134.398 83.8878 134.518 84.6932 134.518 85.6364C134.518 86.5852 134.399 87.3949 134.161 88.0653C133.922 88.733 133.577 89.2429 133.125 89.5952C132.673 89.9446 132.126 90.1193 131.484 90.1193ZM131.484 89.1818C132.121 89.1818 132.615 88.875 132.967 88.2614C133.32 87.6477 133.496 86.7727 133.496 85.6364C133.496 84.8807 133.415 84.2372 133.253 83.706C133.094 83.1747 132.864 82.7699 132.562 82.4915C132.264 82.2131 131.905 82.0739 131.484 82.0739C130.854 82.0739 130.361 82.3849 130.006 83.0071C129.651 83.6264 129.473 84.5028 129.473 85.6364C129.473 86.392 129.553 87.0341 129.712 87.5625C129.871 88.0909 130.099 88.4929 130.398 88.7685C130.699 89.044 131.061 89.1818 131.484 89.1818ZM138.984 90.1193C138.342 90.1193 137.795 89.9446 137.344 89.5952C136.892 89.2429 136.547 88.733 136.308 88.0653C136.07 87.3949 135.95 86.5852 135.95 85.6364C135.95 84.6932 136.07 83.8878 136.308 83.2202C136.55 82.5497 136.896 82.0384 137.348 81.6861C137.803 81.331 138.348 81.1534 138.984 81.1534C139.621 81.1534 140.165 81.331 140.616 81.6861C141.071 82.0384 141.418 82.5497 141.656 83.2202C141.898 83.8878 142.018 84.6932 142.018 85.6364C142.018 86.5852 141.899 87.3949 141.661 88.0653C141.422 88.733 141.077 89.2429 140.625 89.5952C140.173 89.9446 139.626 90.1193 138.984 90.1193ZM138.984 89.1818C139.621 89.1818 140.115 88.875 140.467 88.2614C140.82 87.6477 140.996 86.7727 140.996 85.6364C140.996 84.8807 140.915 84.2372 140.753 83.706C140.594 83.1747 140.364 82.7699 140.062 82.4915C139.764 82.2131 139.405 82.0739 138.984 82.0739C138.354 82.0739 137.861 82.3849 137.506 83.0071C137.151 83.6264 136.973 84.5028 136.973 85.6364C136.973 86.392 137.053 87.0341 137.212 87.5625C137.371 88.0909 137.599 88.4929 137.898 88.7685C138.199 89.044 138.561 89.1818 138.984 89.1818ZM146.484 90.1193C145.842 90.1193 145.295 89.9446 144.844 89.5952C144.392 89.2429 144.047 88.733 143.808 88.0653C143.57 87.3949 143.45 86.5852 143.45 85.6364C143.45 84.6932 143.57 83.8878 143.808 83.2202C144.05 82.5497 144.396 82.0384 144.848 81.6861C145.303 81.331 145.848 81.1534 146.484 81.1534C147.121 81.1534 147.665 81.331 148.116 81.6861C148.571 82.0384 148.918 82.5497 149.156 83.2202C149.398 83.8878 149.518 84.6932 149.518 85.6364C149.518 86.5852 149.399 87.3949 149.161 88.0653C148.922 88.733 148.577 89.2429 148.125 89.5952C147.673 89.9446 147.126 90.1193 146.484 90.1193ZM146.484 89.1818C147.121 89.1818 147.615 88.875 147.967 88.2614C148.32 87.6477 148.496 86.7727 148.496 85.6364C148.496 84.8807 148.415 84.2372 148.253 83.706C148.094 83.1747 147.864 82.7699 147.562 82.4915C147.264 82.2131 146.905 82.0739 146.484 82.0739C145.854 82.0739 145.361 82.3849 145.006 83.0071C144.651 83.6264 144.473 84.5028 144.473 85.6364C144.473 86.392 144.553 87.0341 144.712 87.5625C144.871 88.0909 145.099 88.4929 145.398 88.7685C145.699 89.044 146.061 89.1818 146.484 89.1818Z" fill="#1E1E1E"/>
<path d="M79.6534 50.0682C79.4432 50.0682 79.2628 49.9929 79.1122 49.8423C78.9616 49.6918 78.8864 49.5114 78.8864 49.3011C78.8864 49.0909 78.9616 48.9105 79.1122 48.7599C79.2628 48.6094 79.4432 48.5341 79.6534 48.5341C79.8636 48.5341 80.044 48.6094 80.1946 48.7599C80.3452 48.9105 80.4205 49.0909 80.4205 49.3011C80.4205 49.4403 80.3849 49.5682 80.3139 49.6847C80.2457 49.8011 80.1534 49.8949 80.0369 49.9659C79.9233 50.0341 79.7955 50.0682 79.6534 50.0682Z" fill="#1E1E1E"/>
<path d="M245.653 50.0682C245.443 50.0682 245.263 49.9929 245.112 49.8423C244.962 49.6918 244.886 49.5114 244.886 49.3011C244.886 49.0909 244.962 48.9105 245.112 48.7599C245.263 48.6094 245.443 48.5341 245.653 48.5341C245.864 48.5341 246.044 48.6094 246.195 48.7599C246.345 48.9105 246.42 49.0909 246.42 49.3011C246.42 49.4403 246.385 49.5682 246.314 49.6847C246.246 49.8011 246.153 49.8949 246.037 49.9659C245.923 50.0341 245.795 50.0682 245.653 50.0682Z" fill="#1E1E1E"/>
<path d="M163.653 50.0682C163.443 50.0682 163.263 49.9929 163.112 49.8423C162.962 49.6918 162.886 49.5114 162.886 49.3011C162.886 49.0909 162.962 48.9105 163.112 48.7599C163.263 48.6094 163.443 48.5341 163.653 48.5341C163.864 48.5341 164.044 48.6094 164.195 48.7599C164.345 48.9105 164.42 49.0909 164.42 49.3011C164.42 49.4403 164.385 49.5682 164.314 49.6847C164.246 49.8011 164.153 49.8949 164.037 49.9659C163.923 50.0341 163.795 50.0682 163.653 50.0682Z" fill="#1E1E1E"/>
<path d="M36.6464 69.3536C36.8417 69.5488 37.1583 69.5488 37.3536 69.3536L40.5355 66.1716C40.7308 65.9763 40.7308 65.6597 40.5355 65.4645C40.3403 65.2692 40.0237 65.2692 39.8284 65.4645L37 68.2929L34.1716 65.4645C33.9763 65.2692 33.6597 65.2692 33.4645 65.4645C33.2692 65.6597 33.2692 65.9763 33.4645 66.1716L36.6464 69.3536ZM37 54H36.5V69H37H37.5V54H37Z" fill="#1E1E1E"/>
<path d="M283.646 69.3536C283.842 69.5488 284.158 69.5488 284.354 69.3536L287.536 66.1716C287.731 65.9763 287.731 65.6597 287.536 65.4645C287.34 65.2692 287.024 65.2692 286.828 65.4645L284 68.2929L281.172 65.4645C280.976 65.2692 280.66 65.2692 280.464 65.4645C280.269 65.6597 280.269 65.9763 280.464 66.1716L283.646 69.3536ZM284 54H283.5V69H284H284.5V54H284Z" fill="#1E1E1E"/>
<path d="M200.646 70.3536C200.842 70.5488 201.158 70.5488 201.354 70.3536L204.536 67.1716C204.731 66.9763 204.731 66.6597 204.536 66.4645C204.34 66.2692 204.024 66.2692 203.828 66.4645L201 69.2929L198.172 66.4645C197.976 66.2692 197.66 66.2692 197.464 66.4645C197.269 66.6597 197.269 66.9763 197.464 67.1716L200.646 70.3536ZM201 55H200.5V70H201H201.5V55H201Z" fill="#1E1E1E"/>
<path d="M119.646 69.3536C119.842 69.5488 120.158 69.5488 120.354 69.3536L123.536 66.1716C123.731 65.9763 123.731 65.6597 123.536 65.4645C123.34 65.2692 123.024 65.2692 122.828 65.4645L120 68.2929L117.172 65.4645C116.976 65.2692 116.66 65.2692 116.464 65.4645C116.269 65.6597 116.269 65.9763 116.464 66.1716L119.646 69.3536ZM120 54H119.5V69H120H120.5V54H120Z" fill="#1E1E1E"/>
<path d="M28.6989 113.119C28.1136 113.119 27.5966 113.016 27.1477 112.808C26.7017 112.598 26.3537 112.31 26.1037 111.943C25.8537 111.574 25.7301 111.153 25.733 110.682C25.7301 110.312 25.8026 109.972 25.9503 109.659C26.098 109.344 26.2997 109.081 26.5554 108.871C26.8139 108.658 27.1023 108.523 27.4205 108.466V108.415C27.0028 108.307 26.6705 108.072 26.4233 107.712C26.1761 107.348 26.054 106.935 26.0568 106.472C26.054 106.028 26.1662 105.632 26.3935 105.283C26.6207 104.933 26.9332 104.658 27.331 104.456C27.7315 104.254 28.1875 104.153 28.6989 104.153C29.2045 104.153 29.6563 104.254 30.054 104.456C30.4517 104.658 30.7642 104.933 30.9915 105.283C31.2216 105.632 31.3381 106.028 31.3409 106.472C31.3381 106.935 31.2116 107.348 30.9616 107.712C30.7145 108.072 30.3864 108.307 29.9773 108.415V108.466C30.2926 108.523 30.5767 108.658 30.8295 108.871C31.0824 109.081 31.2841 109.344 31.4347 109.659C31.5852 109.972 31.6619 110.312 31.6648 110.682C31.6619 111.153 31.5341 111.574 31.2812 111.943C31.0312 112.31 30.6832 112.598 30.2372 112.808C29.794 113.016 29.2813 113.119 28.6989 113.119ZM28.6989 112.182C29.0938 112.182 29.4347 112.118 29.7216 111.99C30.0085 111.862 30.2301 111.682 30.3864 111.449C30.5426 111.216 30.6222 110.943 30.625 110.631C30.6222 110.301 30.5369 110.01 30.3693 109.757C30.2017 109.504 29.973 109.305 29.6832 109.161C29.3963 109.016 29.0682 108.943 28.6989 108.943C28.3267 108.943 27.9943 109.016 27.7017 109.161C27.4119 109.305 27.1832 109.504 27.0156 109.757C26.8509 110.01 26.7699 110.301 26.7727 110.631C26.7699 110.943 26.8452 111.216 26.9986 111.449C27.1548 111.682 27.3778 111.862 27.6676 111.99C27.9574 112.118 28.3011 112.182 28.6989 112.182ZM28.6989 108.04C29.0114 108.04 29.2884 107.977 29.5298 107.852C29.7741 107.727 29.9659 107.553 30.1051 107.328C30.2443 107.104 30.3153 106.841 30.3182 106.54C30.3153 106.244 30.2457 105.987 30.1094 105.768C29.973 105.547 29.7841 105.376 29.5426 105.257C29.3011 105.135 29.0199 105.074 28.6989 105.074C28.3722 105.074 28.0866 105.135 27.8423 105.257C27.598 105.376 27.4091 105.547 27.2756 105.768C27.142 105.987 27.0767 106.244 27.0795 106.54C27.0767 106.841 27.1435 107.104 27.2798 107.328C27.419 107.553 27.6108 107.727 27.8551 107.852C28.0994 107.977 28.3807 108.04 28.6989 108.04ZM36.8263 113V104.273H37.832V107.494H37.9173C37.9911 107.381 38.0934 107.236 38.2241 107.06C38.3576 106.881 38.5479 106.722 38.7951 106.582C39.0451 106.44 39.3832 106.369 39.8093 106.369C40.3604 106.369 40.8462 106.507 41.2667 106.783C41.6871 107.058 42.0153 107.449 42.2511 107.955C42.4869 108.46 42.6048 109.057 42.6048 109.744C42.6048 110.438 42.4869 111.038 42.2511 111.547C42.0153 112.053 41.6886 112.445 41.271 112.723C40.8533 112.999 40.3718 113.136 39.8263 113.136C39.4059 113.136 39.0692 113.067 38.8164 112.928C38.5636 112.786 38.369 112.625 38.2326 112.446C38.0962 112.264 37.9911 112.114 37.9173 111.994H37.7979V113H36.8263ZM37.815 109.727C37.815 110.222 37.8874 110.658 38.0323 111.036C38.1772 111.411 38.3888 111.705 38.6673 111.918C38.9457 112.128 39.2866 112.233 39.69 112.233C40.1104 112.233 40.4613 112.122 40.7425 111.901C41.0266 111.676 41.2397 111.375 41.3817 110.997C41.5266 110.616 41.5991 110.193 41.5991 109.727C41.5991 109.267 41.5281 108.852 41.386 108.483C41.2468 108.111 41.0352 107.817 40.7511 107.601C40.4698 107.382 40.1161 107.273 39.69 107.273C39.2809 107.273 38.9371 107.376 38.6587 107.584C38.3803 107.788 38.1701 108.075 38.0281 108.445C37.886 108.811 37.815 109.239 37.815 109.727ZM44.1431 113V106.455H45.1488V113H44.1431ZM44.6545 105.364C44.4585 105.364 44.2894 105.297 44.1474 105.163C44.0082 105.03 43.9386 104.869 43.9386 104.682C43.9386 104.494 44.0082 104.334 44.1474 104.2C44.2894 104.067 44.4585 104 44.6545 104C44.8505 104 45.0181 104.067 45.1573 104.2C45.2994 104.334 45.3704 104.494 45.3704 104.682C45.3704 104.869 45.2994 105.03 45.1573 105.163C45.0181 105.297 44.8505 105.364 44.6545 105.364ZM49.8374 106.455V107.307H46.4453V106.455H49.8374ZM47.4339 104.886H48.4396V111.125C48.4396 111.409 48.4808 111.622 48.5632 111.764C48.6484 111.903 48.7564 111.997 48.8871 112.045C49.0206 112.091 49.1612 112.114 49.3089 112.114C49.4197 112.114 49.5107 112.108 49.5817 112.097C49.6527 112.082 49.7095 112.071 49.7521 112.062L49.9567 112.966C49.8885 112.991 49.7933 113.017 49.6712 113.043C49.549 113.071 49.3942 113.085 49.2067 113.085C48.9226 113.085 48.6442 113.024 48.3714 112.902C48.1016 112.78 47.8771 112.594 47.6982 112.344C47.522 112.094 47.4339 111.778 47.4339 111.398V104.886ZM55.8693 107.92L54.9659 108.176C54.9091 108.026 54.8253 107.879 54.7145 107.737C54.6065 107.592 54.4588 107.473 54.2713 107.379C54.0838 107.286 53.8438 107.239 53.5511 107.239C53.1506 107.239 52.8168 107.331 52.5497 107.516C52.2855 107.697 52.1534 107.929 52.1534 108.21C52.1534 108.46 52.2443 108.658 52.4261 108.803C52.608 108.947 52.892 109.068 53.2784 109.165L54.25 109.403C54.8352 109.545 55.2713 109.763 55.5582 110.055C55.8452 110.345 55.9886 110.719 55.9886 111.176C55.9886 111.551 55.8807 111.886 55.6648 112.182C55.4517 112.477 55.1534 112.71 54.7699 112.881C54.3864 113.051 53.9403 113.136 53.4318 113.136C52.7642 113.136 52.2116 112.991 51.7741 112.702C51.3366 112.412 51.0597 111.989 50.9432 111.432L51.8977 111.193C51.9886 111.545 52.1605 111.81 52.4134 111.986C52.669 112.162 53.0028 112.25 53.4148 112.25C53.8835 112.25 54.2557 112.151 54.5312 111.952C54.8097 111.75 54.9489 111.509 54.9489 111.227C54.9489 111 54.8693 110.81 54.7102 110.656C54.5511 110.5 54.3068 110.384 53.9773 110.307L52.8864 110.051C52.2869 109.909 51.8466 109.689 51.5653 109.391C51.2869 109.089 51.1477 108.713 51.1477 108.261C51.1477 107.892 51.2514 107.565 51.4588 107.281C51.669 106.997 51.9545 106.774 52.3153 106.612C52.679 106.45 53.0909 106.369 53.5511 106.369C54.1989 106.369 54.7074 106.511 55.0767 106.795C55.4489 107.08 55.7131 107.455 55.8693 107.92Z" fill="#1E1E1E"/>
<path d="M272.699 113.119C272.114 113.119 271.597 113.016 271.148 112.808C270.702 112.598 270.354 112.31 270.104 111.943C269.854 111.574 269.73 111.153 269.733 110.682C269.73 110.312 269.803 109.972 269.95 109.659C270.098 109.344 270.3 109.081 270.555 108.871C270.814 108.658 271.102 108.523 271.42 108.466V108.415C271.003 108.307 270.67 108.072 270.423 107.712C270.176 107.348 270.054 106.935 270.057 106.472C270.054 106.028 270.166 105.632 270.393 105.283C270.621 104.933 270.933 104.658 271.331 104.456C271.732 104.254 272.188 104.153 272.699 104.153C273.205 104.153 273.656 104.254 274.054 104.456C274.452 104.658 274.764 104.933 274.991 105.283C275.222 105.632 275.338 106.028 275.341 106.472C275.338 106.935 275.212 107.348 274.962 107.712C274.714 108.072 274.386 108.307 273.977 108.415V108.466C274.293 108.523 274.577 108.658 274.83 108.871C275.082 109.081 275.284 109.344 275.435 109.659C275.585 109.972 275.662 110.312 275.665 110.682C275.662 111.153 275.534 111.574 275.281 111.943C275.031 112.31 274.683 112.598 274.237 112.808C273.794 113.016 273.281 113.119 272.699 113.119ZM272.699 112.182C273.094 112.182 273.435 112.118 273.722 111.99C274.009 111.862 274.23 111.682 274.386 111.449C274.543 111.216 274.622 110.943 274.625 110.631C274.622 110.301 274.537 110.01 274.369 109.757C274.202 109.504 273.973 109.305 273.683 109.161C273.396 109.016 273.068 108.943 272.699 108.943C272.327 108.943 271.994 109.016 271.702 109.161C271.412 109.305 271.183 109.504 271.016 109.757C270.851 110.01 270.77 110.301 270.773 110.631C270.77 110.943 270.845 111.216 270.999 111.449C271.155 111.682 271.378 111.862 271.668 111.99C271.957 112.118 272.301 112.182 272.699 112.182ZM272.699 108.04C273.011 108.04 273.288 107.977 273.53 107.852C273.774 107.727 273.966 107.553 274.105 107.328C274.244 107.104 274.315 106.841 274.318 106.54C274.315 106.244 274.246 105.987 274.109 105.768C273.973 105.547 273.784 105.376 273.543 105.257C273.301 105.135 273.02 105.074 272.699 105.074C272.372 105.074 272.087 105.135 271.842 105.257C271.598 105.376 271.409 105.547 271.276 105.768C271.142 105.987 271.077 106.244 271.08 106.54C271.077 106.841 271.143 107.104 271.28 107.328C271.419 107.553 271.611 107.727 271.855 107.852C272.099 107.977 272.381 108.04 272.699 108.04ZM280.826 113V104.273H281.832V107.494H281.917C281.991 107.381 282.093 107.236 282.224 107.06C282.358 106.881 282.548 106.722 282.795 106.582C283.045 106.44 283.383 106.369 283.809 106.369C284.36 106.369 284.846 106.507 285.267 106.783C285.687 107.058 286.015 107.449 286.251 107.955C286.487 108.46 286.605 109.057 286.605 109.744C286.605 110.438 286.487 111.038 286.251 111.547C286.015 112.053 285.689 112.445 285.271 112.723C284.853 112.999 284.372 113.136 283.826 113.136C283.406 113.136 283.069 113.067 282.816 112.928C282.564 112.786 282.369 112.625 282.233 112.446C282.096 112.264 281.991 112.114 281.917 111.994H281.798V113H280.826ZM281.815 109.727C281.815 110.222 281.887 110.658 282.032 111.036C282.177 111.411 282.389 111.705 282.667 111.918C282.946 112.128 283.287 112.233 283.69 112.233C284.11 112.233 284.461 112.122 284.743 111.901C285.027 111.676 285.24 111.375 285.382 110.997C285.527 110.616 285.599 110.193 285.599 109.727C285.599 109.267 285.528 108.852 285.386 108.483C285.247 108.111 285.035 107.817 284.751 107.601C284.47 107.382 284.116 107.273 283.69 107.273C283.281 107.273 282.937 107.376 282.659 107.584C282.38 107.788 282.17 108.075 282.028 108.445C281.886 108.811 281.815 109.239 281.815 109.727ZM288.143 113V106.455H289.149V113H288.143ZM288.654 105.364C288.458 105.364 288.289 105.297 288.147 105.163C288.008 105.03 287.939 104.869 287.939 104.682C287.939 104.494 288.008 104.334 288.147 104.2C288.289 104.067 288.458 104 288.654 104C288.85 104 289.018 104.067 289.157 104.2C289.299 104.334 289.37 104.494 289.37 104.682C289.37 104.869 289.299 105.03 289.157 105.163C289.018 105.297 288.85 105.364 288.654 105.364ZM293.837 106.455V107.307H290.445V106.455H293.837ZM291.434 104.886H292.44V111.125C292.44 111.409 292.481 111.622 292.563 111.764C292.648 111.903 292.756 111.997 292.887 112.045C293.021 112.091 293.161 112.114 293.309 112.114C293.42 112.114 293.511 112.108 293.582 112.097C293.653 112.082 293.71 112.071 293.752 112.062L293.957 112.966C293.888 112.991 293.793 113.017 293.671 113.043C293.549 113.071 293.394 113.085 293.207 113.085C292.923 113.085 292.644 113.024 292.371 112.902C292.102 112.78 291.877 112.594 291.698 112.344C291.522 112.094 291.434 111.778 291.434 111.398V104.886ZM299.869 107.92L298.966 108.176C298.909 108.026 298.825 107.879 298.714 107.737C298.607 107.592 298.459 107.473 298.271 107.379C298.084 107.286 297.844 107.239 297.551 107.239C297.151 107.239 296.817 107.331 296.55 107.516C296.286 107.697 296.153 107.929 296.153 108.21C296.153 108.46 296.244 108.658 296.426 108.803C296.608 108.947 296.892 109.068 297.278 109.165L298.25 109.403C298.835 109.545 299.271 109.763 299.558 110.055C299.845 110.345 299.989 110.719 299.989 111.176C299.989 111.551 299.881 111.886 299.665 112.182C299.452 112.477 299.153 112.71 298.77 112.881C298.386 113.051 297.94 113.136 297.432 113.136C296.764 113.136 296.212 112.991 295.774 112.702C295.337 112.412 295.06 111.989 294.943 111.432L295.898 111.193C295.989 111.545 296.161 111.81 296.413 111.986C296.669 112.162 297.003 112.25 297.415 112.25C297.884 112.25 298.256 112.151 298.531 111.952C298.81 111.75 298.949 111.509 298.949 111.227C298.949 111 298.869 110.81 298.71 110.656C298.551 110.5 298.307 110.384 297.977 110.307L296.886 110.051C296.287 109.909 295.847 109.689 295.565 109.391C295.287 109.089 295.148 108.713 295.148 108.261C295.148 107.892 295.251 107.565 295.459 107.281C295.669 106.997 295.955 106.774 296.315 106.612C296.679 106.45 297.091 106.369 297.551 106.369C298.199 106.369 298.707 106.511 299.077 106.795C299.449 107.08 299.713 107.455 299.869 107.92Z" fill="#1E1E1E"/>
<path d="M186.699 113.119C186.114 113.119 185.597 113.016 185.148 112.808C184.702 112.598 184.354 112.31 184.104 111.943C183.854 111.574 183.73 111.153 183.733 110.682C183.73 110.312 183.803 109.972 183.95 109.659C184.098 109.344 184.3 109.081 184.555 108.871C184.814 108.658 185.102 108.523 185.42 108.466V108.415C185.003 108.307 184.67 108.072 184.423 107.712C184.176 107.348 184.054 106.935 184.057 106.472C184.054 106.028 184.166 105.632 184.393 105.283C184.621 104.933 184.933 104.658 185.331 104.456C185.732 104.254 186.188 104.153 186.699 104.153C187.205 104.153 187.656 104.254 188.054 104.456C188.452 104.658 188.764 104.933 188.991 105.283C189.222 105.632 189.338 106.028 189.341 106.472C189.338 106.935 189.212 107.348 188.962 107.712C188.714 108.072 188.386 108.307 187.977 108.415V108.466C188.293 108.523 188.577 108.658 188.83 108.871C189.082 109.081 189.284 109.344 189.435 109.659C189.585 109.972 189.662 110.312 189.665 110.682C189.662 111.153 189.534 111.574 189.281 111.943C189.031 112.31 188.683 112.598 188.237 112.808C187.794 113.016 187.281 113.119 186.699 113.119ZM186.699 112.182C187.094 112.182 187.435 112.118 187.722 111.99C188.009 111.862 188.23 111.682 188.386 111.449C188.543 111.216 188.622 110.943 188.625 110.631C188.622 110.301 188.537 110.01 188.369 109.757C188.202 109.504 187.973 109.305 187.683 109.161C187.396 109.016 187.068 108.943 186.699 108.943C186.327 108.943 185.994 109.016 185.702 109.161C185.412 109.305 185.183 109.504 185.016 109.757C184.851 110.01 184.77 110.301 184.773 110.631C184.77 110.943 184.845 111.216 184.999 111.449C185.155 111.682 185.378 111.862 185.668 111.99C185.957 112.118 186.301 112.182 186.699 112.182ZM186.699 108.04C187.011 108.04 187.288 107.977 187.53 107.852C187.774 107.727 187.966 107.553 188.105 107.328C188.244 107.104 188.315 106.841 188.318 106.54C188.315 106.244 188.246 105.987 188.109 105.768C187.973 105.547 187.784 105.376 187.543 105.257C187.301 105.135 187.02 105.074 186.699 105.074C186.372 105.074 186.087 105.135 185.842 105.257C185.598 105.376 185.409 105.547 185.276 105.768C185.142 105.987 185.077 106.244 185.08 106.54C185.077 106.841 185.143 107.104 185.28 107.328C185.419 107.553 185.611 107.727 185.855 107.852C186.099 107.977 186.381 108.04 186.699 108.04ZM194.826 113V104.273H195.832V107.494H195.917C195.991 107.381 196.093 107.236 196.224 107.06C196.358 106.881 196.548 106.722 196.795 106.582C197.045 106.44 197.383 106.369 197.809 106.369C198.36 106.369 198.846 106.507 199.267 106.783C199.687 107.058 200.015 107.449 200.251 107.955C200.487 108.46 200.605 109.057 200.605 109.744C200.605 110.438 200.487 111.038 200.251 111.547C200.015 112.053 199.689 112.445 199.271 112.723C198.853 112.999 198.372 113.136 197.826 113.136C197.406 113.136 197.069 113.067 196.816 112.928C196.564 112.786 196.369 112.625 196.233 112.446C196.096 112.264 195.991 112.114 195.917 111.994H195.798V113H194.826ZM195.815 109.727C195.815 110.222 195.887 110.658 196.032 111.036C196.177 111.411 196.389 111.705 196.667 111.918C196.946 112.128 197.287 112.233 197.69 112.233C198.11 112.233 198.461 112.122 198.743 111.901C199.027 111.676 199.24 111.375 199.382 110.997C199.527 110.616 199.599 110.193 199.599 109.727C199.599 109.267 199.528 108.852 199.386 108.483C199.247 108.111 199.035 107.817 198.751 107.601C198.47 107.382 198.116 107.273 197.69 107.273C197.281 107.273 196.937 107.376 196.659 107.584C196.38 107.788 196.17 108.075 196.028 108.445C195.886 108.811 195.815 109.239 195.815 109.727ZM202.143 113V106.455H203.149V113H202.143ZM202.654 105.364C202.458 105.364 202.289 105.297 202.147 105.163C202.008 105.03 201.939 104.869 201.939 104.682C201.939 104.494 202.008 104.334 202.147 104.2C202.289 104.067 202.458 104 202.654 104C202.85 104 203.018 104.067 203.157 104.2C203.299 104.334 203.37 104.494 203.37 104.682C203.37 104.869 203.299 105.03 203.157 105.163C203.018 105.297 202.85 105.364 202.654 105.364ZM207.837 106.455V107.307H204.445V106.455H207.837ZM205.434 104.886H206.44V111.125C206.44 111.409 206.481 111.622 206.563 111.764C206.648 111.903 206.756 111.997 206.887 112.045C207.021 112.091 207.161 112.114 207.309 112.114C207.42 112.114 207.511 112.108 207.582 112.097C207.653 112.082 207.71 112.071 207.752 112.062L207.957 112.966C207.888 112.991 207.793 113.017 207.671 113.043C207.549 113.071 207.394 113.085 207.207 113.085C206.923 113.085 206.644 113.024 206.371 112.902C206.102 112.78 205.877 112.594 205.698 112.344C205.522 112.094 205.434 111.778 205.434 111.398V104.886ZM213.869 107.92L212.966 108.176C212.909 108.026 212.825 107.879 212.714 107.737C212.607 107.592 212.459 107.473 212.271 107.379C212.084 107.286 211.844 107.239 211.551 107.239C211.151 107.239 210.817 107.331 210.55 107.516C210.286 107.697 210.153 107.929 210.153 108.21C210.153 108.46 210.244 108.658 210.426 108.803C210.608 108.947 210.892 109.068 211.278 109.165L212.25 109.403C212.835 109.545 213.271 109.763 213.558 110.055C213.845 110.345 213.989 110.719 213.989 111.176C213.989 111.551 213.881 111.886 213.665 112.182C213.452 112.477 213.153 112.71 212.77 112.881C212.386 113.051 211.94 113.136 211.432 113.136C210.764 113.136 210.212 112.991 209.774 112.702C209.337 112.412 209.06 111.989 208.943 111.432L209.898 111.193C209.989 111.545 210.161 111.81 210.413 111.986C210.669 112.162 211.003 112.25 211.415 112.25C211.884 112.25 212.256 112.151 212.531 111.952C212.81 111.75 212.949 111.509 212.949 111.227C212.949 111 212.869 110.81 212.71 110.656C212.551 110.5 212.307 110.384 211.977 110.307L210.886 110.051C210.287 109.909 209.847 109.689 209.565 109.391C209.287 109.089 209.148 108.713 209.148 108.261C209.148 107.892 209.251 107.565 209.459 107.281C209.669 106.997 209.955 106.774 210.315 106.612C210.679 106.45 211.091 106.369 211.551 106.369C212.199 106.369 212.707 106.511 213.077 106.795C213.449 107.08 213.713 107.455 213.869 107.92Z" fill="#1E1E1E"/>
<path d="M105.699 113.119C105.114 113.119 104.597 113.016 104.148 112.808C103.702 112.598 103.354 112.31 103.104 111.943C102.854 111.574 102.73 111.153 102.733 110.682C102.73 110.312 102.803 109.972 102.95 109.659C103.098 109.344 103.3 109.081 103.555 108.871C103.814 108.658 104.102 108.523 104.42 108.466V108.415C104.003 108.307 103.67 108.072 103.423 107.712C103.176 107.348 103.054 106.935 103.057 106.472C103.054 106.028 103.166 105.632 103.393 105.283C103.621 104.933 103.933 104.658 104.331 104.456C104.732 104.254 105.188 104.153 105.699 104.153C106.205 104.153 106.656 104.254 107.054 104.456C107.452 104.658 107.764 104.933 107.991 105.283C108.222 105.632 108.338 106.028 108.341 106.472C108.338 106.935 108.212 107.348 107.962 107.712C107.714 108.072 107.386 108.307 106.977 108.415V108.466C107.293 108.523 107.577 108.658 107.83 108.871C108.082 109.081 108.284 109.344 108.435 109.659C108.585 109.972 108.662 110.312 108.665 110.682C108.662 111.153 108.534 111.574 108.281 111.943C108.031 112.31 107.683 112.598 107.237 112.808C106.794 113.016 106.281 113.119 105.699 113.119ZM105.699 112.182C106.094 112.182 106.435 112.118 106.722 111.99C107.009 111.862 107.23 111.682 107.386 111.449C107.543 111.216 107.622 110.943 107.625 110.631C107.622 110.301 107.537 110.01 107.369 109.757C107.202 109.504 106.973 109.305 106.683 109.161C106.396 109.016 106.068 108.943 105.699 108.943C105.327 108.943 104.994 109.016 104.702 109.161C104.412 109.305 104.183 109.504 104.016 109.757C103.851 110.01 103.77 110.301 103.773 110.631C103.77 110.943 103.845 111.216 103.999 111.449C104.155 111.682 104.378 111.862 104.668 111.99C104.957 112.118 105.301 112.182 105.699 112.182ZM105.699 108.04C106.011 108.04 106.288 107.977 106.53 107.852C106.774 107.727 106.966 107.553 107.105 107.328C107.244 107.104 107.315 106.841 107.318 106.54C107.315 106.244 107.246 105.987 107.109 105.768C106.973 105.547 106.784 105.376 106.543 105.257C106.301 105.135 106.02 105.074 105.699 105.074C105.372 105.074 105.087 105.135 104.842 105.257C104.598 105.376 104.409 105.547 104.276 105.768C104.142 105.987 104.077 106.244 104.08 106.54C104.077 106.841 104.143 107.104 104.28 107.328C104.419 107.553 104.611 107.727 104.855 107.852C105.099 107.977 105.381 108.04 105.699 108.04ZM113.826 113V104.273H114.832V107.494H114.917C114.991 107.381 115.093 107.236 115.224 107.06C115.358 106.881 115.548 106.722 115.795 106.582C116.045 106.44 116.383 106.369 116.809 106.369C117.36 106.369 117.846 106.507 118.267 106.783C118.687 107.058 119.015 107.449 119.251 107.955C119.487 108.46 119.605 109.057 119.605 109.744C119.605 110.438 119.487 111.038 119.251 111.547C119.015 112.053 118.689 112.445 118.271 112.723C117.853 112.999 117.372 113.136 116.826 113.136C116.406 113.136 116.069 113.067 115.816 112.928C115.564 112.786 115.369 112.625 115.233 112.446C115.096 112.264 114.991 112.114 114.917 111.994H114.798V113H113.826ZM114.815 109.727C114.815 110.222 114.887 110.658 115.032 111.036C115.177 111.411 115.389 111.705 115.667 111.918C115.946 112.128 116.287 112.233 116.69 112.233C117.11 112.233 117.461 112.122 117.743 111.901C118.027 111.676 118.24 111.375 118.382 110.997C118.527 110.616 118.599 110.193 118.599 109.727C118.599 109.267 118.528 108.852 118.386 108.483C118.247 108.111 118.035 107.817 117.751 107.601C117.47 107.382 117.116 107.273 116.69 107.273C116.281 107.273 115.937 107.376 115.659 107.584C115.38 107.788 115.17 108.075 115.028 108.445C114.886 108.811 114.815 109.239 114.815 109.727ZM121.143 113V106.455H122.149V113H121.143ZM121.654 105.364C121.458 105.364 121.289 105.297 121.147 105.163C121.008 105.03 120.939 104.869 120.939 104.682C120.939 104.494 121.008 104.334 121.147 104.2C121.289 104.067 121.458 104 121.654 104C121.85 104 122.018 104.067 122.157 104.2C122.299 104.334 122.37 104.494 122.37 104.682C122.37 104.869 122.299 105.03 122.157 105.163C122.018 105.297 121.85 105.364 121.654 105.364ZM126.837 106.455V107.307H123.445V106.455H126.837ZM124.434 104.886H125.44V111.125C125.44 111.409 125.481 111.622 125.563 111.764C125.648 111.903 125.756 111.997 125.887 112.045C126.021 112.091 126.161 112.114 126.309 112.114C126.42 112.114 126.511 112.108 126.582 112.097C126.653 112.082 126.71 112.071 126.752 112.062L126.957 112.966C126.888 112.991 126.793 113.017 126.671 113.043C126.549 113.071 126.394 113.085 126.207 113.085C125.923 113.085 125.644 113.024 125.371 112.902C125.102 112.78 124.877 112.594 124.698 112.344C124.522 112.094 124.434 111.778 124.434 111.398V104.886ZM132.869 107.92L131.966 108.176C131.909 108.026 131.825 107.879 131.714 107.737C131.607 107.592 131.459 107.473 131.271 107.379C131.084 107.286 130.844 107.239 130.551 107.239C130.151 107.239 129.817 107.331 129.55 107.516C129.286 107.697 129.153 107.929 129.153 108.21C129.153 108.46 129.244 108.658 129.426 108.803C129.608 108.947 129.892 109.068 130.278 109.165L131.25 109.403C131.835 109.545 132.271 109.763 132.558 110.055C132.845 110.345 132.989 110.719 132.989 111.176C132.989 111.551 132.881 111.886 132.665 112.182C132.452 112.477 132.153 112.71 131.77 112.881C131.386 113.051 130.94 113.136 130.432 113.136C129.764 113.136 129.212 112.991 128.774 112.702C128.337 112.412 128.06 111.989 127.943 111.432L128.898 111.193C128.989 111.545 129.161 111.81 129.413 111.986C129.669 112.162 130.003 112.25 130.415 112.25C130.884 112.25 131.256 112.151 131.531 111.952C131.81 111.75 131.949 111.509 131.949 111.227C131.949 111 131.869 110.81 131.71 110.656C131.551 110.5 131.307 110.384 130.977 110.307L129.886 110.051C129.287 109.909 128.847 109.689 128.565 109.391C128.287 109.089 128.148 108.713 128.148 108.261C128.148 107.892 128.251 107.565 128.459 107.281C128.669 106.997 128.955 106.774 129.315 106.612C129.679 106.45 130.091 106.369 130.551 106.369C131.199 106.369 131.707 106.511 132.077 106.795C132.449 107.08 132.713 107.455 132.869 107.92Z" fill="#1E1E1E"/>
</svg>
