<svg width="416" height="161" viewBox="0 0 416 161" fill="none" xmlns="http://www.w3.org/2000/svg">
<path d="M11.9574 41.9091V55H10.3722V43.571H10.2955L7.09943 45.6932V44.0824L10.3722 41.9091H11.9574ZM20.3246 41.9091V55H18.7393V43.571H18.6626L15.4666 45.6932V44.0824L18.7393 41.9091H20.3246ZM28.3594 55.179C27.3963 55.179 26.576 54.9169 25.8984 54.3928C25.2209 53.8643 24.7031 53.0994 24.3452 52.098C23.9872 51.0923 23.8082 49.8778 23.8082 48.4545C23.8082 47.0398 23.9872 45.8317 24.3452 44.8303C24.7074 43.8246 25.2273 43.0575 25.9048 42.5291C26.5866 41.9964 27.4048 41.7301 28.3594 41.7301C29.3139 41.7301 30.13 41.9964 30.8075 42.5291C31.4893 43.0575 32.0092 43.8246 32.3672 44.8303C32.7294 45.8317 32.9105 47.0398 32.9105 48.4545C32.9105 49.8778 32.7315 51.0923 32.3736 52.098C32.0156 53.0994 31.4979 53.8643 30.8203 54.3928C30.1428 54.9169 29.3224 55.179 28.3594 55.179ZM28.3594 53.7727C29.3139 53.7727 30.0554 53.3125 30.5838 52.392C31.1122 51.4716 31.3764 50.1591 31.3764 48.4545C31.3764 47.321 31.255 46.3558 31.0121 45.5589C30.7734 44.7621 30.4283 44.1548 29.9766 43.7372C29.5291 43.3196 28.9901 43.1108 28.3594 43.1108C27.4134 43.1108 26.674 43.5774 26.1413 44.5107C25.6087 45.4396 25.3423 46.7543 25.3423 48.4545C25.3423 49.5881 25.4616 50.5511 25.7003 51.3438C25.9389 52.1364 26.282 52.7393 26.7294 53.1527C27.1811 53.5661 27.7244 53.7727 28.3594 53.7727ZM39.6094 55.179C38.6463 55.179 37.826 54.9169 37.1484 54.3928C36.4709 53.8643 35.9531 53.0994 35.5952 52.098C35.2372 51.0923 35.0582 49.8778 35.0582 48.4545C35.0582 47.0398 35.2372 45.8317 35.5952 44.8303C35.9574 43.8246 36.4773 43.0575 37.1548 42.5291C37.8366 41.9964 38.6548 41.7301 39.6094 41.7301C40.5639 41.7301 41.38 41.9964 42.0575 42.5291C42.7393 43.0575 43.2592 43.8246 43.6172 44.8303C43.9794 45.8317 44.1605 47.0398 44.1605 48.4545C44.1605 49.8778 43.9815 51.0923 43.6236 52.098C43.2656 53.0994 42.7479 53.8643 42.0703 54.3928C41.3928 54.9169 40.5724 55.179 39.6094 55.179ZM39.6094 53.7727C40.5639 53.7727 41.3054 53.3125 41.8338 52.392C42.3622 51.4716 42.6264 50.1591 42.6264 48.4545C42.6264 47.321 42.505 46.3558 42.2621 45.5589C42.0234 44.7621 41.6783 44.1548 41.2266 43.7372C40.7791 43.3196 40.2401 43.1108 39.6094 43.1108C38.6634 43.1108 37.924 43.5774 37.3913 44.5107C36.8587 45.4396 36.5923 46.7543 36.5923 48.4545C36.5923 49.5881 36.7116 50.5511 36.9503 51.3438C37.1889 52.1364 37.532 52.7393 37.9794 53.1527C38.4311 53.5661 38.9744 53.7727 39.6094 53.7727ZM50.8594 55.179C49.8963 55.179 49.076 54.9169 48.3984 54.3928C47.7209 53.8643 47.2031 53.0994 46.8452 52.098C46.4872 51.0923 46.3082 49.8778 46.3082 48.4545C46.3082 47.0398 46.4872 45.8317 46.8452 44.8303C47.2074 43.8246 47.7273 43.0575 48.4048 42.5291C49.0866 41.9964 49.9048 41.7301 50.8594 41.7301C51.8139 41.7301 52.63 41.9964 53.3075 42.5291C53.9893 43.0575 54.5092 43.8246 54.8672 44.8303C55.2294 45.8317 55.4105 47.0398 55.4105 48.4545C55.4105 49.8778 55.2315 51.0923 54.8736 52.098C54.5156 53.0994 53.9979 53.8643 53.3203 54.3928C52.6428 54.9169 51.8224 55.179 50.8594 55.179ZM50.8594 53.7727C51.8139 53.7727 52.5554 53.3125 53.0838 52.392C53.6122 51.4716 53.8764 50.1591 53.8764 48.4545C53.8764 47.321 53.755 46.3558 53.5121 45.5589C53.2734 44.7621 52.9283 44.1548 52.4766 43.7372C52.0291 43.3196 51.4901 43.1108 50.8594 43.1108C49.9134 43.1108 49.174 43.5774 48.6413 44.5107C48.1087 45.4396 47.8423 46.7543 47.8423 48.4545C47.8423 49.5881 47.9616 50.5511 48.2003 51.3438C48.4389 52.1364 48.782 52.7393 49.2294 53.1527C49.6811 53.5661 50.2244 53.7727 50.8594 53.7727ZM62.1094 55.179C61.1463 55.179 60.326 54.9169 59.6484 54.3928C58.9709 53.8643 58.4531 53.0994 58.0952 52.098C57.7372 51.0923 57.5582 49.8778 57.5582 48.4545C57.5582 47.0398 57.7372 45.8317 58.0952 44.8303C58.4574 43.8246 58.9773 43.0575 59.6548 42.5291C60.3366 41.9964 61.1548 41.7301 62.1094 41.7301C63.0639 41.7301 63.88 41.9964 64.5575 42.5291C65.2393 43.0575 65.7592 43.8246 66.1172 44.8303C66.4794 45.8317 66.6605 47.0398 66.6605 48.4545C66.6605 49.8778 66.4815 51.0923 66.1236 52.098C65.7656 53.0994 65.2479 53.8643 64.5703 54.3928C63.8928 54.9169 63.0724 55.179 62.1094 55.179ZM62.1094 53.7727C63.0639 53.7727 63.8054 53.3125 64.3338 52.392C64.8622 51.4716 65.1264 50.1591 65.1264 48.4545C65.1264 47.321 65.005 46.3558 64.7621 45.5589C64.5234 44.7621 64.1783 44.1548 63.7266 43.7372C63.2791 43.3196 62.7401 43.1108 62.1094 43.1108C61.1634 43.1108 60.424 43.5774 59.8913 44.5107C59.3587 45.4396 59.0923 46.7543 59.0923 48.4545C59.0923 49.5881 59.2116 50.5511 59.4503 51.3438C59.6889 52.1364 60.032 52.7393 60.4794 53.1527C60.9311 53.5661 61.4744 53.7727 62.1094 53.7727ZM73.3594 55.179C72.3963 55.179 71.576 54.9169 70.8984 54.3928C70.2209 53.8643 69.7031 53.0994 69.3452 52.098C68.9872 51.0923 68.8082 49.8778 68.8082 48.4545C68.8082 47.0398 68.9872 45.8317 69.3452 44.8303C69.7074 43.8246 70.2273 43.0575 70.9048 42.5291C71.5866 41.9964 72.4048 41.7301 73.3594 41.7301C74.3139 41.7301 75.13 41.9964 75.8075 42.5291C76.4893 43.0575 77.0092 43.8246 77.3672 44.8303C77.7294 45.8317 77.9105 47.0398 77.9105 48.4545C77.9105 49.8778 77.7315 51.0923 77.3736 52.098C77.0156 53.0994 76.4979 53.8643 75.8203 54.3928C75.1428 54.9169 74.3224 55.179 73.3594 55.179ZM73.3594 53.7727C74.3139 53.7727 75.0554 53.3125 75.5838 52.392C76.1122 51.4716 76.3764 50.1591 76.3764 48.4545C76.3764 47.321 76.255 46.3558 76.0121 45.5589C75.7734 44.7621 75.4283 44.1548 74.9766 43.7372C74.5291 43.3196 73.9901 43.1108 73.3594 43.1108C72.4134 43.1108 71.674 43.5774 71.1413 44.5107C70.6087 45.4396 70.3423 46.7543 70.3423 48.4545C70.3423 49.5881 70.4616 50.5511 70.7003 51.3438C70.9389 52.1364 71.282 52.7393 71.7294 53.1527C72.1811 53.5661 72.7244 53.7727 73.3594 53.7727ZM84.6094 55.179C83.6463 55.179 82.826 54.9169 82.1484 54.3928C81.4709 53.8643 80.9531 53.0994 80.5952 52.098C80.2372 51.0923 80.0582 49.8778 80.0582 48.4545C80.0582 47.0398 80.2372 45.8317 80.5952 44.8303C80.9574 43.8246 81.4773 43.0575 82.1548 42.5291C82.8366 41.9964 83.6548 41.7301 84.6094 41.7301C85.5639 41.7301 86.38 41.9964 87.0575 42.5291C87.7393 43.0575 88.2592 43.8246 88.6172 44.8303C88.9794 45.8317 89.1605 47.0398 89.1605 48.4545C89.1605 49.8778 88.9815 51.0923 88.6236 52.098C88.2656 53.0994 87.7479 53.8643 87.0703 54.3928C86.3928 54.9169 85.5724 55.179 84.6094 55.179ZM84.6094 53.7727C85.5639 53.7727 86.3054 53.3125 86.8338 52.392C87.3622 51.4716 87.6264 50.1591 87.6264 48.4545C87.6264 47.321 87.505 46.3558 87.2621 45.5589C87.0234 44.7621 86.6783 44.1548 86.2266 43.7372C85.7791 43.3196 85.2401 43.1108 84.6094 43.1108C83.6634 43.1108 82.924 43.5774 82.3913 44.5107C81.8587 45.4396 81.5923 46.7543 81.5923 48.4545C81.5923 49.5881 81.7116 50.5511 81.9503 51.3438C82.1889 52.1364 82.532 52.7393 82.9794 53.1527C83.4311 53.5661 83.9744 53.7727 84.6094 53.7727Z" fill="black"/>
<path d="M336.625 54.179C335.662 54.179 334.842 53.9169 334.164 53.3928C333.487 52.8643 332.969 52.0994 332.611 51.098C332.253 50.0923 332.074 48.8778 332.074 47.4545C332.074 46.0398 332.253 44.8317 332.611 43.8303C332.973 42.8246 333.493 42.0575 334.17 41.5291C334.852 40.9964 335.67 40.7301 336.625 40.7301C337.58 40.7301 338.396 40.9964 339.073 41.5291C339.755 42.0575 340.275 42.8246 340.633 43.8303C340.995 44.8317 341.176 46.0398 341.176 47.4545C341.176 48.8778 340.997 50.0923 340.639 51.098C340.281 52.0994 339.763 52.8643 339.086 53.3928C338.408 53.9169 337.588 54.179 336.625 54.179ZM336.625 52.7727C337.58 52.7727 338.321 52.3125 338.849 51.392C339.378 50.4716 339.642 49.1591 339.642 47.4545C339.642 46.321 339.521 45.3558 339.278 44.5589C339.039 43.7621 338.694 43.1548 338.242 42.7372C337.795 42.3196 337.256 42.1108 336.625 42.1108C335.679 42.1108 334.94 42.5774 334.407 43.5107C333.874 44.4396 333.608 45.7543 333.608 47.4545C333.608 48.5881 333.727 49.5511 333.966 50.3438C334.205 51.1364 334.548 51.7393 334.995 52.1527C335.447 52.5661 335.99 52.7727 336.625 52.7727ZM347.875 54.179C346.912 54.179 346.092 53.9169 345.414 53.3928C344.737 52.8643 344.219 52.0994 343.861 51.098C343.503 50.0923 343.324 48.8778 343.324 47.4545C343.324 46.0398 343.503 44.8317 343.861 43.8303C344.223 42.8246 344.743 42.0575 345.42 41.5291C346.102 40.9964 346.92 40.7301 347.875 40.7301C348.83 40.7301 349.646 40.9964 350.323 41.5291C351.005 42.0575 351.525 42.8246 351.883 43.8303C352.245 44.8317 352.426 46.0398 352.426 47.4545C352.426 48.8778 352.247 50.0923 351.889 51.098C351.531 52.0994 351.013 52.8643 350.336 53.3928C349.658 53.9169 348.838 54.179 347.875 54.179ZM347.875 52.7727C348.83 52.7727 349.571 52.3125 350.099 51.392C350.628 50.4716 350.892 49.1591 350.892 47.4545C350.892 46.321 350.771 45.3558 350.528 44.5589C350.289 43.7621 349.944 43.1548 349.492 42.7372C349.045 42.3196 348.506 42.1108 347.875 42.1108C346.929 42.1108 346.19 42.5774 345.657 43.5107C345.124 44.4396 344.858 45.7543 344.858 47.4545C344.858 48.5881 344.977 49.5511 345.216 50.3438C345.455 51.1364 345.798 51.7393 346.245 52.1527C346.697 52.5661 347.24 52.7727 347.875 52.7727ZM359.125 54.179C358.162 54.179 357.342 53.9169 356.664 53.3928C355.987 52.8643 355.469 52.0994 355.111 51.098C354.753 50.0923 354.574 48.8778 354.574 47.4545C354.574 46.0398 354.753 44.8317 355.111 43.8303C355.473 42.8246 355.993 42.0575 356.67 41.5291C357.352 40.9964 358.17 40.7301 359.125 40.7301C360.08 40.7301 360.896 40.9964 361.573 41.5291C362.255 42.0575 362.775 42.8246 363.133 43.8303C363.495 44.8317 363.676 46.0398 363.676 47.4545C363.676 48.8778 363.497 50.0923 363.139 51.098C362.781 52.0994 362.263 52.8643 361.586 53.3928C360.908 53.9169 360.088 54.179 359.125 54.179ZM359.125 52.7727C360.08 52.7727 360.821 52.3125 361.349 51.392C361.878 50.4716 362.142 49.1591 362.142 47.4545C362.142 46.321 362.021 45.3558 361.778 44.5589C361.539 43.7621 361.194 43.1548 360.742 42.7372C360.295 42.3196 359.756 42.1108 359.125 42.1108C358.179 42.1108 357.44 42.5774 356.907 43.5107C356.374 44.4396 356.108 45.7543 356.108 47.4545C356.108 48.5881 356.227 49.5511 356.466 50.3438C356.705 51.1364 357.048 51.7393 357.495 52.1527C357.947 52.5661 358.49 52.7727 359.125 52.7727ZM370.707 40.9091V54H369.122V42.571H369.045L365.849 44.6932V43.0824L369.122 40.9091H370.707ZM379.075 40.9091V54H377.489V42.571H377.413L374.217 44.6932V43.0824L377.489 40.9091H379.075ZM387.442 40.9091V54H385.857V42.571H385.78L382.584 44.6932V43.0824L385.857 40.9091H387.442ZM395.809 40.9091V54H394.224V42.571H394.147L390.951 44.6932V43.0824L394.224 40.9091H395.809ZM403.844 54.179C402.881 54.179 402.06 53.9169 401.383 53.3928C400.705 52.8643 400.188 52.0994 399.83 51.098C399.472 50.0923 399.293 48.8778 399.293 47.4545C399.293 46.0398 399.472 44.8317 399.83 43.8303C400.192 42.8246 400.712 42.0575 401.389 41.5291C402.071 40.9964 402.889 40.7301 403.844 40.7301C404.798 40.7301 405.614 40.9964 406.292 41.5291C406.974 42.0575 407.494 42.8246 407.852 43.8303C408.214 44.8317 408.395 46.0398 408.395 47.4545C408.395 48.8778 408.216 50.0923 407.858 51.098C407.5 52.0994 406.982 52.8643 406.305 53.3928C405.627 53.9169 404.807 54.179 403.844 54.179ZM403.844 52.7727C404.798 52.7727 405.54 52.3125 406.068 51.392C406.597 50.4716 406.861 49.1591 406.861 47.4545C406.861 46.321 406.739 45.3558 406.496 44.5589C406.258 43.7621 405.913 43.1548 405.461 42.7372C405.013 42.3196 404.474 42.1108 403.844 42.1108C402.898 42.1108 402.158 42.5774 401.626 43.5107C401.093 44.4396 400.827 45.7543 400.827 47.4545C400.827 48.5881 400.946 49.5511 401.185 50.3438C401.423 51.1364 401.766 51.7393 402.214 52.1527C402.665 52.5661 403.209 52.7727 403.844 52.7727Z" fill="black"/>
<path d="M239.625 55.179C238.662 55.179 237.842 54.9169 237.164 54.3928C236.487 53.8643 235.969 53.0994 235.611 52.098C235.253 51.0923 235.074 49.8778 235.074 48.4545C235.074 47.0398 235.253 45.8317 235.611 44.8303C235.973 43.8246 236.493 43.0575 237.17 42.5291C237.852 41.9964 238.67 41.7301 239.625 41.7301C240.58 41.7301 241.396 41.9964 242.073 42.5291C242.755 43.0575 243.275 43.8246 243.633 44.8303C243.995 45.8317 244.176 47.0398 244.176 48.4545C244.176 49.8778 243.997 51.0923 243.639 52.098C243.281 53.0994 242.763 53.8643 242.086 54.3928C241.408 54.9169 240.588 55.179 239.625 55.179ZM239.625 53.7727C240.58 53.7727 241.321 53.3125 241.849 52.392C242.378 51.4716 242.642 50.1591 242.642 48.4545C242.642 47.321 242.521 46.3558 242.278 45.5589C242.039 44.7621 241.694 44.1548 241.242 43.7372C240.795 43.3196 240.256 43.1108 239.625 43.1108C238.679 43.1108 237.94 43.5774 237.407 44.5107C236.874 45.4396 236.608 46.7543 236.608 48.4545C236.608 49.5881 236.727 50.5511 236.966 51.3438C237.205 52.1364 237.548 52.7393 237.995 53.1527C238.447 53.5661 238.99 53.7727 239.625 53.7727ZM251.207 41.9091V55H249.622V43.571H249.545L246.349 45.6932V44.0824L249.622 41.9091H251.207ZM259.575 41.9091V55H257.989V43.571H257.913L254.717 45.6932V44.0824L257.989 41.9091H259.575ZM267.609 55.179C266.646 55.179 265.826 54.9169 265.148 54.3928C264.471 53.8643 263.953 53.0994 263.595 52.098C263.237 51.0923 263.058 49.8778 263.058 48.4545C263.058 47.0398 263.237 45.8317 263.595 44.8303C263.957 43.8246 264.477 43.0575 265.155 42.5291C265.837 41.9964 266.655 41.7301 267.609 41.7301C268.564 41.7301 269.38 41.9964 270.058 42.5291C270.739 43.0575 271.259 43.8246 271.617 44.8303C271.979 45.8317 272.161 47.0398 272.161 48.4545C272.161 49.8778 271.982 51.0923 271.624 52.098C271.266 53.0994 270.748 53.8643 270.07 54.3928C269.393 54.9169 268.572 55.179 267.609 55.179ZM267.609 53.7727C268.564 53.7727 269.305 53.3125 269.834 52.392C270.362 51.4716 270.626 50.1591 270.626 48.4545C270.626 47.321 270.505 46.3558 270.262 45.5589C270.023 44.7621 269.678 44.1548 269.227 43.7372C268.779 43.3196 268.24 43.1108 267.609 43.1108C266.663 43.1108 265.924 43.5774 265.391 44.5107C264.859 45.4396 264.592 46.7543 264.592 48.4545C264.592 49.5881 264.712 50.5511 264.95 51.3438C265.189 52.1364 265.532 52.7393 265.979 53.1527C266.431 53.5661 266.974 53.7727 267.609 53.7727ZM278.859 55.179C277.896 55.179 277.076 54.9169 276.398 54.3928C275.721 53.8643 275.203 53.0994 274.845 52.098C274.487 51.0923 274.308 49.8778 274.308 48.4545C274.308 47.0398 274.487 45.8317 274.845 44.8303C275.207 43.8246 275.727 43.0575 276.405 42.5291C277.087 41.9964 277.905 41.7301 278.859 41.7301C279.814 41.7301 280.63 41.9964 281.308 42.5291C281.989 43.0575 282.509 43.8246 282.867 44.8303C283.229 45.8317 283.411 47.0398 283.411 48.4545C283.411 49.8778 283.232 51.0923 282.874 52.098C282.516 53.0994 281.998 53.8643 281.32 54.3928C280.643 54.9169 279.822 55.179 278.859 55.179ZM278.859 53.7727C279.814 53.7727 280.555 53.3125 281.084 52.392C281.612 51.4716 281.876 50.1591 281.876 48.4545C281.876 47.321 281.755 46.3558 281.512 45.5589C281.273 44.7621 280.928 44.1548 280.477 43.7372C280.029 43.3196 279.49 43.1108 278.859 43.1108C277.913 43.1108 277.174 43.5774 276.641 44.5107C276.109 45.4396 275.842 46.7543 275.842 48.4545C275.842 49.5881 275.962 50.5511 276.2 51.3438C276.439 52.1364 276.782 52.7393 277.229 53.1527C277.681 53.5661 278.224 53.7727 278.859 53.7727ZM290.442 41.9091V55H288.857V43.571H288.78L285.584 45.6932V44.0824L288.857 41.9091H290.442ZM298.477 55.179C297.513 55.179 296.693 54.9169 296.016 54.3928C295.338 53.8643 294.82 53.0994 294.462 52.098C294.104 51.0923 293.925 49.8778 293.925 48.4545C293.925 47.0398 294.104 45.8317 294.462 44.8303C294.825 43.8246 295.344 43.0575 296.022 42.5291C296.704 41.9964 297.522 41.7301 298.477 41.7301C299.431 41.7301 300.247 41.9964 300.925 42.5291C301.607 43.0575 302.126 43.8246 302.484 44.8303C302.847 45.8317 303.028 47.0398 303.028 48.4545C303.028 49.8778 302.849 51.0923 302.491 52.098C302.133 53.0994 301.615 53.8643 300.938 54.3928C300.26 54.9169 299.44 55.179 298.477 55.179ZM298.477 53.7727C299.431 53.7727 300.173 53.3125 300.701 52.392C301.229 51.4716 301.494 50.1591 301.494 48.4545C301.494 47.321 301.372 46.3558 301.129 45.5589C300.891 44.7621 300.545 44.1548 300.094 43.7372C299.646 43.3196 299.107 43.1108 298.477 43.1108C297.531 43.1108 296.791 43.5774 296.259 44.5107C295.726 45.4396 295.46 46.7543 295.46 48.4545C295.46 49.5881 295.579 50.5511 295.817 51.3438C296.056 52.1364 296.399 52.7393 296.847 53.1527C297.298 53.5661 297.842 53.7727 298.477 53.7727ZM309.727 55.179C308.763 55.179 307.943 54.9169 307.266 54.3928C306.588 53.8643 306.07 53.0994 305.712 52.098C305.354 51.0923 305.175 49.8778 305.175 48.4545C305.175 47.0398 305.354 45.8317 305.712 44.8303C306.075 43.8246 306.594 43.0575 307.272 42.5291C307.954 41.9964 308.772 41.7301 309.727 41.7301C310.681 41.7301 311.497 41.9964 312.175 42.5291C312.857 43.0575 313.376 43.8246 313.734 44.8303C314.097 45.8317 314.278 47.0398 314.278 48.4545C314.278 49.8778 314.099 51.0923 313.741 52.098C313.383 53.0994 312.865 53.8643 312.188 54.3928C311.51 54.9169 310.69 55.179 309.727 55.179ZM309.727 53.7727C310.681 53.7727 311.423 53.3125 311.951 52.392C312.479 51.4716 312.744 50.1591 312.744 48.4545C312.744 47.321 312.622 46.3558 312.379 45.5589C312.141 44.7621 311.795 44.1548 311.344 43.7372C310.896 43.3196 310.357 43.1108 309.727 43.1108C308.781 43.1108 308.041 43.5774 307.509 44.5107C306.976 45.4396 306.71 46.7543 306.71 48.4545C306.71 49.5881 306.829 50.5511 307.067 51.3438C307.306 52.1364 307.649 52.7393 308.097 53.1527C308.548 53.5661 309.092 53.7727 309.727 53.7727Z" fill="black"/>
<path d="M120.957 41.9091V55H119.372V43.571H119.295L116.099 45.6932V44.0824L119.372 41.9091H120.957ZM128.992 55.179C128.029 55.179 127.209 54.9169 126.531 54.3928C125.854 53.8643 125.336 53.0994 124.978 52.098C124.62 51.0923 124.441 49.8778 124.441 48.4545C124.441 47.0398 124.62 45.8317 124.978 44.8303C125.34 43.8246 125.86 43.0575 126.538 42.5291C127.219 41.9964 128.038 41.7301 128.992 41.7301C129.947 41.7301 130.763 41.9964 131.44 42.5291C132.122 43.0575 132.642 43.8246 133 44.8303C133.362 45.8317 133.543 47.0398 133.543 48.4545C133.543 49.8778 133.364 51.0923 133.006 52.098C132.648 53.0994 132.131 53.8643 131.453 54.3928C130.776 54.9169 129.955 55.179 128.992 55.179ZM128.992 53.7727C129.947 53.7727 130.688 53.3125 131.217 52.392C131.745 51.4716 132.009 50.1591 132.009 48.4545C132.009 47.321 131.888 46.3558 131.645 45.5589C131.406 44.7621 131.061 44.1548 130.609 43.7372C130.162 43.3196 129.623 43.1108 128.992 43.1108C128.046 43.1108 127.307 43.5774 126.774 44.5107C126.241 45.4396 125.975 46.7543 125.975 48.4545C125.975 49.5881 126.094 50.5511 126.333 51.3438C126.572 52.1364 126.915 52.7393 127.362 53.1527C127.814 53.5661 128.357 53.7727 128.992 53.7727ZM140.575 41.9091V55H138.989V43.571H138.913L135.717 45.6932V44.0824L138.989 41.9091H140.575ZM148.609 55.179C147.646 55.179 146.826 54.9169 146.148 54.3928C145.471 53.8643 144.953 53.0994 144.595 52.098C144.237 51.0923 144.058 49.8778 144.058 48.4545C144.058 47.0398 144.237 45.8317 144.595 44.8303C144.957 43.8246 145.477 43.0575 146.155 42.5291C146.837 41.9964 147.655 41.7301 148.609 41.7301C149.564 41.7301 150.38 41.9964 151.058 42.5291C151.739 43.0575 152.259 43.8246 152.617 44.8303C152.979 45.8317 153.161 47.0398 153.161 48.4545C153.161 49.8778 152.982 51.0923 152.624 52.098C152.266 53.0994 151.748 53.8643 151.07 54.3928C150.393 54.9169 149.572 55.179 148.609 55.179ZM148.609 53.7727C149.564 53.7727 150.305 53.3125 150.834 52.392C151.362 51.4716 151.626 50.1591 151.626 48.4545C151.626 47.321 151.505 46.3558 151.262 45.5589C151.023 44.7621 150.678 44.1548 150.227 43.7372C149.779 43.3196 149.24 43.1108 148.609 43.1108C147.663 43.1108 146.924 43.5774 146.391 44.5107C145.859 45.4396 145.592 46.7543 145.592 48.4545C145.592 49.5881 145.712 50.5511 145.95 51.3438C146.189 52.1364 146.532 52.7393 146.979 53.1527C147.431 53.5661 147.974 53.7727 148.609 53.7727ZM160.192 41.9091V55H158.607V43.571H158.53L155.334 45.6932V44.0824L158.607 41.9091H160.192ZM168.227 55.179C167.263 55.179 166.443 54.9169 165.766 54.3928C165.088 53.8643 164.57 53.0994 164.212 52.098C163.854 51.0923 163.675 49.8778 163.675 48.4545C163.675 47.0398 163.854 45.8317 164.212 44.8303C164.575 43.8246 165.094 43.0575 165.772 42.5291C166.454 41.9964 167.272 41.7301 168.227 41.7301C169.181 41.7301 169.997 41.9964 170.675 42.5291C171.357 43.0575 171.876 43.8246 172.234 44.8303C172.597 45.8317 172.778 47.0398 172.778 48.4545C172.778 49.8778 172.599 51.0923 172.241 52.098C171.883 53.0994 171.365 53.8643 170.688 54.3928C170.01 54.9169 169.19 55.179 168.227 55.179ZM168.227 53.7727C169.181 53.7727 169.923 53.3125 170.451 52.392C170.979 51.4716 171.244 50.1591 171.244 48.4545C171.244 47.321 171.122 46.3558 170.879 45.5589C170.641 44.7621 170.295 44.1548 169.844 43.7372C169.396 43.3196 168.857 43.1108 168.227 43.1108C167.281 43.1108 166.541 43.5774 166.009 44.5107C165.476 45.4396 165.21 46.7543 165.21 48.4545C165.21 49.5881 165.329 50.5511 165.567 51.3438C165.806 52.1364 166.149 52.7393 166.597 53.1527C167.048 53.5661 167.592 53.7727 168.227 53.7727ZM179.477 55.179C178.513 55.179 177.693 54.9169 177.016 54.3928C176.338 53.8643 175.82 53.0994 175.462 52.098C175.104 51.0923 174.925 49.8778 174.925 48.4545C174.925 47.0398 175.104 45.8317 175.462 44.8303C175.825 43.8246 176.344 43.0575 177.022 42.5291C177.704 41.9964 178.522 41.7301 179.477 41.7301C180.431 41.7301 181.247 41.9964 181.925 42.5291C182.607 43.0575 183.126 43.8246 183.484 44.8303C183.847 45.8317 184.028 47.0398 184.028 48.4545C184.028 49.8778 183.849 51.0923 183.491 52.098C183.133 53.0994 182.615 53.8643 181.938 54.3928C181.26 54.9169 180.44 55.179 179.477 55.179ZM179.477 53.7727C180.431 53.7727 181.173 53.3125 181.701 52.392C182.229 51.4716 182.494 50.1591 182.494 48.4545C182.494 47.321 182.372 46.3558 182.129 45.5589C181.891 44.7621 181.545 44.1548 181.094 43.7372C180.646 43.3196 180.107 43.1108 179.477 43.1108C178.531 43.1108 177.791 43.5774 177.259 44.5107C176.726 45.4396 176.46 46.7543 176.46 48.4545C176.46 49.5881 176.579 50.5511 176.817 51.3438C177.056 52.1364 177.399 52.7393 177.847 53.1527C178.298 53.5661 178.842 53.7727 179.477 53.7727ZM190.727 55.179C189.763 55.179 188.943 54.9169 188.266 54.3928C187.588 53.8643 187.07 53.0994 186.712 52.098C186.354 51.0923 186.175 49.8778 186.175 48.4545C186.175 47.0398 186.354 45.8317 186.712 44.8303C187.075 43.8246 187.594 43.0575 188.272 42.5291C188.954 41.9964 189.772 41.7301 190.727 41.7301C191.681 41.7301 192.497 41.9964 193.175 42.5291C193.857 43.0575 194.376 43.8246 194.734 44.8303C195.097 45.8317 195.278 47.0398 195.278 48.4545C195.278 49.8778 195.099 51.0923 194.741 52.098C194.383 53.0994 193.865 53.8643 193.188 54.3928C192.51 54.9169 191.69 55.179 190.727 55.179ZM190.727 53.7727C191.681 53.7727 192.423 53.3125 192.951 52.392C193.479 51.4716 193.744 50.1591 193.744 48.4545C193.744 47.321 193.622 46.3558 193.379 45.5589C193.141 44.7621 192.795 44.1548 192.344 43.7372C191.896 43.3196 191.357 43.1108 190.727 43.1108C189.781 43.1108 189.041 43.5774 188.509 44.5107C187.976 45.4396 187.71 46.7543 187.71 48.4545C187.71 49.5881 187.829 50.5511 188.067 51.3438C188.306 52.1364 188.649 52.7393 189.097 53.1527C189.548 53.5661 190.092 53.7727 190.727 53.7727Z" fill="black"/>
<path d="M14 59L50 70L79 59" stroke="black"/>
<path d="M337 59L373 70L402 59" stroke="black"/>
<path d="M241 59L277 70L306 59" stroke="black"/>
<path d="M120 59L156 70L185 59" stroke="black"/>
<path d="M22.9148 8.81818V35H19.7443V12.142H19.5909L13.1989 16.3864V13.1648L19.7443 8.81818H22.9148ZM38.7798 8.46023C39.8537 8.46875 40.9276 8.67329 42.0014 9.07386C43.0753 9.47443 44.0554 10.1392 44.9418 11.0682C45.8281 11.9886 46.5398 13.2457 47.0767 14.8395C47.6136 16.4332 47.8821 18.4318 47.8821 20.8352C47.8821 23.1619 47.6605 25.2287 47.2173 27.0355C46.7827 28.8338 46.152 30.3509 45.3253 31.5866C44.5071 32.8224 43.5099 33.7599 42.3338 34.3991C41.1662 35.0384 39.8452 35.358 38.3707 35.358C36.9048 35.358 35.5966 35.0682 34.446 34.4886C33.304 33.9006 32.3665 33.0866 31.6335 32.0469C30.9091 30.9986 30.4446 29.7841 30.2401 28.4034H33.3594C33.6406 29.6051 34.1989 30.598 35.0341 31.3821C35.8778 32.1577 36.9901 32.5455 38.3707 32.5455C40.3906 32.5455 41.9844 31.6634 43.152 29.8991C44.3281 28.1349 44.9162 25.642 44.9162 22.4205H44.7116C44.2344 23.1364 43.6676 23.7543 43.0114 24.2741C42.3551 24.794 41.6264 25.1946 40.8253 25.4759C40.0241 25.7571 39.1719 25.8977 38.2685 25.8977C36.7685 25.8977 35.392 25.527 34.1392 24.7855C32.8949 24.0355 31.8977 23.0085 31.1477 21.7045C30.4062 20.392 30.0355 18.892 30.0355 17.2045C30.0355 15.6023 30.3935 14.1364 31.1094 12.8068C31.8338 11.4687 32.848 10.4034 34.152 9.6108C35.4645 8.81818 37.0071 8.43466 38.7798 8.46023ZM38.7798 11.2727C37.706 11.2727 36.7386 11.5412 35.8778 12.0781C35.0256 12.6065 34.348 13.3224 33.8452 14.2259C33.3509 15.1207 33.1037 16.1136 33.1037 17.2045C33.1037 18.2955 33.3423 19.2884 33.8196 20.1832C34.3054 21.0696 34.9659 21.777 35.8011 22.3054C36.6449 22.8253 37.6037 23.0852 38.6776 23.0852C39.4872 23.0852 40.2415 22.9276 40.9403 22.6122C41.6392 22.2884 42.2486 21.8494 42.7685 21.2955C43.2969 20.733 43.7102 20.098 44.0085 19.3906C44.3068 18.6747 44.456 17.929 44.456 17.1534C44.456 16.1307 44.2088 15.1719 43.7145 14.277C43.2287 13.3821 42.5554 12.6577 41.6946 12.1037C40.8423 11.5497 39.8707 11.2727 38.7798 11.2727ZM52.9094 35V32.6989L61.5515 23.2386C62.5657 22.1307 63.4009 21.1676 64.0572 20.3494C64.7134 19.5227 65.1992 18.7472 65.5146 18.0227C65.8384 17.2898 66.0004 16.5227 66.0004 15.7216C66.0004 14.8011 65.7788 14.0043 65.3356 13.331C64.9009 12.6577 64.3043 12.1378 63.5458 11.7713C62.7873 11.4048 61.935 11.2216 60.989 11.2216C59.9833 11.2216 59.1055 11.4304 58.3555 11.848C57.614 12.2571 57.0387 12.8324 56.6296 13.5739C56.229 14.3153 56.0288 15.1847 56.0288 16.1818H53.0117C53.0117 14.6477 53.3654 13.3011 54.0728 12.142C54.7802 10.983 55.7433 10.0795 56.962 9.43182C58.1893 8.78409 59.5657 8.46023 61.0913 8.46023C62.6254 8.46023 63.9847 8.78409 65.1694 9.43182C66.354 10.0795 67.283 10.9531 67.9563 12.0526C68.6296 13.152 68.9663 14.375 68.9663 15.7216C68.9663 16.6847 68.7915 17.6264 68.4421 18.5469C68.1012 19.4588 67.5046 20.4773 66.6523 21.6023C65.8086 22.7187 64.6367 24.0824 63.1367 25.6932L57.256 31.983V32.1875H69.4265V35H52.9094ZM97.2063 35.2045C96.5756 35.2045 96.0344 34.9787 95.5827 34.527C95.131 34.0753 94.9052 33.5341 94.9052 32.9034C94.9052 32.2727 95.131 31.7315 95.5827 31.2798C96.0344 30.8281 96.5756 30.6023 97.2063 30.6023C97.837 30.6023 98.3782 30.8281 98.8299 31.2798C99.2816 31.7315 99.5075 32.2727 99.5075 32.9034C99.5075 33.321 99.4009 33.7045 99.1879 34.054C98.9833 34.4034 98.7063 34.6847 98.3569 34.8977C98.016 35.1023 97.6325 35.2045 97.2063 35.2045ZM134.325 8.81818V35H131.154V12.142H131.001L124.609 16.3864V13.1648L131.154 8.81818H134.325ZM150.548 35.358C149.474 35.3409 148.4 35.1364 147.326 34.7443C146.252 34.3523 145.272 33.6918 144.386 32.7628C143.5 31.8253 142.788 30.5597 142.251 28.9659C141.714 27.3636 141.446 25.3523 141.446 22.9318C141.446 20.6136 141.663 18.5597 142.098 16.7699C142.532 14.9716 143.163 13.4588 143.99 12.2315C144.816 10.9957 145.814 10.0582 146.981 9.41903C148.157 8.77983 149.483 8.46023 150.957 8.46023C152.423 8.46023 153.727 8.75426 154.869 9.34233C156.02 9.92187 156.957 10.7315 157.681 11.7713C158.406 12.8111 158.875 14.0085 159.088 15.3636H155.968C155.679 14.1875 155.116 13.2116 154.281 12.4361C153.446 11.6605 152.338 11.2727 150.957 11.2727C148.929 11.2727 147.331 12.1548 146.163 13.919C145.004 15.6832 144.42 18.1591 144.412 21.3466H144.616C145.093 20.6222 145.66 20.0043 146.316 19.4929C146.981 18.973 147.714 18.5724 148.515 18.2912C149.316 18.0099 150.164 17.8693 151.059 17.8693C152.559 17.8693 153.931 18.2443 155.176 18.9943C156.42 19.7358 157.417 20.7628 158.167 22.0753C158.917 23.3793 159.292 24.875 159.292 26.5625C159.292 28.1818 158.93 29.6648 158.206 31.0114C157.481 32.3494 156.463 33.4148 155.15 34.2074C153.846 34.9915 152.312 35.375 150.548 35.358ZM150.548 32.5455C151.622 32.5455 152.585 32.277 153.437 31.7401C154.298 31.2031 154.975 30.483 155.47 29.5795C155.973 28.6761 156.224 27.6705 156.224 26.5625C156.224 25.4801 155.981 24.4957 155.495 23.6094C155.018 22.7145 154.358 22.0028 153.514 21.4744C152.679 20.946 151.724 20.6818 150.65 20.6818C149.841 20.6818 149.086 20.8437 148.387 21.1676C147.689 21.483 147.075 21.9176 146.547 22.4716C146.027 23.0256 145.618 23.6605 145.319 24.3764C145.021 25.0838 144.872 25.8295 144.872 26.6136C144.872 27.6534 145.115 28.625 145.6 29.5284C146.095 30.4318 146.768 31.1605 147.62 31.7145C148.481 32.2685 149.457 32.5455 150.548 32.5455ZM172.706 35.358C170.95 35.358 169.399 35.0469 168.053 34.4247C166.714 33.794 165.67 32.929 164.92 31.8295C164.17 30.7216 163.8 29.4602 163.808 28.0455C163.8 26.9375 164.017 25.9148 164.46 24.9773C164.903 24.0312 165.509 23.2429 166.276 22.6122C167.051 21.973 167.916 21.5682 168.871 21.3977V21.2443C167.618 20.9205 166.621 20.2173 165.879 19.1349C165.138 18.044 164.771 16.804 164.78 15.4148C164.771 14.0852 165.108 12.8963 165.79 11.848C166.472 10.7997 167.409 9.97301 168.602 9.3679C169.804 8.76278 171.172 8.46023 172.706 8.46023C174.223 8.46023 175.578 8.76278 176.771 9.3679C177.964 9.97301 178.902 10.7997 179.584 11.848C180.274 12.8963 180.624 14.0852 180.632 15.4148C180.624 16.804 180.244 18.044 179.494 19.1349C178.753 20.2173 177.768 20.9205 176.541 21.2443V21.3977C177.487 21.5682 178.339 21.973 179.098 22.6122C179.857 23.2429 180.462 24.0312 180.913 24.9773C181.365 25.9148 181.595 26.9375 181.604 28.0455C181.595 29.4602 181.212 30.7216 180.453 31.8295C179.703 32.929 178.659 33.794 177.321 34.4247C175.991 35.0469 174.453 35.358 172.706 35.358ZM172.706 32.5455C173.891 32.5455 174.913 32.3537 175.774 31.9702C176.635 31.5866 177.3 31.0455 177.768 30.3466C178.237 29.6477 178.476 28.8295 178.484 27.892C178.476 26.9034 178.22 26.0298 177.717 25.2713C177.214 24.5128 176.528 23.9162 175.659 23.4815C174.798 23.0469 173.814 22.8295 172.706 22.8295C171.589 22.8295 170.592 23.0469 169.714 23.4815C168.845 23.9162 168.159 24.5128 167.656 25.2713C167.162 26.0298 166.919 26.9034 166.928 27.892C166.919 28.8295 167.145 29.6477 167.605 30.3466C168.074 31.0455 168.743 31.5866 169.612 31.9702C170.482 32.3537 171.513 32.5455 172.706 32.5455ZM172.706 20.1193C173.643 20.1193 174.474 19.9318 175.199 19.5568C175.932 19.1818 176.507 18.6577 176.925 17.9844C177.342 17.3111 177.555 16.5227 177.564 15.6193C177.555 14.733 177.347 13.9616 176.938 13.3054C176.528 12.6406 175.962 12.1293 175.237 11.7713C174.513 11.4048 173.669 11.2216 172.706 11.2216C171.726 11.2216 170.869 11.4048 170.136 11.7713C169.403 12.1293 168.837 12.6406 168.436 13.3054C168.036 13.9616 167.839 14.733 167.848 15.6193C167.839 16.5227 168.04 17.3111 168.449 17.9844C168.866 18.6577 169.442 19.1818 170.175 19.5568C170.908 19.9318 171.751 20.1193 172.706 20.1193ZM209.003 35.2045C208.373 35.2045 207.831 34.9787 207.38 34.527C206.928 34.0753 206.702 33.5341 206.702 32.9034C206.702 32.2727 206.928 31.7315 207.38 31.2798C207.831 30.8281 208.373 30.6023 209.003 30.6023C209.634 30.6023 210.175 30.8281 210.627 31.2798C211.078 31.7315 211.304 32.2727 211.304 32.9034C211.304 33.321 211.198 33.7045 210.985 34.054C210.78 34.4034 210.503 34.6847 210.154 34.8977C209.813 35.1023 209.429 35.2045 209.003 35.2045ZM246.122 8.81818V35H242.951V12.142H242.798L236.406 16.3864V13.1648L242.951 8.81818H246.122ZM262.191 35.358C260.265 35.358 258.625 34.8338 257.27 33.7855C255.914 32.7287 254.879 31.1989 254.163 29.196C253.447 27.1847 253.089 24.7557 253.089 21.9091C253.089 19.0795 253.447 16.6634 254.163 14.6605C254.887 12.6491 255.927 11.1151 257.282 10.0582C258.646 8.9929 260.282 8.46023 262.191 8.46023C264.1 8.46023 265.733 8.9929 267.088 10.0582C268.451 11.1151 269.491 12.6491 270.207 14.6605C270.931 16.6634 271.294 19.0795 271.294 21.9091C271.294 24.7557 270.936 27.1847 270.22 29.196C269.504 31.1989 268.468 32.7287 267.113 33.7855C265.758 34.8338 264.118 35.358 262.191 35.358ZM262.191 32.5455C264.1 32.5455 265.583 31.625 266.64 29.7841C267.697 27.9432 268.225 25.3182 268.225 21.9091C268.225 19.642 267.983 17.7116 267.497 16.1179C267.02 14.5241 266.329 13.3097 265.426 12.4744C264.531 11.6392 263.453 11.2216 262.191 11.2216C260.299 11.2216 258.821 12.1548 257.755 14.0213C256.69 15.8793 256.157 18.5085 256.157 21.9091C256.157 24.1761 256.396 26.1023 256.873 27.6875C257.35 29.2727 258.037 30.4787 258.931 31.3054C259.835 32.1321 260.922 32.5455 262.191 32.5455ZM284.691 35.358C282.765 35.358 281.125 34.8338 279.77 33.7855C278.414 32.7287 277.379 31.1989 276.663 29.196C275.947 27.1847 275.589 24.7557 275.589 21.9091C275.589 19.0795 275.947 16.6634 276.663 14.6605C277.387 12.6491 278.427 11.1151 279.782 10.0582C281.146 8.9929 282.782 8.46023 284.691 8.46023C286.6 8.46023 288.233 8.9929 289.588 10.0582C290.951 11.1151 291.991 12.6491 292.707 14.6605C293.431 16.6634 293.794 19.0795 293.794 21.9091C293.794 24.7557 293.436 27.1847 292.72 29.196C292.004 31.1989 290.968 32.7287 289.613 33.7855C288.258 34.8338 286.618 35.358 284.691 35.358ZM284.691 32.5455C286.6 32.5455 288.083 31.625 289.14 29.7841C290.197 27.9432 290.725 25.3182 290.725 21.9091C290.725 19.642 290.483 17.7116 289.997 16.1179C289.52 14.5241 288.829 13.3097 287.926 12.4744C287.031 11.6392 285.953 11.2216 284.691 11.2216C282.799 11.2216 281.321 12.1548 280.255 14.0213C279.19 15.8793 278.657 18.5085 278.657 21.9091C278.657 24.1761 278.896 26.1023 279.373 27.6875C279.85 29.2727 280.537 30.4787 281.431 31.3054C282.335 32.1321 283.422 32.5455 284.691 32.5455ZM321.152 35.2045C320.521 35.2045 319.98 34.9787 319.528 34.527C319.076 34.0753 318.85 33.5341 318.85 32.9034C318.85 32.2727 319.076 31.7315 319.528 31.2798C319.98 30.8281 320.521 30.6023 321.152 30.6023C321.782 30.6023 322.324 30.8281 322.775 31.2798C323.227 31.7315 323.453 32.2727 323.453 32.9034C323.453 33.321 323.346 33.7045 323.133 34.054C322.929 34.4034 322.652 34.6847 322.302 34.8977C321.961 35.1023 321.578 35.2045 321.152 35.2045ZM357.912 35.358C356.225 35.358 354.721 35.0682 353.4 34.4886C352.087 33.9091 351.043 33.1037 350.267 32.0724C349.5 31.0327 349.083 29.8267 349.015 28.4545H352.236C352.304 29.2983 352.594 30.027 353.105 30.6406C353.617 31.2457 354.286 31.7145 355.113 32.0469C355.939 32.3793 356.855 32.5455 357.861 32.5455C358.986 32.5455 359.983 32.3494 360.853 31.9574C361.722 31.5653 362.404 31.0199 362.898 30.321C363.392 29.6222 363.64 28.8125 363.64 27.892C363.64 26.929 363.401 26.081 362.924 25.348C362.446 24.6065 361.748 24.027 360.827 23.6094C359.907 23.1918 358.782 22.983 357.452 22.983H355.355V20.1705H357.452C358.492 20.1705 359.404 19.983 360.188 19.608C360.98 19.233 361.598 18.7045 362.042 18.0227C362.493 17.3409 362.719 16.5398 362.719 15.6193C362.719 14.733 362.523 13.9616 362.131 13.3054C361.739 12.6491 361.185 12.1378 360.469 11.7713C359.762 11.4048 358.926 11.2216 357.963 11.2216C357.06 11.2216 356.208 11.3878 355.407 11.7202C354.614 12.044 353.966 12.517 353.463 13.1392C352.961 13.7528 352.688 14.4943 352.645 15.3636H349.577C349.628 13.9915 350.042 12.7898 350.817 11.7585C351.593 10.7187 352.607 9.90909 353.86 9.32955C355.121 8.75 356.506 8.46023 358.015 8.46023C359.634 8.46023 361.023 8.78835 362.182 9.4446C363.341 10.0923 364.232 10.9489 364.854 12.0142C365.476 13.0795 365.787 14.2301 365.787 15.4659C365.787 16.9403 365.4 18.1974 364.624 19.2372C363.857 20.277 362.813 20.9972 361.492 21.3977V21.6023C363.145 21.875 364.436 22.5781 365.365 23.7116C366.294 24.8366 366.759 26.2301 366.759 27.892C366.759 29.3153 366.371 30.5938 365.596 31.7273C364.828 32.8523 363.78 33.7386 362.451 34.3864C361.121 35.0341 359.608 35.358 357.912 35.358ZM380.527 35.358C378.601 35.358 376.961 34.8338 375.605 33.7855C374.25 32.7287 373.215 31.1989 372.499 29.196C371.783 27.1847 371.425 24.7557 371.425 21.9091C371.425 19.0795 371.783 16.6634 372.499 14.6605C373.223 12.6491 374.263 11.1151 375.618 10.0582C376.982 8.9929 378.618 8.46023 380.527 8.46023C382.436 8.46023 384.069 8.9929 385.424 10.0582C386.787 11.1151 387.827 12.6491 388.543 14.6605C389.267 16.6634 389.63 19.0795 389.63 21.9091C389.63 24.7557 389.272 27.1847 388.556 29.196C387.84 31.1989 386.804 32.7287 385.449 33.7855C384.094 34.8338 382.453 35.358 380.527 35.358ZM380.527 32.5455C382.436 32.5455 383.919 31.625 384.976 29.7841C386.033 27.9432 386.561 25.3182 386.561 21.9091C386.561 19.642 386.319 17.7116 385.833 16.1179C385.355 14.5241 384.665 13.3097 383.762 12.4744C382.867 11.6392 381.789 11.2216 380.527 11.2216C378.635 11.2216 377.157 12.1548 376.091 14.0213C375.026 15.8793 374.493 18.5085 374.493 21.9091C374.493 24.1761 374.732 26.1023 375.209 27.6875C375.686 29.2727 376.373 30.4787 377.267 31.3054C378.171 32.1321 379.257 32.5455 380.527 32.5455Z" fill="black"/>
<path d="M23.6307 82.4545C23.6307 83.8352 23.3814 85.0284 22.8828 86.0341C22.3842 87.0398 21.7003 87.8153 20.831 88.3608C19.9616 88.9062 18.9688 89.179 17.8523 89.179C16.7358 89.179 15.7429 88.9062 14.8736 88.3608C14.0043 87.8153 13.3203 87.0398 12.8217 86.0341C12.3232 85.0284 12.0739 83.8352 12.0739 82.4545C12.0739 81.0739 12.3232 79.8807 12.8217 78.875C13.3203 77.8693 14.0043 77.0938 14.8736 76.5483C15.7429 76.0028 16.7358 75.7301 17.8523 75.7301C18.9688 75.7301 19.9616 76.0028 20.831 76.5483C21.7003 77.0938 22.3842 77.8693 22.8828 78.875C23.3814 79.8807 23.6307 81.0739 23.6307 82.4545ZM22.0966 82.4545C22.0966 81.321 21.907 80.3643 21.5277 79.5845C21.1527 78.8047 20.6435 78.2145 20 77.8139C19.3608 77.4134 18.6449 77.2131 17.8523 77.2131C17.0597 77.2131 16.3416 77.4134 15.6982 77.8139C15.0589 78.2145 14.5497 78.8047 14.1705 79.5845C13.7955 80.3643 13.608 81.321 13.608 82.4545C13.608 83.5881 13.7955 84.5447 14.1705 85.3246C14.5497 86.1044 15.0589 86.6946 15.6982 87.0952C16.3416 87.4957 17.0597 87.696 17.8523 87.696C18.6449 87.696 19.3608 87.4957 20 87.0952C20.6435 86.6946 21.1527 86.1044 21.5277 85.3246C21.907 84.5447 22.0966 83.5881 22.0966 82.4545ZM30.0803 89.2045C29.1598 89.2045 28.3672 88.9872 27.7024 88.5526C27.0376 88.1179 26.5263 87.5192 26.1683 86.7564C25.8104 85.9936 25.6314 85.1222 25.6314 84.142C25.6314 83.1449 25.8146 82.2649 26.1811 81.5021C26.5518 80.7351 27.0675 80.1364 27.728 79.706C28.3928 79.2713 29.1683 79.054 30.0547 79.054C30.745 79.054 31.3672 79.1818 31.9212 79.4375C32.4751 79.6932 32.929 80.0511 33.2827 80.5114C33.6364 80.9716 33.8558 81.5085 33.9411 82.1222H32.4325C32.3175 81.6747 32.0618 81.2784 31.6655 80.9332C31.2734 80.5838 30.745 80.4091 30.0803 80.4091C29.4922 80.4091 28.9766 80.5625 28.5334 80.8693C28.0945 81.1719 27.7514 81.6001 27.5043 82.1541C27.2614 82.7038 27.1399 83.3494 27.1399 84.0909C27.1399 84.8494 27.2592 85.5099 27.4979 86.0724C27.7408 86.6349 28.0817 87.0717 28.5206 87.3828C28.9638 87.6939 29.4837 87.8494 30.0803 87.8494C30.4723 87.8494 30.8281 87.7812 31.1477 87.6449C31.4673 87.5085 31.7379 87.3125 31.9595 87.0568C32.1811 86.8011 32.3388 86.4943 32.4325 86.1364H33.9411C33.8558 86.7159 33.6449 87.2379 33.3082 87.7024C32.9759 88.1626 32.5348 88.5291 31.9851 88.8018C31.4396 89.0703 30.8047 89.2045 30.0803 89.2045ZM40.4162 79.1818V80.4602H35.3281V79.1818H40.4162ZM36.8111 76.8295H38.3196V86.1875C38.3196 86.6136 38.3814 86.9332 38.505 87.1463C38.6328 87.3551 38.7947 87.4957 38.9908 87.5682C39.1911 87.6364 39.402 87.6705 39.6236 87.6705C39.7898 87.6705 39.9261 87.6619 40.0327 87.6449C40.1392 87.6236 40.2244 87.6065 40.2884 87.5938L40.5952 88.9489C40.4929 88.9872 40.3501 89.0256 40.1669 89.0639C39.9837 89.1065 39.7514 89.1278 39.4702 89.1278C39.044 89.1278 38.6264 89.0362 38.2173 88.853C37.8125 88.6697 37.4759 88.3906 37.2074 88.0156C36.9432 87.6406 36.8111 87.1676 36.8111 86.5966V76.8295ZM46.6964 89.2045C45.7504 89.2045 44.9343 88.9957 44.2482 88.5781C43.5664 88.1562 43.0401 87.5682 42.6694 86.8139C42.3029 86.0554 42.1197 85.1733 42.1197 84.1676C42.1197 83.1619 42.3029 82.2756 42.6694 81.5085C43.0401 80.7372 43.5558 80.1364 44.2163 79.706C44.881 79.2713 45.6566 79.054 46.543 79.054C47.0543 79.054 47.5593 79.1392 48.0579 79.3097C48.5565 79.4801 49.0103 79.7571 49.4194 80.1406C49.8285 80.5199 50.1545 81.0227 50.3974 81.6491C50.6403 82.2756 50.7617 83.0469 50.7617 83.9631V84.6023H43.1935V83.2983H49.2276C49.2276 82.7443 49.1168 82.25 48.8952 81.8153C48.6779 81.3807 48.3668 81.0376 47.962 80.7862C47.5614 80.5348 47.0884 80.4091 46.543 80.4091C45.9421 80.4091 45.4222 80.5582 44.9833 80.8565C44.5487 81.1506 44.2141 81.5341 43.9798 82.0071C43.7454 82.4801 43.6282 82.9872 43.6282 83.5284V84.3977C43.6282 85.1392 43.756 85.7678 44.0117 86.2834C44.2717 86.7947 44.6317 87.1847 45.092 87.4531C45.5522 87.7173 46.087 87.8494 46.6964 87.8494C47.0927 87.8494 47.4506 87.794 47.7702 87.6832C48.0941 87.5682 48.3732 87.3977 48.6076 87.1719C48.842 86.9418 49.0231 86.6562 49.1509 86.3153L50.6083 86.7244C50.4549 87.2188 50.1971 87.6534 49.8349 88.0284C49.4727 88.3991 49.0252 88.6889 48.4925 88.8977C47.9599 89.1023 47.3612 89.2045 46.6964 89.2045ZM57.3263 79.1818V80.4602H52.2383V79.1818H57.3263ZM53.7212 76.8295H55.2298V86.1875C55.2298 86.6136 55.2915 86.9332 55.4151 87.1463C55.543 87.3551 55.7049 87.4957 55.9009 87.5682C56.1012 87.6364 56.3121 87.6705 56.5337 87.6705C56.6999 87.6705 56.8363 87.6619 56.9428 87.6449C57.0494 87.6236 57.1346 87.6065 57.1985 87.5938L57.5053 88.9489C57.4031 88.9872 57.2603 89.0256 57.0771 89.0639C56.8938 89.1065 56.6616 89.1278 56.3803 89.1278C55.9542 89.1278 55.5366 89.0362 55.1275 88.853C54.7227 88.6697 54.386 88.3906 54.1175 88.0156C53.8533 87.6406 53.7212 87.1676 53.7212 86.5966V76.8295ZM69.2347 75.9091V89H67.6495V77.571H67.5728L64.3768 79.6932V78.0824L67.6495 75.9091H69.2347Z" fill="black"/>
<path d="M144.631 82.4545C144.631 83.8352 144.381 85.0284 143.883 86.0341C143.384 87.0398 142.7 87.8153 141.831 88.3608C140.962 88.9062 139.969 89.179 138.852 89.179C137.736 89.179 136.743 88.9062 135.874 88.3608C135.004 87.8153 134.32 87.0398 133.822 86.0341C133.323 85.0284 133.074 83.8352 133.074 82.4545C133.074 81.0739 133.323 79.8807 133.822 78.875C134.32 77.8693 135.004 77.0938 135.874 76.5483C136.743 76.0028 137.736 75.7301 138.852 75.7301C139.969 75.7301 140.962 76.0028 141.831 76.5483C142.7 77.0938 143.384 77.8693 143.883 78.875C144.381 79.8807 144.631 81.0739 144.631 82.4545ZM143.097 82.4545C143.097 81.321 142.907 80.3643 142.528 79.5845C142.153 78.8047 141.643 78.2145 141 77.8139C140.361 77.4134 139.645 77.2131 138.852 77.2131C138.06 77.2131 137.342 77.4134 136.698 77.8139C136.059 78.2145 135.55 78.8047 135.17 79.5845C134.795 80.3643 134.608 81.321 134.608 82.4545C134.608 83.5881 134.795 84.5447 135.17 85.3246C135.55 86.1044 136.059 86.6946 136.698 87.0952C137.342 87.4957 138.06 87.696 138.852 87.696C139.645 87.696 140.361 87.4957 141 87.0952C141.643 86.6946 142.153 86.1044 142.528 85.3246C142.907 84.5447 143.097 83.5881 143.097 82.4545ZM151.08 89.2045C150.16 89.2045 149.367 88.9872 148.702 88.5526C148.038 88.1179 147.526 87.5192 147.168 86.7564C146.81 85.9936 146.631 85.1222 146.631 84.142C146.631 83.1449 146.815 82.2649 147.181 81.5021C147.552 80.7351 148.067 80.1364 148.728 79.706C149.393 79.2713 150.168 79.054 151.055 79.054C151.745 79.054 152.367 79.1818 152.921 79.4375C153.475 79.6932 153.929 80.0511 154.283 80.5114C154.636 80.9716 154.856 81.5085 154.941 82.1222H153.433C153.317 81.6747 153.062 81.2784 152.665 80.9332C152.273 80.5838 151.745 80.4091 151.08 80.4091C150.492 80.4091 149.977 80.5625 149.533 80.8693C149.094 81.1719 148.751 81.6001 148.504 82.1541C148.261 82.7038 148.14 83.3494 148.14 84.0909C148.14 84.8494 148.259 85.5099 148.498 86.0724C148.741 86.6349 149.082 87.0717 149.521 87.3828C149.964 87.6939 150.484 87.8494 151.08 87.8494C151.472 87.8494 151.828 87.7812 152.148 87.6449C152.467 87.5085 152.738 87.3125 152.96 87.0568C153.181 86.8011 153.339 86.4943 153.433 86.1364H154.941C154.856 86.7159 154.645 87.2379 154.308 87.7024C153.976 88.1626 153.535 88.5291 152.985 88.8018C152.44 89.0703 151.805 89.2045 151.08 89.2045ZM161.416 79.1818V80.4602H156.328V79.1818H161.416ZM157.811 76.8295H159.32V86.1875C159.32 86.6136 159.381 86.9332 159.505 87.1463C159.633 87.3551 159.795 87.4957 159.991 87.5682C160.191 87.6364 160.402 87.6705 160.624 87.6705C160.79 87.6705 160.926 87.6619 161.033 87.6449C161.139 87.6236 161.224 87.6065 161.288 87.5938L161.595 88.9489C161.493 88.9872 161.35 89.0256 161.167 89.0639C160.984 89.1065 160.751 89.1278 160.47 89.1278C160.044 89.1278 159.626 89.0362 159.217 88.853C158.813 88.6697 158.476 88.3906 158.207 88.0156C157.943 87.6406 157.811 87.1676 157.811 86.5966V76.8295ZM167.696 89.2045C166.75 89.2045 165.934 88.9957 165.248 88.5781C164.566 88.1562 164.04 87.5682 163.669 86.8139C163.303 86.0554 163.12 85.1733 163.12 84.1676C163.12 83.1619 163.303 82.2756 163.669 81.5085C164.04 80.7372 164.556 80.1364 165.216 79.706C165.881 79.2713 166.657 79.054 167.543 79.054C168.054 79.054 168.559 79.1392 169.058 79.3097C169.556 79.4801 170.01 79.7571 170.419 80.1406C170.828 80.5199 171.154 81.0227 171.397 81.6491C171.64 82.2756 171.762 83.0469 171.762 83.9631V84.6023H164.194V83.2983H170.228C170.228 82.7443 170.117 82.25 169.895 81.8153C169.678 81.3807 169.367 81.0376 168.962 80.7862C168.561 80.5348 168.088 80.4091 167.543 80.4091C166.942 80.4091 166.422 80.5582 165.983 80.8565C165.549 81.1506 165.214 81.5341 164.98 82.0071C164.745 82.4801 164.628 82.9872 164.628 83.5284V84.3977C164.628 85.1392 164.756 85.7678 165.012 86.2834C165.272 86.7947 165.632 87.1847 166.092 87.4531C166.552 87.7173 167.087 87.8494 167.696 87.8494C168.093 87.8494 168.451 87.794 168.77 87.6832C169.094 87.5682 169.373 87.3977 169.608 87.1719C169.842 86.9418 170.023 86.6562 170.151 86.3153L171.608 86.7244C171.455 87.2188 171.197 87.6534 170.835 88.0284C170.473 88.3991 170.025 88.6889 169.493 88.8977C168.96 89.1023 168.361 89.2045 167.696 89.2045ZM178.326 79.1818V80.4602H173.238V79.1818H178.326ZM174.721 76.8295H176.23V86.1875C176.23 86.6136 176.292 86.9332 176.415 87.1463C176.543 87.3551 176.705 87.4957 176.901 87.5682C177.101 87.6364 177.312 87.6705 177.534 87.6705C177.7 87.6705 177.836 87.6619 177.943 87.6449C178.049 87.6236 178.135 87.6065 178.199 87.5938L178.505 88.9489C178.403 88.9872 178.26 89.0256 178.077 89.0639C177.894 89.1065 177.662 89.1278 177.38 89.1278C176.954 89.1278 176.537 89.0362 176.127 88.853C175.723 88.6697 175.386 88.3906 175.118 88.0156C174.853 87.6406 174.721 87.1676 174.721 86.5966V76.8295ZM185.632 89V87.8494L189.953 83.1193C190.461 82.5653 190.878 82.0838 191.206 81.6747C191.534 81.2614 191.777 80.8736 191.935 80.5114C192.097 80.1449 192.178 79.7614 192.178 79.3608C192.178 78.9006 192.067 78.5021 191.846 78.1655C191.628 77.8288 191.33 77.5689 190.951 77.3857C190.571 77.2024 190.145 77.1108 189.672 77.1108C189.169 77.1108 188.73 77.2152 188.355 77.424C187.985 77.6286 187.697 77.9162 187.493 78.2869C187.292 78.6577 187.192 79.0923 187.192 79.5909H185.684C185.684 78.8239 185.86 78.1506 186.214 77.571C186.568 76.9915 187.049 76.5398 187.659 76.2159C188.272 75.892 188.961 75.7301 189.723 75.7301C190.49 75.7301 191.17 75.892 191.762 76.2159C192.355 76.5398 192.819 76.9766 193.156 77.5263C193.493 78.076 193.661 78.6875 193.661 79.3608C193.661 79.8423 193.574 80.3132 193.399 80.7734C193.228 81.2294 192.93 81.7386 192.504 82.3011C192.082 82.8594 191.496 83.5412 190.746 84.3466L187.806 87.4915V87.5938H193.891V89H185.632Z" fill="black"/>
<path d="M262.631 82.4545C262.631 83.8352 262.381 85.0284 261.883 86.0341C261.384 87.0398 260.7 87.8153 259.831 88.3608C258.962 88.9062 257.969 89.179 256.852 89.179C255.736 89.179 254.743 88.9062 253.874 88.3608C253.004 87.8153 252.32 87.0398 251.822 86.0341C251.323 85.0284 251.074 83.8352 251.074 82.4545C251.074 81.0739 251.323 79.8807 251.822 78.875C252.32 77.8693 253.004 77.0938 253.874 76.5483C254.743 76.0028 255.736 75.7301 256.852 75.7301C257.969 75.7301 258.962 76.0028 259.831 76.5483C260.7 77.0938 261.384 77.8693 261.883 78.875C262.381 79.8807 262.631 81.0739 262.631 82.4545ZM261.097 82.4545C261.097 81.321 260.907 80.3643 260.528 79.5845C260.153 78.8047 259.643 78.2145 259 77.8139C258.361 77.4134 257.645 77.2131 256.852 77.2131C256.06 77.2131 255.342 77.4134 254.698 77.8139C254.059 78.2145 253.55 78.8047 253.17 79.5845C252.795 80.3643 252.608 81.321 252.608 82.4545C252.608 83.5881 252.795 84.5447 253.17 85.3246C253.55 86.1044 254.059 86.6946 254.698 87.0952C255.342 87.4957 256.06 87.696 256.852 87.696C257.645 87.696 258.361 87.4957 259 87.0952C259.643 86.6946 260.153 86.1044 260.528 85.3246C260.907 84.5447 261.097 83.5881 261.097 82.4545ZM269.08 89.2045C268.16 89.2045 267.367 88.9872 266.702 88.5526C266.038 88.1179 265.526 87.5192 265.168 86.7564C264.81 85.9936 264.631 85.1222 264.631 84.142C264.631 83.1449 264.815 82.2649 265.181 81.5021C265.552 80.7351 266.067 80.1364 266.728 79.706C267.393 79.2713 268.168 79.054 269.055 79.054C269.745 79.054 270.367 79.1818 270.921 79.4375C271.475 79.6932 271.929 80.0511 272.283 80.5114C272.636 80.9716 272.856 81.5085 272.941 82.1222H271.433C271.317 81.6747 271.062 81.2784 270.665 80.9332C270.273 80.5838 269.745 80.4091 269.08 80.4091C268.492 80.4091 267.977 80.5625 267.533 80.8693C267.094 81.1719 266.751 81.6001 266.504 82.1541C266.261 82.7038 266.14 83.3494 266.14 84.0909C266.14 84.8494 266.259 85.5099 266.498 86.0724C266.741 86.6349 267.082 87.0717 267.521 87.3828C267.964 87.6939 268.484 87.8494 269.08 87.8494C269.472 87.8494 269.828 87.7812 270.148 87.6449C270.467 87.5085 270.738 87.3125 270.96 87.0568C271.181 86.8011 271.339 86.4943 271.433 86.1364H272.941C272.856 86.7159 272.645 87.2379 272.308 87.7024C271.976 88.1626 271.535 88.5291 270.985 88.8018C270.44 89.0703 269.805 89.2045 269.08 89.2045ZM279.416 79.1818V80.4602H274.328V79.1818H279.416ZM275.811 76.8295H277.32V86.1875C277.32 86.6136 277.381 86.9332 277.505 87.1463C277.633 87.3551 277.795 87.4957 277.991 87.5682C278.191 87.6364 278.402 87.6705 278.624 87.6705C278.79 87.6705 278.926 87.6619 279.033 87.6449C279.139 87.6236 279.224 87.6065 279.288 87.5938L279.595 88.9489C279.493 88.9872 279.35 89.0256 279.167 89.0639C278.984 89.1065 278.751 89.1278 278.47 89.1278C278.044 89.1278 277.626 89.0362 277.217 88.853C276.813 88.6697 276.476 88.3906 276.207 88.0156C275.943 87.6406 275.811 87.1676 275.811 86.5966V76.8295ZM285.696 89.2045C284.75 89.2045 283.934 88.9957 283.248 88.5781C282.566 88.1562 282.04 87.5682 281.669 86.8139C281.303 86.0554 281.12 85.1733 281.12 84.1676C281.12 83.1619 281.303 82.2756 281.669 81.5085C282.04 80.7372 282.556 80.1364 283.216 79.706C283.881 79.2713 284.657 79.054 285.543 79.054C286.054 79.054 286.559 79.1392 287.058 79.3097C287.556 79.4801 288.01 79.7571 288.419 80.1406C288.828 80.5199 289.154 81.0227 289.397 81.6491C289.64 82.2756 289.762 83.0469 289.762 83.9631V84.6023H282.194V83.2983H288.228C288.228 82.7443 288.117 82.25 287.895 81.8153C287.678 81.3807 287.367 81.0376 286.962 80.7862C286.561 80.5348 286.088 80.4091 285.543 80.4091C284.942 80.4091 284.422 80.5582 283.983 80.8565C283.549 81.1506 283.214 81.5341 282.98 82.0071C282.745 82.4801 282.628 82.9872 282.628 83.5284V84.3977C282.628 85.1392 282.756 85.7678 283.012 86.2834C283.272 86.7947 283.632 87.1847 284.092 87.4531C284.552 87.7173 285.087 87.8494 285.696 87.8494C286.093 87.8494 286.451 87.794 286.77 87.6832C287.094 87.5682 287.373 87.3977 287.608 87.1719C287.842 86.9418 288.023 86.6562 288.151 86.3153L289.608 86.7244C289.455 87.2188 289.197 87.6534 288.835 88.0284C288.473 88.3991 288.025 88.6889 287.493 88.8977C286.96 89.1023 286.361 89.2045 285.696 89.2045ZM296.326 79.1818V80.4602H291.238V79.1818H296.326ZM292.721 76.8295H294.23V86.1875C294.23 86.6136 294.292 86.9332 294.415 87.1463C294.543 87.3551 294.705 87.4957 294.901 87.5682C295.101 87.6364 295.312 87.6705 295.534 87.6705C295.7 87.6705 295.836 87.6619 295.943 87.6449C296.049 87.6236 296.135 87.6065 296.199 87.5938L296.505 88.9489C296.403 88.9872 296.26 89.0256 296.077 89.0639C295.894 89.1065 295.662 89.1278 295.38 89.1278C294.954 89.1278 294.537 89.0362 294.127 88.853C293.723 88.6697 293.386 88.3906 293.118 88.0156C292.853 87.6406 292.721 87.1676 292.721 86.5966V76.8295ZM308.056 89.179C307.212 89.179 306.46 89.0341 305.799 88.7443C305.143 88.4545 304.621 88.0518 304.233 87.5362C303.85 87.0163 303.641 86.4134 303.607 85.7273H305.218C305.252 86.1491 305.397 86.5135 305.652 86.8203C305.908 87.1229 306.243 87.3572 306.656 87.5234C307.069 87.6896 307.527 87.7727 308.03 87.7727C308.593 87.7727 309.091 87.6747 309.526 87.4787C309.961 87.2827 310.301 87.0099 310.549 86.6605C310.796 86.3111 310.919 85.9062 310.919 85.446C310.919 84.9645 310.8 84.5405 310.561 84.174C310.323 83.8033 309.973 83.5135 309.513 83.3047C309.053 83.0959 308.49 82.9915 307.826 82.9915H306.777V81.5852H307.826C308.346 81.5852 308.801 81.4915 309.194 81.304C309.59 81.1165 309.899 80.8523 310.12 80.5114C310.346 80.1705 310.459 79.7699 310.459 79.3097C310.459 78.8665 310.361 78.4808 310.165 78.1527C309.969 77.8246 309.692 77.5689 309.334 77.3857C308.98 77.2024 308.563 77.1108 308.081 77.1108C307.63 77.1108 307.203 77.1939 306.803 77.3601C306.407 77.522 306.083 77.7585 305.831 78.0696C305.58 78.3764 305.444 78.7472 305.422 79.1818H303.888C303.914 78.4957 304.12 77.8949 304.508 77.3793C304.896 76.8594 305.403 76.4545 306.029 76.1648C306.66 75.875 307.353 75.7301 308.107 75.7301C308.917 75.7301 309.611 75.8942 310.191 76.2223C310.77 76.5462 311.216 76.9744 311.527 77.5071C311.838 78.0398 311.993 78.6151 311.993 79.233C311.993 79.9702 311.799 80.5987 311.412 81.1186C311.028 81.6385 310.506 81.9986 309.846 82.1989V82.3011C310.672 82.4375 311.318 82.7891 311.782 83.3558C312.247 83.9183 312.479 84.6151 312.479 85.446C312.479 86.1577 312.285 86.7969 311.897 87.3636C311.514 87.9261 310.99 88.3693 310.325 88.6932C309.66 89.017 308.904 89.179 308.056 89.179Z" fill="black"/>
<path d="M356.631 82.4545C356.631 83.8352 356.381 85.0284 355.883 86.0341C355.384 87.0398 354.7 87.8153 353.831 88.3608C352.962 88.9062 351.969 89.179 350.852 89.179C349.736 89.179 348.743 88.9062 347.874 88.3608C347.004 87.8153 346.32 87.0398 345.822 86.0341C345.323 85.0284 345.074 83.8352 345.074 82.4545C345.074 81.0739 345.323 79.8807 345.822 78.875C346.32 77.8693 347.004 77.0938 347.874 76.5483C348.743 76.0028 349.736 75.7301 350.852 75.7301C351.969 75.7301 352.962 76.0028 353.831 76.5483C354.7 77.0938 355.384 77.8693 355.883 78.875C356.381 79.8807 356.631 81.0739 356.631 82.4545ZM355.097 82.4545C355.097 81.321 354.907 80.3643 354.528 79.5845C354.153 78.8047 353.643 78.2145 353 77.8139C352.361 77.4134 351.645 77.2131 350.852 77.2131C350.06 77.2131 349.342 77.4134 348.698 77.8139C348.059 78.2145 347.55 78.8047 347.17 79.5845C346.795 80.3643 346.608 81.321 346.608 82.4545C346.608 83.5881 346.795 84.5447 347.17 85.3246C347.55 86.1044 348.059 86.6946 348.698 87.0952C349.342 87.4957 350.06 87.696 350.852 87.696C351.645 87.696 352.361 87.4957 353 87.0952C353.643 86.6946 354.153 86.1044 354.528 85.3246C354.907 84.5447 355.097 83.5881 355.097 82.4545ZM363.08 89.2045C362.16 89.2045 361.367 88.9872 360.702 88.5526C360.038 88.1179 359.526 87.5192 359.168 86.7564C358.81 85.9936 358.631 85.1222 358.631 84.142C358.631 83.1449 358.815 82.2649 359.181 81.5021C359.552 80.7351 360.067 80.1364 360.728 79.706C361.393 79.2713 362.168 79.054 363.055 79.054C363.745 79.054 364.367 79.1818 364.921 79.4375C365.475 79.6932 365.929 80.0511 366.283 80.5114C366.636 80.9716 366.856 81.5085 366.941 82.1222H365.433C365.317 81.6747 365.062 81.2784 364.665 80.9332C364.273 80.5838 363.745 80.4091 363.08 80.4091C362.492 80.4091 361.977 80.5625 361.533 80.8693C361.094 81.1719 360.751 81.6001 360.504 82.1541C360.261 82.7038 360.14 83.3494 360.14 84.0909C360.14 84.8494 360.259 85.5099 360.498 86.0724C360.741 86.6349 361.082 87.0717 361.521 87.3828C361.964 87.6939 362.484 87.8494 363.08 87.8494C363.472 87.8494 363.828 87.7812 364.148 87.6449C364.467 87.5085 364.738 87.3125 364.96 87.0568C365.181 86.8011 365.339 86.4943 365.433 86.1364H366.941C366.856 86.7159 366.645 87.2379 366.308 87.7024C365.976 88.1626 365.535 88.5291 364.985 88.8018C364.44 89.0703 363.805 89.2045 363.08 89.2045ZM373.416 79.1818V80.4602H368.328V79.1818H373.416ZM369.811 76.8295H371.32V86.1875C371.32 86.6136 371.381 86.9332 371.505 87.1463C371.633 87.3551 371.795 87.4957 371.991 87.5682C372.191 87.6364 372.402 87.6705 372.624 87.6705C372.79 87.6705 372.926 87.6619 373.033 87.6449C373.139 87.6236 373.224 87.6065 373.288 87.5938L373.595 88.9489C373.493 88.9872 373.35 89.0256 373.167 89.0639C372.984 89.1065 372.751 89.1278 372.47 89.1278C372.044 89.1278 371.626 89.0362 371.217 88.853C370.813 88.6697 370.476 88.3906 370.207 88.0156C369.943 87.6406 369.811 87.1676 369.811 86.5966V76.8295ZM379.696 89.2045C378.75 89.2045 377.934 88.9957 377.248 88.5781C376.566 88.1562 376.04 87.5682 375.669 86.8139C375.303 86.0554 375.12 85.1733 375.12 84.1676C375.12 83.1619 375.303 82.2756 375.669 81.5085C376.04 80.7372 376.556 80.1364 377.216 79.706C377.881 79.2713 378.657 79.054 379.543 79.054C380.054 79.054 380.559 79.1392 381.058 79.3097C381.556 79.4801 382.01 79.7571 382.419 80.1406C382.828 80.5199 383.154 81.0227 383.397 81.6491C383.64 82.2756 383.762 83.0469 383.762 83.9631V84.6023H376.194V83.2983H382.228C382.228 82.7443 382.117 82.25 381.895 81.8153C381.678 81.3807 381.367 81.0376 380.962 80.7862C380.561 80.5348 380.088 80.4091 379.543 80.4091C378.942 80.4091 378.422 80.5582 377.983 80.8565C377.549 81.1506 377.214 81.5341 376.98 82.0071C376.745 82.4801 376.628 82.9872 376.628 83.5284V84.3977C376.628 85.1392 376.756 85.7678 377.012 86.2834C377.272 86.7947 377.632 87.1847 378.092 87.4531C378.552 87.7173 379.087 87.8494 379.696 87.8494C380.093 87.8494 380.451 87.794 380.77 87.6832C381.094 87.5682 381.373 87.3977 381.608 87.1719C381.842 86.9418 382.023 86.6562 382.151 86.3153L383.608 86.7244C383.455 87.2188 383.197 87.6534 382.835 88.0284C382.473 88.3991 382.025 88.6889 381.493 88.8977C380.96 89.1023 380.361 89.2045 379.696 89.2045ZM390.326 79.1818V80.4602H385.238V79.1818H390.326ZM386.721 76.8295H388.23V86.1875C388.23 86.6136 388.292 86.9332 388.415 87.1463C388.543 87.3551 388.705 87.4957 388.901 87.5682C389.101 87.6364 389.312 87.6705 389.534 87.6705C389.7 87.6705 389.836 87.6619 389.943 87.6449C390.049 87.6236 390.135 87.6065 390.199 87.5938L390.505 88.9489C390.403 88.9872 390.26 89.0256 390.077 89.0639C389.894 89.1065 389.662 89.1278 389.38 89.1278C388.954 89.1278 388.537 89.0362 388.127 88.853C387.723 88.6697 387.386 88.3906 387.118 88.0156C386.853 87.6406 386.721 87.1676 386.721 86.5966V76.8295ZM397.326 86.3153V85.0114L403.078 75.9091H404.025V77.929H403.385L399.039 84.8068V84.9091H406.786V86.3153H397.326ZM403.488 89V85.919V85.3118V75.9091H404.996V89H403.488Z" fill="black"/>
<path d="M193.852 153.119C193.29 153.119 192.788 153.023 192.348 152.83C191.911 152.636 191.563 152.368 191.304 152.024C191.048 151.678 190.909 151.276 190.886 150.818H191.96C191.983 151.099 192.08 151.342 192.25 151.547C192.42 151.749 192.643 151.905 192.919 152.016C193.195 152.126 193.5 152.182 193.835 152.182C194.21 152.182 194.543 152.116 194.832 151.986C195.122 151.855 195.349 151.673 195.514 151.44C195.679 151.207 195.761 150.938 195.761 150.631C195.761 150.31 195.682 150.027 195.523 149.783C195.364 149.536 195.131 149.342 194.824 149.203C194.517 149.064 194.142 148.994 193.699 148.994H193V148.057H193.699C194.045 148.057 194.349 147.994 194.611 147.869C194.875 147.744 195.081 147.568 195.229 147.341C195.379 147.114 195.455 146.847 195.455 146.54C195.455 146.244 195.389 145.987 195.259 145.768C195.128 145.55 194.943 145.379 194.705 145.257C194.469 145.135 194.19 145.074 193.869 145.074C193.568 145.074 193.284 145.129 193.017 145.24C192.753 145.348 192.537 145.506 192.369 145.713C192.202 145.918 192.111 146.165 192.097 146.455H191.074C191.091 145.997 191.229 145.597 191.487 145.253C191.746 144.906 192.084 144.636 192.501 144.443C192.922 144.25 193.384 144.153 193.886 144.153C194.426 144.153 194.889 144.263 195.276 144.482C195.662 144.697 195.959 144.983 196.166 145.338C196.374 145.693 196.477 146.077 196.477 146.489C196.477 146.98 196.348 147.399 196.089 147.746C195.834 148.092 195.486 148.332 195.045 148.466V148.534C195.597 148.625 196.027 148.859 196.337 149.237C196.646 149.612 196.801 150.077 196.801 150.631C196.801 151.105 196.672 151.531 196.413 151.909C196.158 152.284 195.808 152.58 195.365 152.795C194.922 153.011 194.418 153.119 193.852 153.119ZM198.544 153V152.233L201.425 149.08C201.763 148.71 202.041 148.389 202.26 148.116C202.479 147.841 202.641 147.582 202.746 147.341C202.854 147.097 202.908 146.841 202.908 146.574C202.908 146.267 202.834 146.001 202.686 145.777C202.541 145.553 202.342 145.379 202.089 145.257C201.837 145.135 201.553 145.074 201.237 145.074C200.902 145.074 200.609 145.143 200.359 145.283C200.112 145.419 199.92 145.611 199.784 145.858C199.651 146.105 199.584 146.395 199.584 146.727H198.578C198.578 146.216 198.696 145.767 198.932 145.381C199.168 144.994 199.489 144.693 199.895 144.477C200.304 144.261 200.763 144.153 201.271 144.153C201.783 144.153 202.236 144.261 202.631 144.477C203.026 144.693 203.335 144.984 203.56 145.351C203.784 145.717 203.896 146.125 203.896 146.574C203.896 146.895 203.838 147.209 203.722 147.516C203.608 147.82 203.409 148.159 203.125 148.534C202.844 148.906 202.453 149.361 201.953 149.898L199.993 151.994V152.062H204.05V153H198.544ZM209.338 153V144.273H212.389C212.997 144.273 213.499 144.378 213.893 144.588C214.288 144.795 214.582 145.075 214.776 145.428C214.969 145.777 215.065 146.165 215.065 146.591C215.065 146.966 214.999 147.276 214.865 147.52C214.734 147.764 214.561 147.957 214.345 148.099C214.132 148.241 213.901 148.347 213.651 148.415V148.5C213.918 148.517 214.186 148.611 214.456 148.781C214.726 148.952 214.952 149.196 215.134 149.514C215.315 149.832 215.406 150.222 215.406 150.682C215.406 151.119 215.307 151.513 215.108 151.862C214.909 152.212 214.595 152.489 214.166 152.693C213.737 152.898 213.179 153 212.491 153H209.338ZM210.395 152.062H212.491C213.182 152.062 213.672 151.929 213.962 151.662C214.254 151.392 214.401 151.065 214.401 150.682C214.401 150.386 214.325 150.114 214.175 149.864C214.024 149.611 213.81 149.409 213.531 149.259C213.253 149.105 212.923 149.028 212.543 149.028H210.395V152.062ZM210.395 148.108H212.355C212.673 148.108 212.96 148.045 213.216 147.92C213.474 147.795 213.679 147.619 213.83 147.392C213.983 147.165 214.06 146.898 214.06 146.591C214.06 146.207 213.926 145.882 213.659 145.615C213.392 145.345 212.969 145.21 212.389 145.21H210.395V148.108ZM217.006 153V146.455H218.012V153H217.006ZM217.518 145.364C217.322 145.364 217.153 145.297 217.011 145.163C216.871 145.03 216.802 144.869 216.802 144.682C216.802 144.494 216.871 144.334 217.011 144.2C217.153 144.067 217.322 144 217.518 144C217.714 144 217.881 144.067 218.021 144.2C218.163 144.334 218.234 144.494 218.234 144.682C218.234 144.869 218.163 145.03 218.021 145.163C217.881 145.297 217.714 145.364 217.518 145.364ZM222.701 146.455V147.307H219.309V146.455H222.701ZM220.297 144.886H221.303V151.125C221.303 151.409 221.344 151.622 221.426 151.764C221.512 151.903 221.62 151.997 221.75 152.045C221.884 152.091 222.025 152.114 222.172 152.114C222.283 152.114 222.374 152.108 222.445 152.097C222.516 152.082 222.573 152.071 222.615 152.062L222.82 152.966C222.752 152.991 222.657 153.017 222.534 153.043C222.412 153.071 222.257 153.085 222.07 153.085C221.786 153.085 221.507 153.024 221.235 152.902C220.965 152.78 220.74 152.594 220.561 152.344C220.385 152.094 220.297 151.778 220.297 151.398V144.886ZM228.733 147.92L227.829 148.176C227.772 148.026 227.689 147.879 227.578 147.737C227.47 147.592 227.322 147.473 227.135 147.379C226.947 147.286 226.707 147.239 226.414 147.239C226.014 147.239 225.68 147.331 225.413 147.516C225.149 147.697 225.017 147.929 225.017 148.21C225.017 148.46 225.108 148.658 225.289 148.803C225.471 148.947 225.755 149.068 226.142 149.165L227.113 149.403C227.699 149.545 228.135 149.763 228.422 150.055C228.708 150.345 228.852 150.719 228.852 151.176C228.852 151.551 228.744 151.886 228.528 152.182C228.315 152.477 228.017 152.71 227.633 152.881C227.25 153.051 226.804 153.136 226.295 153.136C225.627 153.136 225.075 152.991 224.637 152.702C224.2 152.412 223.923 151.989 223.806 151.432L224.761 151.193C224.852 151.545 225.024 151.81 225.277 151.986C225.532 152.162 225.866 152.25 226.278 152.25C226.747 152.25 227.119 152.151 227.395 151.952C227.673 151.75 227.812 151.509 227.812 151.227C227.812 151 227.733 150.81 227.574 150.656C227.414 150.5 227.17 150.384 226.841 150.307L225.75 150.051C225.15 149.909 224.71 149.689 224.429 149.391C224.15 149.089 224.011 148.713 224.011 148.261C224.011 147.892 224.115 147.565 224.322 147.281C224.532 146.997 224.818 146.774 225.179 146.612C225.542 146.45 225.954 146.369 226.414 146.369C227.062 146.369 227.571 146.511 227.94 146.795C228.312 147.08 228.576 147.455 228.733 147.92Z" fill="black"/>
<path d="M59.75 106L207.75 138" stroke="black"/>
<path d="M206.673 137.858L354.827 102.142" stroke="black"/>
</svg>
