<svg width="263" height="66" viewBox="0 0 263 66" fill="none" xmlns="http://www.w3.org/2000/svg">
<path d="M2.24 14.64C3.17867 14.3413 4.14933 14.1387 5.152 14.032C6.176 13.904 7.27467 13.84 8.448 13.84C10.2827 13.84 11.7333 14.0213 12.8 14.384C13.8667 14.7253 14.624 15.2587 15.072 15.984C15.5413 16.7093 15.776 17.6267 15.776 18.736C15.776 20.0373 15.4667 21.136 14.848 22.032C14.2293 22.9067 13.1627 23.44 11.648 23.632V23.792C13.2267 23.8773 14.3467 24.3147 15.008 25.104C15.6907 25.8933 16.032 26.864 16.032 28.016C16.032 29.936 15.392 31.3867 14.112 32.368C12.8533 33.328 10.8267 33.84 8.032 33.904C6.60267 33.9253 5.344 33.8507 4.256 33.68C3.168 33.5093 2.176 33.2747 1.28 32.976V28.976H1.472C2.32533 29.2533 3.18933 29.456 4.064 29.584C4.93867 29.712 5.93067 29.776 7.04 29.776C8.53333 29.776 9.61067 29.616 10.272 29.296C10.9333 28.976 11.264 28.4213 11.264 27.632C11.264 26.9067 11.008 26.416 10.496 26.16C10.0053 25.8827 9.088 25.744 7.744 25.744H5.184V21.616H7.328C8.864 21.616 9.89867 21.488 10.432 21.232C10.9867 20.9547 11.264 20.464 11.264 19.76C11.264 19.0347 10.9547 18.5547 10.336 18.32C9.73867 18.0853 8.68267 17.968 7.168 17.968C6.336 17.968 5.49333 18.032 4.64 18.16C3.808 18.288 3.05067 18.4587 2.368 18.672L2.24 18.64V14.64ZM34.024 29.328V33.36C33 33.5733 31.9973 33.7333 31.016 33.84C30.0347 33.9467 28.872 34 27.528 34C25.8 34 24.3387 33.8507 23.144 33.552C21.9707 33.2533 21.0213 32.7307 20.296 31.984C19.592 31.216 19.08 30.1387 18.76 28.752C18.44 27.3653 18.28 25.584 18.28 23.408C18.28 21.3173 18.44 19.6 18.76 18.256C19.08 16.912 19.592 15.8773 20.296 15.152C21.0213 14.4053 21.9707 13.8933 23.144 13.616C24.3387 13.3173 25.8 13.168 27.528 13.168C28.872 13.168 30.0347 13.2213 31.016 13.328C31.9973 13.4133 33 13.5733 34.024 13.808V17.968L33.928 18.032C33.032 17.8187 32.168 17.6693 31.336 17.584C30.504 17.4773 29.48 17.424 28.264 17.424C27.2827 17.424 26.472 17.4987 25.832 17.648C25.2133 17.776 24.7227 18.0427 24.36 18.448C23.9973 18.8533 23.7413 19.4507 23.592 20.24C23.464 21.0293 23.4 22.0853 23.4 23.408C23.4 24.7947 23.464 25.9147 23.592 26.768C23.7413 27.6 23.9973 28.2293 24.36 28.656C24.7227 29.0827 25.2133 29.3707 25.832 29.52C26.472 29.6693 27.2827 29.744 28.264 29.744C29.4587 29.744 30.472 29.712 31.304 29.648C32.1573 29.5627 33.0107 29.4133 33.864 29.2L34.024 29.328ZM42.7165 19.376C42.7592 19.7813 42.7805 20.144 42.7805 20.464C42.8018 20.784 42.8125 21.104 42.8125 21.424C42.8125 21.744 42.8018 22.064 42.7805 22.384C42.7805 22.704 42.7592 23.0773 42.7165 23.504C41.6925 23.696 40.7005 23.792 39.7405 23.792C38.8018 23.792 37.8525 23.696 36.8925 23.504C36.8285 23.0987 36.7858 22.736 36.7645 22.416C36.7432 22.096 36.7325 21.776 36.7325 21.456C36.7325 21.1573 36.7432 20.8373 36.7645 20.496C36.7858 20.1547 36.8285 19.7813 36.8925 19.376C37.3832 19.2693 37.8738 19.1947 38.3645 19.152C38.8552 19.1093 39.3352 19.088 39.8045 19.088C40.2952 19.088 40.7752 19.1093 41.2445 19.152C41.7352 19.1947 42.2258 19.2693 42.7165 19.376ZM42.7165 29.552C42.7592 29.9787 42.7805 30.352 42.7805 30.672C42.8018 30.992 42.8125 31.312 42.8125 31.632C42.8125 32.1867 42.7805 32.8693 42.7165 33.68C41.7352 33.8933 40.7432 34 39.7405 34C39.2712 34 38.8018 33.9787 38.3325 33.936C37.8632 33.872 37.3938 33.7867 36.9245 33.68C36.8392 33.296 36.7858 32.944 36.7645 32.624C36.7432 32.304 36.7325 31.984 36.7325 31.664C36.7325 31.3653 36.7432 31.0453 36.7645 30.704C36.7858 30.3627 36.8392 29.9787 36.9245 29.552C37.3938 29.4453 37.8738 29.3813 38.3645 29.36C38.8552 29.3173 39.3352 29.296 39.8045 29.296C40.2952 29.296 40.7752 29.3173 41.2445 29.36C41.7352 29.3813 42.2258 29.4453 42.7165 29.552ZM46.4148 25.52V14.224H60.3028V18.352H50.8308V21.488L50.8948 21.584H54.3188C56.6654 21.584 58.3721 22.064 59.4388 23.024C60.5054 23.984 61.0388 25.5093 61.0388 27.6C61.0388 29.8187 60.3454 31.44 58.9588 32.464C57.5721 33.488 55.4174 34 52.4948 34C51.1081 34 49.8494 33.936 48.7188 33.808C47.5881 33.6587 46.5748 33.4773 45.6788 33.264V29.36L45.7428 29.296C46.2121 29.424 46.7668 29.5307 47.4068 29.616C48.0681 29.7013 48.7401 29.776 49.4227 29.84C50.1054 29.8827 50.7241 29.904 51.2788 29.904C52.6014 29.904 53.6148 29.84 54.3188 29.712C55.0228 29.584 55.5028 29.36 55.7588 29.04C56.0361 28.6987 56.1748 28.2293 56.1748 27.632C56.1748 26.8853 55.9934 26.352 55.6308 26.032C55.2894 25.6907 54.5961 25.52 53.5508 25.52H46.4148ZM63.1878 19.696V15.504C63.9344 15.0347 64.9158 14.6507 66.1318 14.352C67.3478 14.0533 68.6704 13.904 70.0998 13.904C72.3824 13.904 74.2064 14.352 75.5718 15.248C76.9584 16.144 77.6518 17.6587 77.6518 19.792C77.6518 21.4773 77.2571 22.832 76.4678 23.856C75.6998 24.8587 74.3344 25.7333 72.3718 26.48C70.4731 27.2053 69.1611 27.824 68.4358 28.336C67.7318 28.8267 67.3798 29.3173 67.3798 29.808H77.8118V33.872H62.6438V30.288C62.6438 29.2 62.8251 28.272 63.1878 27.504C63.5718 26.736 64.2224 26.032 65.1398 25.392C66.0571 24.752 67.3264 24.0907 68.9478 23.408C70.1638 22.896 71.1131 22.4053 71.7958 21.936C72.4998 21.4453 72.8411 20.8587 72.8198 20.176C72.7984 19.3653 72.4891 18.8 71.8918 18.48C71.3158 18.1387 70.4944 17.968 69.4278 17.968C68.4038 17.968 67.3584 18.1493 66.2918 18.512C65.2251 18.8533 64.2864 19.248 63.4758 19.696H63.1878ZM86.3415 19.376C86.3842 19.7813 86.4055 20.144 86.4055 20.464C86.4268 20.784 86.4375 21.104 86.4375 21.424C86.4375 21.744 86.4268 22.064 86.4055 22.384C86.4055 22.704 86.3842 23.0773 86.3415 23.504C85.3175 23.696 84.3255 23.792 83.3655 23.792C82.4268 23.792 81.4775 23.696 80.5175 23.504C80.4535 23.0987 80.4108 22.736 80.3895 22.416C80.3682 22.096 80.3575 21.776 80.3575 21.456C80.3575 21.1573 80.3682 20.8373 80.3895 20.496C80.4108 20.1547 80.4535 19.7813 80.5175 19.376C81.0082 19.2693 81.4988 19.1947 81.9895 19.152C82.4802 19.1093 82.9602 19.088 83.4295 19.088C83.9202 19.088 84.4002 19.1093 84.8695 19.152C85.3602 19.1947 85.8508 19.2693 86.3415 19.376ZM86.3415 29.552C86.3842 29.9787 86.4055 30.352 86.4055 30.672C86.4268 30.992 86.4375 31.312 86.4375 31.632C86.4375 32.1867 86.4055 32.8693 86.3415 33.68C85.3602 33.8933 84.3682 34 83.3655 34C82.8962 34 82.4268 33.9787 81.9575 33.936C81.4882 33.872 81.0188 33.7867 80.5495 33.68C80.4642 33.296 80.4108 32.944 80.3895 32.624C80.3682 32.304 80.3575 31.984 80.3575 31.664C80.3575 31.3653 80.3682 31.0453 80.3895 30.704C80.4108 30.3627 80.4642 29.9787 80.5495 29.552C81.0188 29.4453 81.4988 29.3813 81.9895 29.36C82.4802 29.3173 82.9602 29.296 83.4295 29.296C83.9202 29.296 84.4002 29.3173 84.8695 29.36C85.3602 29.3813 85.8508 29.4453 86.3415 29.552ZM105.048 28.368C105.048 29.7547 104.792 30.864 104.28 31.696C103.789 32.5067 102.968 33.0933 101.816 33.456C100.664 33.8187 99.1171 34 97.1758 34C95.2131 34 93.6558 33.8187 92.5038 33.456C91.3518 33.0933 90.5304 32.496 90.0398 31.664C89.5491 30.832 89.3038 29.7333 89.3038 28.368C89.3038 27.088 89.4638 26.096 89.7838 25.392C90.1038 24.688 90.7224 24.208 91.6398 23.952V23.888C90.8718 23.632 90.3384 23.1627 90.0398 22.48C89.7624 21.7973 89.6238 20.848 89.6238 19.632C89.6238 18.2027 89.8584 17.072 90.3278 16.24C90.8184 15.408 91.6184 14.8107 92.7278 14.448C93.8371 14.064 95.3198 13.872 97.1758 13.872C99.0104 13.872 100.482 14.0533 101.592 14.416C102.701 14.7787 103.501 15.3867 103.992 16.24C104.482 17.072 104.728 18.2027 104.728 19.632C104.728 20.848 104.578 21.7973 104.28 22.48C104.002 23.1627 103.48 23.632 102.712 23.888V23.952C103.65 24.208 104.269 24.688 104.568 25.392C104.888 26.096 105.048 27.088 105.048 28.368ZM94.3918 19.792C94.3918 20.9013 94.6371 21.6053 95.1278 21.904C95.6398 22.2027 96.3224 22.352 97.1758 22.352C98.0931 22.352 98.7864 22.192 99.2558 21.872C99.7251 21.552 99.9598 20.8587 99.9598 19.792C99.9598 18.7893 99.7038 18.1493 99.1918 17.872C98.6798 17.5733 98.0078 17.424 97.1758 17.424C96.3224 17.424 95.6398 17.584 95.1278 17.904C94.6371 18.2027 94.3918 18.832 94.3918 19.792ZM94.0718 27.952C94.0718 28.912 94.3278 29.5627 94.8398 29.904C95.3518 30.224 96.1304 30.384 97.1758 30.384C98.2424 30.384 99.0211 30.224 99.5118 29.904C100.024 29.5627 100.28 28.912 100.28 27.952C100.28 26.992 100.024 26.352 99.5118 26.032C99.0211 25.712 98.2424 25.552 97.1758 25.552C96.1304 25.552 95.3518 25.712 94.8398 26.032C94.3278 26.352 94.0718 26.992 94.0718 27.952ZM107.344 19.696V15.504C108.091 15.0347 109.072 14.6507 110.288 14.352C111.504 14.0533 112.827 13.904 114.256 13.904C116.539 13.904 118.363 14.352 119.728 15.248C121.115 16.144 121.808 17.6587 121.808 19.792C121.808 21.4773 121.413 22.832 120.624 23.856C119.856 24.8587 118.491 25.7333 116.528 26.48C114.629 27.2053 113.317 27.824 112.592 28.336C111.888 28.8267 111.536 29.3173 111.536 29.808H121.968V33.872H106.8V30.288C106.8 29.2 106.981 28.272 107.344 27.504C107.728 26.736 108.379 26.032 109.296 25.392C110.213 24.752 111.483 24.0907 113.104 23.408C114.32 22.896 115.269 22.4053 115.952 21.936C116.656 21.4453 116.997 20.8587 116.976 20.176C116.955 19.3653 116.645 18.8 116.048 18.48C115.472 18.1387 114.651 17.968 113.584 17.968C112.56 17.968 111.515 18.1493 110.448 18.512C109.381 18.8533 108.443 19.248 107.632 19.696H107.344Z" fill="#0481FF" fill-opacity="0.9"/>
<path d="M130.498 19.376C130.54 19.7813 130.562 20.144 130.562 20.464C130.583 20.784 130.594 21.104 130.594 21.424C130.594 21.744 130.583 22.064 130.562 22.384C130.562 22.704 130.54 23.0773 130.498 23.504C129.474 23.696 128.482 23.792 127.522 23.792C126.583 23.792 125.634 23.696 124.674 23.504C124.61 23.0987 124.567 22.736 124.546 22.416C124.524 22.096 124.514 21.776 124.514 21.456C124.514 21.1573 124.524 20.8373 124.546 20.496C124.567 20.1547 124.61 19.7813 124.674 19.376C125.164 19.2693 125.655 19.1947 126.146 19.152C126.636 19.1093 127.116 19.088 127.586 19.088C128.076 19.088 128.556 19.1093 129.026 19.152C129.516 19.1947 130.007 19.2693 130.498 19.376ZM130.498 29.552C130.54 29.9787 130.562 30.352 130.562 30.672C130.583 30.992 130.594 31.312 130.594 31.632C130.594 32.1867 130.562 32.8693 130.498 33.68C129.516 33.8933 128.524 34 127.522 34C127.052 34 126.583 33.9787 126.114 33.936C125.644 33.872 125.175 33.7867 124.706 33.68C124.62 33.296 124.567 32.944 124.546 32.624C124.524 32.304 124.514 31.984 124.514 31.664C124.514 31.3653 124.524 31.0453 124.546 30.704C124.567 30.3627 124.62 29.9787 124.706 29.552C125.175 29.4453 125.655 29.3813 126.146 29.36C126.636 29.3173 127.116 29.296 127.586 29.296C128.076 29.296 128.556 29.3173 129.026 29.36C129.516 29.3813 130.007 29.4453 130.498 29.552Z" fill="black"/>
<path d="M134.74 14.64C135.679 14.3413 136.649 14.1387 137.652 14.032C138.676 13.904 139.775 13.84 140.948 13.84C142.783 13.84 144.233 14.0213 145.3 14.384C146.367 14.7253 147.124 15.2587 147.572 15.984C148.041 16.7093 148.276 17.6267 148.276 18.736C148.276 20.0373 147.967 21.136 147.348 22.032C146.729 22.9067 145.663 23.44 144.148 23.632V23.792C145.727 23.8773 146.847 24.3147 147.508 25.104C148.191 25.8933 148.532 26.864 148.532 28.016C148.532 29.936 147.892 31.3867 146.612 32.368C145.353 33.328 143.327 33.84 140.532 33.904C139.103 33.9253 137.844 33.8507 136.756 33.68C135.668 33.5093 134.676 33.2747 133.78 32.976V28.976H133.972C134.825 29.2533 135.689 29.456 136.564 29.584C137.439 29.712 138.431 29.776 139.54 29.776C141.033 29.776 142.111 29.616 142.772 29.296C143.433 28.976 143.764 28.4213 143.764 27.632C143.764 26.9067 143.508 26.416 142.996 26.16C142.505 25.8827 141.588 25.744 140.244 25.744H137.684V21.616H139.828C141.364 21.616 142.399 21.488 142.932 21.232C143.487 20.9547 143.764 20.464 143.764 19.76C143.764 19.0347 143.455 18.5547 142.836 18.32C142.239 18.0853 141.183 17.968 139.668 17.968C138.836 17.968 137.993 18.032 137.14 18.16C136.308 18.288 135.551 18.4587 134.868 18.672L134.74 18.64V14.64ZM150.14 26.352L157.564 14.096H164.892V26.704H168.252V30.48H164.956V33.776H160.156L160.06 30.48H150.14V26.352ZM160.412 26.704V16.976L155.004 26.704H160.412ZM176.467 19.376C176.509 19.7813 176.531 20.144 176.531 20.464C176.552 20.784 176.562 21.104 176.562 21.424C176.562 21.744 176.552 22.064 176.531 22.384C176.531 22.704 176.509 23.0773 176.467 23.504C175.443 23.696 174.451 23.792 173.491 23.792C172.552 23.792 171.603 23.696 170.643 23.504C170.579 23.0987 170.536 22.736 170.515 22.416C170.493 22.096 170.483 21.776 170.483 21.456C170.483 21.1573 170.493 20.8373 170.515 20.496C170.536 20.1547 170.579 19.7813 170.643 19.376C171.133 19.2693 171.624 19.1947 172.115 19.152C172.605 19.1093 173.085 19.088 173.555 19.088C174.045 19.088 174.525 19.1093 174.995 19.152C175.485 19.1947 175.976 19.2693 176.467 19.376ZM176.467 29.552C176.509 29.9787 176.531 30.352 176.531 30.672C176.552 30.992 176.562 31.312 176.562 31.632C176.562 32.1867 176.531 32.8693 176.467 33.68C175.485 33.8933 174.493 34 173.491 34C173.021 34 172.552 33.9787 172.083 33.936C171.613 33.872 171.144 33.7867 170.674 33.68C170.589 33.296 170.536 32.944 170.515 32.624C170.493 32.304 170.483 31.984 170.483 31.664C170.483 31.3653 170.493 31.0453 170.515 30.704C170.536 30.3627 170.589 29.9787 170.674 29.552C171.144 29.4453 171.624 29.3813 172.115 29.36C172.605 29.3173 173.085 29.296 173.555 29.296C174.045 29.296 174.525 29.3173 174.995 29.36C175.485 29.3813 175.976 29.4453 176.467 29.552ZM179.109 26.352L186.533 14.096H193.861V26.704H197.221V30.48H193.925V33.776H189.125L189.029 30.48H179.109V26.352ZM189.381 26.704V16.976L183.973 26.704H189.381ZM199.451 33.712V13.456H208.315C210.086 13.456 211.569 13.6053 212.763 13.904C213.958 14.1813 214.918 14.6827 215.643 15.408C216.369 16.1333 216.891 17.1467 217.211 18.448C217.531 19.728 217.691 21.3813 217.691 23.408C217.691 25.52 217.531 27.248 217.211 28.592C216.891 29.936 216.369 30.9813 215.643 31.728C214.918 32.4747 213.958 32.9973 212.763 33.296C211.569 33.5733 210.086 33.712 208.315 33.712H199.451ZM207.579 17.776H204.571V29.392H207.579C208.817 29.392 209.787 29.2533 210.491 28.976C211.217 28.6987 211.729 28.1333 212.027 27.28C212.347 26.4267 212.507 25.136 212.507 23.408C212.507 21.7653 212.347 20.5493 212.027 19.76C211.729 18.9493 211.217 18.416 210.491 18.16C209.787 17.904 208.817 17.776 207.579 17.776ZM226.873 19.376C226.915 19.7813 226.937 20.144 226.937 20.464C226.958 20.784 226.969 21.104 226.969 21.424C226.969 21.744 226.958 22.064 226.937 22.384C226.937 22.704 226.915 23.0773 226.873 23.504C225.849 23.696 224.857 23.792 223.897 23.792C222.958 23.792 222.009 23.696 221.049 23.504C220.985 23.0987 220.942 22.736 220.921 22.416C220.899 22.096 220.889 21.776 220.889 21.456C220.889 21.1573 220.899 20.8373 220.921 20.496C220.942 20.1547 220.985 19.7813 221.049 19.376C221.539 19.2693 222.03 19.1947 222.521 19.152C223.011 19.1093 223.491 19.088 223.961 19.088C224.451 19.088 224.931 19.1093 225.401 19.152C225.891 19.1947 226.382 19.2693 226.873 19.376ZM226.873 29.552C226.915 29.9787 226.937 30.352 226.937 30.672C226.958 30.992 226.969 31.312 226.969 31.632C226.969 32.1867 226.937 32.8693 226.873 33.68C225.891 33.8933 224.899 34 223.897 34C223.427 34 222.958 33.9787 222.489 33.936C222.019 33.872 221.55 33.7867 221.081 33.68C220.995 33.296 220.942 32.944 220.921 32.624C220.899 32.304 220.889 31.984 220.889 31.664C220.889 31.3653 220.899 31.0453 220.921 30.704C220.942 30.3627 220.995 29.9787 221.081 29.552C221.55 29.4453 222.03 29.3813 222.521 29.36C223.011 29.3173 223.491 29.296 223.961 29.296C224.451 29.296 224.931 29.3173 225.401 29.36C225.891 29.3813 226.382 29.4453 226.873 29.552ZM231.115 14.64C232.054 14.3413 233.024 14.1387 234.027 14.032C235.051 13.904 236.15 13.84 237.323 13.84C239.158 13.84 240.608 14.0213 241.675 14.384C242.742 14.7253 243.499 15.2587 243.947 15.984C244.416 16.7093 244.651 17.6267 244.651 18.736C244.651 20.0373 244.342 21.136 243.723 22.032C243.104 22.9067 242.038 23.44 240.523 23.632V23.792C242.102 23.8773 243.222 24.3147 243.883 25.104C244.566 25.8933 244.907 26.864 244.907 28.016C244.907 29.936 244.267 31.3867 242.987 32.368C241.728 33.328 239.702 33.84 236.907 33.904C235.478 33.9253 234.219 33.8507 233.131 33.68C232.043 33.5093 231.051 33.2747 230.155 32.976V28.976H230.347C231.2 29.2533 232.064 29.456 232.939 29.584C233.814 29.712 234.806 29.776 235.915 29.776C237.408 29.776 238.486 29.616 239.147 29.296C239.808 28.976 240.139 28.4213 240.139 27.632C240.139 26.9067 239.883 26.416 239.371 26.16C238.88 25.8827 237.963 25.744 236.619 25.744H234.059V21.616H236.203C237.739 21.616 238.774 21.488 239.307 21.232C239.862 20.9547 240.139 20.464 240.139 19.76C240.139 19.0347 239.83 18.5547 239.211 18.32C238.614 18.0853 237.558 17.968 236.043 17.968C235.211 17.968 234.368 18.032 233.515 18.16C232.683 18.288 231.926 18.4587 231.243 18.672L231.115 18.64V14.64ZM247.219 19.696V15.504C247.966 15.0347 248.947 14.6507 250.163 14.352C251.379 14.0533 252.702 13.904 254.131 13.904C256.414 13.904 258.238 14.352 259.603 15.248C260.99 16.144 261.683 17.6587 261.683 19.792C261.683 21.4773 261.288 22.832 260.499 23.856C259.731 24.8587 258.366 25.7333 256.403 26.48C254.504 27.2053 253.192 27.824 252.467 28.336C251.763 28.8267 251.411 29.3173 251.411 29.808H261.843V33.872H246.675V30.288C246.675 29.2 246.856 28.272 247.219 27.504C247.603 26.736 248.254 26.032 249.171 25.392C250.088 24.752 251.358 24.0907 252.979 23.408C254.195 22.896 255.144 22.4053 255.827 21.936C256.531 21.4453 256.872 20.8587 256.851 20.176C256.83 19.3653 256.52 18.8 255.923 18.48C255.347 18.1387 254.526 17.968 253.459 17.968C252.435 17.968 251.39 18.1493 250.323 18.512C249.256 18.8533 248.318 19.248 247.507 19.696H247.219Z" fill="#4ABFE3" fill-opacity="0.9"/>
<path d="M0 42.4788H125" stroke="#0481FF" stroke-opacity="0.9" stroke-width="3"/>
<path d="M133 42.4788H263" stroke="#4ABFE3" stroke-opacity="0.9" stroke-width="3"/>
<path d="M48.6 53.5888C48.6 52.3788 48.735 51.4188 49.005 50.7088C49.285 49.9988 49.76 49.4888 50.43 49.1788C51.11 48.8688 52.055 48.7138 53.265 48.7138C54.175 48.7138 54.93 48.7988 55.53 48.9688C56.13 49.1388 56.605 49.4138 56.955 49.7938C57.305 50.1738 57.55 50.6788 57.69 51.3088C57.84 51.9288 57.915 52.6888 57.915 53.5888C57.915 54.4988 57.84 55.2688 57.69 55.8988C57.55 56.5188 57.305 57.0188 56.955 57.3988C56.605 57.7788 56.13 58.0538 55.53 58.2238C54.93 58.3938 54.175 58.4788 53.265 58.4788C52.355 58.4788 51.6 58.3938 51 58.2238C50.4 58.0538 49.925 57.7788 49.575 57.3988C49.225 57.0188 48.975 56.5188 48.825 55.8988C48.675 55.2688 48.6 54.4988 48.6 53.5888ZM53.265 56.3788C53.905 56.3788 54.385 56.2988 54.705 56.1388C55.025 55.9788 55.24 55.6988 55.35 55.2988C55.46 54.8888 55.515 54.3188 55.515 53.5888C55.515 52.8688 55.46 52.3088 55.35 51.9088C55.24 51.5088 55.025 51.2288 54.705 51.0688C54.385 50.8988 53.905 50.8138 53.265 50.8138C52.635 50.8138 52.155 50.8988 51.825 51.0688C51.505 51.2288 51.285 51.5088 51.165 51.9088C51.055 52.3088 51 52.8688 51 53.5888C51 54.3188 51.055 54.8888 51.165 55.2988C51.285 55.6988 51.505 55.9788 51.825 56.1388C52.155 56.2988 52.635 56.3788 53.265 56.3788ZM67.6376 48.8488V54.4438C67.6376 55.4238 67.5176 56.2088 67.2776 56.7988C67.0476 57.3888 66.6426 57.8188 66.0626 58.0888C65.4826 58.3488 64.6626 58.4788 63.6026 58.4788C62.5026 58.4788 61.6476 58.3488 61.0376 58.0888C60.4376 57.8188 60.0176 57.3888 59.7776 56.7988C59.5376 56.2088 59.4176 55.4238 59.4176 54.4438V48.8488H61.8176V54.3988C61.8176 54.9088 61.8676 55.3088 61.9676 55.5988C62.0676 55.8888 62.2476 56.0938 62.5076 56.2138C62.7676 56.3238 63.1326 56.3788 63.6026 56.3788C64.0426 56.3788 64.3776 56.3238 64.6076 56.2138C64.8476 56.0938 65.0126 55.8888 65.1026 55.5988C65.1926 55.3088 65.2376 54.9088 65.2376 54.3988V48.8488H67.6376ZM71.8371 58.3438H69.4371V48.8488H71.8371V58.3438Z" fill="#0481FF" fill-opacity="0.9"/>
<path d="M180.05 50.8245H182.45V60.3195H180.065L177.365 56.2995C177.155 55.9795 176.98 55.7095 176.84 55.4895C176.7 55.2695 176.57 55.0495 176.45 54.8295C176.33 54.6095 176.195 54.3495 176.045 54.0495L176 54.1095C176.14 54.5895 176.225 55.0395 176.255 55.4595C176.285 55.8695 176.3 56.2695 176.3 56.6595V60.3195H173.9V50.8245H176.285L178.985 54.8445C179.195 55.1545 179.37 55.4245 179.51 55.6545C179.65 55.8745 179.78 56.0945 179.9 56.3145C180.02 56.5345 180.155 56.7945 180.305 57.0945L180.35 57.0345C180.25 56.6145 180.175 56.2095 180.125 55.8195C180.075 55.4195 180.05 55.0245 180.05 54.6345V50.8245ZM186.656 60.3195H184.256V50.8245H186.656V60.3195ZM195.541 58.2645V60.1545C195.061 60.2545 194.591 60.3295 194.131 60.3795C193.671 60.4295 193.126 60.4545 192.496 60.4545C191.686 60.4545 191.001 60.3845 190.441 60.2445C189.891 60.1045 189.446 59.8595 189.106 59.5095C188.776 59.1495 188.536 58.6445 188.386 57.9945C188.236 57.3445 188.161 56.5095 188.161 55.4895C188.161 54.5095 188.236 53.7045 188.386 53.0745C188.536 52.4445 188.776 51.9595 189.106 51.6195C189.446 51.2695 189.891 51.0295 190.441 50.8995C191.001 50.7595 191.686 50.6895 192.496 50.6895C193.126 50.6895 193.671 50.7145 194.131 50.7645C194.591 50.8045 195.061 50.8795 195.541 50.9895V52.9395L195.496 52.9695C195.076 52.8695 194.671 52.7995 194.281 52.7595C193.891 52.7095 193.411 52.6845 192.841 52.6845C192.381 52.6845 192.001 52.7195 191.701 52.7895C191.411 52.8495 191.181 52.9745 191.011 53.1645C190.841 53.3545 190.721 53.6345 190.651 54.0045C190.591 54.3745 190.561 54.8695 190.561 55.4895C190.561 56.1395 190.591 56.6645 190.651 57.0645C190.721 57.4545 190.841 57.7495 191.011 57.9495C191.181 58.1495 191.411 58.2845 191.701 58.3545C192.001 58.4245 192.381 58.4595 192.841 58.4595C193.401 58.4595 193.876 58.4445 194.266 58.4145C194.666 58.3745 195.066 58.3045 195.466 58.2045L195.541 58.2645ZM203.707 60.3195H201.307V50.8245H203.707V60.3195ZM205.511 60.3195V50.8245H209.666C210.496 50.8245 211.191 50.8945 211.751 51.0345C212.311 51.1645 212.761 51.3995 213.101 51.7395C213.441 52.0795 213.686 52.5545 213.836 53.1645C213.986 53.7645 214.061 54.5395 214.061 55.4895C214.061 56.4795 213.986 57.2895 213.836 57.9195C213.686 58.5495 213.441 59.0395 213.101 59.3895C212.761 59.7395 212.311 59.9845 211.751 60.1245C211.191 60.2545 210.496 60.3195 209.666 60.3195H205.511ZM209.321 52.8495H207.911V58.2945H209.321C209.901 58.2945 210.356 58.2295 210.686 58.0995C211.026 57.9695 211.266 57.7045 211.406 57.3045C211.556 56.9045 211.631 56.2995 211.631 55.4895C211.631 54.7195 211.556 54.1495 211.406 53.7795C211.266 53.3995 211.026 53.1495 210.686 53.0295C210.356 52.9095 209.901 52.8495 209.321 52.8495Z" fill="#4ABFE3" fill-opacity="0.9"/>
</svg>
