<svg width="498" height="206" viewBox="0 0 498 206" fill="none" xmlns="http://www.w3.org/2000/svg">
<rect x="1" y="1" width="248" height="48" fill="white" stroke="black" stroke-width="2"/>
<path d="M88.8295 24.4545C88.7784 24.0227 88.571 23.6875 88.2074 23.4489C87.8438 23.2102 87.3977 23.0909 86.8693 23.0909C86.483 23.0909 86.1449 23.1534 85.8551 23.2784C85.5682 23.4034 85.3438 23.5753 85.1818 23.794C85.0227 24.0128 84.9432 24.2614 84.9432 24.5398C84.9432 24.7727 84.9986 24.973 85.1094 25.1406C85.223 25.3054 85.3679 25.4432 85.544 25.554C85.7202 25.6619 85.9048 25.7514 86.098 25.8224C86.2912 25.8906 86.4688 25.946 86.6307 25.9886L87.517 26.2273C87.7443 26.2869 87.9972 26.3693 88.2756 26.4744C88.5568 26.5795 88.8253 26.723 89.081 26.9048C89.3395 27.0838 89.5526 27.3139 89.7202 27.5952C89.8878 27.8764 89.9716 28.2216 89.9716 28.6307C89.9716 29.1023 89.848 29.5284 89.6009 29.9091C89.3565 30.2898 88.9986 30.5923 88.527 30.8168C88.0582 31.0412 87.4886 31.1534 86.8182 31.1534C86.1932 31.1534 85.652 31.0526 85.1946 30.8509C84.7401 30.6491 84.3821 30.3679 84.1207 30.0071C83.8622 29.6463 83.7159 29.2273 83.6818 28.75H84.7727C84.8011 29.0795 84.9119 29.3523 85.1051 29.5682C85.3011 29.7812 85.5483 29.9403 85.8466 30.0455C86.1477 30.1477 86.4716 30.1989 86.8182 30.1989C87.2216 30.1989 87.5838 30.1335 87.9048 30.0028C88.2259 29.8693 88.4801 29.6847 88.6676 29.4489C88.8551 29.2102 88.9489 28.9318 88.9489 28.6136C88.9489 28.3239 88.8679 28.0881 88.706 27.9062C88.544 27.7244 88.331 27.5767 88.0668 27.4631C87.8026 27.3494 87.517 27.25 87.2102 27.1648L86.1364 26.858C85.4545 26.6619 84.9148 26.3821 84.517 26.0185C84.1193 25.6548 83.9205 25.179 83.9205 24.5909C83.9205 24.1023 84.0526 23.6761 84.3168 23.3125C84.5838 22.946 84.9418 22.6619 85.3906 22.4602C85.8423 22.2557 86.3466 22.1534 86.9034 22.1534C87.4659 22.1534 87.9659 22.2543 88.4034 22.456C88.8409 22.6548 89.1875 22.9276 89.4432 23.2741C89.7017 23.6207 89.8381 24.0142 89.8523 24.4545H88.8295ZM94.2319 31.1364C93.641 31.1364 93.1225 30.9957 92.6765 30.7145C92.2333 30.4332 91.8867 30.0398 91.6367 29.5341C91.3896 29.0284 91.266 28.4375 91.266 27.7614C91.266 27.0795 91.3896 26.4844 91.6367 25.9759C91.8867 25.4673 92.2333 25.0724 92.6765 24.7912C93.1225 24.5099 93.641 24.3693 94.2319 24.3693C94.8228 24.3693 95.3398 24.5099 95.783 24.7912C96.229 25.0724 96.5756 25.4673 96.8228 25.9759C97.0728 26.4844 97.1978 27.0795 97.1978 27.7614C97.1978 28.4375 97.0728 29.0284 96.8228 29.5341C96.5756 30.0398 96.229 30.4332 95.783 30.7145C95.3398 30.9957 94.8228 31.1364 94.2319 31.1364ZM94.2319 30.233C94.6808 30.233 95.0501 30.1179 95.3398 29.8878C95.6296 29.6577 95.8441 29.3551 95.9833 28.9801C96.1225 28.6051 96.1921 28.1989 96.1921 27.7614C96.1921 27.3239 96.1225 26.9162 95.9833 26.5384C95.8441 26.1605 95.6296 25.8551 95.3398 25.6222C95.0501 25.3892 94.6808 25.2727 94.2319 25.2727C93.783 25.2727 93.4137 25.3892 93.1239 25.6222C92.8342 25.8551 92.6197 26.1605 92.4805 26.5384C92.3413 26.9162 92.2717 27.3239 92.2717 27.7614C92.2717 28.1989 92.3413 28.6051 92.4805 28.9801C92.6197 29.3551 92.8342 29.6577 93.1239 29.8878C93.4137 30.1179 93.783 30.233 94.2319 30.233ZM102.858 28.3239V24.4545H103.864V31H102.858V29.892H102.79C102.636 30.2244 102.398 30.5071 102.074 30.7401C101.75 30.9702 101.341 31.0852 100.847 31.0852C100.438 31.0852 100.074 30.9957 99.7557 30.8168C99.4375 30.6349 99.1875 30.3622 99.0057 29.9986C98.8239 29.6321 98.733 29.1705 98.733 28.6136V24.4545H99.7386V28.5455C99.7386 29.0227 99.8722 29.4034 100.139 29.6875C100.409 29.9716 100.753 30.1136 101.17 30.1136C101.42 30.1136 101.675 30.0497 101.933 29.9219C102.195 29.794 102.413 29.598 102.589 29.3338C102.768 29.0696 102.858 28.733 102.858 28.3239ZM105.706 31V24.4545H106.677V25.4432H106.745C106.865 25.1193 107.081 24.8565 107.393 24.6548C107.706 24.4531 108.058 24.3523 108.45 24.3523C108.524 24.3523 108.616 24.3537 108.727 24.3565C108.838 24.3594 108.922 24.3636 108.978 24.3693V25.392C108.944 25.3835 108.866 25.3707 108.744 25.3537C108.625 25.3338 108.498 25.3239 108.365 25.3239C108.047 25.3239 107.762 25.3906 107.512 25.5241C107.265 25.6548 107.069 25.8366 106.924 26.0696C106.782 26.2997 106.711 26.5625 106.711 26.858V31H105.706ZM112.63 31.1364C112.017 31.1364 111.488 30.9915 111.045 30.7017C110.602 30.4119 110.261 30.0128 110.022 29.5043C109.784 28.9957 109.664 28.4148 109.664 27.7614C109.664 27.0966 109.787 26.5099 110.031 26.0014C110.278 25.4901 110.622 25.0909 111.062 24.804C111.505 24.5142 112.022 24.3693 112.613 24.3693C113.074 24.3693 113.488 24.4545 113.858 24.625C114.227 24.7955 114.529 25.0341 114.765 25.3409C115.001 25.6477 115.147 26.0057 115.204 26.4148H114.199C114.122 26.1165 113.951 25.8523 113.687 25.6222C113.426 25.3892 113.074 25.2727 112.63 25.2727C112.238 25.2727 111.895 25.375 111.599 25.5795C111.306 25.7812 111.078 26.0668 110.913 26.4361C110.751 26.8026 110.67 27.233 110.67 27.7273C110.67 28.233 110.75 28.6733 110.909 29.0483C111.071 29.4233 111.298 29.7145 111.591 29.9219C111.886 30.1293 112.233 30.233 112.63 30.233C112.892 30.233 113.129 30.1875 113.342 30.0966C113.555 30.0057 113.735 29.875 113.883 29.7045C114.031 29.5341 114.136 29.3295 114.199 29.0909H115.204C115.147 29.4773 115.007 29.8253 114.782 30.1349C114.561 30.4418 114.267 30.6861 113.9 30.8679C113.537 31.0469 113.113 31.1364 112.63 31.1364ZM119.419 31.1364C118.788 31.1364 118.244 30.9972 117.787 30.7188C117.332 30.4375 116.981 30.0455 116.734 29.5426C116.49 29.0369 116.368 28.4489 116.368 27.7784C116.368 27.108 116.49 26.517 116.734 26.0057C116.981 25.4915 117.325 25.0909 117.765 24.804C118.208 24.5142 118.725 24.3693 119.316 24.3693C119.657 24.3693 119.994 24.4261 120.326 24.5398C120.659 24.6534 120.961 24.8381 121.234 25.0938C121.507 25.3466 121.724 25.6818 121.886 26.0994C122.048 26.517 122.129 27.0312 122.129 27.642V28.0682H117.083V27.1989H121.106C121.106 26.8295 121.032 26.5 120.885 26.2102C120.74 25.9205 120.532 25.6918 120.262 25.5241C119.995 25.3565 119.68 25.2727 119.316 25.2727C118.916 25.2727 118.569 25.3722 118.277 25.571C117.987 25.767 117.764 26.0227 117.608 26.3381C117.451 26.6534 117.373 26.9915 117.373 27.3523V27.9318C117.373 28.4261 117.458 28.8452 117.629 29.1889C117.802 29.5298 118.042 29.7898 118.349 29.9688C118.656 30.1449 119.012 30.233 119.419 30.233C119.683 30.233 119.922 30.196 120.135 30.1222C120.35 30.0455 120.537 29.9318 120.693 29.7812C120.849 29.6278 120.97 29.4375 121.055 29.2102L122.027 29.483C121.924 29.8125 121.752 30.1023 121.511 30.3523C121.27 30.5994 120.971 30.7926 120.616 30.9318C120.261 31.0682 119.862 31.1364 119.419 31.1364ZM127.034 33.4545V24.4545H128.005V25.4943H128.125C128.199 25.3807 128.301 25.2358 128.431 25.0597C128.565 24.8807 128.755 24.7216 129.002 24.5824C129.252 24.4403 129.591 24.3693 130.017 24.3693C130.568 24.3693 131.054 24.5071 131.474 24.7827C131.895 25.0582 132.223 25.4489 132.458 25.9545C132.694 26.4602 132.812 27.0568 132.812 27.7443C132.812 28.4375 132.694 29.0384 132.458 29.5469C132.223 30.0526 131.896 30.4446 131.478 30.723C131.061 30.9986 130.579 31.1364 130.034 31.1364C129.613 31.1364 129.277 31.0668 129.024 30.9276C128.771 30.7855 128.576 30.625 128.44 30.446C128.304 30.2642 128.199 30.1136 128.125 29.9943H128.039V33.4545H127.034ZM128.022 27.7273C128.022 28.2216 128.095 28.6577 128.24 29.0355C128.385 29.4105 128.596 29.7045 128.875 29.9176C129.153 30.1278 129.494 30.233 129.897 30.233C130.318 30.233 130.669 30.1222 130.95 29.9006C131.234 29.6761 131.447 29.375 131.589 28.9972C131.734 28.6165 131.806 28.1932 131.806 27.7273C131.806 27.267 131.735 26.8523 131.593 26.483C131.454 26.1108 131.243 25.8168 130.958 25.6009C130.677 25.3821 130.324 25.2727 129.897 25.2727C129.488 25.2727 129.145 25.3764 128.866 25.5838C128.588 25.7884 128.377 26.0753 128.235 26.4446C128.093 26.8111 128.022 27.2386 128.022 27.7273ZM137.005 31.1364C136.414 31.1364 135.896 30.9957 135.45 30.7145C135.007 30.4332 134.66 30.0398 134.41 29.5341C134.163 29.0284 134.039 28.4375 134.039 27.7614C134.039 27.0795 134.163 26.4844 134.41 25.9759C134.66 25.4673 135.007 25.0724 135.45 24.7912C135.896 24.5099 136.414 24.3693 137.005 24.3693C137.596 24.3693 138.113 24.5099 138.556 24.7912C139.002 25.0724 139.349 25.4673 139.596 25.9759C139.846 26.4844 139.971 27.0795 139.971 27.7614C139.971 28.4375 139.846 29.0284 139.596 29.5341C139.349 30.0398 139.002 30.4332 138.556 30.7145C138.113 30.9957 137.596 31.1364 137.005 31.1364ZM137.005 30.233C137.454 30.233 137.824 30.1179 138.113 29.8878C138.403 29.6577 138.618 29.3551 138.757 28.9801C138.896 28.6051 138.966 28.1989 138.966 27.7614C138.966 27.3239 138.896 26.9162 138.757 26.5384C138.618 26.1605 138.403 25.8551 138.113 25.6222C137.824 25.3892 137.454 25.2727 137.005 25.2727C136.556 25.2727 136.187 25.3892 135.897 25.6222C135.608 25.8551 135.393 26.1605 135.254 26.5384C135.115 26.9162 135.045 27.3239 135.045 27.7614C135.045 28.1989 135.115 28.6051 135.254 28.9801C135.393 29.3551 135.608 29.6577 135.897 29.8878C136.187 30.1179 136.556 30.233 137.005 30.233ZM141.506 31V24.4545H142.478V25.4432H142.546C142.665 25.1193 142.881 24.8565 143.194 24.6548C143.506 24.4531 143.859 24.3523 144.251 24.3523C144.325 24.3523 144.417 24.3537 144.528 24.3565C144.638 24.3594 144.722 24.3636 144.779 24.3693V25.392C144.745 25.3835 144.667 25.3707 144.545 25.3537C144.425 25.3338 144.299 25.3239 144.165 25.3239C143.847 25.3239 143.563 25.3906 143.313 25.5241C143.066 25.6548 142.87 25.8366 142.725 26.0696C142.583 26.2997 142.512 26.5625 142.512 26.858V31H141.506ZM149.228 24.4545V25.3068H145.836V24.4545H149.228ZM146.825 22.8864H147.83V29.125C147.83 29.4091 147.871 29.6222 147.954 29.7642C148.039 29.9034 148.147 29.9972 148.278 30.0455C148.411 30.0909 148.552 30.1136 148.7 30.1136C148.81 30.1136 148.901 30.108 148.972 30.0966C149.043 30.0824 149.1 30.071 149.143 30.0625L149.347 30.9659C149.279 30.9915 149.184 31.017 149.062 31.0426C148.94 31.071 148.785 31.0852 148.597 31.0852C148.313 31.0852 148.035 31.0241 147.762 30.902C147.492 30.7798 147.268 30.5938 147.089 30.3438C146.913 30.0938 146.825 29.7784 146.825 29.3977V22.8864Z" fill="black"/>
<rect x="249" y="1" width="248" height="48" fill="white" stroke="black" stroke-width="2"/>
<path d="M334.75 31H332.057V22.2727H334.869C335.716 22.2727 336.44 22.4474 337.043 22.7969C337.645 23.1435 338.107 23.642 338.428 24.2926C338.749 24.9403 338.909 25.7159 338.909 26.6193C338.909 27.5284 338.747 28.3111 338.423 28.9673C338.099 29.6207 337.628 30.1236 337.009 30.4759C336.389 30.8253 335.636 31 334.75 31ZM333.114 30.0625H334.682C335.403 30.0625 336.001 29.9233 336.476 29.6449C336.95 29.3665 337.304 28.9702 337.537 28.456C337.77 27.9418 337.886 27.3295 337.886 26.6193C337.886 25.9148 337.771 25.3082 337.541 24.7997C337.311 24.2884 336.967 23.8963 336.51 23.6236C336.053 23.348 335.483 23.2102 334.801 23.2102H333.114V30.0625ZM343.29 31.1364C342.659 31.1364 342.115 30.9972 341.658 30.7188C341.203 30.4375 340.852 30.0455 340.605 29.5426C340.361 29.0369 340.239 28.4489 340.239 27.7784C340.239 27.108 340.361 26.517 340.605 26.0057C340.852 25.4915 341.196 25.0909 341.636 24.804C342.08 24.5142 342.597 24.3693 343.188 24.3693C343.528 24.3693 343.865 24.4261 344.197 24.5398C344.53 24.6534 344.832 24.8381 345.105 25.0938C345.378 25.3466 345.595 25.6818 345.757 26.0994C345.919 26.517 346 27.0312 346 27.642V28.0682H340.955V27.1989H344.977C344.977 26.8295 344.903 26.5 344.756 26.2102C344.611 25.9205 344.403 25.6918 344.134 25.5241C343.866 25.3565 343.551 25.2727 343.188 25.2727C342.787 25.2727 342.44 25.3722 342.148 25.571C341.858 25.767 341.635 26.0227 341.479 26.3381C341.322 26.6534 341.244 26.9915 341.244 27.3523V27.9318C341.244 28.4261 341.33 28.8452 341.5 29.1889C341.673 29.5298 341.913 29.7898 342.22 29.9688C342.527 30.1449 342.884 30.233 343.29 30.233C343.554 30.233 343.793 30.196 344.006 30.1222C344.222 30.0455 344.408 29.9318 344.564 29.7812C344.72 29.6278 344.841 29.4375 344.926 29.2102L345.898 29.483C345.795 29.8125 345.624 30.1023 345.382 30.3523C345.141 30.5994 344.842 30.7926 344.487 30.9318C344.132 31.0682 343.733 31.1364 343.29 31.1364ZM352.166 25.9205L351.263 26.1761C351.206 26.0256 351.122 25.8793 351.011 25.7372C350.903 25.5923 350.756 25.473 350.568 25.3793C350.381 25.2855 350.141 25.2386 349.848 25.2386C349.447 25.2386 349.114 25.331 348.847 25.5156C348.582 25.6974 348.45 25.929 348.45 26.2102C348.45 26.4602 348.541 26.6577 348.723 26.8026C348.905 26.9474 349.189 27.0682 349.575 27.1648L350.547 27.4034C351.132 27.5455 351.568 27.7628 351.855 28.0554C352.142 28.3452 352.286 28.7187 352.286 29.1761C352.286 29.5511 352.178 29.8864 351.962 30.1818C351.749 30.4773 351.45 30.7102 351.067 30.8807C350.683 31.0511 350.237 31.1364 349.729 31.1364C349.061 31.1364 348.509 30.9915 348.071 30.7017C347.634 30.4119 347.357 29.9886 347.24 29.4318L348.195 29.1932C348.286 29.5455 348.457 29.8097 348.71 29.9858C348.966 30.1619 349.3 30.25 349.712 30.25C350.18 30.25 350.553 30.1506 350.828 29.9517C351.107 29.75 351.246 29.5085 351.246 29.2273C351.246 29 351.166 28.8097 351.007 28.6562C350.848 28.5 350.604 28.3835 350.274 28.3068L349.183 28.0511C348.584 27.9091 348.143 27.6889 347.862 27.3906C347.584 27.0895 347.445 26.7131 347.445 26.2614C347.445 25.892 347.548 25.5653 347.756 25.2812C347.966 24.9972 348.251 24.7741 348.612 24.6122C348.976 24.4503 349.388 24.3693 349.848 24.3693C350.496 24.3693 351.004 24.5114 351.374 24.7955C351.746 25.0795 352.01 25.4545 352.166 25.9205ZM356.646 24.4545V25.3068H353.254V24.4545H356.646ZM354.243 22.8864H355.248V29.125C355.248 29.4091 355.289 29.6222 355.372 29.7642C355.457 29.9034 355.565 29.9972 355.696 30.0455C355.829 30.0909 355.97 30.1136 356.118 30.1136C356.228 30.1136 356.319 30.108 356.39 30.0966C356.461 30.0824 356.518 30.071 356.561 30.0625L356.765 30.9659C356.697 30.9915 356.602 31.017 356.48 31.0426C356.358 31.071 356.203 31.0852 356.015 31.0852C355.731 31.0852 355.453 31.0241 355.18 30.902C354.91 30.7798 354.686 30.5938 354.507 30.3438C354.331 30.0938 354.243 29.7784 354.243 29.3977V22.8864ZM358.159 31V24.4545H359.164V31H358.159ZM358.67 23.3636C358.474 23.3636 358.305 23.2969 358.163 23.1634C358.024 23.0298 357.954 22.8693 357.954 22.6818C357.954 22.4943 358.024 22.3338 358.163 22.2003C358.305 22.0668 358.474 22 358.67 22C358.866 22 359.034 22.0668 359.173 22.2003C359.315 22.3338 359.386 22.4943 359.386 22.6818C359.386 22.8693 359.315 23.0298 359.173 23.1634C359.034 23.2969 358.866 23.3636 358.67 23.3636ZM362.012 27.0625V31H361.006V24.4545H361.978V25.4773H362.063C362.217 25.1449 362.45 24.8778 362.762 24.6761C363.075 24.4716 363.478 24.3693 363.972 24.3693C364.415 24.3693 364.803 24.4602 365.136 24.642C365.468 24.821 365.727 25.0938 365.911 25.4602C366.096 25.8239 366.188 26.2841 366.188 26.8409V31H365.183V26.9091C365.183 26.3949 365.049 25.9943 364.782 25.7074C364.515 25.4176 364.148 25.2727 363.683 25.2727C363.362 25.2727 363.075 25.3423 362.822 25.4815C362.572 25.6207 362.374 25.8239 362.229 26.0909C362.085 26.358 362.012 26.6818 362.012 27.0625ZM369.952 31.1534C369.537 31.1534 369.161 31.0753 368.823 30.919C368.485 30.7599 368.216 30.5312 368.017 30.233C367.819 29.9318 367.719 29.5682 367.719 29.142C367.719 28.767 367.793 28.4631 367.941 28.2301C368.088 27.9943 368.286 27.8097 368.533 27.6761C368.78 27.5426 369.053 27.4432 369.351 27.3778C369.652 27.3097 369.955 27.2557 370.259 27.2159C370.657 27.1648 370.979 27.1264 371.226 27.1009C371.476 27.0724 371.658 27.0256 371.772 26.9602C371.888 26.8949 371.946 26.7812 371.946 26.6193V26.5852C371.946 26.1648 371.831 25.8381 371.601 25.6051C371.374 25.3722 371.029 25.2557 370.566 25.2557C370.086 25.2557 369.709 25.3608 369.436 25.571C369.164 25.7812 368.972 26.0057 368.861 26.2443L367.907 25.9034C368.077 25.5057 368.304 25.196 368.588 24.9744C368.875 24.75 369.188 24.5937 369.526 24.5057C369.867 24.4148 370.202 24.3693 370.532 24.3693C370.742 24.3693 370.983 24.3949 371.256 24.446C371.532 24.4943 371.797 24.5952 372.053 24.7486C372.311 24.902 372.526 25.1335 372.696 25.4432C372.867 25.7528 372.952 26.1676 372.952 26.6875V31H371.946V30.1136H371.895C371.827 30.2557 371.713 30.4077 371.554 30.5696C371.395 30.7315 371.184 30.8693 370.919 30.983C370.655 31.0966 370.333 31.1534 369.952 31.1534ZM370.105 30.25C370.503 30.25 370.838 30.1719 371.111 30.0156C371.387 29.8594 371.594 29.6577 371.733 29.4105C371.875 29.1634 371.946 28.9034 371.946 28.6307V27.7102C371.904 27.7614 371.81 27.8082 371.665 27.8509C371.523 27.8906 371.358 27.9261 371.171 27.9574C370.986 27.9858 370.806 28.0114 370.63 28.0341C370.456 28.054 370.316 28.071 370.208 28.0852C369.946 28.1193 369.702 28.1747 369.475 28.2514C369.25 28.3253 369.069 28.4375 368.929 28.5881C368.793 28.7358 368.725 28.9375 368.725 29.1932C368.725 29.5426 368.854 29.8068 369.113 29.9858C369.374 30.1619 369.705 30.25 370.105 30.25ZM377.634 24.4545V25.3068H374.242V24.4545H377.634ZM375.231 22.8864H376.237V29.125C376.237 29.4091 376.278 29.6222 376.36 29.7642C376.445 29.9034 376.553 29.9972 376.684 30.0455C376.817 30.0909 376.958 30.1136 377.106 30.1136C377.217 30.1136 377.308 30.108 377.379 30.0966C377.45 30.0824 377.506 30.071 377.549 30.0625L377.754 30.9659C377.685 30.9915 377.59 31.017 377.468 31.0426C377.346 31.071 377.191 31.0852 377.004 31.0852C376.719 31.0852 376.441 31.0241 376.168 30.902C375.898 30.7798 375.674 30.5938 375.495 30.3438C375.319 30.0938 375.231 29.7784 375.231 29.3977V22.8864ZM379.147 31V24.4545H380.153V31H379.147ZM379.658 23.3636C379.462 23.3636 379.293 23.2969 379.151 23.1634C379.012 23.0298 378.942 22.8693 378.942 22.6818C378.942 22.4943 379.012 22.3338 379.151 22.2003C379.293 22.0668 379.462 22 379.658 22C379.854 22 380.022 22.0668 380.161 22.2003C380.303 22.3338 380.374 22.4943 380.374 22.6818C380.374 22.8693 380.303 23.0298 380.161 23.1634C380.022 23.2969 379.854 23.3636 379.658 23.3636ZM384.654 31.1364C384.063 31.1364 383.544 30.9957 383.098 30.7145C382.655 30.4332 382.309 30.0398 382.059 29.5341C381.811 29.0284 381.688 28.4375 381.688 27.7614C381.688 27.0795 381.811 26.4844 382.059 25.9759C382.309 25.4673 382.655 25.0724 383.098 24.7912C383.544 24.5099 384.063 24.3693 384.654 24.3693C385.245 24.3693 385.762 24.5099 386.205 24.7912C386.651 25.0724 386.998 25.4673 387.245 25.9759C387.495 26.4844 387.62 27.0795 387.62 27.7614C387.62 28.4375 387.495 29.0284 387.245 29.5341C386.998 30.0398 386.651 30.4332 386.205 30.7145C385.762 30.9957 385.245 31.1364 384.654 31.1364ZM384.654 30.233C385.103 30.233 385.472 30.1179 385.762 29.8878C386.051 29.6577 386.266 29.3551 386.405 28.9801C386.544 28.6051 386.614 28.1989 386.614 27.7614C386.614 27.3239 386.544 26.9162 386.405 26.5384C386.266 26.1605 386.051 25.8551 385.762 25.6222C385.472 25.3892 385.103 25.2727 384.654 25.2727C384.205 25.2727 383.836 25.3892 383.546 25.6222C383.256 25.8551 383.042 26.1605 382.902 26.5384C382.763 26.9162 382.694 27.3239 382.694 27.7614C382.694 28.1989 382.763 28.6051 382.902 28.9801C383.042 29.3551 383.256 29.6577 383.546 29.8878C383.836 30.1179 384.205 30.233 384.654 30.233ZM390.161 27.0625V31H389.155V24.4545H390.126V25.4773H390.212C390.365 25.1449 390.598 24.8778 390.911 24.6761C391.223 24.4716 391.626 24.3693 392.121 24.3693C392.564 24.3693 392.952 24.4602 393.284 24.642C393.616 24.821 393.875 25.0938 394.06 25.4602C394.244 25.8239 394.337 26.2841 394.337 26.8409V31H393.331V26.9091C393.331 26.3949 393.197 25.9943 392.93 25.7074C392.663 25.4176 392.297 25.2727 391.831 25.2727C391.51 25.2727 391.223 25.3423 390.97 25.4815C390.72 25.6207 390.523 25.8239 390.378 26.0909C390.233 26.358 390.161 26.6818 390.161 27.0625ZM399.686 31V22.2727H402.635C403.319 22.2727 403.879 22.3963 404.314 22.6435C404.751 22.8878 405.075 23.2188 405.285 23.6364C405.495 24.054 405.6 24.5199 405.6 25.0341C405.6 25.5483 405.495 26.0156 405.285 26.4361C405.078 26.8565 404.757 27.1918 404.322 27.4418C403.887 27.6889 403.331 27.8125 402.652 27.8125H400.538V26.875H402.618C403.086 26.875 403.463 26.794 403.747 26.6321C404.031 26.4702 404.237 26.2514 404.365 25.9759C404.495 25.6974 404.561 25.3835 404.561 25.0341C404.561 24.6847 404.495 24.3722 404.365 24.0966C404.237 23.821 404.029 23.6051 403.743 23.4489C403.456 23.2898 403.075 23.2102 402.6 23.2102H400.743V31H399.686ZM409.755 31.1364C409.164 31.1364 408.646 30.9957 408.2 30.7145C407.757 30.4332 407.41 30.0398 407.16 29.5341C406.913 29.0284 406.789 28.4375 406.789 27.7614C406.789 27.0795 406.913 26.4844 407.16 25.9759C407.41 25.4673 407.757 25.0724 408.2 24.7912C408.646 24.5099 409.164 24.3693 409.755 24.3693C410.346 24.3693 410.863 24.5099 411.306 24.7912C411.752 25.0724 412.099 25.4673 412.346 25.9759C412.596 26.4844 412.721 27.0795 412.721 27.7614C412.721 28.4375 412.596 29.0284 412.346 29.5341C412.099 30.0398 411.752 30.4332 411.306 30.7145C410.863 30.9957 410.346 31.1364 409.755 31.1364ZM409.755 30.233C410.204 30.233 410.574 30.1179 410.863 29.8878C411.153 29.6577 411.368 29.3551 411.507 28.9801C411.646 28.6051 411.716 28.1989 411.716 27.7614C411.716 27.3239 411.646 26.9162 411.507 26.5384C411.368 26.1605 411.153 25.8551 410.863 25.6222C410.574 25.3892 410.204 25.2727 409.755 25.2727C409.306 25.2727 408.937 25.3892 408.647 25.6222C408.358 25.8551 408.143 26.1605 408.004 26.5384C407.865 26.9162 407.795 27.3239 407.795 27.7614C407.795 28.1989 407.865 28.6051 408.004 28.9801C408.143 29.3551 408.358 29.6577 408.647 29.8878C408.937 30.1179 409.306 30.233 409.755 30.233ZM414.256 31V24.4545H415.228V25.4432H415.296C415.415 25.1193 415.631 24.8565 415.944 24.6548C416.256 24.4531 416.609 24.3523 417.001 24.3523C417.075 24.3523 417.167 24.3537 417.278 24.3565C417.388 24.3594 417.472 24.3636 417.529 24.3693V25.392C417.495 25.3835 417.417 25.3707 417.295 25.3537C417.175 25.3338 417.049 25.3239 416.915 25.3239C416.597 25.3239 416.313 25.3906 416.063 25.5241C415.816 25.6548 415.62 25.8366 415.475 26.0696C415.333 26.2997 415.262 26.5625 415.262 26.858V31H414.256ZM421.978 24.4545V25.3068H418.586V24.4545H421.978ZM419.575 22.8864H420.58V29.125C420.58 29.4091 420.621 29.6222 420.704 29.7642C420.789 29.9034 420.897 29.9972 421.028 30.0455C421.161 30.0909 421.302 30.1136 421.45 30.1136C421.56 30.1136 421.651 30.108 421.722 30.0966C421.793 30.0824 421.85 30.071 421.893 30.0625L422.097 30.9659C422.029 30.9915 421.934 31.017 421.812 31.0426C421.69 31.071 421.535 31.0852 421.347 31.0852C421.063 31.0852 420.785 31.0241 420.512 30.902C420.242 30.7798 420.018 30.5938 419.839 30.3438C419.663 30.0938 419.575 29.7784 419.575 29.3977V22.8864Z" fill="black"/>
<rect x="1" y="49" width="248" height="48" fill="white" stroke="black" stroke-width="2"/>
<path d="M91.0568 79V70.2727H92.1136V78.0625H96.1705V79H91.0568ZM100.415 79.1364C99.7841 79.1364 99.2401 78.9972 98.7827 78.7188C98.3281 78.4375 97.9773 78.0455 97.7301 77.5426C97.4858 77.0369 97.3636 76.4489 97.3636 75.7784C97.3636 75.108 97.4858 74.517 97.7301 74.0057C97.9773 73.4915 98.321 73.0909 98.7614 72.804C99.2045 72.5142 99.7216 72.3693 100.312 72.3693C100.653 72.3693 100.99 72.4261 101.322 72.5398C101.655 72.6534 101.957 72.8381 102.23 73.0938C102.503 73.3466 102.72 73.6818 102.882 74.0994C103.044 74.517 103.125 75.0312 103.125 75.642V76.0682H98.0795V75.1989H102.102C102.102 74.8295 102.028 74.5 101.881 74.2102C101.736 73.9205 101.528 73.6918 101.259 73.5241C100.991 73.3565 100.676 73.2727 100.312 73.2727C99.9119 73.2727 99.5653 73.3722 99.2727 73.571C98.983 73.767 98.7599 74.0227 98.6037 74.3381C98.4474 74.6534 98.3693 74.9915 98.3693 75.3523V75.9318C98.3693 76.4261 98.4545 76.8452 98.625 77.1889C98.7983 77.5298 99.0384 77.7898 99.3452 77.9688C99.652 78.1449 100.009 78.233 100.415 78.233C100.679 78.233 100.918 78.196 101.131 78.1222C101.347 78.0455 101.533 77.9318 101.689 77.7812C101.845 77.6278 101.966 77.4375 102.051 77.2102L103.023 77.483C102.92 77.8125 102.749 78.1023 102.507 78.3523C102.266 78.5994 101.967 78.7926 101.612 78.9318C101.257 79.0682 100.858 79.1364 100.415 79.1364ZM105.661 75.0625V79H104.655V72.4545H105.626V73.4773H105.712C105.865 73.1449 106.098 72.8778 106.411 72.6761C106.723 72.4716 107.126 72.3693 107.621 72.3693C108.064 72.3693 108.452 72.4602 108.784 72.642C109.116 72.821 109.375 73.0938 109.56 73.4602C109.744 73.8239 109.837 74.2841 109.837 74.8409V79H108.831V74.9091C108.831 74.3949 108.697 73.9943 108.43 73.7074C108.163 73.4176 107.797 73.2727 107.331 73.2727C107.01 73.2727 106.723 73.3423 106.47 73.4815C106.22 73.6207 106.023 73.8239 105.878 74.0909C105.733 74.358 105.661 74.6818 105.661 75.0625ZM114.316 81.5909C113.831 81.5909 113.413 81.5284 113.064 81.4034C112.714 81.2812 112.423 81.1193 112.19 80.9176C111.96 80.7188 111.777 80.5057 111.64 80.2784L112.441 79.7159C112.532 79.8352 112.647 79.9716 112.787 80.125C112.926 80.2812 113.116 80.4162 113.358 80.5298C113.602 80.6463 113.922 80.7045 114.316 80.7045C114.845 80.7045 115.281 80.5767 115.625 80.321C115.968 80.0653 116.14 79.6648 116.14 79.1193V77.7898H116.055C115.981 77.9091 115.876 78.0568 115.74 78.233C115.606 78.4062 115.413 78.5611 115.16 78.6974C114.91 78.831 114.572 78.8977 114.146 78.8977C113.618 78.8977 113.143 78.7727 112.723 78.5227C112.305 78.2727 111.974 77.9091 111.73 77.4318C111.488 76.9545 111.368 76.375 111.368 75.6932C111.368 75.0227 111.485 74.4389 111.721 73.9418C111.957 73.4418 112.285 73.0554 112.706 72.7827C113.126 72.5071 113.612 72.3693 114.163 72.3693C114.589 72.3693 114.927 72.4403 115.177 72.5824C115.43 72.7216 115.623 72.8807 115.757 73.0597C115.893 73.2358 115.998 73.3807 116.072 73.4943H116.174V72.4545H117.146V79.1875C117.146 79.75 117.018 80.2074 116.762 80.5597C116.51 80.9148 116.169 81.1747 115.74 81.3395C115.314 81.5071 114.839 81.5909 114.316 81.5909ZM114.282 77.9943C114.686 77.9943 115.027 77.902 115.305 77.7173C115.583 77.5327 115.795 77.267 115.94 76.9205C116.085 76.5739 116.157 76.1591 116.157 75.6761C116.157 75.2045 116.086 74.7884 115.944 74.4276C115.802 74.0668 115.592 73.7841 115.314 73.5795C115.035 73.375 114.691 73.2727 114.282 73.2727C113.856 73.2727 113.501 73.3807 113.217 73.5966C112.936 73.8125 112.724 74.1023 112.582 74.4659C112.443 74.8295 112.373 75.233 112.373 75.6761C112.373 76.1307 112.444 76.5327 112.586 76.8821C112.731 77.2287 112.944 77.5014 113.225 77.7003C113.51 77.8963 113.862 77.9943 114.282 77.9943ZM119.993 75.0625V79H118.987V70.2727H119.993V73.4773H120.078C120.231 73.1392 120.461 72.8707 120.768 72.6719C121.078 72.4702 121.49 72.3693 122.004 72.3693C122.45 72.3693 122.841 72.4588 123.176 72.6378C123.511 72.8139 123.771 73.0852 123.956 73.4517C124.143 73.8153 124.237 74.2784 124.237 74.8409V79H123.231V74.9091C123.231 74.3892 123.096 73.9872 122.826 73.7031C122.559 73.4162 122.189 73.2727 121.714 73.2727C121.385 73.2727 121.089 73.3423 120.828 73.4815C120.569 73.6207 120.365 73.8239 120.214 74.0909C120.066 74.358 119.993 74.6818 119.993 75.0625ZM128.923 72.4545V73.3068H125.531V72.4545H128.923ZM126.52 70.8864H127.526V77.125C127.526 77.4091 127.567 77.6222 127.649 77.7642C127.734 77.9034 127.842 77.9972 127.973 78.0455C128.107 78.0909 128.247 78.1136 128.395 78.1136C128.506 78.1136 128.597 78.108 128.668 78.0966C128.739 78.0824 128.795 78.071 128.838 78.0625L129.043 78.9659C128.974 78.9915 128.879 79.017 128.757 79.0426C128.635 79.071 128.48 79.0852 128.293 79.0852C128.009 79.0852 127.73 79.0241 127.457 78.902C127.188 78.7798 126.963 78.5938 126.784 78.3438C126.608 78.0938 126.52 77.7784 126.52 77.3977V70.8864Z" fill="black"/>
<path d="M91.0568 79V70.2727H92.1136V78.0625H96.1705V79H91.0568ZM100.415 79.1364C99.7841 79.1364 99.2401 78.9972 98.7827 78.7188C98.3281 78.4375 97.9773 78.0455 97.7301 77.5426C97.4858 77.0369 97.3636 76.4489 97.3636 75.7784C97.3636 75.108 97.4858 74.517 97.7301 74.0057C97.9773 73.4915 98.321 73.0909 98.7614 72.804C99.2045 72.5142 99.7216 72.3693 100.312 72.3693C100.653 72.3693 100.99 72.4261 101.322 72.5398C101.655 72.6534 101.957 72.8381 102.23 73.0938C102.503 73.3466 102.72 73.6818 102.882 74.0994C103.044 74.517 103.125 75.0312 103.125 75.642V76.0682H98.0795V75.1989H102.102C102.102 74.8295 102.028 74.5 101.881 74.2102C101.736 73.9205 101.528 73.6918 101.259 73.5241C100.991 73.3565 100.676 73.2727 100.312 73.2727C99.9119 73.2727 99.5653 73.3722 99.2727 73.571C98.983 73.767 98.7599 74.0227 98.6037 74.3381C98.4474 74.6534 98.3693 74.9915 98.3693 75.3523V75.9318C98.3693 76.4261 98.4545 76.8452 98.625 77.1889C98.7983 77.5298 99.0384 77.7898 99.3452 77.9688C99.652 78.1449 100.009 78.233 100.415 78.233C100.679 78.233 100.918 78.196 101.131 78.1222C101.347 78.0455 101.533 77.9318 101.689 77.7812C101.845 77.6278 101.966 77.4375 102.051 77.2102L103.023 77.483C102.92 77.8125 102.749 78.1023 102.507 78.3523C102.266 78.5994 101.967 78.7926 101.612 78.9318C101.257 79.0682 100.858 79.1364 100.415 79.1364ZM105.661 75.0625V79H104.655V72.4545H105.626V73.4773H105.712C105.865 73.1449 106.098 72.8778 106.411 72.6761C106.723 72.4716 107.126 72.3693 107.621 72.3693C108.064 72.3693 108.452 72.4602 108.784 72.642C109.116 72.821 109.375 73.0938 109.56 73.4602C109.744 73.8239 109.837 74.2841 109.837 74.8409V79H108.831V74.9091C108.831 74.3949 108.697 73.9943 108.43 73.7074C108.163 73.4176 107.797 73.2727 107.331 73.2727C107.01 73.2727 106.723 73.3423 106.47 73.4815C106.22 73.6207 106.023 73.8239 105.878 74.0909C105.733 74.358 105.661 74.6818 105.661 75.0625ZM114.316 81.5909C113.831 81.5909 113.413 81.5284 113.064 81.4034C112.714 81.2812 112.423 81.1193 112.19 80.9176C111.96 80.7188 111.777 80.5057 111.64 80.2784L112.441 79.7159C112.532 79.8352 112.647 79.9716 112.787 80.125C112.926 80.2812 113.116 80.4162 113.358 80.5298C113.602 80.6463 113.922 80.7045 114.316 80.7045C114.845 80.7045 115.281 80.5767 115.625 80.321C115.968 80.0653 116.14 79.6648 116.14 79.1193V77.7898H116.055C115.981 77.9091 115.876 78.0568 115.74 78.233C115.606 78.4062 115.413 78.5611 115.16 78.6974C114.91 78.831 114.572 78.8977 114.146 78.8977C113.618 78.8977 113.143 78.7727 112.723 78.5227C112.305 78.2727 111.974 77.9091 111.73 77.4318C111.488 76.9545 111.368 76.375 111.368 75.6932C111.368 75.0227 111.485 74.4389 111.721 73.9418C111.957 73.4418 112.285 73.0554 112.706 72.7827C113.126 72.5071 113.612 72.3693 114.163 72.3693C114.589 72.3693 114.927 72.4403 115.177 72.5824C115.43 72.7216 115.623 72.8807 115.757 73.0597C115.893 73.2358 115.998 73.3807 116.072 73.4943H116.174V72.4545H117.146V79.1875C117.146 79.75 117.018 80.2074 116.762 80.5597C116.51 80.9148 116.169 81.1747 115.74 81.3395C115.314 81.5071 114.839 81.5909 114.316 81.5909ZM114.282 77.9943C114.686 77.9943 115.027 77.902 115.305 77.7173C115.583 77.5327 115.795 77.267 115.94 76.9205C116.085 76.5739 116.157 76.1591 116.157 75.6761C116.157 75.2045 116.086 74.7884 115.944 74.4276C115.802 74.0668 115.592 73.7841 115.314 73.5795C115.035 73.375 114.691 73.2727 114.282 73.2727C113.856 73.2727 113.501 73.3807 113.217 73.5966C112.936 73.8125 112.724 74.1023 112.582 74.4659C112.443 74.8295 112.373 75.233 112.373 75.6761C112.373 76.1307 112.444 76.5327 112.586 76.8821C112.731 77.2287 112.944 77.5014 113.225 77.7003C113.51 77.8963 113.862 77.9943 114.282 77.9943ZM119.993 75.0625V79H118.987V70.2727H119.993V73.4773H120.078C120.231 73.1392 120.461 72.8707 120.768 72.6719C121.078 72.4702 121.49 72.3693 122.004 72.3693C122.45 72.3693 122.841 72.4588 123.176 72.6378C123.511 72.8139 123.771 73.0852 123.956 73.4517C124.143 73.8153 124.237 74.2784 124.237 74.8409V79H123.231V74.9091C123.231 74.3892 123.096 73.9872 122.826 73.7031C122.559 73.4162 122.189 73.2727 121.714 73.2727C121.385 73.2727 121.089 73.3423 120.828 73.4815C120.569 73.6207 120.365 73.8239 120.214 74.0909C120.066 74.358 119.993 74.6818 119.993 75.0625ZM128.923 72.4545V73.3068H125.531V72.4545H128.923ZM126.52 70.8864H127.526V77.125C127.526 77.4091 127.567 77.6222 127.649 77.7642C127.734 77.9034 127.842 77.9972 127.973 78.0455C128.107 78.0909 128.247 78.1136 128.395 78.1136C128.506 78.1136 128.597 78.108 128.668 78.0966C128.739 78.0824 128.795 78.071 128.838 78.0625L129.043 78.9659C128.974 78.9915 128.879 79.017 128.757 79.0426C128.635 79.071 128.48 79.0852 128.293 79.0852C128.009 79.0852 127.73 79.0241 127.457 78.902C127.188 78.7798 126.963 78.5938 126.784 78.3438C126.608 78.0938 126.52 77.7784 126.52 77.3977V70.8864Z" fill="black"/>
<rect x="249" y="49" width="248" height="48" fill="white" stroke="black" stroke-width="2"/>
<path d="M339.08 70H338.023C337.96 69.696 337.851 69.429 337.695 69.1989C337.541 68.9688 337.354 68.7756 337.132 68.6193C336.913 68.4602 336.67 68.3409 336.403 68.2614C336.136 68.1818 335.858 68.142 335.568 68.142C335.04 68.142 334.561 68.2756 334.132 68.5426C333.706 68.8097 333.366 69.2031 333.114 69.723C332.864 70.2429 332.739 70.8807 332.739 71.6364C332.739 72.392 332.864 73.0298 333.114 73.5497C333.366 74.0696 333.706 74.4631 334.132 74.7301C334.561 74.9972 335.04 75.1307 335.568 75.1307C335.858 75.1307 336.136 75.0909 336.403 75.0114C336.67 74.9318 336.913 74.8139 337.132 74.6577C337.354 74.4986 337.541 74.304 337.695 74.0739C337.851 73.8409 337.96 73.5739 338.023 73.2727H339.08C339 73.7187 338.855 74.1179 338.645 74.4702C338.435 74.8224 338.173 75.1222 337.861 75.3693C337.548 75.6136 337.197 75.7997 336.808 75.9276C336.422 76.0554 336.009 76.1193 335.568 76.1193C334.824 76.1193 334.162 75.9375 333.582 75.5739C333.003 75.2102 332.547 74.6932 332.214 74.0227C331.882 73.3523 331.716 72.5568 331.716 71.6364C331.716 70.7159 331.882 69.9205 332.214 69.25C332.547 68.5795 333.003 68.0625 333.582 67.6989C334.162 67.3352 334.824 67.1534 335.568 67.1534C336.009 67.1534 336.422 67.2173 336.808 67.3452C337.197 67.473 337.548 67.6605 337.861 67.9077C338.173 68.152 338.435 68.4503 338.645 68.8026C338.855 69.152 339 69.5511 339.08 70ZM341.657 72.0625V76H340.651V67.2727H341.657V70.4773H341.742C341.895 70.1392 342.125 69.8707 342.432 69.6719C342.742 69.4702 343.154 69.3693 343.668 69.3693C344.114 69.3693 344.505 69.4588 344.84 69.6378C345.175 69.8139 345.435 70.0852 345.62 70.4517C345.807 70.8153 345.901 71.2784 345.901 71.8409V76H344.895V71.9091C344.895 71.3892 344.76 70.9872 344.49 70.7031C344.223 70.4162 343.853 70.2727 343.378 70.2727C343.049 70.2727 342.753 70.3423 342.492 70.4815C342.233 70.6207 342.029 70.8239 341.878 71.0909C341.73 71.358 341.657 71.6818 341.657 72.0625ZM350.485 76.1364C349.854 76.1364 349.31 75.9972 348.853 75.7188C348.398 75.4375 348.048 75.0455 347.8 74.5426C347.556 74.0369 347.434 73.4489 347.434 72.7784C347.434 72.108 347.556 71.517 347.8 71.0057C348.048 70.4915 348.391 70.0909 348.832 69.804C349.275 69.5142 349.792 69.3693 350.383 69.3693C350.724 69.3693 351.06 69.4261 351.393 69.5398C351.725 69.6534 352.028 69.8381 352.3 70.0938C352.573 70.3466 352.79 70.6818 352.952 71.0994C353.114 71.517 353.195 72.0312 353.195 72.642V73.0682H348.15V72.1989H352.173C352.173 71.8295 352.099 71.5 351.951 71.2102C351.806 70.9205 351.599 70.6918 351.329 70.5241C351.062 70.3565 350.746 70.2727 350.383 70.2727C349.982 70.2727 349.636 70.3722 349.343 70.571C349.053 70.767 348.83 71.0227 348.674 71.3381C348.518 71.6534 348.44 71.9915 348.44 72.3523V72.9318C348.44 73.4261 348.525 73.8452 348.695 74.1889C348.869 74.5298 349.109 74.7898 349.415 74.9688C349.722 75.1449 350.079 75.233 350.485 75.233C350.749 75.233 350.988 75.196 351.201 75.1222C351.417 75.0455 351.603 74.9318 351.759 74.7812C351.915 74.6278 352.036 74.4375 352.121 74.2102L353.093 74.483C352.991 74.8125 352.819 75.1023 352.577 75.3523C352.336 75.5994 352.038 75.7926 351.683 75.9318C351.327 76.0682 350.928 76.1364 350.485 76.1364ZM357.384 76.1364C356.771 76.1364 356.242 75.9915 355.799 75.7017C355.356 75.4119 355.015 75.0128 354.776 74.5043C354.538 73.9957 354.418 73.4148 354.418 72.7614C354.418 72.0966 354.54 71.5099 354.785 71.0014C355.032 70.4901 355.376 70.0909 355.816 69.804C356.259 69.5142 356.776 69.3693 357.367 69.3693C357.827 69.3693 358.242 69.4545 358.612 69.625C358.981 69.7955 359.283 70.0341 359.519 70.3409C359.755 70.6477 359.901 71.0057 359.958 71.4148H358.952C358.876 71.1165 358.705 70.8523 358.441 70.6222C358.18 70.3892 357.827 70.2727 357.384 70.2727C356.992 70.2727 356.648 70.375 356.353 70.5795C356.06 70.7812 355.832 71.0668 355.667 71.4361C355.505 71.8026 355.424 72.233 355.424 72.7273C355.424 73.233 355.504 73.6733 355.663 74.0483C355.825 74.4233 356.052 74.7145 356.344 74.9219C356.64 75.1293 356.987 75.233 357.384 75.233C357.646 75.233 357.883 75.1875 358.096 75.0966C358.309 75.0057 358.489 74.875 358.637 74.7045C358.785 74.5341 358.89 74.3295 358.952 74.0909H359.958C359.901 74.4773 359.761 74.8253 359.536 75.1349C359.315 75.4418 359.021 75.6861 358.654 75.8679C358.29 76.0469 357.867 76.1364 357.384 76.1364ZM362.366 73.6136L362.349 72.3693H362.553L365.417 69.4545H366.661L363.61 72.5398H363.525L362.366 73.6136ZM361.428 76V67.2727H362.434V76H361.428ZM365.587 76L363.031 72.7614L363.746 72.0625L366.866 76H365.587ZM372.592 70.9205L371.689 71.1761C371.632 71.0256 371.548 70.8793 371.437 70.7372C371.329 70.5923 371.181 70.473 370.994 70.3793C370.806 70.2855 370.566 70.2386 370.274 70.2386C369.873 70.2386 369.539 70.331 369.272 70.5156C369.008 70.6974 368.876 70.929 368.876 71.2102C368.876 71.4602 368.967 71.6577 369.149 71.8026C369.331 71.9474 369.615 72.0682 370.001 72.1648L370.973 72.4034C371.558 72.5455 371.994 72.7628 372.281 73.0554C372.568 73.3452 372.711 73.7187 372.711 74.1761C372.711 74.5511 372.603 74.8864 372.387 75.1818C372.174 75.4773 371.876 75.7102 371.493 75.8807C371.109 76.0511 370.663 76.1364 370.154 76.1364C369.487 76.1364 368.934 75.9915 368.497 75.7017C368.059 75.4119 367.782 74.9886 367.666 74.4318L368.62 74.1932C368.711 74.5455 368.883 74.8097 369.136 74.9858C369.392 75.1619 369.725 75.25 370.137 75.25C370.606 75.25 370.978 75.1506 371.254 74.9517C371.532 74.75 371.672 74.5085 371.672 74.2273C371.672 74 371.592 73.8097 371.433 73.6562C371.274 73.5 371.029 73.3835 370.7 73.3068L369.609 73.0511C369.01 72.9091 368.569 72.6889 368.288 72.3906C368.01 72.0895 367.87 71.7131 367.87 71.2614C367.87 70.892 367.974 70.5653 368.181 70.2812C368.392 69.9972 368.677 69.7741 369.038 69.6122C369.402 69.4503 369.814 69.3693 370.274 69.3693C370.922 69.3693 371.43 69.5114 371.799 69.7955C372.172 70.0795 372.436 70.4545 372.592 70.9205ZM378.35 73.3239V69.4545H379.356V76H378.35V74.892H378.282C378.129 75.2244 377.89 75.5071 377.566 75.7401C377.242 75.9702 376.833 76.0852 376.339 76.0852C375.93 76.0852 375.566 75.9957 375.248 75.8168C374.93 75.6349 374.68 75.3622 374.498 74.9986C374.316 74.6321 374.225 74.1705 374.225 73.6136V69.4545H375.231V73.5455C375.231 74.0227 375.364 74.4034 375.631 74.6875C375.901 74.9716 376.245 75.1136 376.663 75.1136C376.913 75.1136 377.167 75.0497 377.425 74.9219C377.687 74.794 377.906 74.598 378.082 74.3338C378.261 74.0696 378.35 73.733 378.35 73.3239ZM381.198 76V69.4545H382.169V70.4773H382.255C382.391 70.1278 382.611 69.8565 382.915 69.6634C383.219 69.4673 383.584 69.3693 384.01 69.3693C384.442 69.3693 384.801 69.4673 385.088 69.6634C385.378 69.8565 385.604 70.1278 385.766 70.4773H385.834C386.002 70.1392 386.253 69.8707 386.588 69.6719C386.924 69.4702 387.326 69.3693 387.794 69.3693C388.38 69.3693 388.858 69.5526 389.23 69.919C389.603 70.2827 389.789 70.8494 389.789 71.6193V76H388.783V71.6193C388.783 71.1364 388.651 70.7912 388.387 70.5838C388.123 70.3764 387.811 70.2727 387.453 70.2727C386.993 70.2727 386.637 70.4119 386.384 70.6903C386.131 70.9659 386.005 71.3153 386.005 71.7386V76H384.982V71.517C384.982 71.1449 384.861 70.8452 384.62 70.6179C384.378 70.3878 384.067 70.2727 383.686 70.2727C383.425 70.2727 383.181 70.3423 382.953 70.4815C382.729 70.6207 382.547 70.8139 382.408 71.0611C382.272 71.3054 382.203 71.5881 382.203 71.9091V76H381.198Z" fill="black"/>
<rect x="1" y="97" width="496" height="108" fill="white" stroke="black" stroke-width="2"/>
<path d="M214.415 148H213.307L216.511 139.273H217.602L220.807 148H219.699L217.091 140.653H217.023L214.415 148ZM214.824 144.591H219.29V145.528H214.824V144.591ZM222.03 150.455V141.455H223.001V142.494H223.121C223.195 142.381 223.297 142.236 223.428 142.06C223.561 141.881 223.751 141.722 223.999 141.582C224.249 141.44 224.587 141.369 225.013 141.369C225.564 141.369 226.05 141.507 226.47 141.783C226.891 142.058 227.219 142.449 227.455 142.955C227.69 143.46 227.808 144.057 227.808 144.744C227.808 145.438 227.69 146.038 227.455 146.547C227.219 147.053 226.892 147.445 226.474 147.723C226.057 147.999 225.575 148.136 225.03 148.136C224.609 148.136 224.273 148.067 224.02 147.928C223.767 147.786 223.572 147.625 223.436 147.446C223.3 147.264 223.195 147.114 223.121 146.994H223.036V150.455H222.03ZM223.018 144.727C223.018 145.222 223.091 145.658 223.236 146.036C223.381 146.411 223.592 146.705 223.871 146.918C224.149 147.128 224.49 147.233 224.893 147.233C225.314 147.233 225.665 147.122 225.946 146.901C226.23 146.676 226.443 146.375 226.585 145.997C226.73 145.616 226.803 145.193 226.803 144.727C226.803 144.267 226.732 143.852 226.589 143.483C226.45 143.111 226.239 142.817 225.955 142.601C225.673 142.382 225.32 142.273 224.893 142.273C224.484 142.273 224.141 142.376 223.862 142.584C223.584 142.788 223.374 143.075 223.232 143.445C223.089 143.811 223.018 144.239 223.018 144.727ZM229.342 150.455V141.455H230.314V142.494H230.433C230.507 142.381 230.609 142.236 230.74 142.06C230.874 141.881 231.064 141.722 231.311 141.582C231.561 141.44 231.899 141.369 232.325 141.369C232.876 141.369 233.362 141.507 233.783 141.783C234.203 142.058 234.531 142.449 234.767 142.955C235.003 143.46 235.121 144.057 235.121 144.744C235.121 145.438 235.003 146.038 234.767 146.547C234.531 147.053 234.205 147.445 233.787 147.723C233.369 147.999 232.888 148.136 232.342 148.136C231.922 148.136 231.585 148.067 231.332 147.928C231.08 147.786 230.885 147.625 230.749 147.446C230.612 147.264 230.507 147.114 230.433 146.994H230.348V150.455H229.342ZM230.331 144.727C230.331 145.222 230.403 145.658 230.548 146.036C230.693 146.411 230.905 146.705 231.183 146.918C231.462 147.128 231.803 147.233 232.206 147.233C232.626 147.233 232.977 147.122 233.259 146.901C233.543 146.676 233.756 146.375 233.898 145.997C234.043 145.616 234.115 145.193 234.115 144.727C234.115 144.267 234.044 143.852 233.902 143.483C233.763 143.111 233.551 142.817 233.267 142.601C232.986 142.382 232.632 142.273 232.206 142.273C231.797 142.273 231.453 142.376 231.175 142.584C230.896 142.788 230.686 143.075 230.544 143.445C230.402 143.811 230.331 144.239 230.331 144.727ZM237.661 139.273V148H236.655V139.273H237.661ZM239.502 148V141.455H240.508V148H239.502ZM240.014 140.364C239.818 140.364 239.649 140.297 239.507 140.163C239.368 140.03 239.298 139.869 239.298 139.682C239.298 139.494 239.368 139.334 239.507 139.2C239.649 139.067 239.818 139 240.014 139C240.21 139 240.377 139.067 240.517 139.2C240.659 139.334 240.73 139.494 240.73 139.682C240.73 139.869 240.659 140.03 240.517 140.163C240.377 140.297 240.21 140.364 240.014 140.364ZM245.009 148.136C244.396 148.136 243.867 147.991 243.424 147.702C242.981 147.412 242.64 147.013 242.401 146.504C242.163 145.996 242.043 145.415 242.043 144.761C242.043 144.097 242.165 143.51 242.41 143.001C242.657 142.49 243.001 142.091 243.441 141.804C243.884 141.514 244.401 141.369 244.992 141.369C245.452 141.369 245.867 141.455 246.237 141.625C246.606 141.795 246.908 142.034 247.144 142.341C247.38 142.648 247.526 143.006 247.583 143.415H246.577C246.501 143.116 246.33 142.852 246.066 142.622C245.805 142.389 245.452 142.273 245.009 142.273C244.617 142.273 244.273 142.375 243.978 142.58C243.685 142.781 243.457 143.067 243.292 143.436C243.13 143.803 243.049 144.233 243.049 144.727C243.049 145.233 243.129 145.673 243.288 146.048C243.45 146.423 243.677 146.714 243.969 146.922C244.265 147.129 244.612 147.233 245.009 147.233C245.271 147.233 245.508 147.188 245.721 147.097C245.934 147.006 246.114 146.875 246.262 146.705C246.41 146.534 246.515 146.33 246.577 146.091H247.583C247.526 146.477 247.386 146.825 247.161 147.135C246.94 147.442 246.646 147.686 246.279 147.868C245.915 148.047 245.492 148.136 245.009 148.136ZM250.979 148.153C250.565 148.153 250.188 148.075 249.85 147.919C249.512 147.76 249.244 147.531 249.045 147.233C248.846 146.932 248.746 146.568 248.746 146.142C248.746 145.767 248.82 145.463 248.968 145.23C249.116 144.994 249.313 144.81 249.56 144.676C249.808 144.543 250.08 144.443 250.379 144.378C250.68 144.31 250.982 144.256 251.286 144.216C251.684 144.165 252.006 144.126 252.254 144.101C252.504 144.072 252.685 144.026 252.799 143.96C252.915 143.895 252.974 143.781 252.974 143.619V143.585C252.974 143.165 252.859 142.838 252.629 142.605C252.401 142.372 252.056 142.256 251.593 142.256C251.113 142.256 250.737 142.361 250.464 142.571C250.191 142.781 249.999 143.006 249.888 143.244L248.934 142.903C249.104 142.506 249.332 142.196 249.616 141.974C249.903 141.75 250.215 141.594 250.553 141.506C250.894 141.415 251.229 141.369 251.559 141.369C251.769 141.369 252.011 141.395 252.283 141.446C252.559 141.494 252.825 141.595 253.08 141.749C253.339 141.902 253.553 142.134 253.724 142.443C253.894 142.753 253.979 143.168 253.979 143.688V148H252.974V147.114H252.923C252.854 147.256 252.741 147.408 252.582 147.57C252.423 147.732 252.211 147.869 251.947 147.983C251.683 148.097 251.36 148.153 250.979 148.153ZM251.133 147.25C251.531 147.25 251.866 147.172 252.138 147.016C252.414 146.859 252.621 146.658 252.761 146.411C252.903 146.163 252.974 145.903 252.974 145.631V144.71C252.931 144.761 252.837 144.808 252.692 144.851C252.55 144.891 252.386 144.926 252.198 144.957C252.013 144.986 251.833 145.011 251.657 145.034C251.484 145.054 251.343 145.071 251.235 145.085C250.974 145.119 250.729 145.175 250.502 145.251C250.278 145.325 250.096 145.437 249.957 145.588C249.82 145.736 249.752 145.937 249.752 146.193C249.752 146.543 249.881 146.807 250.14 146.986C250.401 147.162 250.732 147.25 251.133 147.25ZM258.662 141.455V142.307H255.27V141.455H258.662ZM256.258 139.886H257.264V146.125C257.264 146.409 257.305 146.622 257.387 146.764C257.473 146.903 257.581 146.997 257.711 147.045C257.845 147.091 257.985 147.114 258.133 147.114C258.244 147.114 258.335 147.108 258.406 147.097C258.477 147.082 258.534 147.071 258.576 147.062L258.781 147.966C258.713 147.991 258.618 148.017 258.495 148.043C258.373 148.071 258.218 148.085 258.031 148.085C257.747 148.085 257.468 148.024 257.196 147.902C256.926 147.78 256.701 147.594 256.522 147.344C256.346 147.094 256.258 146.778 256.258 146.398V139.886ZM260.174 148V141.455H261.18V148H260.174ZM260.686 140.364C260.49 140.364 260.321 140.297 260.179 140.163C260.039 140.03 259.97 139.869 259.97 139.682C259.97 139.494 260.039 139.334 260.179 139.2C260.321 139.067 260.49 139 260.686 139C260.882 139 261.049 139.067 261.189 139.2C261.331 139.334 261.402 139.494 261.402 139.682C261.402 139.869 261.331 140.03 261.189 140.163C261.049 140.297 260.882 140.364 260.686 140.364ZM265.681 148.136C265.09 148.136 264.572 147.996 264.126 147.714C263.683 147.433 263.336 147.04 263.086 146.534C262.839 146.028 262.715 145.437 262.715 144.761C262.715 144.08 262.839 143.484 263.086 142.976C263.336 142.467 263.683 142.072 264.126 141.791C264.572 141.51 265.09 141.369 265.681 141.369C266.272 141.369 266.789 141.51 267.232 141.791C267.678 142.072 268.025 142.467 268.272 142.976C268.522 143.484 268.647 144.08 268.647 144.761C268.647 145.437 268.522 146.028 268.272 146.534C268.025 147.04 267.678 147.433 267.232 147.714C266.789 147.996 266.272 148.136 265.681 148.136ZM265.681 147.233C266.13 147.233 266.499 147.118 266.789 146.888C267.079 146.658 267.293 146.355 267.433 145.98C267.572 145.605 267.641 145.199 267.641 144.761C267.641 144.324 267.572 143.916 267.433 143.538C267.293 143.161 267.079 142.855 266.789 142.622C266.499 142.389 266.13 142.273 265.681 142.273C265.232 142.273 264.863 142.389 264.573 142.622C264.283 142.855 264.069 143.161 263.93 143.538C263.79 143.916 263.721 144.324 263.721 144.761C263.721 145.199 263.79 145.605 263.93 145.98C264.069 146.355 264.283 146.658 264.573 146.888C264.863 147.118 265.232 147.233 265.681 147.233ZM271.188 144.062V148H270.182V141.455H271.154V142.477H271.239C271.392 142.145 271.625 141.878 271.938 141.676C272.25 141.472 272.654 141.369 273.148 141.369C273.591 141.369 273.979 141.46 274.311 141.642C274.644 141.821 274.902 142.094 275.087 142.46C275.272 142.824 275.364 143.284 275.364 143.841V148H274.358V143.909C274.358 143.395 274.225 142.994 273.958 142.707C273.691 142.418 273.324 142.273 272.858 142.273C272.537 142.273 272.25 142.342 271.998 142.482C271.748 142.621 271.55 142.824 271.405 143.091C271.26 143.358 271.188 143.682 271.188 144.062ZM283.048 148.136C282.503 148.136 282.021 147.999 281.604 147.723C281.186 147.445 280.859 147.053 280.624 146.547C280.388 146.038 280.27 145.438 280.27 144.744C280.27 144.057 280.388 143.46 280.624 142.955C280.859 142.449 281.188 142.058 281.608 141.783C282.028 141.507 282.514 141.369 283.065 141.369C283.491 141.369 283.828 141.44 284.075 141.582C284.325 141.722 284.516 141.881 284.646 142.06C284.78 142.236 284.884 142.381 284.957 142.494H285.043V139.273H286.048V148H285.077V146.994H284.957C284.884 147.114 284.778 147.264 284.642 147.446C284.506 147.625 284.311 147.786 284.058 147.928C283.805 148.067 283.469 148.136 283.048 148.136ZM283.185 147.233C283.588 147.233 283.929 147.128 284.207 146.918C284.486 146.705 284.697 146.411 284.842 146.036C284.987 145.658 285.06 145.222 285.06 144.727C285.06 144.239 284.989 143.811 284.847 143.445C284.705 143.075 284.494 142.788 284.216 142.584C283.938 142.376 283.594 142.273 283.185 142.273C282.759 142.273 282.403 142.382 282.119 142.601C281.838 142.817 281.626 143.111 281.484 143.483C281.345 143.852 281.276 144.267 281.276 144.727C281.276 145.193 281.347 145.616 281.489 145.997C281.634 146.375 281.847 146.676 282.128 146.901C282.412 147.122 282.764 147.233 283.185 147.233ZM289.956 148.153C289.541 148.153 289.165 148.075 288.827 147.919C288.489 147.76 288.22 147.531 288.021 147.233C287.822 146.932 287.723 146.568 287.723 146.142C287.723 145.767 287.797 145.463 287.945 145.23C288.092 144.994 288.29 144.81 288.537 144.676C288.784 144.543 289.057 144.443 289.355 144.378C289.656 144.31 289.959 144.256 290.263 144.216C290.661 144.165 290.983 144.126 291.23 144.101C291.48 144.072 291.662 144.026 291.776 143.96C291.892 143.895 291.95 143.781 291.95 143.619V143.585C291.95 143.165 291.835 142.838 291.605 142.605C291.378 142.372 291.033 142.256 290.57 142.256C290.089 142.256 289.713 142.361 289.44 142.571C289.168 142.781 288.976 143.006 288.865 143.244L287.911 142.903C288.081 142.506 288.308 142.196 288.592 141.974C288.879 141.75 289.192 141.594 289.53 141.506C289.871 141.415 290.206 141.369 290.536 141.369C290.746 141.369 290.987 141.395 291.26 141.446C291.536 141.494 291.801 141.595 292.057 141.749C292.315 141.902 292.53 142.134 292.7 142.443C292.871 142.753 292.956 143.168 292.956 143.688V148H291.95V147.114H291.899C291.831 147.256 291.717 147.408 291.558 147.57C291.399 147.732 291.188 147.869 290.923 147.983C290.659 148.097 290.337 148.153 289.956 148.153ZM290.109 147.25C290.507 147.25 290.842 147.172 291.115 147.016C291.391 146.859 291.598 146.658 291.737 146.411C291.879 146.163 291.95 145.903 291.95 145.631V144.71C291.908 144.761 291.814 144.808 291.669 144.851C291.527 144.891 291.362 144.926 291.175 144.957C290.99 144.986 290.81 145.011 290.634 145.034C290.46 145.054 290.32 145.071 290.212 145.085C289.95 145.119 289.706 145.175 289.479 145.251C289.254 145.325 289.072 145.437 288.933 145.588C288.797 145.736 288.729 145.937 288.729 146.193C288.729 146.543 288.858 146.807 289.116 146.986C289.378 147.162 289.709 147.25 290.109 147.25ZM297.638 141.455V142.307H294.246V141.455H297.638ZM295.235 139.886H296.24V146.125C296.24 146.409 296.282 146.622 296.364 146.764C296.449 146.903 296.557 146.997 296.688 147.045C296.821 147.091 296.962 147.114 297.11 147.114C297.221 147.114 297.311 147.108 297.382 147.097C297.453 147.082 297.51 147.071 297.553 147.062L297.757 147.966C297.689 147.991 297.594 148.017 297.472 148.043C297.35 148.071 297.195 148.085 297.007 148.085C296.723 148.085 296.445 148.024 296.172 147.902C295.902 147.78 295.678 147.594 295.499 147.344C295.323 147.094 295.235 146.778 295.235 146.398V139.886ZM301.077 148.153C300.662 148.153 300.286 148.075 299.948 147.919C299.61 147.76 299.341 147.531 299.142 147.233C298.944 146.932 298.844 146.568 298.844 146.142C298.844 145.767 298.918 145.463 299.066 145.23C299.213 144.994 299.411 144.81 299.658 144.676C299.905 144.543 300.178 144.443 300.476 144.378C300.777 144.31 301.08 144.256 301.384 144.216C301.782 144.165 302.104 144.126 302.351 144.101C302.601 144.072 302.783 144.026 302.897 143.96C303.013 143.895 303.071 143.781 303.071 143.619V143.585C303.071 143.165 302.956 142.838 302.726 142.605C302.499 142.372 302.154 142.256 301.691 142.256C301.211 142.256 300.834 142.361 300.561 142.571C300.289 142.781 300.097 143.006 299.986 143.244L299.032 142.903C299.202 142.506 299.429 142.196 299.713 141.974C300 141.75 300.313 141.594 300.651 141.506C300.992 141.415 301.327 141.369 301.657 141.369C301.867 141.369 302.108 141.395 302.381 141.446C302.657 141.494 302.922 141.595 303.178 141.749C303.436 141.902 303.651 142.134 303.821 142.443C303.992 142.753 304.077 143.168 304.077 143.688V148H303.071V147.114H303.02C302.952 147.256 302.838 147.408 302.679 147.57C302.52 147.732 302.309 147.869 302.044 147.983C301.78 148.097 301.458 148.153 301.077 148.153ZM301.23 147.25C301.628 147.25 301.963 147.172 302.236 147.016C302.512 146.859 302.719 146.658 302.858 146.411C303 146.163 303.071 145.903 303.071 145.631V144.71C303.029 144.761 302.935 144.808 302.79 144.851C302.648 144.891 302.483 144.926 302.296 144.957C302.111 144.986 301.931 145.011 301.755 145.034C301.581 145.054 301.441 145.071 301.333 145.085C301.071 145.119 300.827 145.175 300.6 145.251C300.375 145.325 300.194 145.437 300.054 145.588C299.918 145.736 299.85 145.937 299.85 146.193C299.85 146.543 299.979 146.807 300.238 146.986C300.499 147.162 300.83 147.25 301.23 147.25Z" fill="black"/>
</svg>
